<?xml version="1.0" encoding="UTF-8" standalone="no"?>
<svg
   xmlns:dc="http://purl.org/dc/elements/1.1/"
   xmlns:cc="http://creativecommons.org/ns#"
   xmlns:rdf="http://www.w3.org/1999/02/22-rdf-syntax-ns#"
   xmlns:svg="http://www.w3.org/2000/svg"
   xmlns="http://www.w3.org/2000/svg"
   width="83.038879mm"
   height="100mm"
   viewBox="0 0 83.038879 100"
   version="1.1"
   id="svg7009">
  <defs
     id="defs7003" />
  <metadata
     id="metadata7006">
    <rdf:RDF>
      <cc:Work
         rdf:about="">
        <dc:format>image/svg+xml</dc:format>
        <dc:type
           rdf:resource="http://purl.org/dc/dcmitype/StillImage" />
        <dc:title></dc:title>
      </cc:Work>
    </rdf:RDF>
  </metadata>
  <rect
     style="fill:#013c5c;fill-opacity:1;stroke-width:0.25667825"
     y="-1.979831e-05"
     x="3.0719223e-06"
     height="99.999985"
     width="10.953989"
     id="rect6913-6" />
  <rect
     style="fill:#ff5722;fill-opacity:1;stroke-width:0.67124009"
     y="-1.979831e-05"
     x="8.12712"
     height="100"
     width="74.911736"
     id="rect6907-7" />
  <rect
     id="rect6911-5"
     width="37.455868"
     height="99.999985"
     x="45.582951"
     y="-1.979831e-05"
     style="fill:#d84315;fill-opacity:1;stroke-width:0.47463837" />
  <path
     id="path6938-2"
     d="m 79.411461,61.218954 -11.653852,20.184135 -3.187137,-5.519824 -2.608763,4.517733 -5.871803,-10.171446 -7.726927,13.383395 -3.90212,6.757955 -3.824805,-6.625439 -5.737881,9.938153 -3.646784,6.316263 H 83.038882 V 67.502092 Z"
     style="fill:#ffffff;fill-opacity:0.34649126;stroke-width:0.7067138" />
  <g
     id="text6958"
     style="font-style:normal;font-weight:normal;font-size:32.71534729px;line-height:125%;font-family:sans-serif;letter-spacing:0px;word-spacing:0px;fill:#ffffff;fill-opacity:1;stroke:none;stroke-width:0.81788373px;stroke-linecap:butt;stroke-linejoin:miter;stroke-opacity:1"
     aria-label="PDF">
    <path
       id="path6599"
       style="font-style:normal;font-variant:normal;font-weight:bold;font-stretch:normal;font-family:sans-serif;-inkscape-font-specification:'sans-serif Bold';fill:#ffffff;stroke-width:0.81788373px"
       d="m 11.725473,17.834287 h 10.207572 q 4.552672,0 6.980765,2.028735 2.444066,2.01276 2.444066,5.750744 0,3.753959 -2.444066,5.782694 -2.428093,2.01276 -6.980765,2.01276 h -4.05747 v 8.274683 h -6.150102 z m 6.150102,4.456827 v 6.661279 h 3.402524 q 1.78912,0 2.763552,-0.862612 0.974432,-0.878586 0.974432,-2.476015 0,-1.597429 -0.974432,-2.46004 -0.974432,-0.862612 -2.763552,-0.862612 z" />
    <path
       id="path6601"
       style="font-style:normal;font-variant:normal;font-weight:bold;font-stretch:normal;font-family:sans-serif;-inkscape-font-specification:'sans-serif Bold';fill:#ffffff;stroke-width:0.81788373px"
       d="m 41.83701,22.482805 v 14.552579 h 2.204452 q 3.769933,0 5.750745,-1.868992 1.996786,-1.868992 1.996786,-5.431259 0,-3.546292 -1.980812,-5.39931 -1.980812,-1.853018 -5.766719,-1.853018 z m -6.150102,-4.648518 h 6.485562 q 5.431259,0 8.082991,0.78274 2.667707,0.766766 4.568647,2.619784 1.677301,1.613403 2.49199,3.722009 0.814689,2.108607 0.814689,4.776313 0,2.699655 -0.814689,4.824236 -0.814689,2.108606 -2.49199,3.72201 -1.916914,1.853018 -4.600595,2.635758 -2.683681,0.766766 -8.051043,0.766766 h -6.485562 z" />
    <path
       id="path6603"
       style="font-style:normal;font-variant:normal;font-weight:bold;font-stretch:normal;font-family:sans-serif;-inkscape-font-specification:'sans-serif Bold';fill:#ffffff;stroke-width:0.81788373px"
       d="M 62.843202,17.834287 H 79.44049 v 4.648518 H 68.993304 v 4.440853 h 9.824189 v 4.648519 h -9.824189 v 10.111726 h -6.150102 z" />
  </g>
</svg>
