<?xml version="1.0" encoding="UTF-8" standalone="no"?>
<!-- Created with Inkscape (http://www.inkscape.org/) -->

<svg
   width="210mm"
   height="297mm"
   viewBox="0 0 210 297"
   version="1.1"
   id="svg1"
   xmlns="http://www.w3.org/2000/svg"
   xmlns:svg="http://www.w3.org/2000/svg">
  <defs
     id="defs1" />
  <g
     id="layer1">
    <g
       id="g1">
      <rect
         style="font-variation-settings:'wght' 700;fill:#ffffff;stroke:#666666;stroke-width:2;stroke-dasharray:none"
         id="rect64"
         width="210"
         height="297"
         x="1.5527344e-06"
         y="-1.5527344e-06" />
      <path
         d="m 176.32027,272.7844 h 2.36594 v 2.36599 h -2.36594 v -2.36599 m 9.46388,-7.09794 h 2.366 v 4.73199 h -2.366 v -4.73199 m -2.36595,7.09794 h 4.73195 v 4.73199 h -2.366 v -2.366 h -2.36595 v -2.36599 m 7.09793,0 h 2.36596 v 2.36599 h 2.366 v -2.36599 h 2.36599 v 2.36599 h -2.36599 v 2.366 h 2.36599 v 4.73194 h -2.36599 v 2.36599 h -2.366 v -2.36599 h -4.73194 v 2.36599 h -2.366 v -4.73199 h 4.73198 v -2.36594 h 2.36596 v -2.366 h -2.36596 v -2.36599 m 4.73196,9.46393 v -4.73194 h -2.366 v 4.73194 h 2.366 m -4.73196,-18.92782 h 7.09795 v 7.09794 h -7.09795 v -7.09794 m 2.36596,2.36595 v 2.36599 h 2.366 v -2.36599 h -2.366 m -16.56182,-2.36595 h 7.09793 v 7.09794 h -7.09793 v -7.09794 m 2.36594,2.36595 v 2.36599 h 2.366 v -2.36599 h -2.366 m -2.36594,11.82993 h 7.09793 v 7.09793 h -7.09793 v -7.09793 m 2.36594,2.36594 v 2.366 h 2.366 v -2.366 z"
         id="path64"
         style="fill:#808080;fill-opacity:1;stroke-width:1.18298" />
      <circle
         style="font-variation-settings:'wght' 700;fill:#808080;stroke:none;stroke-width:2.77206;stroke-dasharray:none"
         id="circle64"
         cx="23.032869"
         cy="273.96719"
         r="10.646907" />
      <g
         id="g66"
         transform="translate(1e-5,1.16083)">
        <rect
           style="font-variation-settings:'wght' 700;fill:#808080;fill-opacity:1;stroke:none;stroke-width:2.63742;stroke-dasharray:none"
           id="rect65"
           width="78.514359"
           height="7.2256813"
           x="65.742821"
           y="264.96033"
           ry="0.92359698" />
        <rect
           style="font-variation-settings:'wght' 700;fill:#808080;fill-opacity:1;stroke:none;stroke-width:1.72348;stroke-dasharray:none"
           id="rect66"
           width="53.783062"
           height="4.5043983"
           x="78.108467"
           y="276.14832"
           ry="0.5757587" />
      </g>
      <circle
         style="font-variation-settings:'wght' 700;fill:#6200ea;fill-opacity:1;stroke:none;stroke-width:2.77206;stroke-dasharray:none"
         id="circle66"
         cx="29.696932"
         cy="31.09857"
         r="10.646907" />
      <rect
         style="font-variation-settings:'wght' 700;fill:#6200ea;fill-opacity:1;stroke:none;stroke-width:2.63742;stroke-dasharray:none"
         id="rect67"
         width="10.371567"
         height="13.095944"
         x="47.858154"
         y="24.550596"
         ry="0.92359698" />
      <rect
         style="font-variation-settings:'wght' 700;fill:none;fill-opacity:1;stroke:#6200ea;stroke-width:1.97836;stroke-dasharray:none;stroke-opacity:1"
         id="rect68"
         width="183.22441"
         height="35.44643"
         x="13.400423"
         y="13.375364"
         ry="0.91360646" />
      <g
         id="g71"
         transform="translate(1e-5,-68.20372)"
         style="fill:#6200ea;fill-opacity:1">
        <rect
           style="font-variation-settings:'wght' 700;fill:#6200ea;fill-opacity:1;stroke:none;stroke-width:1.72348;stroke-dasharray:none"
           id="rect69"
           width="53.783062"
           height="4.5043983"
           x="67.630203"
           y="90.435501"
           ry="0.5757587" />
        <rect
           style="font-variation-settings:'wght' 700;fill:#6200ea;fill-opacity:1;stroke:none;stroke-width:1.52327;stroke-dasharray:none"
           id="rect70"
           width="30.205257"
           height="3.5186749"
           x="67.630203"
           y="98.829559"
           ry="0.44976172" />
        <rect
           style="font-variation-settings:'wght' 700;fill:#6200ea;fill-opacity:1;stroke:none;stroke-width:1.52327;stroke-dasharray:none"
           id="rect71"
           width="36.436108"
           height="3.5186768"
           x="67.630203"
           y="104.65039"
           ry="0.44976172" />
      </g>
      <path
         id="text141"
         style="font-size:161.081px;font-family:'Readex Pro';-inkscape-font-specification:'Readex Pro, @wght=700';font-variation-settings:'wght' 700;fill:#6200ea;stroke-width:84.6835"
         d="M 101.77828 91.31639 L 69.562162 107.10199 L 74.394425 131.42557 L 92.274471 123.02557 L 92.274471 181.36051 L 71.817322 181.36051 L 71.817322 205.68357 L 140.43794 205.68357 L 140.43794 181.36051 L 119.33639 181.36051 L 119.33639 91.31639 L 101.77828 91.31639 z " />
    </g>
  </g>
</svg>
