<?xml version="1.0" encoding="UTF-8" standalone="no"?>
<!-- Created with Inkscape (http://www.inkscape.org/) -->

<svg
   width="210mm"
   height="297mm"
   viewBox="0 0 210 297"
   version="1.1"
   id="svg1"
   xmlns="http://www.w3.org/2000/svg"
   xmlns:svg="http://www.w3.org/2000/svg">
  <defs
     id="defs1" />
  <g
     id="layer1">
    <g
       id="g147"
       transform="translate(-492.12463,-349.24991)">
      <rect
         style="font-variation-settings:'wght' 700;fill:#ffffff;stroke:#666666;stroke-width:2;stroke-dasharray:none"
         id="rect78"
         width="210"
         height="297"
         x="492.12463"
         y="349.24991" />
      <path
         d="m 668.44551,622.03431 h 2.36594 v 2.36599 h -2.36594 v -2.36599 m 9.46388,-7.09794 h 2.366 v 4.73199 h -2.366 v -4.73199 m -2.36595,7.09794 h 4.73195 v 4.73199 h -2.366 v -2.366 h -2.36595 v -2.36599 m 7.09793,0 h 2.36596 v 2.36599 h 2.366 v -2.36599 h 2.36599 v 2.36599 h -2.36599 v 2.366 h 2.36599 v 4.73194 h -2.36599 v 2.36599 h -2.366 v -2.36599 h -4.73194 v 2.36599 h -2.366 v -4.73199 h 4.73198 v -2.36594 h 2.36596 v -2.366 h -2.36596 v -2.36599 m 4.73196,9.46393 v -4.73194 h -2.366 v 4.73194 h 2.366 m -4.73196,-18.92782 h 7.09795 v 7.09794 h -7.09795 v -7.09794 m 2.36596,2.36595 v 2.36599 h 2.366 v -2.36599 h -2.366 m -16.56182,-2.36595 h 7.09793 v 7.09794 h -7.09793 v -7.09794 m 2.36594,2.36595 v 2.36599 h 2.366 v -2.36599 h -2.366 m -2.36594,11.82993 h 7.09793 v 7.09793 h -7.09793 v -7.09793 m 2.36594,2.36594 v 2.366 h 2.366 v -2.366 z"
         id="path78"
         style="fill:#808080;fill-opacity:1;stroke-width:1.18298" />
      <circle
         style="font-variation-settings:'wght' 700;fill:#808080;stroke:none;stroke-width:2.77206;stroke-dasharray:none"
         id="circle78"
         cx="515.15753"
         cy="623.2171"
         r="10.646907" />
      <g
         id="g80"
         transform="translate(492.12525,350.41074)">
        <rect
           style="font-variation-settings:'wght' 700;fill:#808080;fill-opacity:1;stroke:none;stroke-width:2.63742;stroke-dasharray:none"
           id="rect79"
           width="78.514359"
           height="7.2256813"
           x="65.742821"
           y="264.96033"
           ry="0.92359698" />
        <rect
           style="font-variation-settings:'wght' 700;fill:#808080;fill-opacity:1;stroke:none;stroke-width:1.72348;stroke-dasharray:none"
           id="rect80"
           width="53.783062"
           height="4.5043983"
           x="78.108467"
           y="276.14832"
           ry="0.5757587" />
      </g>
      <g
         id="g85"
         transform="translate(492.12525,281.04619)"
         style="fill:#6200ea;fill-opacity:1">
        <g
           id="g87">
          <circle
             style="font-variation-settings:'wght' 700;fill:#6200ea;fill-opacity:1;stroke:none;stroke-width:2.77206;stroke-dasharray:none"
             id="circle80"
             cx="521.82159"
             cy="380.34848"
             r="10.646907"
             transform="translate(-492.12525,-281.04619)" />
          <rect
             style="font-variation-settings:'wght' 700;fill:#6200ea;fill-opacity:1;stroke:none;stroke-width:2.63742;stroke-dasharray:none"
             id="rect81"
             width="10.371567"
             height="13.095944"
             x="539.98297"
             y="373.80051"
             ry="0.92359698"
             transform="translate(-492.12525,-281.04619)" />
          <rect
             style="font-variation-settings:'wght' 700;fill:none;fill-opacity:1;stroke:#6200ea;stroke-width:1.97836;stroke-dasharray:none;stroke-opacity:1"
             id="rect82"
             width="86.068001"
             height="35.446442"
             x="505.52505"
             y="362.62527"
             ry="0.91360646"
             transform="translate(-492.12525,-281.04619)" />
          <rect
             style="font-variation-settings:'wght' 700;fill:#6200ea;fill-opacity:1;stroke:none;stroke-width:1.72348;stroke-dasharray:none"
             id="rect83"
             width="26.692572"
             height="4.5043945"
             x="67.630203"
             y="90.435501"
             ry="0.5757587" />
          <rect
             style="font-variation-settings:'wght' 700;fill:#6200ea;fill-opacity:1;stroke:none;stroke-width:1.52327;stroke-dasharray:none"
             id="rect84"
             width="18.218054"
             height="3.5186768"
             x="67.630203"
             y="98.829559"
             ry="0.44976172" />
          <rect
             style="font-variation-settings:'wght' 700;fill:#6200ea;fill-opacity:1;stroke:none;stroke-width:1.52327;stroke-dasharray:none"
             id="rect85"
             width="21.61721"
             height="3.5186768"
             x="67.630203"
             y="104.65039"
             ry="0.44976172" />
        </g>
        <g
           id="g91"
           transform="translate(97.156194)">
          <circle
             style="font-variation-settings:'wght' 700;fill:#6200ea;fill-opacity:1;stroke:none;stroke-width:2.77206;stroke-dasharray:none"
             id="circle87"
             cx="521.82159"
             cy="380.34848"
             r="10.646907"
             transform="translate(-492.12525,-281.04619)" />
          <rect
             style="font-variation-settings:'wght' 700;fill:#6200ea;fill-opacity:1;stroke:none;stroke-width:2.63742;stroke-dasharray:none"
             id="rect87"
             width="10.371567"
             height="13.095944"
             x="539.98297"
             y="373.80051"
             ry="0.92359698"
             transform="translate(-492.12525,-281.04619)" />
          <rect
             style="font-variation-settings:'wght' 700;fill:none;fill-opacity:1;stroke:#6200ea;stroke-width:1.97836;stroke-dasharray:none;stroke-opacity:1"
             id="rect88"
             width="86.068001"
             height="35.446442"
             x="505.52505"
             y="362.62527"
             ry="0.91360646"
             transform="translate(-492.12525,-281.04619)" />
          <rect
             style="font-variation-settings:'wght' 700;fill:#6200ea;fill-opacity:1;stroke:none;stroke-width:1.72348;stroke-dasharray:none"
             id="rect89"
             width="26.692572"
             height="4.5043945"
             x="67.630203"
             y="90.435501"
             ry="0.5757587" />
          <rect
             style="font-variation-settings:'wght' 700;fill:#6200ea;fill-opacity:1;stroke:none;stroke-width:1.52327;stroke-dasharray:none"
             id="rect90"
             width="18.218054"
             height="3.5186768"
             x="67.630203"
             y="98.829559"
             ry="0.44976172" />
          <rect
             style="font-variation-settings:'wght' 700;fill:#6200ea;fill-opacity:1;stroke:none;stroke-width:1.52327;stroke-dasharray:none"
             id="rect91"
             width="21.61721"
             height="3.5186768"
             x="67.630203"
             y="104.65039"
             ry="0.44976172" />
        </g>
      </g>
      <path
         id="text142"
         style="font-size:161.081px;font-family:'Readex Pro';-inkscape-font-specification:'Readex Pro, @wght=700';font-variation-settings:'wght' 700;fill:#6200ea;stroke-width:84.6835"
         d="m 597.92991,439.59952 c -6.33585,-0.10738 -12.29591,1.18123 -17.88004,3.86592 -5.58414,2.68468 -10.46992,6.38952 -14.65802,11.11456 -4.08072,4.72504 -7.24869,10.20207 -9.50382,16.43053 l 20.29592,11.27579 c 1.71819,-3.86594 3.5437,-7.0339 5.47667,-9.50381 2.04036,-2.5773 4.1884,-4.51048 6.44353,-5.79913 2.25514,-1.28864 4.56368,-1.9327 6.9262,-1.9327 2.79207,0 5.04728,0.48304 6.76548,1.44953 1.82557,0.8591 3.16804,2.09388 4.02714,3.70468 0.96649,1.61081 1.44952,3.49016 1.44952,5.6379 0,2.04036 -0.64405,4.34942 -1.9327,6.92671 -1.18125,2.57729 -2.7919,5.2617 -4.83226,8.05377 -1.93297,2.68468 -3.97333,5.31576 -6.12107,7.89306 -2.14775,2.57729 -4.1881,4.88635 -6.12108,6.92671 l -32.37735,35.75957 5.47667,13.53096 h 76.99685 v -24.32306 h -41.59384 l 13.88752,-15.14172 c 4.18811,-4.61764 7.73194,-8.91322 10.6314,-12.88655 2.89945,-3.97332 5.20851,-7.67817 6.9267,-11.11456 1.82559,-3.54378 3.11421,-6.87276 3.86592,-9.98699 0.8591,-3.11423 1.28881,-6.12119 1.28881,-9.02064 0,-6.55062 -1.61116,-12.24198 -4.83278,-17.07441 -3.11423,-4.93981 -7.35596,-8.80568 -12.72532,-11.59774 -5.26198,-2.79207 -11.22204,-4.18838 -17.88005,-4.18838 z" />
    </g>
  </g>
</svg>
