<?xml version="1.0" encoding="UTF-8" standalone="no"?>
<svg
   xmlns:dc="http://purl.org/dc/elements/1.1/"
   xmlns:cc="http://creativecommons.org/ns#"
   xmlns:rdf="http://www.w3.org/1999/02/22-rdf-syntax-ns#"
   xmlns:svg="http://www.w3.org/2000/svg"
   xmlns="http://www.w3.org/2000/svg"
   version="1.1"
   id="svg8487"
   viewBox="0 0 275.45085 438.92949"
   height="123.87566mm"
   width="77.73835mm">
  <defs
     id="defs8489" />
  <metadata
     id="metadata8492">
    <rdf:RDF>
      <cc:Work
         rdf:about="">
        <dc:format>image/svg+xml</dc:format>
        <dc:type
           rdf:resource="http://purl.org/dc/dcmitype/StillImage" />
        <dc:title></dc:title>
      </cc:Work>
    </rdf:RDF>
  </metadata>
  <g
     transform="translate(-78.131016,-56.468899)"
     id="layer1">
    <g
       id="g8402"
       transform="matrix(1.1042226,0,0,1.1042226,-373.70329,-550.82227)">
      <path
         style="color:#000000;font-style:normal;font-variant:normal;font-weight:normal;font-stretch:normal;font-size:medium;line-height:normal;font-family:sans-serif;text-indent:0;text-align:start;text-decoration:none;text-decoration-line:none;text-decoration-style:solid;text-decoration-color:#000000;letter-spacing:normal;word-spacing:normal;text-transform:none;direction:ltr;block-progression:tb;writing-mode:lr-tb;baseline-shift:baseline;text-anchor:start;white-space:normal;clip-rule:nonzero;display:inline;overflow:visible;visibility:visible;opacity:1;isolation:auto;mix-blend-mode:normal;color-interpolation:sRGB;color-interpolation-filters:linearRGB;solid-color:#000000;solid-opacity:1;fill:#999999;fill-opacity:1;fill-rule:evenodd;stroke:none;stroke-width:1.39999998;stroke-linecap:butt;stroke-linejoin:miter;stroke-miterlimit:4;stroke-dasharray:none;stroke-dashoffset:0;stroke-opacity:1;color-rendering:auto;image-rendering:auto;shape-rendering:auto;text-rendering:auto;enable-background:accumulate"
         d="m 530.82844,747.70613 -0.48438,1.29687 c 0.45741,0.0651 0.91704,0.0951 1.35547,0.28516 0.66771,0.28943 1.18756,0.71305 1.41016,1.17773 0.22259,0.46468 0.2541,1.01947 -0.27539,1.91992 l -1.33985,2.27735 1.11524,0.86914 1.43164,-2.43555 c 0.69359,-1.17952 0.76157,-2.33964 0.33203,-3.23633 -0.42954,-0.89669 -1.2494,-1.48126 -2.11719,-1.85742 -0.47127,-0.20428 -0.94458,-0.20775 -1.42773,-0.29687 z"
         id="path8360" />
      <path
         style="color:#000000;font-style:normal;font-variant:normal;font-weight:normal;font-stretch:normal;font-size:medium;line-height:normal;font-family:sans-serif;text-indent:0;text-align:start;text-decoration:none;text-decoration-line:none;text-decoration-style:solid;text-decoration-color:#000000;letter-spacing:normal;word-spacing:normal;text-transform:none;direction:ltr;block-progression:tb;writing-mode:lr-tb;baseline-shift:baseline;text-anchor:start;white-space:normal;clip-rule:nonzero;display:inline;overflow:visible;visibility:visible;opacity:1;isolation:auto;mix-blend-mode:normal;color-interpolation:sRGB;color-interpolation-filters:linearRGB;solid-color:#000000;solid-opacity:1;fill:#e33213;fill-opacity:1;fill-rule:evenodd;stroke:none;stroke-width:1.39999998;stroke-linecap:butt;stroke-linejoin:miter;stroke-miterlimit:4;stroke-dasharray:none;stroke-dashoffset:0;stroke-opacity:1;color-rendering:auto;image-rendering:auto;shape-rendering:auto;text-rendering:auto;enable-background:accumulate"
         d="m 553.32617,639.49414 c -0.49064,-0.0187 -1.02353,0.12074 -1.54883,0.46875 l -1.92382,1.27344 c -0.0647,0.0429 -0.0487,0.13821 -0.10547,0.1875 0.14289,0.13692 0.44552,0.44605 0.65234,0.64453 10e-4,-8.6e-4 6.7e-4,-0.003 0.002,-0.004 l 1.92383,-1.27343 c 0.73951,-0.48992 1.282,-0.35918 1.69336,-0.0391 l 0.006,0.004 8.5918,6.48828 0.95312,1.43945 c 0.12928,0.19514 0.25533,0.60986 0.24024,0.93946 -0.0151,0.32961 -0.10266,0.51319 -0.28321,0.63281 l -5.11132,3.38672 c -0.37596,0.24906 -0.54729,0.1395 -0.75782,0.0898 -0.01,0.53275 -0.009,0.58601 -0.0156,1.0957 0.40995,0.0254 0.84435,-0.0441 1.32031,-0.35937 l 5.11133,-3.38672 c 0.48876,-0.3238 0.70307,-0.86117 0.72851,-1.41601 0.0254,-0.55484 -0.13795,-1.12923 -0.40429,-1.53125 l -1.04688,-1.58204 -8.72461,-6.58007 c -0.36185,-0.2816 -0.81016,-0.45984 -1.30078,-0.47852 z"
         id="path7813" />
      <path
         style="color:#000000;font-style:normal;font-variant:normal;font-weight:normal;font-stretch:normal;font-size:medium;line-height:normal;font-family:sans-serif;text-indent:0;text-align:start;text-decoration:none;text-decoration-line:none;text-decoration-style:solid;text-decoration-color:#000000;letter-spacing:normal;word-spacing:normal;text-transform:none;direction:ltr;block-progression:tb;writing-mode:lr-tb;baseline-shift:baseline;text-anchor:start;white-space:normal;clip-rule:nonzero;display:inline;overflow:visible;visibility:visible;opacity:1;isolation:auto;mix-blend-mode:normal;color-interpolation:sRGB;color-interpolation-filters:linearRGB;solid-color:#000000;solid-opacity:1;fill:#ec4728;fill-opacity:1;fill-rule:evenodd;stroke:none;stroke-width:1.39999998;stroke-linecap:butt;stroke-linejoin:miter;stroke-miterlimit:4;stroke-dasharray:none;stroke-dashoffset:0;stroke-opacity:1;color-rendering:auto;image-rendering:auto;shape-rendering:auto;text-rendering:auto;enable-background:accumulate"
         d="m 553.35352,638.52148 c -0.70138,-0.0242 -1.44257,0.16441 -2.12305,0.61524 l -2.20313,1.57812 c 0.0625,0.0598 0.56317,0.55805 0.72071,0.70899 l 2.02929,-1.46094 c 0.5253,-0.34801 1.05819,-0.48742 1.54883,-0.46875 0.49062,0.0187 0.93893,0.19692 1.30078,0.47852 l 8.72461,6.58007 1.04688,1.58204 c 0.26634,0.40202 0.42973,0.97641 0.40429,1.53125 -0.0254,0.55484 -0.23975,1.09221 -0.72851,1.41601 l -5.11133,3.38672 c -0.47596,0.31531 -0.91036,0.38478 -1.32031,0.35937 -0.006,0.44339 -0.0124,0.56844 -0.0156,0.95313 0.6218,0.023 1.26983,-0.0815 1.88086,-0.48633 l 5.11328,-3.38672 0,-0.002 c 0.79695,-0.52797 1.13612,-1.41328 1.17188,-2.19336 0.0358,-0.78008 -0.16495,-1.51607 -0.56836,-2.125 l -1.14063,-1.72266 -8.84765,-6.67773 -0.002,-0.002 c -0.51805,-0.40253 -1.17949,-0.63989 -1.88086,-0.66407 z"
         id="path7815" />
      <path
         style="color:#000000;font-style:normal;font-variant:normal;font-weight:normal;font-stretch:normal;font-size:medium;line-height:normal;font-family:sans-serif;text-indent:0;text-align:start;text-decoration:none;text-decoration-line:none;text-decoration-style:solid;text-decoration-color:#000000;letter-spacing:normal;word-spacing:normal;text-transform:none;direction:ltr;block-progression:tb;writing-mode:lr-tb;baseline-shift:baseline;text-anchor:start;white-space:normal;clip-rule:nonzero;display:inline;overflow:visible;visibility:visible;opacity:1;isolation:auto;mix-blend-mode:normal;color-interpolation:sRGB;color-interpolation-filters:linearRGB;solid-color:#000000;solid-opacity:1;fill:#666666;fill-opacity:1;fill-rule:evenodd;stroke:none;stroke-width:1.39999998;stroke-linecap:butt;stroke-linejoin:miter;stroke-miterlimit:4;stroke-dasharray:none;stroke-dashoffset:0;stroke-opacity:1;color-rendering:auto;image-rendering:auto;shape-rendering:auto;text-rendering:auto;enable-background:accumulate"
         d="m 547.875,641.4668 c -0.34509,0.0937 -0.65951,0.25351 -0.90625,0.54882 -0.24674,0.29534 -0.36668,0.85615 -0.13672,1.26758 l 89.48633,160.10938 c 0.7605,1.36068 1.67616,0.86398 3.41483,0.94905 1.73868,0.0851 3.69848,-0.29459 5.46289,-1.03125 0.64978,-0.27128 1.22594,-0.64341 1.80079,-1.01172 -0.3292,-0.51034 -0.40931,-0.63501 -0.75782,-1.17383 -0.49746,0.32258 -0.99693,0.65025 -1.58203,0.89454 -1.57731,0.65853 -3.37717,0.99615 -4.85547,0.92382 -1.4783,-0.0723 -1.84654,0.50651 -2.26053,-0.23421 L 548.18945,642.84375 c 0.0262,-0.0121 0.0205,-0.0166 0.0527,-0.0254 0.24343,-0.0661 0.4804,-0.0479 0.63086,0.18359 l 92.1289,141.74805 0.96875,-1.08203 -91.92382,-141.42969 c -0.52381,-0.8059 -1.4817,-0.95881 -2.17188,-0.77148 z"
         id="path7871" />
      <path
         id="path7791"
         d="m 575.93531,791.47804 c -8.72863,-10.75026 -4.88338,-21.10269 -0.0759,-31.42467 5.08378,9.8163 6.6191,20.09459 0.0759,31.42467 z"
         style="fill:#591308;fill-opacity:1;fill-rule:evenodd;stroke:none;stroke-width:1px;stroke-linecap:butt;stroke-linejoin:miter;stroke-opacity:1" />
      <path
         id="path7795"
         d="m 571.40637,777.11359 33.40136,-0.57357 30.71968,27.14111 4.50582,-5.76024 -24.22852,-24.33712 c -2.489,-2.4756 -4.70618,-5.22363 -8.63201,-6.25909 l -36.73827,-2.10906 z"
         style="fill:#d38d5f;fill-opacity:1;fill-rule:evenodd;stroke:none;stroke-width:1px;stroke-linecap:butt;stroke-linejoin:miter;stroke-opacity:1" />
      <path
         id="path7879"
         d="m 655.27166,789.02463 c 0.0787,0.85414 0.2823,1.67587 0.10896,2.55474 -0.29303,1.48576 -0.99166,2.91988 -2.24154,4.02114 -1.13021,0.99573 -2.37961,1.65682 -3.62624,2.21883 -1.24664,0.56202 -2.49118,1.02574 -3.60345,1.63446 -1.99593,1.09234 -3.15659,2.04589 -3.89226,2.96679 -0.73564,0.92092 -1.04633,1.80985 -1.34506,2.77169 -0.52176,1.67991 -1.14127,2.72934 -1.82972,3.36239 -0.68845,0.63304 -1.44375,0.8488 -2.2337,0.86668 -1.0378,0.0235 -2.13307,-0.19177 -3.21588,-0.3681 0.47317,0.66718 1.13659,1.30444 2.08894,1.88809 2.35155,1.44113 5.24767,0.22149 6.16761,-3.01665 1.16877,-4.11409 3.94237,-7.28205 7.99895,-8.45072 2.53499,-0.73029 4.48211,-2.82599 6.88936,-5.08074 2.69998,-2.52904 2.98438,-5.61717 -0.23466,-5.56612 -0.36547,0.006 -0.67112,0.17586 -1.03128,0.1975 z"
         style="fill:#1a1a1a;fill-opacity:1;fill-rule:evenodd;stroke:none;stroke-width:1px;stroke-linecap:butt;stroke-linejoin:miter;stroke-opacity:1" />
      <path
         id="path7881"
         d="m 639.24946,794.33607 c -0.30312,5.07003 -1.79916,8.83294 -7.11171,8.41189 0.19092,1.98332 -0.17673,4.28611 1.25502,6.30529 1.08281,0.17633 2.17808,0.39157 3.21588,0.3681 0.78995,-0.0179 1.54525,-0.23364 2.2337,-0.86668 0.68845,-0.63305 1.30796,-1.68248 1.82972,-3.36239 0.29873,-0.96184 0.6094,-1.8508 1.34506,-2.77169 0.73564,-0.92092 1.89697,-1.87381 3.89226,-2.96679 1.11227,-0.60872 2.35681,-1.07244 3.60345,-1.63446 1.24663,-0.56201 2.49607,-1.22306 3.62624,-2.21883 1.24986,-1.10128 1.94851,-2.53538 2.24154,-4.02114 0.17334,-0.87887 -0.0302,-1.7006 -0.10896,-2.55474 -5.92681,0.35606 -11.2012,2.6429 -16.0222,5.31144 z"
         style="fill:#0059e1;fill-opacity:1;fill-rule:evenodd;stroke:none;stroke-width:1px;stroke-linecap:butt;stroke-linejoin:miter;stroke-opacity:1" />
      <path
         id="path7883"
         d="m 641.60885,792.67146 0.76403,3.4019 3.46253,-1.06202 -1.38815,-4.03017 z"
         style="fill:#4d4d4d;fill-rule:evenodd;stroke:none;stroke-width:1px;stroke-linecap:butt;stroke-linejoin:miter;stroke-opacity:1" />
      <path
         id="path7885"
         d="m 646.8046,790.48205 0.2984,-0.0586 3.13404,-0.91402 0.82249,3.75992 -2.9553,0.97424 z"
         style="fill:#4d4d4d;fill-rule:evenodd;stroke:none;stroke-width:1px;stroke-linecap:butt;stroke-linejoin:miter;stroke-opacity:1" />
      <path
         style="fill:#ffffff;fill-rule:evenodd;stroke:none;stroke-width:1px;stroke-linecap:butt;stroke-linejoin:miter;stroke-opacity:1"
         d="m 640.834,792.54961 0.76403,3.40191 3.46251,-1.06204 -1.38815,-4.03017 z"
         id="path7887" />
      <path
         style="fill:#ffffff;fill-rule:evenodd;stroke:none;stroke-width:1px;stroke-linecap:butt;stroke-linejoin:miter;stroke-opacity:1"
         d="m 646.02974,790.3602 0.29841,-0.0586 3.13402,-0.91403 0.82249,3.75992 -2.9553,0.97424 z"
         id="path7889" />
      <path
         id="path7891"
         d="m 632.7036,803.31934 -3.5996,-1.80417 c -0.73737,-0.36957 0.24305,-1.97095 0.80625,-1.51547 l 3.8483,3.11227 z"
         style="fill:#e33213;fill-opacity:1;fill-rule:evenodd;stroke:none;stroke-width:1px;stroke-linecap:butt;stroke-linejoin:miter;stroke-opacity:1" />
      <path
         id="path7893"
         d="m 635.93003,792.14642 c -0.63847,0.64491 -0.83333,1.82737 0.72629,2.07669 l 3.09806,0.49556 0.0832,0.0838 0.52895,-0.56701 -3.09192,-2.34806 c -0.41824,-0.31808 -0.96136,-0.12774 -1.34457,0.25907 z m 0.33009,0.37945 c 0.16816,-0.19928 0.42865,-0.28176 0.73595,-0.055 l 2.28267,1.68525 -2.87087,-0.55481 c -0.45343,-0.0875 -0.42798,-0.74325 -0.14775,-1.07547 z"
         style="fill:#e33213;fill-opacity:1;fill-rule:evenodd;stroke:none;stroke-width:1px;stroke-linecap:butt;stroke-linejoin:miter;stroke-opacity:1" />
      <path
         style="fill:#ec4728;fill-opacity:1;fill-rule:evenodd;stroke:none;stroke-width:1px;stroke-linecap:butt;stroke-linejoin:miter;stroke-opacity:1"
         d="m 531.39453,757.65625 -14.14453,15.54297 13.39453,8.62695 14.89649,2.81836 30.39453,6.83399 c -4.08328,-9.84582 -2.86437,-20.51476 -0.0762,-31.42579 l -28.34766,2.82813 -11.61914,-0.46484 -4.49805,-4.75977 z"
         id="path7873" />
      <path
         id="path7789"
         d="m 493.2508,695.70124 15.77666,-15.77738 21.05126,-36.673 0.0868,-7.57637 6.8229,-9.30696 c 1.62085,-2.21095 7.86309,1.62552 6.33504,6.79143 l -2.19539,7.68725 -3.64206,3.58044 c -7.68775,12.85576 -12.61006,29.58374 -19.81234,40.72027 l -16.82417,20.40031 z"
         style="fill:#d38d5f;fill-opacity:1;fill-rule:evenodd;stroke:none;stroke-width:1px;stroke-linecap:butt;stroke-linejoin:miter;stroke-opacity:1" />
      <path
         style="fill:#2a7fff;fill-opacity:1"
         d="m 548.1918,644.9407 c -1.10926,-0.0807 -1.56729,-0.21492 -2.61472,-0.76604 -0.73081,-0.38452 -0.7671,-0.39686 -0.92208,-0.31359 -0.41037,0.22051 -0.63318,0.1655 -1.49647,-0.36942 -0.2956,-0.18317 -0.91874,-0.5298 -1.38475,-0.77029 -1.84988,-0.95469 -3.13952,-1.97852 -4.31225,-3.42346 -1.48723,-1.83245 -2.26813,-3.46708 -3.17123,-6.63822 -0.61158,-2.1475 -0.95254,-3.01571 -1.83469,-4.67181 -0.2974,-0.55832 -0.60569,-1.19348 -0.6851,-1.41148 -0.21156,-0.58082 -0.43294,-1.74065 -0.42263,-2.21427 0.0137,-0.62832 0.0513,-0.76597 0.24043,-0.87983 0.16593,-0.0999 0.16793,-0.108 0.13916,-0.56351 -0.0758,-1.19947 0.25477,-2.70032 0.85113,-3.86457 0.11628,-0.22701 0.40539,-0.68523 0.64245,-1.01825 0.23707,-0.33302 0.45518,-0.70018 0.4847,-0.8159 0.1185,-0.46469 -0.0666,-0.90647 -0.5569,-1.32897 -0.15034,-0.12956 -0.30449,-0.29131 -0.34255,-0.35944 -0.056,-0.10025 0.0198,-0.53631 0.3972,-2.2856 0.71504,-3.31414 0.71547,-3.31585 0.86475,-3.3955 0.0779,-0.0416 0.14528,-0.14616 0.16891,-0.26223 0.0216,-0.1062 0.0984,-0.2553 0.17066,-0.33135 0.15551,-0.16372 0.23559,-0.35317 0.21535,-0.50948 -0.0159,-0.12408 0.30009,-0.57592 0.41476,-0.59279 0.12692,-0.0187 0.35404,-0.23547 0.39496,-0.377 0.0218,-0.0756 0.1384,-0.20128 0.25902,-0.2794 0.85379,-0.55292 1.25922,-0.77718 1.68429,-0.93163 0.26748,-0.0972 0.57642,-0.23412 0.68654,-0.30429 0.17674,-0.11263 0.40358,-0.1575 1.93469,-0.38275 2.73571,-0.40246 4.11746,-0.47887 5.88697,-0.32556 0.84244,0.073 1.05979,0.12966 1.08222,0.28213 0.009,0.0586 -0.01,0.35805 -0.0403,0.66548 -0.0308,0.30744 -0.0522,0.76094 -0.0476,1.00778 0.0102,0.54549 1.22329,9.66244 1.41324,10.62109 0.15969,0.80594 0.33105,1.30606 0.60554,1.76731 0.13123,0.22053 0.23027,0.47695 0.28782,0.74522 0.0803,0.37442 0.0763,0.4773 -0.0474,1.21688 -0.16851,1.007 -0.19533,1.61091 -0.10022,2.25666 0.0887,0.60222 0.21704,0.99925 0.80961,2.50457 1.55501,3.95026 3.17849,9.6659 3.68104,12.95951 0.14954,0.98009 0.15201,1.03504 0.0661,1.48103 -0.22583,1.17206 -0.81341,2.03442 -1.90526,2.79626 -0.80512,0.56177 -1.53313,0.83479 -2.63156,0.98687 -0.41358,0.0573 -0.80315,0.10038 -0.86569,0.0958 z m 1.58342,-2.36808 c 1.09055,-0.46223 2.09868,-1.87289 1.96569,-2.75056 -0.10402,-0.68654 -0.72052,-1.13019 -1.41424,-1.01775 -0.29911,0.0485 -1.18152,0.4795 -2.31098,1.12881 -1.21498,0.69847 -1.50721,1.04151 -1.45237,1.70481 0.0471,0.57001 0.35825,0.90929 1.00659,1.09775 0.69128,0.20092 1.485,0.14224 2.20531,-0.16306 z m -3.99395,-3.56271 c 0.43314,-0.15117 0.92431,-0.40977 1.35086,-0.71123 0.41112,-0.29056 0.68381,-0.29031 0.84641,7.8e-4 0.0366,0.0655 0.10446,0.11352 0.15082,0.10669 0.0464,-0.007 0.3028,-0.19011 0.56985,-0.40731 1.20835,-0.98276 1.29904,-1.49626 0.67073,-3.79743 -0.40276,-1.47506 -1.072,-3.63174 -1.51082,-4.86875 -0.72202,-2.0353 -2.1634,-5.34019 -2.81678,-6.45846 -1.28798,-2.20442 -3.67748,-3.76933 -6.27679,-4.11076 -0.49586,-0.0651 -0.65908,-0.0608 -1.28345,0.0339 -0.6232,0.0946 -0.77019,0.13611 -1.14126,0.32234 -1.10448,0.55436 -1.90032,1.68517 -2.03924,2.89759 -0.0216,0.18882 -0.0161,0.60569 0.0124,0.92638 l 0.0517,0.58306 0.22332,0.1991 c 0.16862,0.15032 0.27074,0.31444 0.41687,0.66997 0.50684,1.23308 0.9591,1.97465 1.45167,2.38036 0.47352,0.39 1.30503,0.61051 1.94638,0.51614 0.11061,-0.0163 0.20386,0.003 0.2284,0.0462 0.0228,0.0405 0.006,0.25187 -0.0375,0.46962 -0.0434,0.21774 -0.0867,0.52361 -0.0961,0.67969 -0.009,0.15609 -0.0268,0.42713 -0.0386,0.60231 -0.016,0.23652 10e-4,0.36434 0.0666,0.4965 0.0484,0.0979 0.11973,0.32553 0.15848,0.50586 0.05,0.23267 0.11827,0.37999 0.23512,0.50737 0.0906,0.0987 0.22911,0.31263 0.30787,0.47534 0.079,0.16312 0.19304,0.31376 0.25429,0.33579 0.12831,0.0462 0.45371,0.43299 0.47268,0.56192 0.007,0.048 0.0817,0.14872 0.16588,0.2238 0.19357,0.17265 0.4522,0.53598 0.47061,0.66111 0.008,0.0526 0.0877,0.17473 0.17764,0.27145 0.09,0.0967 0.21118,0.29541 0.26937,0.44155 0.0582,0.14614 0.18494,0.39646 0.28167,0.55626 0.0967,0.15981 0.18928,0.38161 0.20565,0.4929 0.0164,0.11128 0.0805,0.27287 0.14248,0.35909 0.062,0.0862 0.15929,0.33012 0.21622,0.542 0.0569,0.21189 0.14886,0.50515 0.20427,0.65169 0.0554,0.14655 0.10055,0.3743 0.10029,0.50611 -2.5e-4,0.13316 0.0283,0.26645 0.0643,0.29994 0.0356,0.0331 0.12656,0.19663 0.20205,0.36329 0.0755,0.16666 0.21852,0.37345 0.31784,0.45953 0.0993,0.0861 0.27571,0.26032 0.39198,0.38721 0.4371,0.47698 1.173,0.86175 1.78536,0.93348 0.3924,0.046 0.36665,0.0494 0.8305,-0.11242 z m -9.04529,-26.61511 c 0.32972,-0.12901 0.55646,-0.43029 0.51841,-0.68885 -0.0474,-0.32203 -0.41341,-0.70735 -0.74,-0.77901 -0.1612,-0.0354 -0.43671,0.0486 -0.63048,0.19208 -0.42749,0.31662 -0.27414,1.13848 0.24721,1.32491 0.24358,0.0871 0.26009,0.0858 0.60486,-0.0491 z m 7.16044,-2.48141 c 0.31019,-0.21606 0.52081,-0.52072 0.64122,-0.92753 0.12148,-0.41039 0.10146,-0.78655 -0.066,-1.24132 -0.36003,-0.97744 -1.06786,-1.51447 -1.84628,-1.40074 -1.20282,0.17581 -1.85443,1.30781 -1.39316,2.42042 0.30612,0.73836 0.83829,1.29531 1.33655,1.39876 0.12752,0.0265 0.41927,0.0224 0.64834,-0.009 0.34166,-0.047 0.46373,-0.0902 0.67937,-0.24042 z"
         id="path7803" />
      <path
         id="path7807"
         d="m 538.19676,606.23568 c -0.0131,0.007 -0.12172,0.0188 -0.13397,0.0265 -0.11011,0.0702 -0.41923,0.20724 -0.68671,0.30443 -0.42507,0.15445 -0.83052,0.37855 -1.68431,0.93147 -0.12062,0.0781 -0.23724,0.20413 -0.25908,0.27968 -0.0409,0.14153 -0.26767,0.35842 -0.39459,0.3771 -0.11467,0.0169 -0.43065,0.46847 -0.41472,0.59255 0.0204,0.15629 -0.0601,0.34598 -0.21556,0.50971 -0.0722,0.076 -0.149,0.22484 -0.17063,0.33103 -0.0236,0.11608 -0.0909,0.22084 -0.16877,0.26241 -0.0746,0.0398 -0.11221,0.0601 -0.22036,0.48477 -0.10815,0.42465 -0.28695,1.25382 -0.64446,2.91089 -0.37742,1.74929 -0.45351,2.18524 -0.39751,2.28548 0.0353,0.0632 0.17855,0.20933 0.31793,0.33322 0.008,-0.0171 0.0183,-0.0304 0.0256,-0.0465 0.11679,-0.25648 0.21044,-0.50168 0.43399,-0.61647 0.20196,-0.10371 0.50777,-0.14541 0.57681,-0.14925 0.54276,-0.0301 3.13389,-2.12837 3.21426,-2.24986 0.30555,-0.46184 0.48418,-0.78658 0.49193,-1.28757 l 0.0156,-1.02092 0.77515,-0.21832 c 0.18632,-0.0524 0.24047,-0.27996 0.19637,-0.52396 l -0.65697,-3.51643 z m 4.42835,0.10842 c 0.1946,-0.0284 0.38511,-0.0168 0.56656,0.0329 -0.18145,-0.0496 -0.37196,-0.0613 -0.56656,-0.0329 z m -6.11093,4.58287 c 0.1633,0.0358 0.33647,0.1498 0.47472,0.29534 0.13826,0.14554 0.2417,0.32236 0.2654,0.48337 0.019,0.12928 -0.0279,0.26948 -0.12103,0.39325 -0.0932,0.12377 -0.23254,0.23154 -0.3974,0.29604 -0.17239,0.0675 -0.26256,0.10129 -0.34023,0.1076 -0.0777,0.006 -0.14262,-0.015 -0.26441,-0.0585 -0.13034,-0.0466 -0.23765,-0.13318 -0.31867,-0.24139 -0.081,-0.10821 -0.1357,-0.23813 -0.16074,-0.3723 -0.025,-0.13417 -0.0208,-0.27223 0.0168,-0.39671 0.0376,-0.12449 0.10831,-0.23566 0.21518,-0.31481 0.19377,-0.14352 0.46915,-0.22725 0.63035,-0.19188 z"
         style="fill:#333333;fill-opacity:1;fill-rule:evenodd;stroke:none;stroke-width:1px;stroke-linecap:butt;stroke-linejoin:miter;stroke-opacity:1" />
      <path
         id="path7809"
         d="m 531.60556,623.4644 c -0.009,0.005 -0.007,0.0119 -0.0173,0.0179 -0.0946,0.0569 -0.15113,0.1195 -0.18589,0.24669 -0.0347,0.12718 -0.0476,0.31881 -0.0544,0.63298 -0.005,0.2368 0.0475,0.64527 0.12795,1.06704 0.0805,0.42176 0.18893,0.85691 0.29472,1.14732 0.0794,0.218 0.38774,0.85345 0.68514,1.41177 0.44107,0.82805 0.74644,1.45871 1.0184,2.15121 0.27195,0.6925 0.51057,1.44673 0.81636,2.52048 0.22578,0.79279 0.44361,1.48964 0.66705,2.11745 0.22345,0.62782 0.45259,1.18656 0.6996,1.70362 0.24701,0.51705 0.51208,0.99237 0.80854,1.45286 0.29646,0.46048 0.62425,0.9062 0.99605,1.36431 0.29318,0.36124 0.59336,0.69627 0.90809,1.01037 0.31472,0.31409 0.64376,0.60697 0.99388,0.88493 0.70024,0.55591 1.48524,1.05035 2.41018,1.5277 0.46601,0.24049 1.08879,0.58734 1.38439,0.7705 0.43165,0.26746 0.70342,0.41515 0.91833,0.46821 0.21491,0.053 0.37334,0.0115 0.57853,-0.0988 0.0168,-0.009 0.038,0.003 0.053,-0.004 0.3896,-0.39592 0.88831,-0.82067 1.12748,-1.3976 0.21682,-0.523 0.26567,-1.10159 0.22711,-1.70893 0.44354,-0.31657 0.81557,-0.68948 1.37352,-0.92961 0.29861,-0.12852 0.53872,-0.27415 0.67914,-0.51468 0.15037,-0.25755 -0.0303,-0.56328 -0.0871,-0.84346 l -0.0497,-0.1636 c -0.0813,-0.14554 -0.19015,-0.21793 -0.33004,-0.21806 -0.13988,-1.3e-4 -0.31109,0.072 -0.51665,0.21731 -0.42655,0.30146 -0.91722,0.56025 -1.35036,0.71142 -0.23193,0.0809 -0.34172,0.1204 -0.44232,0.13402 -0.10059,0.0136 -0.19209,0.001 -0.38828,-0.0215 -0.30618,-0.0359 -0.64326,-0.14997 -0.95842,-0.31475 -0.31516,-0.16478 -0.60858,-0.38043 -0.82713,-0.61892 -0.11627,-0.12689 -0.29265,-0.30119 -0.39197,-0.38727 -0.0993,-0.0861 -0.24217,-0.2925 -0.31766,-0.45917 -0.0755,-0.16666 -0.16652,-0.3302 -0.20216,-0.36335 -0.036,-0.0335 -0.0649,-0.16669 -0.0646,-0.29984 2.7e-4,-0.13182 -0.0447,-0.36 -0.10017,-0.50655 -0.0554,-0.14654 -0.14715,-0.43946 -0.20408,-0.65134 -0.0569,-0.21189 -0.15455,-0.45619 -0.21654,-0.54241 -0.062,-0.0862 -0.1259,-0.24778 -0.14227,-0.35906 -0.0164,-0.11129 -0.10908,-0.3329 -0.20581,-0.49271 -0.0967,-0.15981 -0.22306,-0.41011 -0.28124,-0.55625 -0.0582,-0.14613 -0.17956,-0.34503 -0.26952,-0.44174 -0.09,-0.0967 -0.17005,-0.21866 -0.17778,-0.27123 -0.0184,-0.12513 -0.27687,-0.4885 -0.47044,-0.66115 -0.0842,-0.0751 -0.15919,-0.17592 -0.16626,-0.22393 -0.019,-0.12893 -0.34402,-0.51559 -0.47233,-0.56174 -0.0612,-0.022 -0.17553,-0.1726 -0.25449,-0.33572 -0.0788,-0.16271 -0.21696,-0.37674 -0.30753,-0.47546 -0.11685,-0.12738 -0.1853,-0.27451 -0.23528,-0.50718 -0.0388,-0.18032 -0.11034,-0.40801 -0.15875,-0.5059 -0.0654,-0.13216 -0.0822,-0.26021 -0.0663,-0.49672 0.0118,-0.17519 0.029,-0.44606 0.0385,-0.60214 0.009,-0.15609 0.0526,-0.4618 0.096,-0.67955 0.0434,-0.21775 0.0602,-0.42927 0.0374,-0.46981 -0.0245,-0.0436 -0.11779,-0.0624 -0.22841,-0.0462 -0.32067,0.0472 -0.68893,0.0155 -1.03617,-0.0766 -0.34723,-0.0921 -0.6734,-0.24478 -0.91015,-0.43978 -0.24629,-0.20285 -0.48223,-0.48939 -0.72022,-0.87963 -0.23799,-0.39024 -0.47784,-0.88415 -0.73126,-1.50069 -0.14614,-0.35553 -0.24845,-0.51982 -0.41707,-0.67014 l -0.0806,-0.0719 c -0.83664,-0.0971 -2.14517,-0.22669 -2.90261,-0.18935 z"
         style="fill:#333333;fill-opacity:1;fill-rule:evenodd;stroke:none;stroke-width:1px;stroke-linecap:butt;stroke-linejoin:miter;stroke-opacity:1" />
      <path
         id="path7793"
         d="m 535.091,829.73764 c 2.62354,-10.12905 9.68484,-14.00822 18.62977,-15.23459 -2.93933,7.08887 -7.30713,13.29956 -18.62977,15.23459 z"
         style="fill:#591308;fill-opacity:1;fill-rule:evenodd;stroke:none;stroke-width:1px;stroke-linecap:butt;stroke-linejoin:miter;stroke-opacity:1" />
      <path
         id="path7799"
         d="m 545,549.97169 0,68.39812 -15.48713,106.67776 7.7686,-3.5856 19.92513,-69.11278 c 0.19278,-0.66866 1.52914,-0.73969 1.66293,-0.12654 l 8.35536,38.29241 0,256.95755"
         style="fill:none;fill-rule:evenodd;stroke:#2ca05a;stroke-width:2.9000001;stroke-linecap:butt;stroke-linejoin:round;stroke-miterlimit:4;stroke-dasharray:none;stroke-opacity:1" />
      <path
         style="color:#000000;font-style:normal;font-variant:normal;font-weight:normal;font-stretch:normal;font-size:medium;line-height:normal;font-family:sans-serif;text-indent:0;text-align:start;text-decoration:none;text-decoration-line:none;text-decoration-style:solid;text-decoration-color:#000000;letter-spacing:normal;word-spacing:normal;text-transform:none;direction:ltr;block-progression:tb;writing-mode:lr-tb;baseline-shift:baseline;text-anchor:start;white-space:normal;clip-rule:nonzero;display:inline;overflow:visible;visibility:visible;opacity:1;isolation:auto;mix-blend-mode:normal;color-interpolation:sRGB;color-interpolation-filters:linearRGB;solid-color:#000000;solid-opacity:1;fill:#e33213;fill-opacity:1;fill-rule:evenodd;stroke:none;stroke-width:1.39999998;stroke-linecap:butt;stroke-linejoin:miter;stroke-miterlimit:4;stroke-dasharray:none;stroke-dashoffset:0;stroke-opacity:1;color-rendering:auto;image-rendering:auto;shape-rendering:auto;text-rendering:auto;enable-background:accumulate"
         d="m 558.15597,654.77232 -0.22005,-0.97772 c -0.095,-0.0224 -0.51268,0.0322 -0.61945,-0.0212 -0.3435,-0.17175 -0.75947,-0.60603 -1.06836,-1.07227 l -5.84961,-8.83008 c -0.27204,-0.41063 -0.37077,-0.83842 -0.34571,-1.15625 0.025,-0.31595 0.13246,-0.50253 0.34766,-0.64648 -0.20682,-0.19848 -0.50945,-0.50761 -0.65234,-0.64453 -0.36676,0.31861 -0.64457,0.71608 -0.6836,1.21094 -0.0451,0.5714 0.12778,1.20659 0.50977,1.7832 l 5.84961,8.83008 c 0.36268,0.54745 0.85208,1.11347 1.44922,1.41211 0.24448,0.13781 0.89244,0.25151 1.28286,0.11216 z"
         id="path8311" />
      <path
         style="color:#000000;font-style:normal;font-variant:normal;font-weight:normal;font-stretch:normal;font-size:medium;line-height:normal;font-family:sans-serif;text-indent:0;text-align:start;text-decoration:none;text-decoration-line:none;text-decoration-style:solid;text-decoration-color:#000000;letter-spacing:normal;word-spacing:normal;text-transform:none;direction:ltr;block-progression:tb;writing-mode:lr-tb;baseline-shift:baseline;text-anchor:start;white-space:normal;clip-rule:nonzero;display:inline;overflow:visible;visibility:visible;opacity:1;isolation:auto;mix-blend-mode:normal;color-interpolation:sRGB;color-interpolation-filters:linearRGB;solid-color:#000000;solid-opacity:1;fill:#ec4728;fill-opacity:1;fill-rule:evenodd;stroke:none;stroke-width:1.39999998;stroke-linecap:butt;stroke-linejoin:miter;stroke-miterlimit:4;stroke-dasharray:none;stroke-dashoffset:0;stroke-opacity:1;color-rendering:auto;image-rendering:auto;shape-rendering:auto;text-rendering:auto;enable-background:accumulate"
         d="m 558.36356,655.69196 -0.20759,-0.91964 c -0.26825,-0.0166 -1.04671,0.006 -1.28292,-0.11216 -0.59718,-0.29861 -1.08654,-0.86466 -1.44922,-1.41211 l -5.84961,-8.83008 c -0.38199,-0.57661 -0.55482,-1.2118 -0.50977,-1.7832 0.0391,-0.49486 0.31685,-0.89233 0.6836,-1.21094 -0.15754,-0.15094 -0.65817,-0.64915 -0.72071,-0.70899 -0.53898,0.49769 -0.89651,1.1487 -0.95117,1.8418 -0.065,0.82497 0.17992,1.66758 0.67188,2.41016 l 5.84961,8.83008 c 0.41649,0.62868 0.98314,1.3245 1.83398,1.75 0.88704,0.37936 1.55096,0.24651 1.93192,0.14508 z"
         id="path8308" />
      <g
         transform="matrix(-1.1737028,0.79271738,-0.79271738,-1.1737028,1866.0573,100.61453)"
         id="g7817">
        <path
           style="fill:#999999;fill-rule:evenodd;stroke:none;stroke-width:1px;stroke-linecap:butt;stroke-linejoin:miter;stroke-opacity:1"
           d="m 979.17411,201.22381 c 0.20448,0.60805 1.70121,0.29579 1.42857,-0.49107 l -1.76339,-5.08929 c -0.20164,-0.58196 -1.63213,-0.26871 -1.36161,0.53572 z"
           id="path7819" />
        <path
           style="fill:#cccccc;fill-rule:evenodd;stroke:none;stroke-width:1px;stroke-linecap:butt;stroke-linejoin:miter;stroke-opacity:1"
           d="m 977.27679,196.70372 1.97545,-0.73661 0.21205,0.59152 -1.97545,0.69196 z"
           id="path7821" />
        <path
           id="path7823"
           d="m 977.63982,197.18907 1.6874,-0.62613 0.21205,0.59152 -1.6874,0.58148 z"
           style="fill:#808080;fill-rule:evenodd;stroke:none;stroke-width:1px;stroke-linecap:butt;stroke-linejoin:miter;stroke-opacity:1" />
        <path
           style="fill:#808080;fill-rule:evenodd;stroke:none;stroke-width:1px;stroke-linecap:butt;stroke-linejoin:miter;stroke-opacity:1"
           d="m 977.89721,197.81728 1.6874,-0.62613 0.21205,0.59152 -1.6874,0.58148 z"
           id="path7825" />
        <path
           id="path7827"
           d="m 977.57882,197.52166 1.97545,-0.73661 0.21205,0.59152 -1.97545,0.69196 z"
           style="fill:#cccccc;fill-rule:evenodd;stroke:none;stroke-width:1px;stroke-linecap:butt;stroke-linejoin:miter;stroke-opacity:1" />
        <path
           id="path7829"
           d="m 978.22484,198.64503 1.6874,-0.62613 0.21205,0.59152 -1.6874,0.58148 z"
           style="fill:#808080;fill-rule:evenodd;stroke:none;stroke-width:1px;stroke-linecap:butt;stroke-linejoin:miter;stroke-opacity:1" />
        <path
           style="fill:#cccccc;fill-rule:evenodd;stroke:none;stroke-width:1px;stroke-linecap:butt;stroke-linejoin:miter;stroke-opacity:1"
           d="m 977.89529,198.33826 1.97545,-0.73661 0.21205,0.59152 -1.97545,0.69196 z"
           id="path7831" />
        <path
           id="path7833"
           d="m 978.15199,199.16415 1.97545,-0.73661 0.21205,0.59152 -1.97545,0.69196 z"
           style="fill:#cccccc;fill-rule:evenodd;stroke:none;stroke-width:1px;stroke-linecap:butt;stroke-linejoin:miter;stroke-opacity:1" />
      </g>
      <g
         transform="matrix(0.09031924,-0.09896002,0.09896002,0.09031924,448.93911,799.60939)"
         id="g7835">
        <path
           style="fill:#34302d;fill-opacity:1;fill-rule:evenodd;stroke:none;stroke-width:1px;stroke-linecap:butt;stroke-linejoin:miter;stroke-opacity:1"
           d="m 805.68555,61.515625 c -2.93296,0.04727 -5.83503,0.188872 -8.67969,0.439453 l 0.67187,11.300781 c 0.17167,2.884136 3.34243,5.862321 7.0293,5.722657 44.48352,-1.685109 55.83415,7.464678 70.82813,14.455078 2.90288,1.353364 5.78046,2.450964 8.95507,2.255859 3.78899,-0.231702 6.91733,-1.615143 10.02539,-2.929687 1.01162,-0.427857 2.03847,-0.722882 3.07422,-0.929688 C 890.7549,84.75468 883.89763,78.29788 875.29688,73.777344 854.71729,62.960772 843.68713,63.640385 827.39453,62.369141 820.33697,61.818468 812.9283,61.398896 805.68555,61.515625 Z m 91.90429,30.314453 z m -100.58398,-29.875 z"
           id="path7837" />
        <path
           style="fill:#9c9491;fill-opacity:1;fill-rule:evenodd;stroke:none;stroke-width:1px;stroke-linecap:butt;stroke-linejoin:miter;stroke-opacity:1"
           d="m 797.00586,61.955078 c -4.18005,0.368213 -8.23203,0.978211 -12.03906,1.929688 C 771.23793,67.315968 761.95976,82.555046 759.12891,96 c -2.40648,11.42943 2.80968,30.13709 9.09179,33.83984 17.50497,10.31765 40.37166,17.36644 63.13477,19.41602 23.42238,2.10893 73.63127,-17.88935 77.5293,-22.69922 7.2944,-9.00073 2.41911,-20.46893 -1.26368,-24.24219 -3.46609,-3.551228 -6.74584,-7.083386 -10.03125,-10.484372 -1.03575,0.206806 -2.0626,0.501831 -3.07422,0.929688 -3.10806,1.314544 -6.2364,2.697985 -10.02539,2.929687 -3.17461,0.195105 -6.05219,-0.902495 -8.95507,-2.255859 -14.99398,-6.9904 -26.34461,-16.140187 -70.82813,-14.455078 -3.68687,0.139664 -6.85763,-2.838521 -7.0293,-5.722657 L 797.00586,61.955078 Z M 781.25,97.541016 A 11.071428,11.071428 0 0 1 792.32227,108.61133 11.071428,11.071428 0 0 1 781.25,119.68359 11.071428,11.071428 0 0 1 770.17773,108.61133 11.071428,11.071428 0 0 1 781.25,97.541016 Z"
           id="path7839" />
        <path
           style="fill:#0c0b09;fill-opacity:1;fill-rule:evenodd;stroke:none;stroke-width:1px;stroke-linecap:butt;stroke-linejoin:miter;stroke-opacity:1"
           d="m 817.97102,120.24394 c 15.43746,7.64159 51.01271,5.3033 51.01271,5.3033 -0.0482,1.25226 -31.67773,13.06573 -51.01271,-5.3033 z"
           id="path7841" />
        <circle
           style="fill:#dbdad6;fill-opacity:1;stroke:none"
           id="circle7843"
           cx="844.82141"
           cy="100.39792"
           r="10.178572" />
        <circle
           style="fill:#dbdad6;fill-opacity:1;stroke:none"
           id="circle7845"
           cx="894.82141"
           cy="115.75506"
           r="8.3928576" />
      </g>
      <g
         id="g8373"
         transform="matrix(0.99760878,0.06911381,-0.06911381,0.99760878,51.881068,-34.835386)">
        <path
           style="color:#000000;font-style:normal;font-variant:normal;font-weight:normal;font-stretch:normal;font-size:medium;line-height:normal;font-family:sans-serif;text-indent:0;text-align:start;text-decoration:none;text-decoration-line:none;text-decoration-style:solid;text-decoration-color:#000000;letter-spacing:normal;word-spacing:normal;text-transform:none;direction:ltr;block-progression:tb;writing-mode:lr-tb;baseline-shift:baseline;text-anchor:start;white-space:normal;clip-rule:nonzero;display:inline;overflow:visible;visibility:visible;opacity:1;isolation:auto;mix-blend-mode:normal;color-interpolation:sRGB;color-interpolation-filters:linearRGB;solid-color:#000000;solid-opacity:1;fill:#e33213;fill-opacity:1;fill-rule:evenodd;stroke:none;stroke-width:1.39999998;stroke-linecap:butt;stroke-linejoin:miter;stroke-miterlimit:4;stroke-dasharray:none;stroke-dashoffset:0;stroke-opacity:1;color-rendering:auto;image-rendering:auto;shape-rendering:auto;text-rendering:auto;enable-background:accumulate"
           d="m 531.77789,732.4535 c -0.53092,-0.24871 -1.10032,-0.15233 -1.58727,0.11482 -0.48696,0.26715 -0.89238,0.70511 -1.09696,1.14181 l -0.80501,1.71844 -1.07714,10.87433 c -0.052,0.45555 0.0304,0.93194 0.26989,1.36055 0.2395,0.42862 0.63505,0.8107 1.20566,1.078 l 2.08919,0.9787 c 0.52446,0.24568 1.09359,0.20438 1.60491,-0.0546 0.5113,-0.25903 0.96495,-0.73614 1.25837,-1.36248 l 4.49329,-9.59173 c 0.27858,-0.59468 0.5067,-1.30766 0.45077,-1.97297 -0.056,-0.66535 -0.39675,-1.28253 -1.25207,-1.68321 l -5.55363,-2.60162 z m -0.42011,0.8968 5.55363,2.60162 c 0.5926,0.27761 0.65086,0.48717 0.68306,0.86984 0.0322,0.38269 -0.12119,0.96297 -0.35845,1.46943 l -4.49329,9.59173 c -0.20896,0.44605 -0.52425,0.75398 -0.80866,0.89805 -0.2844,0.14409 -0.49995,0.15071 -0.73653,0.0399 l -2.0892,-0.97869 c -0.8033,-0.37631 -0.97301,-0.90914 -0.91385,-1.42702 l -1.6e-4,-0.006 1.06639,-10.71442 0.73225,-1.56313 c 0.0993,-0.21197 0.38724,-0.5355 0.67651,-0.69422 0.28928,-0.15871 0.49218,-0.17877 0.68831,-0.0869 z"
           id="path7849" />
        <path
           style="color:#000000;font-style:normal;font-variant:normal;font-weight:normal;font-stretch:normal;font-size:medium;line-height:normal;font-family:sans-serif;text-indent:0;text-align:start;text-decoration:none;text-decoration-line:none;text-decoration-style:solid;text-decoration-color:#000000;letter-spacing:normal;word-spacing:normal;text-transform:none;direction:ltr;block-progression:tb;writing-mode:lr-tb;baseline-shift:baseline;text-anchor:start;white-space:normal;clip-rule:nonzero;display:inline;overflow:visible;visibility:visible;opacity:1;isolation:auto;mix-blend-mode:normal;color-interpolation:sRGB;color-interpolation-filters:linearRGB;solid-color:#000000;solid-opacity:1;fill:#ec4728;fill-opacity:1;fill-rule:evenodd;stroke:none;stroke-width:1.39999998;stroke-linecap:butt;stroke-linejoin:miter;stroke-miterlimit:4;stroke-dasharray:none;stroke-dashoffset:0;stroke-opacity:1;color-rendering:auto;image-rendering:auto;shape-rendering:auto;text-rendering:auto;enable-background:accumulate"
           d="m 532.198,731.5567 c -0.8657,-0.40554 -1.79792,-0.23418 -2.48255,0.14142 -0.68464,0.3756 -1.20873,0.93045 -1.51858,1.5919 l -0.8766,1.87124 -1.09543,11.03073 c 0,0 -10e-4,0.003 -10e-4,0.003 -0.14792,1.30374 0.56493,2.75122 2.04328,3.44376 l 2.08919,0.97869 c 0.81233,0.38054 1.73387,0.30707 2.47209,-0.0669 0.73821,-0.37397 1.33022,-1.02027 1.7081,-1.82691 l 4.49329,-9.59172 c 0.31991,-0.68291 0.62027,-1.52975 0.54057,-2.47771 -0.0797,-0.94799 -0.70052,-1.97163 -1.81856,-2.49538 l -5.55363,-2.60163 z m -0.42011,0.8968 5.55363,2.60162 c 0.85532,0.40068 1.1961,1.01786 1.25207,1.68321 0.056,0.66533 -0.17219,1.37829 -0.45077,1.97297 l -4.49329,9.59173 c -0.29342,0.62634 -0.74707,1.10345 -1.25837,1.36248 -0.51132,0.25902 -1.08045,0.30032 -1.60491,0.0546 l -2.08919,-0.9787 c -0.57061,-0.2673 -0.96616,-0.64938 -1.20566,-1.078 -0.23949,-0.42861 -0.32192,-0.905 -0.26989,-1.36055 l 1.07714,-10.87433 0.80501,-1.71844 c 0.20458,-0.4367 0.61,-0.87466 1.09696,-1.14181 0.48695,-0.26715 1.05635,-0.36353 1.58727,-0.11482 z"
           id="path7851" />
        <g
           id="g7853"
           transform="matrix(1.2878776,0.5893643,-0.5893643,1.2878776,-616.05862,-92.557918)">
          <path
             id="path7855"
             d="m 979.17411,201.22381 c 0.20448,0.60805 1.70121,0.29579 1.42857,-0.49107 l -1.76339,-5.08929 c -0.20164,-0.58196 -1.63213,-0.26871 -1.36161,0.53572 z"
             style="fill:#999999;fill-rule:evenodd;stroke:none;stroke-width:1px;stroke-linecap:butt;stroke-linejoin:miter;stroke-opacity:1" />
          <path
             id="path7857"
             d="m 977.27679,196.70372 1.97545,-0.73661 0.21205,0.59152 -1.97545,0.69196 z"
             style="fill:#cccccc;fill-rule:evenodd;stroke:none;stroke-width:1px;stroke-linecap:butt;stroke-linejoin:miter;stroke-opacity:1" />
          <path
             style="fill:#808080;fill-rule:evenodd;stroke:none;stroke-width:1px;stroke-linecap:butt;stroke-linejoin:miter;stroke-opacity:1"
             d="m 977.63982,197.18907 1.6874,-0.62613 0.21205,0.59152 -1.6874,0.58148 z"
             id="path7859" />
          <path
             id="path7861"
             d="m 977.89721,197.81728 1.6874,-0.62613 0.21205,0.59152 -1.6874,0.58148 z"
             style="fill:#808080;fill-rule:evenodd;stroke:none;stroke-width:1px;stroke-linecap:butt;stroke-linejoin:miter;stroke-opacity:1" />
          <path
             style="fill:#cccccc;fill-rule:evenodd;stroke:none;stroke-width:1px;stroke-linecap:butt;stroke-linejoin:miter;stroke-opacity:1"
             d="m 977.57882,197.52166 1.97545,-0.73661 0.21205,0.59152 -1.97545,0.69196 z"
             id="path7863" />
          <path
             style="fill:#808080;fill-rule:evenodd;stroke:none;stroke-width:1px;stroke-linecap:butt;stroke-linejoin:miter;stroke-opacity:1"
             d="m 978.22484,198.64503 1.6874,-0.62613 0.21205,0.59152 -1.6874,0.58148 z"
             id="path7865" />
          <path
             id="path7867"
             d="m 977.89529,198.33826 1.97545,-0.73661 0.21205,0.59152 -1.97545,0.69196 z"
             style="fill:#cccccc;fill-rule:evenodd;stroke:none;stroke-width:1px;stroke-linecap:butt;stroke-linejoin:miter;stroke-opacity:1" />
          <path
             style="fill:#cccccc;fill-rule:evenodd;stroke:none;stroke-width:1px;stroke-linecap:butt;stroke-linejoin:miter;stroke-opacity:1"
             d="m 978.15199,199.16415 1.97545,-0.73661 0.21205,0.59152 -1.97545,0.69196 z"
             id="path7869" />
        </g>
      </g>
      <path
         style="fill:#c07645;fill-opacity:1;fill-rule:evenodd;stroke:none;stroke-width:0.25584933px;stroke-linecap:butt;stroke-linejoin:miter;stroke-opacity:1"
         d="m 456.01155,709.08054 c 1.9464,1.81401 4.33059,2.52215 5.83602,5.46363 1.34842,2.6347 1.019,4.62662 1.44538,6.86623 l 7.1105,2.62726 9.05778,-5.44079 -1.72527,-7.22535 -5.50965,0.56535 c 0,0 -2.16558,-0.96167 -2.39412,-1.69342 -0.43754,-1.40089 -0.4225,-1.98179 -0.94646,-2.71332 -0.67798,-0.94656 -2.01618,-1.09759 -2.01618,-1.09759 l -2.79995,-4.18931 z"
         id="path7785" />
      <path
         id="path7787"
         d="m 440.77895,706.41153 13.77634,5.12293 17.89526,-11.82257 -1.70442,-9.03313 -9.43418,-3.32089 c 0,0 -3.33608,-3.83609 -2.82863,-4.51431 0.50745,-0.6782 3.70462,-1.37171 3.1029,-2.54466 -1.56108,-3.04319 -14.44165,-5.79899 -17.1733,-5.79668 l -9.15344,-4.73293 -3.59321,18.18722 z"
         style="fill:#d38d5f;fill-opacity:1;fill-rule:evenodd;stroke:none;stroke-width:1px;stroke-linecap:butt;stroke-linejoin:miter;stroke-opacity:1" />
      <path
         id="path7933"
         d="m 434.38728,705.32298 19.00848,0.87074 1.33193,-3.10241 -21.61643,-2.62179 z"
         style="fill:#cccccc;fill-rule:evenodd;stroke:none;stroke-width:1px;stroke-linecap:butt;stroke-linejoin:miter;stroke-opacity:1" />
      <path
         id="path7935"
         d="m 439.11702,685.14518 14.23686,16.95924 -0.81112,-5.36259 -17.92907,-20.91416 z"
         style="fill:#cccccc;fill-rule:evenodd;stroke:none;stroke-width:1px;stroke-linecap:butt;stroke-linejoin:miter;stroke-opacity:1" />
      <path
         style="fill:#cccccc;fill-opacity:1;fill-rule:evenodd;stroke:none;stroke-width:0.25584933px;stroke-linecap:butt;stroke-linejoin:miter;stroke-opacity:1"
         d="m 459.54339,707.3594 3.18428,-0.0235 2.54195,-2.89802 -2.53343,1.71973 -3.69392,-0.29518 z"
         id="path7937" />
      <path
         id="path7939"
         d="m 453.39504,706.19425 c -0.17653,-0.19545 -0.85228,-9.45242 -0.85228,-9.45242 0,0 4.37178,6.06571 6.81955,8.5085 0.83728,0.83458 0.37747,2.22186 0.29752,2.23015 -0.31626,0.0346 -6.26407,-1.28676 -6.26407,-1.28676 z"
         style="fill:#666666;fill-rule:evenodd;stroke:none;stroke-width:1px;stroke-linecap:butt;stroke-linejoin:miter;stroke-opacity:1" />
      <ellipse
         style="color:#000000;clip-rule:nonzero;display:inline;overflow:visible;visibility:visible;opacity:1;isolation:auto;mix-blend-mode:normal;color-interpolation:sRGB;color-interpolation-filters:linearRGB;solid-color:#000000;solid-opacity:1;fill:#000000;fill-opacity:1;fill-rule:evenodd;stroke:none;stroke-width:1px;stroke-linecap:butt;stroke-linejoin:miter;stroke-miterlimit:4;stroke-dasharray:none;stroke-dashoffset:0;stroke-opacity:1;color-rendering:auto;image-rendering:auto;shape-rendering:auto;text-rendering:auto;enable-background:accumulate"
         id="ellipse7941"
         cx="-242.48236"
         cy="776.56244"
         rx="1.3047208"
         ry="2.1110823"
         transform="matrix(0.63598108,-0.77170465,0.77170465,0.63598108,0,0)" />
      <path
         style="fill:none;fill-rule:evenodd;stroke:#ffffff;stroke-width:1px;stroke-linecap:butt;stroke-linejoin:miter;stroke-opacity:1"
         d="m 461.83227,688.39548 -2.49977,4.92032"
         id="path7943" />
      <path
         style="fill:none;fill-rule:evenodd;stroke:#000000;stroke-width:1px;stroke-linecap:butt;stroke-linejoin:miter;stroke-opacity:1"
         d="m 458.94915,685.52961 c -3.97817,-2.65966 -0.54472,8.66102 -5.85761,4.71785"
         id="path7945" />
      <path
         id="path7947"
         d="m 409.77365,681.71197 c -0.6253,3.27954 -0.77623,6.92497 -0.32586,10.94248 1.66917,14.88723 14.83625,23.33477 33.82486,20.41895 1.84553,-0.28338 1.10475,-2.26718 0.71055,-3.41647 -1.87903,-3.19788 -4.44835,-6.98876 -3.55203,-9.62827 2.61881,-7.71177 2.64529,-14.7659 -1.87934,-21.32771 -1.54227,-2.23718 -2.28326,-5.37508 -2.04696,-7.89334 l 3.40544,-14.63229 -4.8091,2.53768 c -10.93221,1.4014 -22.61917,8.78719 -25.32832,22.99879 z m 7.75424,3.47309 4.22674,3.73224 -1.23882,5.26086 -4.27317,-3.33521 1.28532,-5.65787 z m 1.2188,-3.47748 1.35959,-5.7737 3.27128,3.06033 -1.23882,5.26086 -3.39205,-2.54749 z m -2.18666,14.04874 c 0,0 3.95495,3.39679 4.28484,3.51864 0.3295,0.12176 -0.65664,5.45296 -0.65664,5.45296 0,0 -2.36623,-1.00372 -2.45336,-1.20493 -0.0871,-0.20122 -1.17484,-7.76667 -1.17484,-7.76667 z m 5.86293,-22.23349 0.6702,-2.84614 2.13196,1.80384 -0.91528,2.92175 -1.88669,-1.87941 z m 8.7566,-11.87445 2.47324,-0.0452 -0.88011,3.73753 -2.13744,-0.41498 0.54401,-3.2754 z m -0.98791,5.32758 2.24569,0.38827 0.94097,5.69584 -3.27378,-0.95159 0.087,-5.13214 z m -0.0925,43.62298 3.50286,0.51165 -0.19094,1.20986 -3.26524,-0.5882 -0.0469,-1.13256 z m 6.35821,0.37571 4.28151,-1.99576 1.50894,2.15144 -4.46534,1.27786 -1.32511,-1.43354 z"
         style="fill:#f4e3d7;fill-opacity:1;fill-rule:evenodd;stroke:none;stroke-width:0.2;stroke-linecap:butt;stroke-linejoin:miter;stroke-miterlimit:4;stroke-dasharray:none;stroke-opacity:1" />
      <path
         id="path7927"
         d="m 499.30993,780.88396 c -2.01021,-4.85405 -6.92762,-10.15164 -8.59619,-11.22754 -4.91012,-3.16609 -33.78213,-16.43442 -36.7289,-20.85159 -2.57209,-3.85554 -3.83971,-14.26127 -3.40593,-15.52514 2.09998,-6.1186 5.1086,-10.43536 10.2618,-13.62085 l 8.24723,2.36227 c 5.06406,-1.81489 6.33841,-4.9645 6.03276,-8.25143 l -0.51455,-5.5334 23.92629,-20.30006 15.62956,15.3072 -14.01988,15.35397 c 8.89553,12.38124 15.31604,25.11895 22.06631,37.80916 z"
         style="fill:#2a7fff;fill-opacity:1;fill-rule:evenodd;stroke:none;stroke-width:1px;stroke-linecap:butt;stroke-linejoin:miter;stroke-opacity:1" />
      <path
         id="path7929"
         d="m 482.64993,730.19362 c 9.9594,-4.27382 24.30787,-0.43694 42.01244,-2.60797 8.50674,-11.47998 18.4521,-16.81451 28.60703,-27.95568 1.59011,-1.74454 1.65593,-6.21483 3.71906,-7.87484 l 8.65908,-6.9671 c 3.05795,-2.46042 7.26805,4.06239 5.25139,8.25337 l -4.0354,8.38629 c -1.3496,2.80469 -4.70904,3.27161 -7.20823,3.08336 -4.30065,2.60549 -30.34902,32.21741 -31.19889,32.33123 l -44.08226,6.71937 z"
         style="fill:#d38d5f;fill-opacity:1;fill-rule:evenodd;stroke:none;stroke-width:1px;stroke-linecap:butt;stroke-linejoin:miter;stroke-opacity:1" />
      <path
         id="path7931"
         d="m 460.99626,719.70414 -0.15553,-0.0444 c -1.28829,0.79637 -2.44259,1.66302 -3.48213,2.61128 -1.03954,0.94826 -1.96476,1.97766 -2.79416,3.09876 -0.8294,1.1211 -1.56352,2.33349 -2.22141,3.64838 -0.65788,1.3149 -1.23801,2.73226 -1.76301,4.2619 -0.21689,0.63194 -0.009,3.54917 0.57553,6.79054 0.29209,1.62068 0.67778,3.32117 1.15154,4.85863 0.47377,1.53747 1.03411,2.91238 1.67713,3.87627 0.23517,0.35254 0.87988,0.84242 1.41999,1.29809 l 1.17346,0.34455 c 13.50229,-0.21717 25.4958,-2.66597 37.48848,-5.11601 -3.09849,-5.78974 -6.43233,-11.26492 -7.68874,-19.51663 -4.53553,1.8631 -9.09621,2.06148 -13.49543,1.17367 -4.61619,-0.93159 -7.13455,-4.38326 -11.88572,-7.28506 z"
         style="color:#000000;clip-rule:nonzero;display:inline;overflow:visible;visibility:visible;opacity:1;isolation:auto;mix-blend-mode:normal;color-interpolation:sRGB;color-interpolation-filters:linearRGB;solid-color:#000000;solid-opacity:1;fill:#0059e1;fill-opacity:1;fill-rule:evenodd;stroke:none;stroke-width:1px;stroke-linecap:butt;stroke-linejoin:miter;stroke-miterlimit:4;stroke-dasharray:none;stroke-dashoffset:0;stroke-opacity:1;color-rendering:auto;image-rendering:auto;shape-rendering:auto;text-rendering:auto;enable-background:accumulate" />
      <path
         id="path7913"
         d="m 527.23452,768.45438 20.13044,5.08797"
         style="fill:none;fill-rule:evenodd;stroke:#333333;stroke-width:2.79999995;stroke-linecap:butt;stroke-linejoin:miter;stroke-miterlimit:4;stroke-dasharray:none;stroke-opacity:1" />
      <path
         id="path7925"
         d="m 545.33816,785.9135 12.05937,2.78141 4.03324,-28.4369 -14.82156,1.4287 z"
         style="fill:#782121;fill-opacity:1;fill-rule:evenodd;stroke:none;stroke-width:1px;stroke-linecap:butt;stroke-linejoin:miter;stroke-opacity:1" />
      <path
         id="path7805"
         d="m 549.17189,620.98972 c -0.008,-0.0836 0.0362,-0.24001 0.0134,-0.34664 -0.0576,-0.26827 -0.1567,-0.52445 -0.28793,-0.74498 -0.13724,-0.23062 -0.24865,-0.47126 -0.34576,-0.75469 -0.0971,-0.28343 -0.17972,-0.60996 -0.25956,-1.01293 -0.18995,-0.95865 -1.40329,-10.07557 -1.41348,-10.62105 -0.005,-0.24684 0.0169,-0.70055 0.0477,-1.00799 0.0308,-0.30744 0.0492,-0.60654 0.0406,-0.66512 -0.0112,-0.0762 -0.0713,-0.12893 -0.23372,-0.17128 -0.16244,-0.0423 -0.42746,-0.0745 -0.84867,-0.11099 -0.88476,-0.0767 -1.67266,-0.096 -2.58125,-0.0458 -0.40885,0.0226 -1.00984,0.11517 -1.48744,0.16702 -0.21835,0.12199 -0.4448,0.24588 -0.56695,0.35175 -0.70508,0.61112 -1.30519,1.34315 -0.83138,2.49231 l 1.05261,2.55409 c 0.87849,2.1307 1.1586,4.38391 1.36146,6.59688 0.0409,0.44648 0.0564,1.13976 0.59198,1.18904 l 2.61331,0.24046 c 0.85991,0.0791 1.56228,0.3155 2.21499,0.7161 0.36534,0.22422 0.66898,0.70255 0.92017,1.1738 z m -6.54678,-14.64562 c 0.1946,-0.0284 0.38511,-0.0168 0.56656,0.0329 0.18145,0.0496 0.35408,0.13715 0.51371,0.25826 0.15963,0.12111 0.30634,0.27632 0.43549,0.46234 0.12915,0.18602 0.24048,0.40263 0.33048,0.64699 0.0838,0.22738 0.13085,0.43499 0.14161,0.63717 0.0108,0.20219 -0.0145,0.39894 -0.0752,0.60413 -0.0602,0.20341 -0.14292,0.38117 -0.2494,0.5352 -0.10648,0.15402 -0.23672,0.28404 -0.39182,0.39206 -0.21563,0.15019 -0.33791,0.19371 -0.67956,0.24071 -0.22905,0.0317 -0.52058,0.0358 -0.6481,0.009 -0.24913,-0.0517 -0.50711,-0.21683 -0.7407,-0.46129 -0.23359,-0.24447 -0.44297,-0.5686 -0.59603,-0.93778 -0.11531,-0.27815 -0.16114,-0.55747 -0.14612,-0.82281 0.015,-0.26533 0.0911,-0.51662 0.2189,-0.73865 0.1278,-0.22202 0.30717,-0.41459 0.5302,-0.56283 0.22303,-0.14823 0.48927,-0.25174 0.78998,-0.29569 z"
         style="fill:#333333;fill-opacity:1;fill-rule:evenodd;stroke:none;stroke-width:1px;stroke-linecap:butt;stroke-linejoin:miter;stroke-opacity:1" />
      <path
         id="path7797"
         d="m 525.22753,804.03276 33.59318,49.16509 -3.15042,39.72845 c 0,0 7.64164,-0.47459 7.80034,-1.89432 l 4.3129,-38.58161 c 0.0371,-0.33225 -2.11431,-7.04778 -3.19427,-8.1949 -0.5047,-0.53607 -28.62526,-45.56151 -28.62526,-45.56151 z"
         style="fill:#d38d5f;fill-rule:evenodd;stroke:none;stroke-width:1px;stroke-linecap:butt;stroke-linejoin:miter;stroke-opacity:1" />
      <path
         style="fill:#1a1a1a;fill-opacity:1;fill-rule:evenodd;stroke:none;stroke-width:1px;stroke-linecap:butt;stroke-linejoin:miter;stroke-opacity:1"
         d="m 576.86736,904.40049 c -0.81584,0.41998 -1.54958,0.95081 -2.49086,1.1306 -1.59126,0.30396 -3.29363,0.18486 -4.88641,-0.61434 -1.44019,-0.72271 -2.5961,-1.69762 -3.65261,-2.70942 -1.05651,-1.01181 -2.01467,-2.06088 -3.06374,-2.9207 -1.88253,-1.5429 -3.29306,-2.31271 -4.5011,-2.67396 -1.20805,-0.36122 -2.21428,-0.31366 -3.28806,-0.22506 -1.87542,0.15475 -3.16448,-0.0398 -4.06805,-0.46944 -0.90357,-0.42962 -1.41992,-1.09258 -1.75383,-1.86911 -0.43865,-1.02017 -0.66348,-2.1929 -0.92194,-3.3377 -0.4725,0.73644 -0.83919,1.64966 -1.03704,2.82806 -0.48852,2.9097 1.8806,5.2947 5.46125,4.91131 4.54926,-0.48712 8.8022,0.99655 11.58521,4.55321 1.73911,2.22259 4.59751,3.31549 7.79785,4.80122 3.58963,1.66634 6.76709,0.71249 5.42806,-2.46059 -0.15202,-0.36025 -0.44307,-0.59542 -0.60869,-0.94406 z"
         id="path7897" />
      <path
         style="fill:#0059e1;fill-opacity:1;fill-rule:evenodd;stroke:none;stroke-width:1px;stroke-linecap:butt;stroke-linejoin:miter;stroke-opacity:1"
         d="m 565.18532,890.6312 c -5.15115,1.72851 -9.48299,1.7504 -11.19158,-3.68854 -1.89118,0.98321 -4.32285,1.54014 -5.75298,3.7687 0.25846,1.1448 0.48329,2.31753 0.92194,3.3377 0.33391,0.77653 0.85026,1.43949 1.75383,1.86911 0.90357,0.42962 2.19263,0.62419 4.06805,0.46944 1.07378,-0.0886 2.08003,-0.13619 3.28806,0.22506 1.20805,0.36121 2.61819,1.13195 4.5011,2.67396 1.04907,0.85982 2.00723,1.90889 3.06374,2.9207 1.05651,1.0118 2.21239,1.98676 3.65261,2.70942 1.59279,0.79918 3.29515,0.9183 4.88641,0.61434 0.94128,-0.17979 1.67502,-0.71062 2.49086,-1.1306 -2.72538,-5.7373 -7.10511,-10.05458 -11.68204,-13.76929 z"
         id="path7899" />
      <path
         style="fill:#4d4d4d;fill-rule:evenodd;stroke:none;stroke-width:1px;stroke-linecap:butt;stroke-linejoin:miter;stroke-opacity:1"
         d="m 567.78106,892.30564 -3.06914,2.11955 2.43945,3.01 3.44262,-2.99018 z"
         id="path7901" />
      <path
         style="fill:#4d4d4d;fill-rule:evenodd;stroke:none;stroke-width:1px;stroke-linecap:butt;stroke-linejoin:miter;stroke-opacity:1"
         d="m 572.03265,896.58389 0.1776,0.27257 2.16113,2.74336 -3.40091,2.32084 -2.14934,-2.54194 z"
         id="path7903" />
      <path
         id="path7905"
         d="m 567.59181,891.48816 -3.06914,2.11955 2.43946,3.00998 3.44262,-2.99017 z"
         style="fill:#ffffff;fill-rule:evenodd;stroke:none;stroke-width:1px;stroke-linecap:butt;stroke-linejoin:miter;stroke-opacity:1" />
      <path
         id="path7907"
         d="m 571.8434,895.76641 0.1776,0.27257 2.16114,2.74334 -3.40091,2.32084 -2.14934,-2.54194 z"
         style="fill:#ffffff;fill-rule:evenodd;stroke:none;stroke-width:1px;stroke-linecap:butt;stroke-linejoin:miter;stroke-opacity:1" />
      <path
         style="fill:#e33213;fill-opacity:1;fill-rule:evenodd;stroke:none;stroke-width:1px;stroke-linecap:butt;stroke-linejoin:miter;stroke-opacity:1"
         d="m 553.65337,887.73271 0.34916,-4.29316 c 0.0715,-0.87944 2.0526,-0.54773 1.82615,0.19331 l -1.54735,5.06343 z"
         id="path7909" />
      <path
         style="fill:#e33213;fill-opacity:1;fill-rule:evenodd;stroke:none;stroke-width:1px;stroke-linecap:butt;stroke-linejoin:miter;stroke-opacity:1"
         d="m 566.02904,886.4617 c -0.89534,-0.37529 -2.14641,-0.0953 -1.76954,1.55171 l 0.74834,3.27183 -0.0498,0.11609 0.77421,0.29782 1.09193,-4.00719 c 0.14817,-0.54223 -0.25805,-1.00487 -0.79517,-1.23022 z m -0.24433,0.47934 c 0.265,0.0871 0.45109,0.31249 0.34908,0.70812 l -0.75826,2.93907 -0.59863,-3.07016 c -0.0946,-0.48487 0.56607,-0.72206 1.00781,-0.57703 z"
         id="path7911" />
      <path
         style="fill:#e33213;fill-opacity:1;fill-rule:evenodd;stroke:none;stroke-width:1px;stroke-linecap:butt;stroke-linejoin:miter;stroke-opacity:1"
         d="m 530.64453,781.82617 -13.39453,-8.62695 -12.22461,13.43164 3.55273,8.1582 26.51368,34.94922 c 4.68574,-11.00156 11.7768,-12.65182 18.6289,-15.23437 0,0 -21.10746,-21.77781 -21.86718,-22.69532 -0.75971,-0.91752 -1.20899,-9.98242 -1.20899,-9.98242 z"
         id="path8290" />
      <path
         id="path7875"
         d="M 525.6771,803.1951 511.96172,786.20069"
         style="fill:none;fill-rule:evenodd;stroke:#333333;stroke-width:2.79999995;stroke-linecap:butt;stroke-linejoin:miter;stroke-miterlimit:4;stroke-dasharray:none;stroke-opacity:1" />
      <path
         id="path7915"
         d="m 497.38153,781.12634 c 0.2001,0.39907 10.23867,14.5427 10.23867,14.5427 -1.09215,-1.73712 27.1587,-35.99449 28.51093,-33.97298 0.39715,0.5937 -12.59068,-11.16594 -12.59068,-11.16594 -7.51418,11.2841 -15.5844,22.06754 -26.15892,30.59622 z"
         style="fill:#501616;fill-rule:evenodd;stroke:none;stroke-width:1px;stroke-linecap:butt;stroke-linejoin:miter;stroke-opacity:1" />
      <path
         id="path7917"
         d="m 500.04669,783.19835 c 5.03748,5.15886 12.11531,-0.81154 7.38886,-7.51886"
         style="fill:none;fill-rule:evenodd;stroke:#999999;stroke-width:1px;stroke-linecap:butt;stroke-linejoin:miter;stroke-opacity:1" />
      <path
         id="path7919"
         d="m 509.24024,773.64453 c 7.51257,3.55793 11.49913,-2.40403 7.50125,-7.999"
         style="fill:none;fill-rule:evenodd;stroke:#999999;stroke-width:1px;stroke-linecap:butt;stroke-linejoin:miter;stroke-opacity:1" />
      <path
         id="path7923"
         d="m 517.44039,808.87196 c 0.25534,1.07263 7.77647,10.43792 7.77647,10.43792 l 18.8986,-16.25656 -8.93384,-10.21071 z"
         style="fill:#782121;fill-opacity:1;fill-rule:evenodd;stroke:none;stroke-width:1px;stroke-linecap:butt;stroke-linejoin:miter;stroke-opacity:1" />
      <path
         style="color:#000000;font-style:normal;font-variant:normal;font-weight:normal;font-stretch:normal;font-size:medium;line-height:normal;font-family:sans-serif;text-indent:0;text-align:start;text-decoration:none;text-decoration-line:none;text-decoration-style:solid;text-decoration-color:#000000;letter-spacing:normal;word-spacing:normal;text-transform:none;direction:ltr;block-progression:tb;writing-mode:lr-tb;baseline-shift:baseline;text-anchor:start;white-space:normal;clip-rule:nonzero;display:inline;overflow:visible;visibility:visible;opacity:1;isolation:auto;mix-blend-mode:normal;color-interpolation:sRGB;color-interpolation-filters:linearRGB;solid-color:#000000;solid-opacity:1;fill:#666666;fill-opacity:1;fill-rule:evenodd;stroke:none;stroke-width:1.39999998;stroke-linecap:butt;stroke-linejoin:miter;stroke-miterlimit:4;stroke-dasharray:none;stroke-dashoffset:0;stroke-opacity:1;color-rendering:auto;image-rendering:auto;shape-rendering:auto;text-rendering:auto;enable-background:accumulate"
         d="m 641.27616,782.61507 -0.96875,1.08203 7.72071,11.87695 c 0.96544,1.48542 0.86599,2.6272 0.20703,3.71485 -0.41452,0.68418 -1.25852,1.35586 -2.10213,1.90289 0.34851,0.53882 0.42862,0.66349 0.75782,1.17383 0.98612,-0.63182 1.97943,-1.42231 2.54157,-2.35016 0.88985,-1.46873 0.96592,-3.36434 -0.23047,-5.20508 z"
         id="path8331" />
      <path
         style="color:#000000;font-style:normal;font-variant:normal;font-weight:normal;font-stretch:normal;font-size:medium;line-height:normal;font-family:sans-serif;text-indent:0;text-align:start;text-decoration:none;text-decoration-line:none;text-decoration-style:solid;text-decoration-color:#000000;letter-spacing:normal;word-spacing:normal;text-transform:none;direction:ltr;block-progression:tb;writing-mode:lr-tb;baseline-shift:baseline;text-anchor:start;white-space:normal;clip-rule:nonzero;display:inline;overflow:visible;visibility:visible;opacity:1;isolation:auto;mix-blend-mode:normal;color-interpolation:sRGB;color-interpolation-filters:linearRGB;solid-color:#000000;solid-opacity:1;fill:#999999;fill-opacity:1;fill-rule:evenodd;stroke:none;stroke-width:1.39999998;stroke-linecap:butt;stroke-linejoin:miter;stroke-miterlimit:4;stroke-dasharray:none;stroke-dashoffset:0;stroke-opacity:1;color-rendering:auto;image-rendering:auto;shape-rendering:auto;text-rendering:auto;enable-background:accumulate"
         d="m 530.82844,747.70613 c -0.4065,-0.075 -0.82551,-0.25195 -1.20118,-0.25 -0.41107,0.002 -0.79308,0.0463 -1.14453,0.16406 -0.35144,0.11774 -0.71513,0.31634 -0.91797,0.72461 l -2.76813,5.71512 c -0.39327,0.79158 -0.14129,1.67814 0.33203,2.29492 0.47333,0.61681 1.15087,1.09702 1.86719,1.48047 0.71632,0.38346 1.47015,0.66188 2.13867,0.79102 0.33426,0.0646 0.64467,0.0949 0.95703,0.0586 0.31238,-0.0363 0.70509,-0.15105 0.93555,-0.54297 l 1.58259,-2.60965 -1.11524,-0.86914 -1.59235,2.62918 c -0.0947,0.008 -0.27228,0.003 -0.50195,-0.041 -0.48434,-0.0936 -1.14627,-0.33034 -1.74414,-0.65039 -0.59787,-0.32005 -1.13511,-0.7316 -1.41602,-1.09766 -0.28091,-0.36605 -0.32318,-0.55115 -0.18945,-0.82031 l 2.76813,-5.71513 c -0.0395,0.0795 -0.0396,0.0304 0.10938,-0.0195 0.14895,-0.0499 0.40462,-0.0923 0.70703,-0.0937 0.20768,-10e-4 0.46978,0.11438 0.70898,0.14844 l 0.48438,-1.29687 z"
         id="path8371" />
    </g>
  </g>
</svg>
