<?xml version="1.0" encoding="UTF-8" standalone="no"?>
<svg
   xmlns:dc="http://purl.org/dc/elements/1.1/"
   xmlns:cc="http://creativecommons.org/ns#"
   xmlns:rdf="http://www.w3.org/1999/02/22-rdf-syntax-ns#"
   xmlns:svg="http://www.w3.org/2000/svg"
   xmlns="http://www.w3.org/2000/svg"
   version="1.1"
   width="26mm"
   height="37mm"
   viewBox="0 0 98.267715 139.84252"
   id="svg4">
  <metadata
     id="metadata10">
    <rdf:RDF>
      <cc:Work
         rdf:about="">
        <dc:format>image/svg+xml</dc:format>
        <dc:type
           rdf:resource="http://purl.org/dc/dcmitype/StillImage" />
        <dc:title></dc:title>
      </cc:Work>
    </rdf:RDF>
  </metadata>
  <defs
     id="defs8" />
  <path
     d="m 40.129229,62.042218 h 3.376736 l 2.251157,-2.251157 h 6.753472 l 2.251157,2.251157 h 3.376736 a 2.2511572,2.2511572 0 0 1 2.251157,2.251157 v 13.506944 a 2.2511572,2.2511572 0 0 1 -2.251157,2.251157 H 40.129229 A 2.2511572,2.2511572 0 0 1 37.878072,77.800319 V 64.293375 a 2.2511572,2.2511572 0 0 1 2.251157,-2.251157 m 9.004629,3.376736 a 5.6278929,5.6278929 0 0 0 -5.627893,5.627893 5.6278929,5.6278929 0 0 0 5.627893,5.627893 5.6278929,5.6278929 0 0 0 5.627893,-5.627893 5.6278929,5.6278929 0 0 0 -5.627893,-5.627893 m 0,2.251157 a 3.3767358,3.3767358 0 0 1 3.376736,3.376736 3.3767358,3.3767358 0 0 1 -3.376736,3.376736 3.3767358,3.3767358 0 0 1 -3.376736,-3.376736 3.3767358,3.3767358 0 0 1 3.376736,-3.376736 z"
     id="path2"
     style="fill:#808080;stroke-width:1.12557852" />
</svg>
