<?xml version="1.0" encoding="UTF-8" standalone="no"?>
<svg
   xmlns:dc="http://purl.org/dc/elements/1.1/"
   xmlns:cc="http://creativecommons.org/ns#"
   xmlns:rdf="http://www.w3.org/1999/02/22-rdf-syntax-ns#"
   xmlns:svg="http://www.w3.org/2000/svg"
   xmlns="http://www.w3.org/2000/svg"
   width="83.038872mm"
   height="100mm"
   viewBox="0 0 83.038872 100"
   version="1.1"
   id="svg7133">
  <defs
     id="defs7127" />
  <metadata
     id="metadata7130">
    <rdf:RDF>
      <cc:Work
         rdf:about="">
        <dc:format>image/svg+xml</dc:format>
        <dc:type
           rdf:resource="http://purl.org/dc/dcmitype/StillImage" />
        <dc:title></dc:title>
      </cc:Work>
    </rdf:RDF>
  </metadata>
  <rect
     id="rect6960"
     width="10.953989"
     height="99.999985"
     x="3.6969222e-06"
     y="-1.979831e-05"
     style="fill:#013c5c;fill-opacity:1;stroke-width:0.25667825" />
  <rect
     id="rect6962"
     width="74.911736"
     height="100"
     x="8.127121"
     y="-1.979831e-05"
     style="fill:#ff5722;fill-opacity:1;stroke-width:0.67124009" />
  <rect
     style="fill:#d84315;fill-opacity:1;stroke-width:0.47463837"
     y="-1.979831e-05"
     x="45.582966"
     height="99.999985"
     width="37.455868"
     id="rect6964" />
  <path
     style="fill:#ffffff;fill-opacity:0.34649126;stroke-width:0.7067138"
     d="m 79.411466,61.218954 -11.653851,20.184135 -3.187148,-5.519824 -2.608752,4.517733 -5.871811,-10.171446 -7.72692,13.383395 -3.902129,6.757955 -3.824805,-6.625439 -5.737881,9.938153 -3.646783,6.316263 H 83.038879 V 67.502092 Z"
     id="path6966" />
  <path
     d="m 10.157057,17.834288 h 5.212188 l 3.644294,15.32581 3.616044,-15.32581 h 5.240439 l 3.616043,15.32581 3.644295,-15.32581 h 5.169812 l -4.97206,21.08888 H 29.056536 L 25.228615,22.891099 21.443069,38.923168 h -6.271576 z"
     style="font-style:normal;font-variant:normal;font-weight:bold;font-stretch:normal;font-size:medium;line-height:125%;font-family:sans-serif;-inkscape-font-specification:'sans-serif Bold';letter-spacing:0px;word-spacing:0px;fill:#ffffff;fill-opacity:1;stroke:none;stroke-width:0.72320884px;stroke-linecap:butt;stroke-linejoin:miter;stroke-opacity:1"
     id="path6599" />
  <path
     d="m 43.87384,17.834288 h 14.676052 v 4.110424 h -9.237861 v 3.926798 h 8.68698 v 4.110425 h -8.68698 v 4.830808 h 9.548615 v 4.110425 H 43.87384 Z"
     style="font-style:normal;font-variant:normal;font-weight:bold;font-stretch:normal;font-size:medium;line-height:125%;font-family:sans-serif;-inkscape-font-specification:'sans-serif Bold';letter-spacing:0px;word-spacing:0px;fill:#ffffff;fill-opacity:1;stroke:none;stroke-width:0.72320884px;stroke-linecap:butt;stroke-linejoin:miter;stroke-opacity:1"
     id="path6601" />
  <path
     d="m 72.095934,25.998637 q 1.28539,0 1.949273,-0.565007 0.663884,-0.565007 0.663884,-1.66677 0,-1.087639 -0.663884,-1.652645 -0.663883,-0.579132 -1.949273,-0.579132 h -3.008662 v 4.463554 z m 0.183627,9.223736 q 1.63852,0 2.45778,-0.692133 0.833385,-0.692133 0.833385,-2.090525 0,-1.370142 -0.81926,-2.04815 -0.81926,-0.692134 -2.471905,-0.692134 h -3.192289 v 5.522942 z m 5.056811,-7.585217 q 1.751522,0.508507 2.712033,1.878648 0.960512,1.370142 0.960512,3.361791 0,3.051037 -2.062275,4.548305 -2.062275,1.497268 -6.271576,1.497268 h -9.025984 v -21.08888 h 8.164348 q 4.392929,0 6.356327,1.327766 1.977524,1.327766 1.977524,4.251676 0,1.539644 -0.720383,2.627282 -0.720384,1.073513 -2.090526,1.596144 z"
     style="font-style:normal;font-variant:normal;font-weight:bold;font-stretch:normal;font-size:medium;line-height:125%;font-family:sans-serif;-inkscape-font-specification:'sans-serif Bold';letter-spacing:0px;word-spacing:0px;fill:#ffffff;fill-opacity:1;stroke:none;stroke-width:0.72320884px;stroke-linecap:butt;stroke-linejoin:miter;stroke-opacity:1"
     id="path6603" />
</svg>
