<?xml version="1.0" encoding="UTF-8" standalone="no"?>
<!-- Created with Inkscape (http://www.inkscape.org/) -->

<svg
   width="210mm"
   height="297mm"
   viewBox="0 0 210 297"
   version="1.1"
   id="svg1"
   xmlns="http://www.w3.org/2000/svg"
   xmlns:svg="http://www.w3.org/2000/svg">
  <defs
     id="defs1" />
  <g
     id="layer1">
    <g
       id="g1"
       transform="translate(-4.96875,35.247917)">
      <rect
         style="font-variation-settings:'wght' 700;fill:#ffffff;stroke:#666666;stroke-width:2;stroke-dasharray:none"
         id="rect1"
         width="210"
         height="297"
         x="4.96875"
         y="-35.247917" />
      <path
         d="m 103.56421,-0.216917 h 12.62634 v 28.409098 l 11.04796,-11.047962 7.63887,7.638869 -25,25.000005 -25.000001,-25.000005 7.63887,-7.638869 11.047961,11.047962 z"
         id="path1-9-8"
         style="fill:#6200ea;stroke-width:3.15656" />
      <path
         d="m 181.28895,237.53617 h 2.36594 v 2.36599 h -2.36594 v -2.36599 m 9.46388,-7.09794 h 2.366 v 4.73199 h -2.366 v -4.73199 m -2.36595,7.09794 h 4.73195 v 4.73199 h -2.366 v -2.366 h -2.36595 v -2.36599 m 7.09793,0 h 2.36596 v 2.36599 h 2.366 v -2.36599 h 2.36599 v 2.36599 h -2.36599 v 2.366 h 2.36599 v 4.73194 h -2.36599 v 2.36599 h -2.366 v -2.36599 h -4.73194 v 2.36599 h -2.366 v -4.73199 h 4.73198 v -2.36594 h 2.36596 v -2.366 h -2.36596 v -2.36599 m 4.73196,9.46393 v -4.73194 h -2.366 v 4.73194 h 2.366 m -4.73196,-18.92782 h 7.09795 v 7.09794 h -7.09795 v -7.09794 m 2.36596,2.36595 v 2.36599 h 2.366 v -2.36599 h -2.366 m -16.56182,-2.36595 h 7.09793 v 7.09794 h -7.09793 v -7.09794 m 2.36594,2.36595 v 2.36599 h 2.366 v -2.36599 h -2.366 m -2.36594,11.82993 h 7.09793 v 7.09793 h -7.09793 v -7.09793 m 2.36594,2.36594 v 2.366 h 2.366 v -2.366 z"
         id="path1-0"
         style="fill:#808080;fill-opacity:1;stroke-width:1.18298" />
      <circle
         style="font-variation-settings:'wght' 700;fill:#808080;stroke:none;stroke-width:2.77206;stroke-dasharray:none"
         id="path1"
         cx="28.001646"
         cy="238.71919"
         r="10.646907" />
      <g
         id="g9"
         transform="translate(4.96875,-34.087335)">
        <rect
           style="font-variation-settings:'wght' 700;fill:#808080;fill-opacity:1;stroke:none;stroke-width:2.63742;stroke-dasharray:none"
           id="rect8"
           width="78.514359"
           height="7.2256813"
           x="65.742821"
           y="264.96033"
           ry="0.92359698" />
        <rect
           style="font-variation-settings:'wght' 700;fill:#808080;fill-opacity:1;stroke:none;stroke-width:1.72348;stroke-dasharray:none"
           id="rect9"
           width="53.783062"
           height="4.5043983"
           x="78.108467"
           y="276.14832"
           ry="0.5757587" />
      </g>
      <g
         id="g20"
         transform="translate(4.96875,-21.489581)">
        <g
           id="g13">
          <circle
             style="font-variation-settings:'wght' 700;fill:#808080;stroke:none;stroke-width:2.77206;stroke-dasharray:none"
             id="path1-1"
             cx="29.696907"
             cy="103.33461"
             r="10.646907" />
          <rect
             style="font-variation-settings:'wght' 700;fill:#808080;fill-opacity:1;stroke:none;stroke-width:2.63742;stroke-dasharray:none"
             id="rect8-2"
             width="10.371567"
             height="13.095944"
             x="47.858143"
             y="96.786636"
             ry="0.92359698" />
          <rect
             style="font-variation-settings:'wght' 700;fill:none;fill-opacity:1;stroke:#808080;stroke-width:1.97836;stroke-dasharray:none;stroke-opacity:1"
             id="rect10"
             width="183.22441"
             height="35.44643"
             x="13.400416"
             y="85.611397"
             ry="0.91360646" />
          <g
             id="g12"
             transform="translate(0,4.0323243)">
            <rect
               style="font-variation-settings:'wght' 700;fill:#808080;fill-opacity:1;stroke:none;stroke-width:1.72348;stroke-dasharray:none"
               id="rect9-1-7"
               width="53.783062"
               height="4.5043983"
               x="67.630203"
               y="90.435501"
               ry="0.5757587" />
            <rect
               style="font-variation-settings:'wght' 700;fill:#808080;fill-opacity:1;stroke:none;stroke-width:1.52327;stroke-dasharray:none"
               id="rect11"
               width="30.205257"
               height="3.5186749"
               x="67.630203"
               y="98.829559"
               ry="0.44976172" />
            <rect
               style="font-variation-settings:'wght' 700;fill:#808080;fill-opacity:1;stroke:none;stroke-width:1.52327;stroke-dasharray:none"
               id="rect12"
               width="36.436108"
               height="3.5186768"
               x="67.630203"
               y="104.65039"
               ry="0.44976172" />
          </g>
        </g>
        <g
           id="g18"
           transform="translate(0,42.333332)">
          <circle
             style="font-variation-settings:'wght' 700;fill:#808080;stroke:none;stroke-width:2.77206;stroke-dasharray:none"
             id="circle13"
             cx="29.696907"
             cy="103.33461"
             r="10.646907" />
          <rect
             style="font-variation-settings:'wght' 700;fill:#808080;fill-opacity:1;stroke:none;stroke-width:2.63742;stroke-dasharray:none"
             id="rect13"
             width="10.371567"
             height="13.095944"
             x="47.858143"
             y="96.786636"
             ry="0.92359698" />
          <rect
             style="font-variation-settings:'wght' 700;fill:none;fill-opacity:1;stroke:#808080;stroke-width:1.97836;stroke-dasharray:none;stroke-opacity:1"
             id="rect14"
             width="183.22441"
             height="35.44643"
             x="13.400416"
             y="85.611397"
             ry="0.91360646" />
          <g
             id="g17"
             transform="translate(0,4.0323243)">
            <rect
               style="font-variation-settings:'wght' 700;fill:#808080;fill-opacity:1;stroke:none;stroke-width:1.72348;stroke-dasharray:none"
               id="rect15"
               width="53.783062"
               height="4.5043983"
               x="67.630203"
               y="90.435501"
               ry="0.5757587" />
            <rect
               style="font-variation-settings:'wght' 700;fill:#808080;fill-opacity:1;stroke:none;stroke-width:1.52327;stroke-dasharray:none"
               id="rect16"
               width="30.205257"
               height="3.5186749"
               x="67.630203"
               y="98.829559"
               ry="0.44976172" />
            <rect
               style="font-variation-settings:'wght' 700;fill:#808080;fill-opacity:1;stroke:none;stroke-width:1.52327;stroke-dasharray:none"
               id="rect17"
               width="36.436108"
               height="3.5186768"
               x="67.630203"
               y="104.65039"
               ry="0.44976172" />
          </g>
        </g>
      </g>
      <path
         d="m 116.26831,205.67463 h -12.62633 v -28.4091 l -11.047966,11.04797 -7.63887,-7.63888 24.999996,-25.00001 25,25.00001 -7.63887,7.63888 -11.04796,-11.04797 z"
         id="path20"
         style="fill:#6200ea;stroke-width:3.15656" />
    </g>
  </g>
</svg>
