<?xml version="1.0" encoding="UTF-8" standalone="no"?>
<!-- Created with Inkscape (http://www.inkscape.org/) -->

<svg
   width="210mm"
   height="297mm"
   viewBox="0 0 210 297"
   version="1.1"
   id="svg1"
   xmlns="http://www.w3.org/2000/svg"
   xmlns:svg="http://www.w3.org/2000/svg">
  <defs
     id="defs1" />
  <g
     id="layer1">
    <g
       id="g1"
       transform="translate(28.897915,-9.9958334)">
      <rect
         style="font-variation-settings:'wght' 700;fill:#ffffff;stroke:#666666;stroke-width:2;stroke-dasharray:none"
         id="rect35"
         width="210"
         height="297"
         x="-28.897915"
         y="9.9958334" />
      <path
         d="m 68.99959,121.41856 h 12.62633 v 28.40911 l 11.04796,-11.04797 7.63887,7.63887 -25,25.00001 -25,-25.00001 7.63887,-7.63887 11.04797,11.04797 z"
         id="path36"
         style="fill:#6200ea;stroke-width:3.15655" />
      <path
         d="m 147.4223,282.77992 h 2.36594 v 2.36599 h -2.36594 v -2.36599 m 9.46387,-7.09794 h 2.366 v 4.73199 h -2.366 v -4.73199 m -2.36594,7.09794 h 4.73194 v 4.73199 h -2.366 v -2.366 h -2.36594 v -2.36599 m 7.09792,0 h 2.36596 v 2.36599 h 2.366 v -2.36599 h 2.36599 v 2.36599 h -2.36599 v 2.366 h 2.36599 v 4.73194 h -2.36599 v 2.36599 h -2.366 v -2.36599 h -4.73194 v 2.36599 h -2.366 v -4.73199 h 4.73198 v -2.36594 h 2.36596 v -2.366 h -2.36596 v -2.36599 m 4.73196,9.46393 v -4.73194 h -2.366 v 4.73194 h 2.366 m -4.73196,-18.92782 h 7.09795 v 7.09794 h -7.09795 v -7.09794 m 2.36596,2.36595 v 2.36599 h 2.366 v -2.36599 h -2.366 m -16.56181,-2.36595 h 7.09793 v 7.09794 h -7.09793 v -7.09794 m 2.36594,2.36595 v 2.36599 h 2.366 v -2.36599 h -2.366 m -2.36594,11.82993 h 7.09793 v 7.09793 h -7.09793 v -7.09793 m 2.36594,2.36594 v 2.366 h 2.366 v -2.366 z"
         id="path37"
         style="fill:#808080;fill-opacity:1;stroke-width:1.18298" />
      <circle
         style="font-variation-settings:'wght' 700;fill:#808080;stroke:none;stroke-width:2.77206;stroke-dasharray:none"
         id="circle37"
         cx="-5.8650317"
         cy="283.96292"
         r="10.646907" />
      <g
         id="g38"
         transform="translate(-28.89795,11.156415)">
        <rect
           style="font-variation-settings:'wght' 700;fill:#808080;fill-opacity:1;stroke:none;stroke-width:2.63742;stroke-dasharray:none"
           id="rect37"
           width="78.514359"
           height="7.2256813"
           x="65.742821"
           y="264.96033"
           ry="0.92359698" />
        <rect
           style="font-variation-settings:'wght' 700;fill:#808080;fill-opacity:1;stroke:none;stroke-width:1.72348;stroke-dasharray:none"
           id="rect38"
           width="53.783062"
           height="4.5043983"
           x="78.108467"
           y="276.14832"
           ry="0.5757587" />
      </g>
      <g
         id="g50"
         transform="translate(-28.89795,101.54168)">
        <g
           id="g44">
          <circle
             style="font-variation-settings:'wght' 700;fill:#808080;stroke:none;stroke-width:2.77206;stroke-dasharray:none"
             id="circle38"
             cx="29.696907"
             cy="103.33461"
             r="10.646907" />
          <rect
             style="font-variation-settings:'wght' 700;fill:#808080;fill-opacity:1;stroke:none;stroke-width:2.63742;stroke-dasharray:none"
             id="rect39"
             width="10.371567"
             height="13.095944"
             x="47.858143"
             y="96.786636"
             ry="0.92359698" />
          <rect
             style="font-variation-settings:'wght' 700;fill:none;fill-opacity:1;stroke:#808080;stroke-width:1.97836;stroke-dasharray:none;stroke-opacity:1"
             id="rect40"
             width="183.22441"
             height="35.44643"
             x="13.400416"
             y="85.611397"
             ry="0.91360646" />
          <g
             id="g43"
             transform="translate(0,4.0323243)">
            <rect
               style="font-variation-settings:'wght' 700;fill:#808080;fill-opacity:1;stroke:none;stroke-width:1.72348;stroke-dasharray:none"
               id="rect41"
               width="53.783062"
               height="4.5043983"
               x="67.630203"
               y="90.435501"
               ry="0.5757587" />
            <rect
               style="font-variation-settings:'wght' 700;fill:#808080;fill-opacity:1;stroke:none;stroke-width:1.52327;stroke-dasharray:none"
               id="rect42"
               width="30.205257"
               height="3.5186749"
               x="67.630203"
               y="98.829559"
               ry="0.44976172" />
            <rect
               style="font-variation-settings:'wght' 700;fill:#808080;fill-opacity:1;stroke:none;stroke-width:1.52327;stroke-dasharray:none"
               id="rect43"
               width="36.436108"
               height="3.5186768"
               x="67.630203"
               y="104.65039"
               ry="0.44976172" />
          </g>
        </g>
        <g
           id="g49"
           transform="translate(0,42.333332)">
          <circle
             style="font-variation-settings:'wght' 700;fill:#808080;stroke:none;stroke-width:2.77206;stroke-dasharray:none"
             id="circle44"
             cx="29.696907"
             cy="103.33461"
             r="10.646907" />
          <rect
             style="font-variation-settings:'wght' 700;fill:#808080;fill-opacity:1;stroke:none;stroke-width:2.63742;stroke-dasharray:none"
             id="rect44"
             width="10.371567"
             height="13.095944"
             x="47.858143"
             y="96.786636"
             ry="0.92359698" />
          <rect
             style="font-variation-settings:'wght' 700;fill:none;fill-opacity:1;stroke:#808080;stroke-width:1.97836;stroke-dasharray:none;stroke-opacity:1"
             id="rect45"
             width="183.22441"
             height="35.44643"
             x="13.400416"
             y="85.611397"
             ry="0.91360646" />
          <g
             id="g48"
             transform="translate(0,4.0323243)">
            <rect
               style="font-variation-settings:'wght' 700;fill:#808080;fill-opacity:1;stroke:none;stroke-width:1.72348;stroke-dasharray:none"
               id="rect46"
               width="53.783062"
               height="4.5043983"
               x="67.630203"
               y="90.435501"
               ry="0.5757587" />
            <rect
               style="font-variation-settings:'wght' 700;fill:#808080;fill-opacity:1;stroke:none;stroke-width:1.52327;stroke-dasharray:none"
               id="rect47"
               width="30.205257"
               height="3.5186749"
               x="67.630203"
               y="98.829559"
               ry="0.44976172" />
            <rect
               style="font-variation-settings:'wght' 700;fill:#808080;fill-opacity:1;stroke:none;stroke-width:1.52327;stroke-dasharray:none"
               id="rect48"
               width="36.436108"
               height="3.5186768"
               x="67.630203"
               y="104.65039"
               ry="0.44976172" />
          </g>
        </g>
      </g>
    </g>
  </g>
</svg>
