<?xml version="1.0" encoding="UTF-8" standalone="no"?>
<svg
   id="Calque_1"
   data-name="Calque 1"
   viewBox="0 0 154 46"
   version="1.1"
   xmlns="http://www.w3.org/2000/svg"
   xmlns:svg="http://www.w3.org/2000/svg">
  <defs
     id="defs1">
    <style
       id="style1">.cls-1{fill:#fff;}</style>
  </defs>
  <path
     class="cls-1"
     d="M148,45.29H6a6.06,6.06,0,0,1-6-6.12V6.12A6.05,6.05,0,0,1,6,0H148a6,6,0,0,1,6,6.12V39.17A6.06,6.06,0,0,1,148,45.29ZM6,.77A5.28,5.28,0,0,0,.77,6.12V39.17A5.28,5.28,0,0,0,6,44.52H148a5.28,5.28,0,0,0,5.19-5.35V6.12A5.28,5.28,0,0,0,148,.77Z"
     id="path1"
     style="fill:#000000" />
  <path
     class="cls-1"
     d="M39.47,30.1a21.74,21.74,0,0,1-2,3.7c-1.29,2-3.1,4.39-5.34,4.41-2,0-2.5-1.3-5.2-1.28s-3.27,1.3-5.26,1.28c-2.25,0-4-2.22-5.24-4.17-3.59-5.47-4-11.89-1.75-15.31a7.94,7.94,0,0,1,6.38-3.84c2.38,0,3.87,1.3,5.84,1.3s3.06-1.31,5.81-1.31A7.75,7.75,0,0,1,38.58,18,6.7,6.7,0,0,0,39.47,30.1Z"
     id="path2"
     style="fill:#000000" />
  <path
     class="cls-1"
     d="M30.66,12.7a6.74,6.74,0,0,0,1.48-4.95,7.2,7.2,0,0,0-4.65,2.51A6.18,6.18,0,0,0,26,15.08,6.07,6.07,0,0,0,30.66,12.7Z"
     id="path3"
     style="fill:#000000" />
  <path
     class="cls-1"
     d="M50.41,18.65,45.27,33.8h2.35l1.53-4.65h5l1.58,4.65h2.42L53,18.65Zm1.22,2.49c.17.68.36,1.38.6,2.14l1.38,4H49.67L51,23.25C51.24,22.6,51.44,21.89,51.63,21.14Z"
     id="path4"
     style="fill:#000000" />
  <path
     class="cls-1"
     d="M64.78,22.58a4.28,4.28,0,0,0-3.64,1.75l-.09-1.51H59V23c.06.94.09,2,.09,3.46V38.15h2.29V32.7A4,4,0,0,0,64.48,34,4.72,4.72,0,0,0,68,32.57a6.29,6.29,0,0,0,1.53-4.41,6.11,6.11,0,0,0-1.33-4A4.36,4.36,0,0,0,64.78,22.58Zm-.57,1.9c2,0,3,1.89,3,3.77,0,2.42-1.17,3.92-3,3.92A2.78,2.78,0,0,1,61.43,30a3,3,0,0,1-.08-.74V27.46a4.21,4.21,0,0,1,.07-.57l0-.19A2.91,2.91,0,0,1,64.21,24.48Z"
     id="path5"
     style="fill:#000000" />
  <path
     class="cls-1"
     d="M76.57,22.58a4.29,4.29,0,0,0-3.64,1.75l-.09-1.51H70.75V23c.06.94.09,2,.09,3.46V38.15h2.29V32.7A4,4,0,0,0,76.27,34a4.72,4.72,0,0,0,3.47-1.47,6.29,6.29,0,0,0,1.53-4.41,6.11,6.11,0,0,0-1.33-4A4.36,4.36,0,0,0,76.57,22.58ZM76,24.48c2,0,2.95,1.89,2.95,3.77,0,2.42-1.17,3.92-3,3.92A2.78,2.78,0,0,1,73.22,30a3,3,0,0,1-.08-.74V27.46a4,4,0,0,1,.07-.57c0-.06,0-.13,0-.19A2.89,2.89,0,0,1,76,24.48Z"
     id="path6"
     style="fill:#000000" />
  <path
     class="cls-1"
     d="M91.35,25.07c-2.14-.83-2.82-1.48-2.82-2.68,0-1,.8-2,2.6-2a5.21,5.21,0,0,1,2.69.68l.19.12.65-1.92-.13-.07a6.61,6.61,0,0,0-3.34-.75c-2.92,0-5,1.72-5,4.19,0,2,1.28,3.39,4,4.39,2,.73,2.67,1.47,2.67,2.75,0,1.44-1.12,2.34-2.91,2.34a6.22,6.22,0,0,1-3.3-.94l-.2-.12L85.9,33l.11.08a7.8,7.8,0,0,0,3.87,1c3.93,0,5.33-2.4,5.33-4.46S94.09,26.15,91.35,25.07Z"
     id="path7"
     style="fill:#000000" />
  <path
     class="cls-1"
     d="M99.33,20.21l-2.25.7v1.91H95.44v1.83h1.64v5.61a4.26,4.26,0,0,0,.8,2.91,2.9,2.9,0,0,0,2.21.87,5.46,5.46,0,0,0,1.77-.27l.13,0-.11-1.84-.22.07a3.39,3.39,0,0,1-1.06.12c-.89,0-1.27-.56-1.27-1.88V24.65h2.76V22.82H99.33Z"
     id="path8"
     style="fill:#000000" />
  <path
     class="cls-1"
     d="M107.77,22.58c-3.21,0-5.44,2.39-5.44,5.82S104.49,34,107.59,34h0c2.62,0,5.44-1.82,5.44-5.84a5.8,5.8,0,0,0-1.45-4.05A5.1,5.1,0,0,0,107.77,22.58Zm-.07,1.81c2.06,0,3,2,3,3.88,0,2.3-1.28,4-3,4h0c-1.74,0-3-1.64-3-3.9C104.64,26.37,105.59,24.39,107.7,24.39Z"
     id="path9"
     style="fill:#000000" />
  <path
     class="cls-1"
     d="M120.07,22.68l-.14,0a2.22,2.22,0,0,0-.57-.07,3.26,3.26,0,0,0-2.87,1.84l-.07-1.6h-2V23c.06.91.09,1.93.09,3.3l0,7.49h2.29V28a6.13,6.13,0,0,1,.06-.89,2.53,2.53,0,0,1,2.41-2.31,5.51,5.51,0,0,1,.61,0l.25,0Z"
     id="path10"
     style="fill:#000000" />
  <path
     class="cls-1"
     d="M125.22,22.56c-3,0-5.18,2.43-5.18,5.93S122.16,34,125.43,34a8.92,8.92,0,0,0,3.63-.69l.14-.07-.44-1.7-.19.07a7,7,0,0,1-2.87.52,3.18,3.18,0,0,1-3.43-3.33l7.39,0,0-.14a4.83,4.83,0,0,0,.07-1C129.76,25.35,128.57,22.56,125.22,22.56Zm-.16,1.74a2.26,2.26,0,0,1,1.68.64,3.24,3.24,0,0,1,.79,2.14h-5.22A2.92,2.92,0,0,1,125.06,24.3Z"
     id="path11"
     style="fill:#000000" />
  <path
     class="cls-1"
     d="M45.27,8.3a15.7,15.7,0,0,1,2.19-.15A5,5,0,0,1,50.69,9a3.15,3.15,0,0,1,1.13,2.59,3.61,3.61,0,0,1-1.15,2.79,5.29,5.29,0,0,1-3.53,1,14.52,14.52,0,0,1-1.87-.09Zm1,6.35a7.89,7.89,0,0,0,1,0c2.2,0,3.39-1.1,3.39-3,0-1.71-1-2.77-3.22-2.77A6.83,6.83,0,0,0,46.3,9Z"
     id="path12"
     style="fill:#000000" />
  <path
     class="cls-1"
     d="M55.5,15.49a2.59,2.59,0,0,1-2.74-2.65,2.66,2.66,0,0,1,2.84-2.73,2.56,2.56,0,0,1,2.75,2.64,2.67,2.67,0,0,1-2.84,2.74Zm0-.7a1.83,1.83,0,0,0,1.73-2,1.75,1.75,0,1,0-3.46,0,1.8,1.8,0,0,0,1.72,2Z"
     id="path13"
     style="fill:#000000" />
  <path
     class="cls-1"
     d="M60,10.22l.77,2.61c.15.58.31,1.12.41,1.65h0c.13-.52.32-1.07.51-1.64l.93-2.62h.87l.89,2.58c.21.61.38,1.16.51,1.68h0a15.49,15.49,0,0,1,.44-1.67l.81-2.59h1l-1.84,5.15h-1l-.87-2.45a16.8,16.8,0,0,1-.51-1.71h0a14.4,14.4,0,0,1-.52,1.72l-.92,2.44h-1l-1.72-5.15Z"
     id="path14"
     style="fill:#000000" />
  <path
     class="cls-1"
     d="M68.27,11.62c0-.55,0-1,0-1.4h.92l.06.84h0a2.17,2.17,0,0,1,1.89-1,2,2,0,0,1,2,2.19v3.07h-1v-3c0-.83-.35-1.53-1.33-1.53a1.49,1.49,0,0,0-1.39,1,1.23,1.23,0,0,0-.07.44v3.1h-1Z"
     id="path15"
     style="fill:#000000" />
  <path
     class="cls-1"
     d="M74.82,7.82h1v7.55h-1Z"
     id="path16"
     style="fill:#000000" />
  <path
     class="cls-1"
     d="M79.91,15.49a2.59,2.59,0,0,1-2.74-2.65A2.66,2.66,0,0,1,80,10.11a2.56,2.56,0,0,1,2.75,2.64,2.66,2.66,0,0,1-2.83,2.74Zm0-.7a1.83,1.83,0,0,0,1.73-2,1.75,1.75,0,1,0-3.46,0,1.8,1.8,0,0,0,1.72,2Z"
     id="path17"
     style="fill:#000000" />
  <path
     class="cls-1"
     d="M88.1,14.14a7.62,7.62,0,0,0,.08,1.23h-.93l-.1-.65h0a2.2,2.2,0,0,1-1.75.77A1.56,1.56,0,0,1,83.62,14c0-1.24,1.23-1.92,3.44-1.91V12c0-.43-.13-1.2-1.3-1.19a3,3,0,0,0-1.5.38L84,10.55a4.12,4.12,0,0,1,1.89-.44,1.91,1.91,0,0,1,2.19,2.1Zm-1-1.39c-1.13,0-2.42.15-2.42,1.16a.87.87,0,0,0,1,.89,1.43,1.43,0,0,0,1.4-.86.82.82,0,0,0,0-.3Z"
     id="path18"
     style="fill:#000000" />
  <path
     class="cls-1"
     d="M94.7,7.82V14c0,.46,0,1,0,1.33h-.94l0-.89h0a2.14,2.14,0,0,1-1.93,1,2.45,2.45,0,0,1-2.46-2.62,2.56,2.56,0,0,1,2.56-2.76,2,2,0,0,1,1.73.77h0V7.82Zm-1,4.5a1.33,1.33,0,0,0,0-.4,1.5,1.5,0,0,0-1.5-1.08,1.76,1.76,0,0,0-1.71,2,1.71,1.71,0,0,0,1.69,1.91,1.54,1.54,0,0,0,1.52-1.11,1.36,1.36,0,0,0,0-.41Z"
     id="path19"
     style="fill:#000000" />
  <path
     class="cls-1"
     d="M101.25,15.49a2.59,2.59,0,0,1-2.74-2.65,2.66,2.66,0,0,1,2.84-2.73,2.56,2.56,0,0,1,2.75,2.64,2.67,2.67,0,0,1-2.84,2.74Zm0-.7a1.83,1.83,0,0,0,1.73-2,1.75,1.75,0,1,0-3.46,0,1.8,1.8,0,0,0,1.72,2Z"
     id="path20"
     style="fill:#000000" />
  <path
     class="cls-1"
     d="M105.41,11.62c0-.55,0-1,0-1.4h.92l.06.84h0a2.17,2.17,0,0,1,1.89-1,2,2,0,0,1,2,2.19v3.07h-1v-3c0-.83-.35-1.53-1.33-1.53a1.49,1.49,0,0,0-1.39,1,1.23,1.23,0,0,0-.07.44v3.1h-1Z"
     id="path21"
     style="fill:#000000" />
  <path
     class="cls-1"
     d="M115.72,9v1.23h1.49v.72h-1.49v2.77c0,.64.2,1,.78,1a2.25,2.25,0,0,0,.6-.06l.05.71a2.91,2.91,0,0,1-.92.13,1.61,1.61,0,0,1-1.13-.39,1.9,1.9,0,0,1-.4-1.35V10.94h-.88v-.72h.88V9.28Z"
     id="path22"
     style="fill:#000000" />
  <path
     class="cls-1"
     d="M118.38,7.82h1V11h0a1.77,1.77,0,0,1,.74-.66,2.23,2.23,0,0,1,1.07-.26,2,2,0,0,1,2,2.2v3.06h-1V12.42c0-.85-.34-1.54-1.32-1.54a1.49,1.49,0,0,0-1.39.94,1,1,0,0,0-.08.45v3.1h-1Z"
     id="path23"
     style="fill:#000000" />
  <path
     class="cls-1"
     d="M125.52,13a1.75,1.75,0,0,0,2,1.79,4.28,4.28,0,0,0,1.58-.26l.19.66a5.07,5.07,0,0,1-1.91.33,2.53,2.53,0,0,1-2.81-2.6,2.61,2.61,0,0,1,2.69-2.78,2.24,2.24,0,0,1,2.35,2.42,1.82,1.82,0,0,1,0,.45Zm3-.67a1.38,1.38,0,0,0-1.43-1.52,1.62,1.62,0,0,0-1.6,1.52Z"
     id="path24"
     style="fill:#000000" />
</svg>
