<svg id="Calque_1" data-name="Calque 1" xmlns="http://www.w3.org/2000/svg" viewBox="0 0 154 46"><defs><style>.cls-1,.cls-2,.cls-3,.cls-4{fill:#fff;}.cls-2,.cls-3,.cls-4{stroke:#000;stroke-width:0.38px;}.cls-2{stroke-miterlimit:10;}.cls-3,.cls-4{stroke-linejoin:round;}.cls-4{stroke-linecap:round;}</style></defs><path class="cls-1" d="M148,45.32H6A6.06,6.06,0,0,1,0,39.2V6.12A6.06,6.06,0,0,1,6,0H148a6.06,6.06,0,0,1,6,6.12V39.2A6.06,6.06,0,0,1,148,45.32ZM6,.77A5.28,5.28,0,0,0,.77,6.12V39.2A5.28,5.28,0,0,0,6,44.55H148a5.28,5.28,0,0,0,5.19-5.35V6.12A5.28,5.28,0,0,0,148,.77Z"/><g id="PLAY"><path class="cls-2" d="M17.65,9.46a.36.36,0,0,0-.62.25V38.47a.37.37,0,0,0,.62.26L32.12,24.35a.37.37,0,0,0,0-.52Z"/><polygon class="cls-3" points="17.61 38.76 30.31 31.77 36.5 28.19 32.38 24.09 17.61 38.76"/><polygon class="cls-4" points="36.5 20 30.31 16.41 17.59 9.41 32.38 24.09 36.5 20"/><path class="cls-2" d="M36.5,20l-4.12,4.1,4.12,4.1,6.09-3.53a.66.66,0,0,0,0-1.14Z"/></g><path class="cls-1" d="M113.66,30.05a3.75,3.75,0,0,1-1.58-.32,3,3,0,0,1-1.2-1h-.09a12.86,12.86,0,0,1,.09,1.47v3.65h-1.34V21h1.09l.19,1.22h.06a3.18,3.18,0,0,1,1.21-1.06,3.73,3.73,0,0,1,1.57-.32,3.25,3.25,0,0,1,2.72,1.21,5.29,5.29,0,0,1,1,3.38,5.26,5.26,0,0,1-1,3.39A3.24,3.24,0,0,1,113.66,30.05Zm-.19-8a2.36,2.36,0,0,0-2,.75,3.83,3.83,0,0,0-.63,2.4v.3a4.38,4.38,0,0,0,.63,2.67,2.35,2.35,0,0,0,2,.81,2.08,2.08,0,0,0,1.8-.93,4.46,4.46,0,0,0,.65-2.57,4.27,4.27,0,0,0-.65-2.54A2.16,2.16,0,0,0,113.47,22Z"/><path class="cls-1" d="M120.44,29.89H119.1V17.3h1.34Z"/><path class="cls-1" d="M128.15,29.89l-.27-1.26h-.06a3.8,3.8,0,0,1-1.32,1.13,4.17,4.17,0,0,1-1.65.29,2.93,2.93,0,0,1-2.06-.68,2.46,2.46,0,0,1-.75-1.93q0-2.69,4.29-2.82l1.51-.05V24a2.25,2.25,0,0,0-.45-1.54A1.86,1.86,0,0,0,126,22a5.85,5.85,0,0,0-2.5.68l-.41-1a5.84,5.84,0,0,1,1.43-.56,6,6,0,0,1,1.56-.2,3.37,3.37,0,0,1,2.35.7,2.94,2.94,0,0,1,.76,2.26v6.05Zm-3-.95a2.71,2.71,0,0,0,2-.68,2.57,2.57,0,0,0,.71-1.93v-.8l-1.34.06a4.83,4.83,0,0,0-2.3.49,1.51,1.51,0,0,0-.71,1.38,1.38,1.38,0,0,0,.44,1.1A1.78,1.78,0,0,0,125.12,28.94Z"/><path class="cls-1" d="M129.92,21h1.44l1.94,5.06a19.6,19.6,0,0,1,.79,2.5h.06c.07-.28.22-.75.44-1.41s1-2.72,2.2-6.15h1.43l-3.8,10.1a5.13,5.13,0,0,1-1.32,2.13,2.83,2.83,0,0,1-1.85.62,5.56,5.56,0,0,1-1.22-.13V32.66a5.05,5.05,0,0,0,1,.1,2,2,0,0,0,2-1.56l.49-1.26Z"/><path class="cls-1" d="M88.83,21.85A3,3,0,0,1,88.58,27a1.34,1.34,0,0,0-.51.91,1,1,0,0,0,.48.8l.67.52a3.25,3.25,0,0,1,1.55,2.6c0,1.74-1.69,3.5-4.87,3.5-2.68,0-4-1.28-4-2.65a2.66,2.66,0,0,1,1.43-2.26,7.92,7.92,0,0,1,3.53-.86,1.92,1.92,0,0,1-.55-1.26,1.7,1.7,0,0,1,.18-.72c-.2,0-.41,0-.59,0a2.93,2.93,0,0,1-3.07-2.92A3.3,3.3,0,0,1,84,22.2a5.06,5.06,0,0,1,3.32-1h3.81L90,21.85Zm-1.32,8.23a2.75,2.75,0,0,0-.42,0,7.46,7.46,0,0,0-2,.3,2.08,2.08,0,0,0-1.59,1.91c0,1.32,1.28,2.27,3.26,2.27,1.77,0,2.72-.86,2.72-2C89.53,31.58,88.92,31.09,87.51,30.08Zm.54-3.52a1.91,1.91,0,0,0,.46-1.36c0-1.33-.8-3.41-2.33-3.41a1.75,1.75,0,0,0-1.3.61,2.18,2.18,0,0,0-.41,1.38c0,1.24.73,3.3,2.32,3.3A1.94,1.94,0,0,0,88.05,26.56Z"/><path class="cls-1" d="M77.17,29.79a4.37,4.37,0,0,1-4.51-4.38,4.59,4.59,0,0,1,4.79-4.5,4.33,4.33,0,0,1,4.42,4.38A4.53,4.53,0,0,1,77.17,29.79Zm2.31-1.5A3.42,3.42,0,0,0,80,26.23c0-1.63-.78-4.74-3.07-4.74a2.6,2.6,0,0,0-1.67.63,2.81,2.81,0,0,0-.85,2.26c0,1.83.91,4.85,3.15,4.85A2.35,2.35,0,0,0,79.48,28.29Z"/><path class="cls-1" d="M67.15,29.79a4.37,4.37,0,0,1-4.51-4.38,4.59,4.59,0,0,1,4.79-4.5,4.33,4.33,0,0,1,4.42,4.38A4.53,4.53,0,0,1,67.15,29.79Zm2.31-1.5A3.42,3.42,0,0,0,70,26.23c0-1.63-.78-4.74-3.07-4.74a2.6,2.6,0,0,0-1.67.63,2.81,2.81,0,0,0-.85,2.26c0,1.83.91,4.85,3.15,4.85A2.35,2.35,0,0,0,69.46,28.29Z"/><path class="cls-1" d="M61.23,29.5l-2.66.61a19.4,19.4,0,0,1-3.07.32c-5.13,0-7.08-3.78-7.08-6.75,0-3.61,2.77-7,7.51-7a10.71,10.71,0,0,1,2.84.39,7.19,7.19,0,0,1,2.46,1.16l-1.55,1.47-.65.15.47-.75a5.33,5.33,0,0,0-4-1.75,5.15,5.15,0,0,0-5.15,5.5A6.58,6.58,0,0,0,57,29.68a5.61,5.61,0,0,0,2.36-.46v-3l-2.8.15,1.48-.8h3.94l-.48.46a.45.45,0,0,0-.19.3c0,.17,0,.71,0,.89Z"/><path class="cls-1" d="M94.7,29c-.61-.06-.74-.17-.74-.89V17.53a.45.45,0,0,1,0-.12c.07-.66.26-.77.84-1.1H92.15l-1.4.67h1.42v11.5c0,.37-.07.42-.5,1H95l.69-.41Z"/><path class="cls-1" d="M102.26,29.13c-.2.11-.4.24-.61.33a4.24,4.24,0,0,1-1.79.36,3.9,3.9,0,0,1-2.45-.73,4.77,4.77,0,0,1-1.88-3.9,4.18,4.18,0,0,1,4.22-4.27,3.57,3.57,0,0,1,1.9.52,3,3,0,0,1,1.29,1.83L98.61,25l-1.42.11c.46,2.34,2,3.71,3.8,3.71a4.81,4.81,0,0,0,2.25-.64Zm-1.73-5.51c.35-.13.53-.24.53-.5a1.83,1.83,0,0,0-1.82-1.59,2.28,2.28,0,0,0-2.13,2.57c0,.31,0,.65.06,1Z"/><path class="cls-1" d="M104,21.05v1.22h-.14V21.05h-.41v-.13h1v.13Z"/><path class="cls-1" d="M105.7,22.27V21h0l-.38,1.24h-.11L104.83,21h0v1.24h-.13V20.92h.23l.34,1.09h0l.33-1.09h.24v1.35Z"/><path class="cls-1" d="M52.11,13.09h-.92A6.87,6.87,0,0,0,50.93,12H49.59a5.85,5.85,0,0,0-.27,1.08h-.87c0-.07.23-.69.68-1.85a13.53,13.53,0,0,0,.67-1.91h1.09a17.7,17.7,0,0,0,.61,1.89A15.72,15.72,0,0,1,52.11,13.09Zm-1.33-1.63a15.17,15.17,0,0,1-.49-1.61h0c0,.07-.17.61-.51,1.61Z"/><path class="cls-1" d="M55.84,13.09h-.72a7.43,7.43,0,0,0-.79-1.25,6.79,6.79,0,0,1-.95-1.63h0c0,.42.07.8.07,1.14s0,1.06,0,1.74h-.71c0-.59,0-1.25,0-2s0-1.31,0-1.8h.86a5.15,5.15,0,0,0,.71,1.22,7.28,7.28,0,0,1,.87,1.54h0c0-.43-.07-.81-.07-1.15,0-.52,0-1.06,0-1.61h.73c0,.48-.05,1.08-.05,1.8S55.81,12.51,55.84,13.09Z"/><path class="cls-1" d="M60,11.08a2.15,2.15,0,0,1-.53,1.44,1.82,1.82,0,0,1-1.47.61c-.28,0-.68,0-1.18,0,0-.58,0-1.23,0-2s0-1.3,0-1.8H58a2,2,0,0,1,1.51.52A1.83,1.83,0,0,1,60,11.08Zm-.79.13a1.43,1.43,0,0,0-.32-.94,1.25,1.25,0,0,0-1-.38l-.34,0c0,.38,0,.79,0,1.21s0,.91,0,1.37a2.31,2.31,0,0,0,.37,0,1.07,1.07,0,0,0,.92-.38A1.49,1.49,0,0,0,59.23,11.21Z"/><path class="cls-1" d="M63.87,13.09H63a5.54,5.54,0,0,0-.51-1.26.67.67,0,0,0-.58-.24h-.32q0,.75,0,1.5h-.81c0-.58,0-1.23,0-2s0-1.3,0-1.8H62.2c.89,0,1.33.31,1.33.91a1,1,0,0,1-.76,1v0a.84.84,0,0,1,.51.45A8.94,8.94,0,0,1,63.87,13.09Zm-1.08-2.66c0-.38-.24-.57-.74-.57a2.33,2.33,0,0,0-.48,0c0,.3,0,.69,0,1.17h.26C62.49,11.07,62.79,10.86,62.79,10.43Z"/><path class="cls-1" d="M68,11.14a2.07,2.07,0,0,1-.54,1.47,1.76,1.76,0,0,1-1.34.59,1.69,1.69,0,0,1-1.28-.54,1.9,1.9,0,0,1-.51-1.36,2.08,2.08,0,0,1,.54-1.47,1.76,1.76,0,0,1,1.34-.59,1.69,1.69,0,0,1,1.28.54A1.88,1.88,0,0,1,68,11.14Zm-.79.09a1.51,1.51,0,0,0-.31-1,1,1,0,0,0-.77-.38.87.87,0,0,0-.71.38,1.49,1.49,0,0,0-.3,1,1.55,1.55,0,0,0,.31,1,1,1,0,0,0,.76.37.86.86,0,0,0,.72-.38A1.48,1.48,0,0,0,67.22,11.23Z"/><path class="cls-1" d="M69.64,13.09h-.81c0-.59,0-1.25,0-2s0-1.31,0-1.8h.81c0,.49,0,1.08,0,1.8S69.62,12.51,69.64,13.09Z"/><path class="cls-1" d="M73.83,11.08a2.15,2.15,0,0,1-.53,1.44,1.82,1.82,0,0,1-1.47.61c-.29,0-.68,0-1.18,0,0-.58,0-1.23,0-2s0-1.3,0-1.8h1.2a2,2,0,0,1,1.51.52A1.83,1.83,0,0,1,73.83,11.08Zm-.79.13a1.43,1.43,0,0,0-.32-.94,1.25,1.25,0,0,0-1-.38l-.34,0c0,.38,0,.79,0,1.21s0,.91,0,1.37a2.31,2.31,0,0,0,.37,0,1.09,1.09,0,0,0,.92-.38A1.49,1.49,0,0,0,73,11.21Z"/><path class="cls-1" d="M79.38,13.09h-.93A6.87,6.87,0,0,0,78.19,12H76.86a5.41,5.41,0,0,0-.28,1.08h-.86c0-.07.22-.69.67-1.85a13.53,13.53,0,0,0,.67-1.91h1.09a17.7,17.7,0,0,0,.61,1.89A17.15,17.15,0,0,1,79.38,13.09ZM78,11.46a15.17,15.17,0,0,1-.49-1.61h0c0,.07-.17.61-.51,1.61Z"/><path class="cls-1" d="M82.74,10.32a1.13,1.13,0,0,1-.51,1,2.27,2.27,0,0,1-1.26.33h-.19c0,.36,0,.84,0,1.43H80c0-.55,0-1.21,0-2s0-1.3,0-1.8h1.44a1.68,1.68,0,0,1,.92.25A.84.84,0,0,1,82.74,10.32Zm-.74.16c0-.42-.28-.62-.82-.62a2.32,2.32,0,0,0-.44,0c0,.36,0,.78,0,1.24h.16C81.65,11.14,82,10.92,82,10.48Z"/><path class="cls-1" d="M86.2,10.32a1.13,1.13,0,0,1-.51,1,2.27,2.27,0,0,1-1.26.33h-.19c0,.36,0,.84,0,1.43h-.81c0-.55,0-1.21,0-2s0-1.3,0-1.8H84.9a1.68,1.68,0,0,1,.92.25A.84.84,0,0,1,86.2,10.32Zm-.74.16c0-.42-.27-.62-.82-.62a2.15,2.15,0,0,0-.43,0c0,.36,0,.78,0,1.24h.16C85.11,11.14,85.46,10.92,85.46,10.48Z"/><path class="cls-1" d="M91.86,11.14a2.07,2.07,0,0,1-.54,1.47A1.76,1.76,0,0,1,90,13.2a1.69,1.69,0,0,1-1.28-.54,1.9,1.9,0,0,1-.51-1.36,2.08,2.08,0,0,1,.54-1.47,1.76,1.76,0,0,1,1.34-.59,1.69,1.69,0,0,1,1.28.54A1.88,1.88,0,0,1,91.86,11.14Zm-.79.09a1.51,1.51,0,0,0-.31-1A1,1,0,0,0,90,9.87a.88.88,0,0,0-.71.38,1.49,1.49,0,0,0-.3,1,1.55,1.55,0,0,0,.31,1,1,1,0,0,0,.77.37.86.86,0,0,0,.71-.38A1.48,1.48,0,0,0,91.07,11.23Z"/><path class="cls-1" d="M95.77,13.09h-.71a7.43,7.43,0,0,0-.79-1.25,6.79,6.79,0,0,1-1-1.63h0a9.81,9.81,0,0,1,.08,1.14c0,.48,0,1.06,0,1.74h-.71c0-.59,0-1.25,0-2s0-1.31,0-1.8h.85a5.43,5.43,0,0,0,.72,1.22,7.79,7.79,0,0,1,.87,1.54h0c0-.43-.07-.81-.07-1.15,0-.52,0-1.06,0-1.61h.72c0,.48,0,1.08,0,1.8S95.75,12.51,95.77,13.09Z"/></svg>