<svg
  width="7"
  height="7"
  viewBox="0 0 7 7.0000002"
  version="1.1"
  xmlns="http://www.w3.org/2000/svg"
>
  <g transform="translate(-126.47083,-106.09792)">
    <path
      d="m 130.17152,109.9993 c -0.67432,0 -0.89508,0.27093 -0.96733,0.44954 0.21475,0.0923 0.36526,0.30505 0.36526,0.55391 a 0.60207016,0.60207016 0 0 1 -0.60208,0.60207 0.60207016,0.60207016 0 0 1 -0.60207,-0.60207 c 0,-0.26291 0.16658,-0.48567 0.40139,-0.56796 v -1.67374 c -0.23481,-0.0823 -0.40139,-0.30505 -0.40139,-0.56796 a 0.60207016,0.60207016 0 0 1 0.60207,-0.60207 0.60207016,0.60207016 0 0 1 0.60208,0.60207 c 0,0.26291 -0.16658,0.48567 -0.40138,0.56796 v 1.06164 c 0.17661,-0.13045 0.43349,-0.22477 0.80276,-0.22477 0.53585,0 0.71446,-0.26893 0.77266,-0.44754 -0.21674,-0.0903 -0.37128,-0.30505 -0.37128,-0.55592 a 0.60207016,0.60207016 0 0 1 0.60208,-0.60207 0.60207016,0.60207016 0 0 1 0.60207,0.60207 c 0,0.26893 -0.17662,0.50174 -0.41945,0.57398 -0.0522,0.28699 -0.24685,0.83086 -0.98539,0.83086 m -1.20415,0.80276 a 0.20069005,0.20069005 0 0 0 -0.20068,0.20069 0.20069005,0.20069005 0 0 0 0.20068,0.2007 0.20069005,0.20069005 0 0 0 0.2007,-0.2007 0.20069005,0.20069005 0 0 0 -0.2007,-0.20069 m 0,-2.80967 a 0.20069005,0.20069005 0 0 0 -0.20068,0.2007 0.20069005,0.20069005 0 0 0 0.20068,0.20069 0.20069005,0.20069005 0 0 0 0.2007,-0.20069 0.20069005,0.20069005 0 0 0 -0.2007,-0.2007 m 2.00692,0.40139 a 0.20069005,0.20069005 0 0 0 -0.2007,0.20068 0.20069005,0.20069005 0 0 0 0.2007,0.2007 0.20069005,0.20069005 0 0 0 0.20068,-0.2007 0.20069005,0.20069005 0 0 0 -0.20068,-0.20068 z"
      style="fill:#808080;fill-opacity:0.25;stroke-width:0.20069"
    />
  </g>
</svg>
