<?xml version="1.0" encoding="UTF-8" standalone="no"?>
<!-- Created with Inkscape (http://www.inkscape.org/) -->

<svg
   width="84.345306mm"
   height="19.675959mm"
   viewBox="0 0 84.345306 19.675959"
   version="1.1"
   id="svg7"
   sodipodi:docname="logo-title-black.svg"
   inkscape:version="1.4.3 (0d15f75042, 2025-12-25)"
   xmlns:inkscape="http://www.inkscape.org/namespaces/inkscape"
   xmlns:sodipodi="http://sodipodi.sourceforge.net/DTD/sodipodi-0.dtd"
   xmlns="http://www.w3.org/2000/svg"
   xmlns:svg="http://www.w3.org/2000/svg">
  <defs
     id="defs7" />
  <sodipodi:namedview
     id="namedview7"
     pagecolor="#505050"
     bordercolor="#eeeeee"
     borderopacity="1"
     inkscape:showpageshadow="0"
     inkscape:pageopacity="0"
     inkscape:pagecheckerboard="0"
     inkscape:deskcolor="#505050"
     inkscape:document-units="mm"
     showguides="true"
     inkscape:zoom="2.3148358"
     inkscape:cx="125.06287"
     inkscape:cy="-5.183953"
     inkscape:window-width="1920"
     inkscape:window-height="1136"
     inkscape:window-x="0"
     inkscape:window-y="0"
     inkscape:window-maximized="1"
     inkscape:current-layer="svg7">
    <sodipodi:guide
       position="17.239384,17.239397"
       orientation="0,-1"
       id="guide7"
       inkscape:locked="false" />
    <sodipodi:guide
       position="17.239384,2.4298061"
       orientation="0,-1"
       id="guide8"
       inkscape:locked="false" />
    <sodipodi:guide
       position="7.6090671e-08,19.675959"
       orientation="-0.70710678,-0.70710678"
       id="guide9"
       inkscape:locked="false" />
    <sodipodi:guide
       position="9.0655421e-08,-2.4296427e-06"
       orientation="0.70710678,-0.70710678"
       id="guide10"
       inkscape:locked="false" />
    <sodipodi:guide
       position="9.8379805,9.8379778"
       orientation="0,-1"
       id="guide11"
       inkscape:locked="false" />
  </sodipodi:namedview>
  <g
     id="g5"
     transform="matrix(1.3163677,0,0,1.3163677,-88.476937,-198.62135)">
    <path
       style="font-weight:bold;font-size:3.175px;font-family:'Readex Pro';-inkscape-font-specification:'Readex Pro Bold';fill:#000000;stroke-width:3.42594"
       d="m 102.37209,153.83575 v 9.15594 h 2.18865 v -0.21686 c 0.48001,0.22542 1.01534,0.35407 1.57787,0.35407 2.06113,0 3.75549,-1.69435 3.75549,-3.75547 0,-2.06111 -1.69436,-3.74882 -3.75549,-3.74882 -0.56253,0 -1.09786,0.12735 -1.57787,0.35188 v -3.0473 z m 3.76652,3.66327 c 0.0561,4.7e-4 0.11224,0.004 0.16818,0.009 0.008,7e-4 0.0163,-8e-4 0.0243,0 0.0122,0.001 0.0236,0.003 0.0356,0.004 0.043,0.005 0.0858,0.0121 0.12833,0.0201 0.002,7.3e-4 0.006,0.001 0.008,0.002 0.005,9.7e-4 0.01,0.001 0.0155,0.002 0.01,0.002 0.0192,0.004 0.0287,0.007 0.0454,0.0102 0.0904,0.0218 0.13498,0.0356 0.005,0.002 0.01,0.003 0.0155,0.004 0.024,0.008 0.0474,0.0158 0.0708,0.0244 0.0141,0.005 0.0282,0.0102 0.042,0.0154 0.015,0.006 0.0296,0.0116 0.0442,0.0176 0.0287,0.0116 0.0561,0.0244 0.0841,0.0377 0.0555,0.0261 0.10932,0.0552 0.16153,0.0863 0.0526,0.0313 0.10372,0.0656 0.15271,0.10179 0.14877,0.10989 0.27969,0.24063 0.38949,0.38949 0.0364,0.0492 0.0704,0.0999 0.10177,0.15271 0.0313,0.0527 0.0601,0.10556 0.0863,0.16153 0.0128,0.0278 0.0262,0.0555 0.0377,0.0841 0.005,0.012 0.008,0.0236 0.0133,0.0356 0.0163,0.0407 0.0308,0.0821 0.0442,0.12394 0.001,0.004 0.002,0.009 0.005,0.0133 0.0146,0.0489 0.027,0.0983 0.0377,0.14825 10e-4,0.006 0.004,0.0116 0.005,0.0175 7.6e-4,0.004 0.001,0.009 0.002,0.0133 0.01,0.0491 0.0167,0.0986 0.0223,0.14826 0.001,0.009 0.004,0.0175 0.005,0.0265 3e-5,0.006 3e-5,0.0116 0,0.0175 0.006,0.0574 0.008,0.11498 0.008,0.17262 v 0.002 c 0,0.0899 -0.008,0.17704 -0.0201,0.26337 -0.0124,0.0894 -0.0313,0.17644 -0.0554,0.26115 -0.22367,0.7835 -0.93519,1.34771 -1.79696,1.34771 -0.667,0 -1.24639,-0.33814 -1.57787,-0.85422 v -0.0133 c -0.19208,-0.30075 -0.29421,-0.65008 -0.29433,-1.00691 1.4e-4,-0.35681 0.10225,-0.70619 0.29433,-1.00692 v -0.0111 c 0.23989,-0.37347 0.61017,-0.6526 1.04896,-0.77898 10e-4,-3.8e-4 0.004,3.9e-4 0.005,0 0.0841,-0.024 0.17019,-0.043 0.25892,-0.0553 0.0868,-0.0121 0.17519,-0.0201 0.26554,-0.0201 z"
       id="path1" />
    <path
       style="font-weight:bold;font-size:3.175px;font-family:'Readex Pro';-inkscape-font-specification:'Readex Pro Bold';fill:#000000;stroke-width:3.42594"
       d="m 111.14058,153.83574 v 9.15595 h 2.18865 v -10.06252 z"
       id="path2" />
    <path
       style="color:#000000;fill:#000000;-inkscape-stroke:none"
       d="m 126.18106,152.92925 -2.1885,0.9064 v 9.15603 h 2.1885 v -2.1146 l 2.1146,2.11408 2.99051,5.2e-4 -3.6096,-3.6096 3.61064,-3.61115 -2.99155,-5.1e-4 -2.1146,2.11563 z"
       id="path3" />
    <path
       style="font-weight:bold;font-size:3.175px;font-family:'Readex Pro';-inkscape-font-specification:'Readex Pro Bold';fill:#000000;stroke-width:3.42594"
       d="m 114.57572,155.77065 2.99093,7.22075 -1.17706,2.84168 h 2.1885 l 4.16799,-10.06243 h -2.1885 l -1.89661,4.57882 -1.89661,-4.57882 z"
       id="path4" />
    <path
       style="font-weight:bold;font-size:13.5967px;font-family:'Readex Pro';-inkscape-font-specification:'Readex Pro Bold';fill:#000000;stroke-width:3.42594"
       d="m 96.216865,153.25525 c -0.716092,0 -1.377574,0.12268 -1.984892,0.36742 -0.598254,0.24474 -1.119571,0.58885 -1.563729,1.03301 -0.435094,0.44416 -0.774836,0.97037 -1.019576,1.57768 -0.24474,0.59826 -0.367419,1.25537 -0.367419,1.97146 0,0.70703 0.122679,1.36414 0.367419,1.97146 0.24474,0.59825 0.584482,1.11957 1.019576,1.56372 0.444158,0.4351 0.965475,0.77484 1.563729,1.01958 0.607318,0.24474 1.2688,0.3669 1.984892,0.3669 0.707024,0 1.359764,-0.12216 1.958024,-0.3669 0.59825,-0.24474 1.11519,-0.58937 1.55029,-1.03353 0.444161,-0.44416 0.788271,-0.96547 1.033011,-1.56373 0.24474,-0.59825 0.36742,-1.25047 0.36742,-1.9575 0,-0.71609 -0.12268,-1.3732 -0.36742,-1.97146 -0.24474,-0.60731 -0.58885,-1.13352 -1.033011,-1.57768 -0.4351,-0.44416 -0.95204,-0.78827 -1.55029,-1.03301 -0.59826,-0.24474 -1.251,-0.36742 -1.958024,-0.36742 z m 0,2.18953 c 0.371642,0 0.711904,0.0676 1.020094,0.20361 0.30819,0.13596 0.5754,0.33117 0.80202,0.58497 0.23567,0.24474 0.41725,0.53433 0.54415,0.86972 0.1269,0.33538 0.19017,0.7029 0.19017,1.10174 0,0.38977 -0.0633,0.7524 -0.19017,1.08779 -0.1269,0.33538 -0.30848,0.62497 -0.54415,0.86971 -0.22662,0.24474 -0.49383,0.43558 -0.80202,0.57154 -0.30819,0.13597 -0.648452,0.20361 -1.020094,0.20361 -0.498545,0 -0.942447,-0.11779 -1.332219,-0.35347 -0.380706,-0.23567 -0.684444,-0.55741 -0.911055,-0.96531 -0.217547,-0.41697 -0.326079,-0.88813 -0.326079,-1.41387 0,-0.39884 0.06327,-0.76636 0.19017,-1.10174 0.126902,-0.33539 0.303588,-0.62498 0.5302,-0.86972 0.235676,-0.2538 0.507779,-0.44901 0.815971,-0.58497 0.317254,-0.13597 0.661369,-0.20361 1.033012,-0.20361 z"
       id="path5" />
  </g>
  <path
     d="m 11.96745,7.7673225 5.271934,-5.33076 7.404794,7.4048 -7.404794,7.4047895 -9.8730549,-9.8730695 -4.936528,4.9365295 4.936528,4.93654 2.8351379,-2.83515"
     style="fill:none;fill-rule:evenodd;stroke:#000000;stroke-width:3.43626;stroke-linecap:butt;stroke-linejoin:miter;stroke-miterlimit:4;stroke-dasharray:none;stroke-opacity:1"
     id="path6" />
</svg>
