<?xml version="1.0" encoding="UTF-8" standalone="no"?>
<!-- Created with Inkscape (http://www.inkscape.org/) -->

<svg
   width="71.688713mm"
   height="19.675959mm"
   viewBox="0 0 71.688713 19.675959"
   version="1.1"
   id="svg1"
   sodipodi:docname="logo-title-slogan-reverse-v2.svg"
   inkscape:version="1.3.2 (091e20ef0f, 2023-11-25)"
   xmlns:inkscape="http://www.inkscape.org/namespaces/inkscape"
   xmlns:sodipodi="http://sodipodi.sourceforge.net/DTD/sodipodi-0.dtd"
   xmlns="http://www.w3.org/2000/svg"
   xmlns:svg="http://www.w3.org/2000/svg">
  <sodipodi:namedview
     id="namedview1"
     pagecolor="#505050"
     bordercolor="#eeeeee"
     borderopacity="1"
     inkscape:showpageshadow="0"
     inkscape:pageopacity="0"
     inkscape:pagecheckerboard="0"
     inkscape:deskcolor="#505050"
     inkscape:document-units="mm"
     showguides="true"
     inkscape:zoom="3.9002069"
     inkscape:cx="109.86597"
     inkscape:cy="49.228158"
     inkscape:window-width="1920"
     inkscape:window-height="1136"
     inkscape:window-x="0"
     inkscape:window-y="0"
     inkscape:window-maximized="1"
     inkscape:current-layer="svg1">
    <sodipodi:guide
       position="8.0000001e-06,18.391435"
       orientation="1,0"
       id="guide1"
       inkscape:locked="false" />
    <sodipodi:guide
       position="40.00597,15.875755"
       orientation="1,0"
       id="guide2"
       inkscape:locked="false" />
  </sodipodi:namedview>
  <defs
     id="defs1" />
  <path
     id="path91"
     d="m 56.582181,7.7639361 5.271934,-5.33076 7.404794,7.4048 -7.404794,7.4047899 -9.873055,-9.8730699 -4.936528,4.9365299 4.936528,4.93654 2.835138,-2.83515"
     style="fill:none;fill-rule:evenodd;stroke:#ffffff;stroke-width:3.43626;stroke-linecap:butt;stroke-linejoin:miter;stroke-miterlimit:4;stroke-dasharray:none;stroke-opacity:1" />
  <path
     d="m 1.3246741,17.851726 q -0.2895246,0 -0.53145609,-0.103118 Q 0.55128652,17.645489 0.37281247,17.455117 0.19433842,17.260779 0.09518617,16.999017 1.513958e-8,16.737255 1.513958e-8,16.423934 q 0,-0.297457 0.10311833486042,-0.551287 0.10708443,-0.257796 0.29349066,-0.452134 0.18640623,-0.194339 0.43230381,-0.301423 0.24589758,-0.107084 0.53145608,-0.107084 0.2022706,0 0.3926429,0.06346 0.1943384,0.05949 0.3490159,0.170542 0.1586436,0.107084 0.2577958,0.245897 l -0.2855584,0.297457 q -0.1705419,-0.174508 -0.349016,-0.261762 -0.178474,-0.08725 -0.3648802,-0.08725 -0.1943384,0 -0.3648803,0.07536 -0.16657578,0.07139 -0.29349066,0.202271 -0.12294879,0.130881 -0.19433841,0.313321 -0.0713896,0.178474 -0.0713896,0.392643 0,0.226067 0.0674235,0.412473 0.0713896,0.18244 0.1983045,0.313321 0.12691488,0.130881 0.30142286,0.202271 0.178474,0.06742 0.3926429,0.06742 0.130881,0 0.2577958,-0.0357 0.1269149,-0.03569 0.2379654,-0.103118 0.1110505,-0.06742 0.2022706,-0.158644 l 0.2141689,0.349016 q -0.09122,0.107085 -0.2498637,0.194339 -0.1546775,0.08725 -0.3490159,0.138813 -0.1903723,0.04759 -0.3847107,0.04759 z m 1.4714226,-0.03966 V 14.877159 H 3.204604 v 2.934906 z m 1.0549776,0 v -2.082197 h 0.4085073 v 2.082197 z m 0.1983045,-2.542264 q -0.1308809,0 -0.2022705,-0.06742 -0.07139,-0.06742 -0.07139,-0.190372 0,-0.115017 0.07139,-0.186407 0.075356,-0.07139 0.2022705,-0.07139 0.130881,0 0.2022706,0.06742 0.07139,0.06742 0.07139,0.190373 0,0.115016 -0.075356,0.186406 -0.07139,0.07139 -0.1983045,0.07139 z m 0.8289128,2.542264 v -2.082197 h 0.4124733 v 0.444202 l -0.075356,0.04759 q 0.031729,-0.103118 0.099152,-0.198304 0.07139,-0.09519 0.1705419,-0.166576 0.1031184,-0.07536 0.218135,-0.118983 0.1189827,-0.04363 0.2419315,-0.04363 0.178474,0 0.3133211,0.05949 0.134847,0.05949 0.222101,0.178474 0.087254,0.118983 0.1269149,0.297457 l -0.063458,-0.01586 0.027763,-0.06742 q 0.043627,-0.09122 0.1189827,-0.170542 0.079322,-0.08329 0.178474,-0.146745 0.099152,-0.06346 0.2102028,-0.09915 0.1110505,-0.0357 0.2181349,-0.0357 0.2339993,0 0.3847108,0.09519 0.1546775,0.09519 0.2300332,0.289525 0.079322,0.194338 0.079322,0.483863 v 1.249318 H 7.5791988 v -1.225522 q 0,-0.265728 -0.1031183,-0.388676 -0.099152,-0.126915 -0.3133211,-0.126915 -0.1110505,0 -0.2102028,0.03966 -0.095186,0.03569 -0.1665758,0.103118 -0.07139,0.06742 -0.1110505,0.158643 -0.039661,0.08725 -0.039661,0.194339 v 1.245352 H 6.2227961 v -1.233454 q 0,-0.245897 -0.1070845,-0.376778 -0.1031183,-0.130881 -0.3014228,-0.130881 -0.1110505,0 -0.2062367,0.03966 -0.095186,0.03569 -0.1665758,0.103118 -0.07139,0.06346 -0.1110505,0.154677 -0.039661,0.08725 -0.039661,0.190373 v 1.253284 z m 4.7553392,0.03966 q -0.1348471,0 -0.2696941,-0.04363 -0.130881,-0.04363 -0.2419315,-0.115017 -0.1070844,-0.07536 -0.1824402,-0.162609 -0.07139,-0.09122 -0.095186,-0.18244 l 0.1031183,-0.05553 v 0.50766 H 8.53899 v -2.923008 h 0.4085072 v 1.32864 l -0.063457,-0.0357 q 0.01983,-0.09122 0.087254,-0.174508 0.067424,-0.08725 0.1705418,-0.154678 0.1070845,-0.07139 0.2300333,-0.11105 0.1229487,-0.04363 0.2498636,-0.04363 0.2815924,0 0.4997275,0.138813 0.218135,0.138813 0.34505,0.384711 0.126915,0.241931 0.126915,0.555252 0,0.313321 -0.126915,0.559219 -0.122949,0.245898 -0.341084,0.388677 -0.218135,0.138813 -0.4917952,0.138813 z m -0.067424,-0.372812 q 0.1824401,0 0.3252193,-0.09122 0.1427794,-0.09519 0.2260674,-0.253829 0.08329,-0.16261 0.08329,-0.368847 0,-0.20227 -0.08329,-0.360914 -0.07932,-0.16261 -0.2221013,-0.25383 -0.1427792,-0.09122 -0.3291854,-0.09122 -0.1864063,0 -0.3291855,0.09122 -0.1427792,0.09122 -0.2260671,0.25383 -0.083288,0.158644 -0.083288,0.360914 0,0.206237 0.083288,0.368847 0.083288,0.158643 0.2260671,0.253829 0.1427792,0.09122 0.3291855,0.09122 z m 1.5388407,0.333151 v -2.082197 h 0.408507 v 2.082197 z m 0.198304,-2.542264 q -0.130881,0 -0.20227,-0.06742 -0.07139,-0.06742 -0.07139,-0.190372 0,-0.115017 0.07139,-0.186407 0.07536,-0.07139 0.20227,-0.07139 0.130881,0 0.202271,0.06742 0.07139,0.06742 0.07139,0.190373 0,0.115016 -0.07536,0.186406 -0.07139,0.07139 -0.198305,0.07139 z m 0.836845,2.542264 v -2.082197 h 0.408507 v 0.428338 l -0.07139,0.04759 q 0.03966,-0.138813 0.154678,-0.25383 0.115017,-0.118983 0.27366,-0.190372 0.158644,-0.07536 0.325219,-0.07536 0.237966,0 0.396609,0.09519 0.158644,0.09122 0.237966,0.281592 0.07932,0.190373 0.07932,0.479897 v 1.269149 H 13.53626 v -1.241386 q 0,-0.178474 -0.04759,-0.293491 -0.04759,-0.118982 -0.146745,-0.170542 -0.09915,-0.05553 -0.245898,-0.04759 -0.118982,0 -0.218135,0.03966 -0.09915,0.0357 -0.174507,0.103119 -0.07139,0.06742 -0.115017,0.158643 -0.03966,0.08725 -0.03966,0.190373 v 1.261216 h -0.202271 q -0.05156,0 -0.103118,0 -0.05156,0 -0.103118,0 z m 3.291851,0.912201 q -0.222101,0 -0.444202,-0.07139 -0.218135,-0.06742 -0.352982,-0.178474 l 0.150712,-0.317287 q 0.118982,0.09122 0.29349,0.146745 0.178474,0.05553 0.352982,0.05553 0.218135,0 0.364881,-0.07139 0.146745,-0.07139 0.222101,-0.210203 0.07535,-0.138813 0.07535,-0.34505 v -0.400575 l 0.04363,0.02776 q -0.01983,0.122949 -0.130881,0.237965 -0.107084,0.111051 -0.269694,0.18244 -0.16261,0.07139 -0.333151,0.07139 -0.297457,0 -0.531456,-0.138813 -0.230034,-0.142779 -0.364881,-0.384711 -0.134847,-0.245897 -0.134847,-0.559219 0,-0.313321 0.130881,-0.555252 0.134847,-0.245898 0.36488,-0.384711 0.234,-0.142779 0.523524,-0.142779 0.118983,0 0.230034,0.03173 0.11105,0.02776 0.206236,0.08329 0.09519,0.05156 0.170542,0.115016 0.07536,0.06346 0.122949,0.134847 0.04759,0.07139 0.05949,0.134847 l -0.08725,0.03173 v -0.487829 h 0.408508 v 1.955282 q 0,0.249864 -0.07536,0.440236 -0.07139,0.194339 -0.210203,0.32522 -0.138813,0.134847 -0.337118,0.20227 -0.198304,0.07139 -0.448168,0.07139 z m 0.01586,-1.249319 q 0.194338,0 0.345049,-0.09122 0.150712,-0.09122 0.234,-0.249863 0.08329,-0.158644 0.08329,-0.364881 0,-0.206236 -0.08725,-0.36488 -0.08329,-0.16261 -0.234,-0.25383 -0.146745,-0.09122 -0.341083,-0.09122 -0.190373,0 -0.341084,0.09519 -0.146745,0.09122 -0.233999,0.253829 -0.08329,0.158644 -0.08329,0.360914 0,0.202271 0.08329,0.364881 0.08725,0.158643 0.233999,0.249863 0.150711,0.09122 0.341084,0.09122 z m 3.966094,0.376779 q -0.289525,0 -0.531456,-0.103118 -0.241932,-0.103119 -0.420406,-0.293491 -0.178474,-0.194338 -0.277626,-0.4561 -0.09519,-0.261762 -0.09519,-0.575083 0,-0.297457 0.103118,-0.551287 0.107084,-0.257796 0.293491,-0.452134 0.186406,-0.194339 0.432303,-0.301423 0.245898,-0.107084 0.531456,-0.107084 0.202271,0 0.392643,0.06346 0.194339,0.05949 0.349016,0.170542 0.158644,0.107084 0.257796,0.245897 l -0.285558,0.297457 q -0.170542,-0.174508 -0.349016,-0.261762 -0.178474,-0.08725 -0.364881,-0.08725 -0.194338,0 -0.36488,0.07536 -0.166576,0.07139 -0.29349,0.202271 -0.122949,0.130881 -0.194339,0.313321 -0.07139,0.178474 -0.07139,0.392643 0,0.226067 0.06742,0.412473 0.07139,0.18244 0.198305,0.313321 0.126914,0.130881 0.301422,0.202271 0.178474,0.06742 0.392643,0.06742 0.130881,0 0.257796,-0.0357 0.126915,-0.03569 0.237966,-0.103118 0.11105,-0.06742 0.20227,-0.158644 l 0.214169,0.349016 q -0.09122,0.107085 -0.249864,0.194339 -0.154677,0.08725 -0.349016,0.138813 -0.190372,0.04759 -0.38471,0.04759 z m 2.399487,0 q -0.305389,0 -0.547321,-0.138813 -0.237965,-0.142779 -0.376778,-0.384711 -0.138813,-0.245897 -0.138813,-0.559219 0,-0.313321 0.138813,-0.555252 0.138813,-0.245898 0.376778,-0.384711 0.241932,-0.142779 0.547321,-0.142779 0.301423,0 0.539388,0.142779 0.241932,0.138813 0.380745,0.384711 0.138813,0.241931 0.138813,0.555252 0,0.313322 -0.138813,0.559219 -0.138813,0.241932 -0.380745,0.384711 -0.237965,0.138813 -0.539388,0.138813 z m 0,-0.372812 q 0.186406,0 0.333151,-0.09122 0.146746,-0.09519 0.230034,-0.253829 0.08329,-0.16261 0.07932,-0.364881 0.004,-0.206236 -0.07932,-0.36488 -0.08329,-0.16261 -0.230034,-0.25383 -0.146745,-0.09122 -0.333151,-0.09122 -0.186406,0 -0.337118,0.09519 -0.146745,0.09122 -0.230033,0.253829 -0.08329,0.158644 -0.07932,0.360914 -0.004,0.202271 0.07932,0.364881 0.08329,0.158643 0.230033,0.253829 0.150712,0.09122 0.337118,0.09122 z m 1.495215,0.333151 v -2.082197 h 0.412473 v 0.444202 l -0.07536,0.04759 q 0.03173,-0.103118 0.09915,-0.198304 0.07139,-0.09519 0.170541,-0.166576 0.103119,-0.07536 0.218135,-0.118983 0.118983,-0.04363 0.241932,-0.04363 0.178474,0 0.313321,0.05949 0.134847,0.05949 0.222101,0.178474 0.08725,0.118983 0.126915,0.297457 l -0.06346,-0.01586 0.02776,-0.06742 q 0.04363,-0.09122 0.118983,-0.170542 0.07932,-0.08329 0.178474,-0.146745 0.09915,-0.06346 0.210203,-0.09915 0.11105,-0.0357 0.218134,-0.0357 0.234,0 0.384711,0.09519 0.154678,0.09519 0.230033,0.289525 0.07932,0.194338 0.07932,0.483863 v 1.249318 h -0.412473 v -1.225522 q 0,-0.265728 -0.103118,-0.388676 -0.09915,-0.126915 -0.313322,-0.126915 -0.11105,0 -0.210202,0.03966 -0.09519,0.03569 -0.166576,0.103118 -0.07139,0.06742 -0.111051,0.158643 -0.03966,0.08725 -0.03966,0.194339 v 1.245352 h -0.412473 v -1.233454 q 0,-0.245897 -0.107084,-0.376778 -0.103119,-0.130881 -0.301423,-0.130881 -0.111051,0 -0.206237,0.03966 -0.09519,0.03569 -0.166576,0.103118 -0.07139,0.06346 -0.11105,0.154677 -0.03966,0.08725 -0.03966,0.190373 v 1.253284 z m 3.652767,0 v -2.082197 h 0.412473 v 0.444202 l -0.07536,0.04759 q 0.03173,-0.103118 0.09915,-0.198304 0.07139,-0.09519 0.170542,-0.166576 0.103118,-0.07536 0.218135,-0.118983 0.118982,-0.04363 0.241931,-0.04363 0.178474,0 0.313321,0.05949 0.134847,0.05949 0.222101,0.178474 0.08725,0.118983 0.126915,0.297457 l -0.06346,-0.01586 0.02776,-0.06742 q 0.04363,-0.09122 0.118983,-0.170542 0.07932,-0.08329 0.178474,-0.146745 0.09915,-0.06346 0.210203,-0.09915 0.11105,-0.0357 0.218135,-0.0357 0.233999,0 0.38471,0.09519 0.154678,0.09519 0.230034,0.289525 0.07932,0.194338 0.07932,0.483863 v 1.249318 h -0.412473 v -1.225522 q 0,-0.265728 -0.103118,-0.388676 -0.09915,-0.126915 -0.313321,-0.126915 -0.111051,0 -0.210203,0.03966 -0.09519,0.03569 -0.166576,0.103118 -0.07139,0.06742 -0.11105,0.158643 -0.03966,0.08725 -0.03966,0.194339 v 1.245352 H 28.30598 v -1.233454 q 0,-0.245897 -0.107084,-0.376778 -0.103118,-0.130881 -0.301423,-0.130881 -0.11105,0 -0.206237,0.03966 -0.09519,0.03569 -0.166575,0.103118 -0.07139,0.06346 -0.111051,0.154677 -0.03966,0.08725 -0.03966,0.190373 v 1.253284 z m 4.39046,0.03966 q -0.222101,0 -0.388677,-0.103118 -0.16261,-0.103119 -0.25383,-0.289525 -0.08725,-0.186406 -0.08725,-0.444202 v -1.285013 h 0.408507 v 1.173963 q 0,0.27366 0.126915,0.432303 0.130881,0.158644 0.360914,0.158644 0.115017,0 0.210203,-0.0357 0.09519,-0.03966 0.16261,-0.107084 0.07139,-0.06742 0.11105,-0.16261 0.03966,-0.09519 0.03966,-0.206237 v -1.253284 h 0.408508 v 2.082197 h -0.408508 v -0.43627 l 0.07139,-0.04759 q -0.04759,0.146745 -0.16261,0.265728 -0.11105,0.118983 -0.265728,0.190372 -0.154677,0.06742 -0.333151,0.06742 z m 1.669722,-0.03966 v -2.082197 h 0.408507 v 0.428338 l -0.07139,0.04759 q 0.03966,-0.138813 0.154677,-0.25383 0.115017,-0.118983 0.27366,-0.190372 0.158644,-0.07536 0.32522,-0.07536 0.237965,0 0.396609,0.09519 0.158643,0.09122 0.237965,0.281592 0.07932,0.190373 0.07932,0.479897 v 1.269149 h -0.408507 v -1.241386 q 0,-0.178474 -0.04759,-0.293491 -0.04759,-0.118982 -0.146745,-0.170542 -0.09915,-0.05553 -0.245897,-0.04759 -0.118983,0 -0.218135,0.03966 -0.09915,0.0357 -0.174508,0.103119 -0.07139,0.06742 -0.115017,0.158643 -0.03966,0.08725 -0.03966,0.190373 v 1.261216 h -0.20227 q -0.05156,0 -0.103119,0 -0.05156,0 -0.103118,0 z m 2.427245,0 v -2.082197 h 0.408507 v 2.082197 z m 0.198304,-2.542264 q -0.130881,0 -0.20227,-0.06742 -0.07139,-0.06742 -0.07139,-0.190372 0,-0.115017 0.07139,-0.186407 0.07535,-0.07139 0.20227,-0.07139 0.130881,0 0.202271,0.06742 0.07139,0.06742 0.07139,0.190373 0,0.115016 -0.07536,0.186406 -0.07139,0.07139 -0.198305,0.07139 z m 1.094641,2.542264 v -2.613653 h 0.408508 v 2.613653 z m -0.432303,-1.685588 v -0.396609 h 1.324674 v 0.396609 z m 2.046503,2.597789 0.420406,-0.971692 0.004,0.325219 -1.039116,-2.347925 h 0.475931 l 0.650439,1.530911 q 0.01983,0.03966 0.04759,0.122948 0.02776,0.07932 0.04759,0.158644 l -0.103118,0.0238 q 0.03173,-0.08329 0.05949,-0.166576 0.03173,-0.08329 0.05949,-0.166576 l 0.543355,-1.503148 h 0.483863 l -0.856676,2.082197 -0.352982,0.912201 z"
     id="text3"
     style="font-size:3.96609px;font-family:'Readex Pro';-inkscape-font-specification:'Readex Pro, Normal';fill:#ffffff;stroke-width:2.45461"
     aria-label="Climbing Community" />
  <g
     id="g2"
     transform="matrix(1.0456981,0,0,1.0456981,-0.83001486,20.4296)"
     style="fill:#ffffff">
    <path
       id="text6-2"
       style="-inkscape-font-specification:'Readex Pro, @wght=700';fill:#ffffff;stroke-width:7.08089"
       d="m 4.71444,-16.07086 c -0.74941,0 -1.42133,0.1645 -2.01538,0.49351 -0.59405,0.31987 -1.0597,0.7673 -1.39785,1.34307 -0.33815,0.56663 -0.50746,1.22033 -0.50746,1.96061 0,0.72199 0.16931,1.37088 0.50746,1.94665 0.33815,0.56663 0.8038,1.01458 1.39785,1.34359 0.59405,0.31987 1.26597,0.47955 2.01538,0.47955 0.75855,0 1.43047,-0.15968 2.01538,-0.47955 0.59405,-0.32901 1.06022,-0.77696 1.39837,-1.34359 0.33815,-0.57577 0.50694,-1.22466 0.50694,-1.94665 0,-0.74028 -0.16879,-1.39398 -0.50694,-1.96061 -0.33815,-0.57577 -0.80432,-1.0232 -1.39837,-1.34307 -0.58491,-0.32901 -1.25683,-0.49351 -2.01538,-0.49351 z m 0,1.89188 c 0.32901,0 0.61676,0.082 0.86351,0.24649 0.2559,0.15537 0.45736,0.37934 0.60359,0.6718 0.14622,0.28331 0.21481,0.61231 0.20567,0.98702 0.009,0.35642 -0.0594,0.67631 -0.20567,0.95963 -0.14623,0.28331 -0.34769,0.50729 -0.60359,0.67179 -0.24675,0.16451 -0.5345,0.2465 -0.86351,0.2465 -0.31987,0 -0.60761,-0.082 -0.86351,-0.2465 -0.2559,-0.1645 -0.45684,-0.38848 -0.60307,-0.67179 -0.14622,-0.28332 -0.21962,-0.60321 -0.21962,-0.95963 0,-0.37471 0.0734,-0.70371 0.21962,-0.98702 0.14623,-0.28332 0.34717,-0.50729 0.60307,-0.6718 0.2559,-0.1645 0.54364,-0.24649 0.86351,-0.24649 z" />
    <path
       id="path126-5-9"
       style="color:#000000;fill:#ffffff;stroke-width:1.00816;-inkscape-stroke:none"
       d="m 33.90359,-18.78538 -2.20635,0.9138 v 9.23072 h 2.20635 v -2.13185 l 2.13185,2.13133 3.01491,5.2e-4 -3.63904,-3.63904 3.6401,-3.64061 -3.01597,-5.2e-4 -2.13185,2.13289 z" />
    <path
       style="font-weight:bold;font-size:3.175px;font-family:'Readex Pro';-inkscape-font-specification:'Readex Pro Bold';fill:#ffffff;stroke-width:3.42594"
       d="m 22.25497,-15.92104 2.99093,7.22075 -1.17706,2.84168 h 2.1885 l 4.168,-10.06243 h -2.1885 l -1.89661,4.57882 -1.89661,-4.57882 z"
       id="path130-1"
       sodipodi:nodetypes="ccccccccc" />
    <path
       style="-inkscape-font-specification:'Readex Pro, @wght=700';fill:#ffffff;stroke-width:7.08089"
       d="m 19.09503,-8.64083 v -9.23041 l 2.20711,-0.9141 v 10.14451 z"
       id="path100-2"
       sodipodi:nodetypes="ccccc" />
    <path
       id="path113-7"
       style="-inkscape-font-specification:'Readex Pro, @wght=700';fill:#ffffff;stroke-width:7.08089"
       d="m 10.07484,-17.86568 v 9.19747 h 2.22053 v -0.39614 c 0.33622,0.36173 1.02481,0.56047 1.61231,0.56047 0.7252,0 1.3673,-0.15968 1.9265,-0.47955 0.56793,-0.32901 1.01358,-0.77696 1.33687,-1.34359 0.32328,-0.57577 0.48472,-1.22466 0.48472,-1.94665 0,-0.74028 -0.16144,-1.39398 -0.48472,-1.96061 -0.32329,-0.57576 -0.76894,-1.0232 -1.33687,-1.34307 -0.5592,-0.32901 -1.2013,-0.49351 -1.9265,-0.49351 -0.58755,0 -1.24677,0.22923 -1.61231,0.57029 v -3.28485 z m 3.83284,3.6867 c 0.31455,0 0.58936,0.082 0.82527,0.24649 0.24465,0.15537 0.43743,0.37934 0.57723,0.6718 0.1398,0.28331 0.2051,0.61231 0.19637,0.98702 0.009,0.35642 -0.0566,0.67631 -0.19637,0.95963 -0.13981,0.28331 -0.33259,0.50729 -0.57723,0.67179 -0.23591,0.16451 -0.51072,0.2465 -0.82527,0.2465 -0.30581,0 -0.58114,-0.082 -0.82579,-0.2465 -0.24465,-0.1645 -0.43691,-0.38848 -0.57671,-0.67179 -0.1398,-0.28332 -0.20981,-0.60321 -0.20981,-0.95963 0,-0.37471 0.07,-0.70371 0.20981,-0.98702 0.1398,-0.28332 0.33206,-0.50729 0.57671,-0.6718 0.24465,-0.1645 0.51998,-0.24649 0.82579,-0.24649 z"
       sodipodi:nodetypes="ccccsccsccscccscccscsssssss" />
  </g>
</svg>
