<?xml version="1.0" encoding="UTF-8" standalone="no"?>
<!-- Created with Inkscape (http://www.inkscape.org/) -->

<svg
   width="71.688713mm"
   height="19.675959mm"
   viewBox="0 0 71.688713 19.675959"
   version="1.1"
   id="svg1"
   sodipodi:docname="logo-title-slogan-reverse.svg"
   inkscape:version="1.3.2 (091e20ef0f, 2023-11-25)"
   xmlns:inkscape="http://www.inkscape.org/namespaces/inkscape"
   xmlns:sodipodi="http://sodipodi.sourceforge.net/DTD/sodipodi-0.dtd"
   xmlns="http://www.w3.org/2000/svg"
   xmlns:svg="http://www.w3.org/2000/svg">
  <sodipodi:namedview
     id="namedview1"
     pagecolor="#505050"
     bordercolor="#eeeeee"
     borderopacity="1"
     inkscape:showpageshadow="0"
     inkscape:pageopacity="0"
     inkscape:pagecheckerboard="0"
     inkscape:deskcolor="#505050"
     inkscape:document-units="mm"
     inkscape:zoom="2.9898663"
     inkscape:cx="123.41689"
     inkscape:cy="48.162689"
     inkscape:window-width="1920"
     inkscape:window-height="1136"
     inkscape:window-x="0"
     inkscape:window-y="0"
     inkscape:window-maximized="1"
     inkscape:current-layer="svg1" />
  <defs
     id="defs1" />
  <g
     id="g5"
     transform="translate(-91.281249,-151.97411)">
    <path
       id="path83-5"
       style="font-weight:bold;font-size:3.175px;font-family:'Readex Pro';-inkscape-font-specification:'Readex Pro Bold';fill:#ffffff;stroke-width:3.42594"
       d="m 102.37209,153.83575 v 9.15594 h 2.18865 v -0.21686 c 0.48001,0.22542 1.01534,0.35407 1.57787,0.35407 2.06113,0 3.75549,-1.69435 3.75549,-3.75547 0,-2.06111 -1.69436,-3.74882 -3.75549,-3.74882 -0.56253,0 -1.09786,0.12735 -1.57787,0.35188 v -3.0473 z m 3.76652,3.66327 c 0.0561,4.7e-4 0.11224,0.004 0.16818,0.009 0.008,7e-4 0.0163,-8e-4 0.0243,0 0.0122,0.001 0.0236,0.003 0.0356,0.004 0.043,0.005 0.0858,0.0121 0.12833,0.0201 0.002,7.3e-4 0.006,0.001 0.008,0.002 0.005,9.7e-4 0.01,0.001 0.0155,0.002 0.01,0.002 0.0192,0.004 0.0287,0.007 0.0454,0.0102 0.0904,0.0218 0.13498,0.0356 0.005,0.002 0.01,0.003 0.0155,0.004 0.024,0.008 0.0474,0.0158 0.0708,0.0244 0.0141,0.005 0.0282,0.0102 0.042,0.0154 0.015,0.006 0.0296,0.0116 0.0442,0.0176 0.0287,0.0116 0.0561,0.0244 0.0841,0.0377 0.0555,0.0261 0.10932,0.0552 0.16153,0.0863 0.0526,0.0313 0.10372,0.0656 0.15271,0.10179 0.14877,0.10989 0.27969,0.24063 0.38949,0.38949 0.0364,0.0492 0.0704,0.0999 0.10177,0.15271 0.0313,0.0527 0.0601,0.10556 0.0863,0.16153 0.0128,0.0278 0.0262,0.0555 0.0377,0.0841 0.005,0.012 0.008,0.0236 0.0133,0.0356 0.0163,0.0407 0.0308,0.0821 0.0442,0.12394 0.001,0.004 0.002,0.009 0.005,0.0133 0.0146,0.0489 0.027,0.0983 0.0377,0.14825 10e-4,0.006 0.004,0.0116 0.005,0.0175 7.6e-4,0.004 0.001,0.009 0.002,0.0133 0.01,0.0491 0.0167,0.0986 0.0223,0.14826 0.001,0.009 0.004,0.0175 0.005,0.0265 3e-5,0.006 3e-5,0.0116 0,0.0175 0.006,0.0574 0.008,0.11498 0.008,0.17262 v 0.002 c 0,0.0899 -0.008,0.17704 -0.0201,0.26337 -0.0124,0.0894 -0.0313,0.17644 -0.0554,0.26115 -0.22367,0.7835 -0.93519,1.34771 -1.79696,1.34771 -0.667,0 -1.24639,-0.33814 -1.57787,-0.85422 v -0.0133 c -0.19208,-0.30075 -0.29421,-0.65008 -0.29433,-1.00691 1.4e-4,-0.35681 0.10225,-0.70619 0.29433,-1.00692 v -0.0111 c 0.23989,-0.37347 0.61017,-0.6526 1.04896,-0.77898 10e-4,-3.8e-4 0.004,3.9e-4 0.005,0 0.0841,-0.024 0.17019,-0.043 0.25892,-0.0553 0.0868,-0.0121 0.17519,-0.0201 0.26554,-0.0201 z" />
    <path
       style="font-weight:bold;font-size:3.175px;font-family:'Readex Pro';-inkscape-font-specification:'Readex Pro Bold';fill:#ffffff;stroke-width:3.42594"
       d="m 111.14058,153.83574 v 9.15595 h 2.18865 v -10.06252 z"
       id="path90-3" />
    <path
       id="path76-9-5"
       style="color:#000000;fill:#ffffff;-inkscape-stroke:none"
       d="m 126.18106,152.92925 -2.1885,0.9064 v 9.15603 h 2.1885 v -2.1146 l 2.1146,2.11408 2.99051,5.2e-4 -3.6096,-3.6096 3.61064,-3.61115 -2.99155,-5.1e-4 -2.1146,2.11563 z" />
    <path
       style="font-weight:bold;font-size:3.175px;font-family:'Readex Pro';-inkscape-font-specification:'Readex Pro Bold';fill:#ffffff;stroke-width:3.42594"
       d="m 114.57572,155.77065 2.99093,7.22075 -1.17706,2.84168 h 2.1885 l 4.16799,-10.06243 h -2.1885 l -1.89661,4.57882 -1.89661,-4.57882 z"
       id="path108-6" />
    <path
       id="path35"
       style="font-weight:bold;font-size:13.5967px;font-family:'Readex Pro';-inkscape-font-specification:'Readex Pro Bold';fill:#ffffff;stroke-width:3.42594"
       d="m 96.216865,153.25525 c -0.716092,0 -1.377574,0.12268 -1.984892,0.36742 -0.598254,0.24474 -1.119571,0.58885 -1.563729,1.03301 -0.435094,0.44416 -0.774836,0.97037 -1.019576,1.57768 -0.24474,0.59826 -0.367419,1.25537 -0.367419,1.97146 0,0.70703 0.122679,1.36414 0.367419,1.97146 0.24474,0.59825 0.584482,1.11957 1.019576,1.56372 0.444158,0.4351 0.965475,0.77484 1.563729,1.01958 0.607318,0.24474 1.2688,0.3669 1.984892,0.3669 0.707024,0 1.359764,-0.12216 1.958024,-0.3669 0.59825,-0.24474 1.11519,-0.58937 1.55029,-1.03353 0.444161,-0.44416 0.788271,-0.96547 1.033011,-1.56373 0.24474,-0.59825 0.36742,-1.25047 0.36742,-1.9575 0,-0.71609 -0.12268,-1.3732 -0.36742,-1.97146 -0.24474,-0.60731 -0.58885,-1.13352 -1.033011,-1.57768 -0.4351,-0.44416 -0.95204,-0.78827 -1.55029,-1.03301 -0.59826,-0.24474 -1.251,-0.36742 -1.958024,-0.36742 z m 0,2.18953 c 0.371642,0 0.711904,0.0676 1.020094,0.20361 0.30819,0.13596 0.5754,0.33117 0.80202,0.58497 0.23567,0.24474 0.41725,0.53433 0.54415,0.86972 0.1269,0.33538 0.19017,0.7029 0.19017,1.10174 0,0.38977 -0.0633,0.7524 -0.19017,1.08779 -0.1269,0.33538 -0.30848,0.62497 -0.54415,0.86971 -0.22662,0.24474 -0.49383,0.43558 -0.80202,0.57154 -0.30819,0.13597 -0.648452,0.20361 -1.020094,0.20361 -0.498545,0 -0.942447,-0.11779 -1.332219,-0.35347 -0.380706,-0.23567 -0.684444,-0.55741 -0.911055,-0.96531 -0.217547,-0.41697 -0.326079,-0.88813 -0.326079,-1.41387 0,-0.39884 0.06327,-0.76636 0.19017,-1.10174 0.126902,-0.33539 0.303588,-0.62498 0.5302,-0.86972 0.235676,-0.2538 0.507779,-0.44901 0.815971,-0.58497 0.317254,-0.13597 0.661369,-0.20361 1.033012,-0.20361 z" />
  </g>
  <path
     id="path91"
     d="m 56.582187,7.76732 5.271934,-5.33076 7.40479,7.4048 -7.40479,7.40479 -9.873055,-9.87307 -4.936528,4.93653 4.936528,4.93654 2.835138,-2.83515"
     style="fill:none;fill-rule:evenodd;stroke:#ffffff;stroke-width:3.43626;stroke-linecap:butt;stroke-linejoin:miter;stroke-miterlimit:4;stroke-dasharray:none;stroke-opacity:1" />
  <path
     id="text3"
     style="-inkscape-font-specification:'Readex Pro, Normal';fill:#ffffff;stroke-width:2.45461"
     d="m 4.049437,14.751038 c -0.084607,0 -0.152332,0.02372 -0.202572,0.07131 -0.047593,0.04759 -0.071313,0.109357 -0.071313,0.186035 0,0.08197 0.02372,0.14574 0.071313,0.190686 0.047594,0.04495 0.115318,0.06718 0.202572,0.06718 0.084609,0 0.150844,-0.02372 0.198437,-0.07131 0.05024,-0.04759 0.074931,-0.109874 0.074931,-0.186552 0,-0.08197 -0.02372,-0.145222 -0.071313,-0.190169 -0.047593,-0.04495 -0.114801,-0.06718 -0.202055,-0.06718 z m 7.253821,0 c -0.08461,0 -0.151815,0.02372 -0.202055,0.07131 -0.04759,0.04759 -0.07131,0.109357 -0.07131,0.186035 0,0.08197 0.02372,0.14574 0.07131,0.190686 0.04759,0.04495 0.114801,0.06718 0.202055,0.06718 0.08461,0 0.150844,-0.02372 0.198437,-0.07131 0.05024,-0.04759 0.07545,-0.109874 0.07545,-0.186552 0,-0.08197 -0.02372,-0.145222 -0.07131,-0.190169 -0.04759,-0.04495 -0.115317,-0.06718 -0.202571,-0.06718 z m 24.343733,0 c -0.08461,0 -0.151815,0.02372 -0.202054,0.07131 -0.04759,0.04759 -0.07131,0.109357 -0.07131,0.186035 0,0.08197 0.02372,0.14574 0.07131,0.190686 0.04759,0.04495 0.1148,0.06718 0.202054,0.06718 0.08461,0 0.150845,-0.02372 0.198438,-0.07131 0.05023,-0.04759 0.07545,-0.109874 0.07545,-0.186552 0,-0.08197 -0.02372,-0.145222 -0.07131,-0.190169 -0.04759,-0.04495 -0.115318,-0.06718 -0.202572,-0.06718 z m -32.850708,0.12299 v 2.934704 h 0.408244 v -2.934704 z m 5.742802,0 v 2.922819 h 0.408244 v -0.263034 c 0.04898,0.05541 0.106272,0.107931 0.174666,0.156063 0.074034,0.04759 0.154592,0.08563 0.241846,0.114722 0.089898,0.02909 0.179853,0.04393 0.269751,0.04393 0.18244,0 0.346537,-0.04647 0.49196,-0.13901 0.145423,-0.09519 0.259098,-0.224675 0.341064,-0.388606 0.08461,-0.163932 0.126607,-0.350259 0.126607,-0.559139 0,-0.208881 -0.042,-0.394234 -0.126607,-0.555522 -0.08461,-0.163931 -0.199775,-0.29193 -0.345198,-0.384473 -0.145424,-0.09254 -0.311984,-0.139009 -0.499711,-0.139009 -0.08461,0 -0.168148,0.01484 -0.250114,0.04392 -0.081966,0.02644 -0.158571,0.06351 -0.22996,0.111104 -0.068748,0.04495 -0.125586,0.09635 -0.170533,0.154513 -0.00967,0.01194 -0.015571,0.0245 -0.023771,0.03669 v -1.154968 z m -7.17889,0.134358 c -0.190372,0 -0.367302,0.0361 -0.531233,0.107487 C 0.66503,15.187263 0.5207,15.287588 0.39643,15.417147 0.272159,15.546706 0.174298,15.697452 0.102908,15.869316 0.034162,16.038535 7.2e-5,16.222399 7.2e-5,16.420703 c 0,0.208881 0.031624,0.400651 0.095084,0.575159 0.066102,0.174508 0.15852,0.326227 0.277503,0.455786 0.118983,0.126915 0.259359,0.224777 0.420646,0.293522 0.161287,0.06874 0.338217,0.103353 0.531234,0.103353 0.129558,0 0.258074,-0.01582 0.384989,-0.04754 0.129559,-0.03438 0.245697,-0.08084 0.348816,-0.13901 0.105762,-0.05817 0.189301,-0.122914 0.250114,-0.194303 L 2.094001,17.118335 c -0.060814,0.06082 -0.128022,0.1137 -0.202055,0.158647 -0.074034,0.04495 -0.153619,0.07955 -0.238229,0.103352 -0.084609,0.0238 -0.170611,0.03566 -0.257865,0.03566 -0.142779,0 -0.273241,-0.02223 -0.392224,-0.06718 C 0.887289,17.301219 0.786448,17.233494 0.701838,17.14624 0.617228,17.058986 0.55151,16.954708 0.503917,16.833081 0.45897,16.708811 0.436221,16.571414 0.436221,16.420703 c 0,-0.142779 0.02372,-0.273758 0.071313,-0.392741 0.047593,-0.121626 0.112338,-0.225905 0.194304,-0.313159 0.08461,-0.08725 0.182471,-0.154978 0.293522,-0.202572 0.113694,-0.05024 0.235276,-0.07545 0.364835,-0.07545 0.124271,0 0.245853,0.02917 0.364836,0.08733 0.118982,0.05817 0.235638,0.145661 0.349333,0.262 L 2.359618,15.48846 C 2.293516,15.395918 2.208031,15.31387 2.102269,15.24248 1.99915,15.168446 1.882495,15.111608 1.752936,15.071948 1.626021,15.029642 1.495042,15.008386 1.360195,15.008386 Z m 18.089335,0 c -0.190371,0 -0.367301,0.0361 -0.531233,0.107487 -0.163931,0.07139 -0.308261,0.171715 -0.432532,0.301274 -0.124271,0.129559 -0.222133,0.280305 -0.293522,0.452169 -0.06874,0.169219 -0.102836,0.353083 -0.102836,0.551387 0,0.208881 0.03162,0.400651 0.09508,0.575159 0.0661,0.174508 0.15852,0.326227 0.277503,0.455786 0.118982,0.126915 0.259358,0.224777 0.420646,0.293522 0.161287,0.06874 0.338217,0.103353 0.531234,0.103353 0.129558,0 0.258075,-0.01582 0.384989,-0.04754 0.129559,-0.03438 0.245698,-0.08084 0.348816,-0.13901 0.105763,-0.05817 0.189301,-0.122914 0.250114,-0.194303 l -0.214457,-0.349333 c -0.06081,0.06082 -0.128022,0.1137 -0.202055,0.158647 -0.07403,0.04495 -0.153618,0.07955 -0.238228,0.103352 -0.08461,0.0238 -0.170612,0.03566 -0.257866,0.03566 -0.142779,0 -0.273241,-0.02223 -0.392224,-0.06718 -0.116338,-0.04759 -0.217181,-0.115318 -0.30179,-0.202572 -0.08461,-0.08725 -0.150328,-0.191532 -0.197921,-0.313159 -0.04495,-0.12427 -0.0677,-0.261667 -0.0677,-0.412378 0,-0.142779 0.02372,-0.273758 0.07131,-0.392741 0.04759,-0.121626 0.112338,-0.225905 0.194304,-0.313159 0.08461,-0.08725 0.182471,-0.154978 0.293522,-0.202572 0.113694,-0.05024 0.235277,-0.07545 0.364835,-0.07545 0.124272,0 0.245854,0.02917 0.364836,0.08733 0.118983,0.05817 0.235638,0.145661 0.349333,0.262 l 0.285254,-0.297657 c -0.0661,-0.09254 -0.151586,-0.17459 -0.257349,-0.24598 -0.103118,-0.07403 -0.219773,-0.130872 -0.349333,-0.170532 -0.126914,-0.04231 -0.257893,-0.06356 -0.392741,-0.06356 z m 17.292485,0.186552 v 0.531751 h -0.432532 v 0.396358 h 0.432532 v 1.685685 h 0.408244 v -1.685685 h 0.484208 v -0.396358 h -0.484208 v -0.531751 z m -23.511226,0.487826 c -0.11105,0 -0.219283,0.02521 -0.325045,0.07545 -0.105762,0.04759 -0.197207,0.110848 -0.273885,0.19017 -0.03323,0.03323 -0.0594,0.06869 -0.0832,0.104903 v -0.326595 h -0.408244 v 2.082043 h 0.102836 0.103353 0.202055 V 16.54731 c 0,-0.06875 0.01335,-0.132002 0.03979,-0.190169 0.02908,-0.06082 0.06713,-0.1137 0.114721,-0.158647 0.05024,-0.04495 0.108567,-0.07956 0.174667,-0.103352 0.0661,-0.02644 0.138753,-0.03927 0.218074,-0.03927 0.09783,-0.0053 0.17988,0.01053 0.24598,0.04754 0.0661,0.03437 0.115034,0.09121 0.146761,0.170532 0.03173,0.07668 0.04754,0.17454 0.04754,0.293522 v 1.241268 h 0.408761 v -1.269173 c 0,-0.193017 -0.0267,-0.35316 -0.07958,-0.480074 -0.05288,-0.126915 -0.131949,-0.220823 -0.237711,-0.281637 -0.105762,-0.06346 -0.238232,-0.09508 -0.396875,-0.09508 z m 2.161625,0 c -0.193016,0 -0.367483,0.04744 -0.523482,0.142627 -0.153356,0.09254 -0.274938,0.221058 -0.364836,0.384989 -0.08725,0.161288 -0.130741,0.346124 -0.130741,0.555005 0,0.20888 0.04446,0.395724 0.134358,0.559656 0.0899,0.161287 0.211997,0.289286 0.365353,0.384472 0.155999,0.09254 0.332929,0.13901 0.531233,0.13901 0.113694,0 0.224907,-0.02424 0.333313,-0.07183 0.108407,-0.04759 0.198362,-0.108385 0.269751,-0.182418 0.03655,-0.03785 0.06509,-0.0761 0.08682,-0.115239 v 0.250114 c 0,0.137491 -0.02469,0.252656 -0.07493,0.345199 -0.05024,0.09254 -0.124379,0.16273 -0.222209,0.210323 -0.09783,0.04759 -0.219412,0.07131 -0.364835,0.07131 -0.116339,0 -0.233968,-0.01828 -0.35295,-0.05529 -0.116339,-0.03702 -0.214201,-0.08595 -0.293523,-0.146761 l -0.150895,0.317293 c 0.0899,0.07404 0.207527,0.133337 0.35295,0.178284 0.148067,0.04759 0.29635,0.07131 0.444418,0.07131 0.166575,0 0.315832,-0.02372 0.448034,-0.07131 0.132203,-0.04495 0.244389,-0.112157 0.336931,-0.202055 0.09254,-0.08725 0.162729,-0.196003 0.210323,-0.325562 0.05024,-0.126915 0.07545,-0.273708 0.07545,-0.440283 v -1.954919 h -0.40876 v 0.290421 c -0.02779,-0.03589 -0.05622,-0.07166 -0.09509,-0.104386 -0.05024,-0.0423 -0.107072,-0.08035 -0.170532,-0.114722 -0.06346,-0.03702 -0.132156,-0.06469 -0.206189,-0.0832 -0.07403,-0.02115 -0.150638,-0.03204 -0.22996,-0.03204 z m 6.421313,0 c -0.203592,0 -0.386482,0.04744 -0.54777,0.142627 -0.158643,0.09254 -0.284179,0.221058 -0.376721,0.384989 -0.09254,0.161288 -0.138493,0.346124 -0.138493,0.555005 0,0.20888 0.04595,0.395724 0.138493,0.559656 0.09254,0.161287 0.218078,0.289286 0.376721,0.384472 0.161288,0.09254 0.344178,0.13901 0.54777,0.13901 0.200949,0 0.380342,-0.04647 0.538985,-0.13901 0.161288,-0.09519 0.288314,-0.223185 0.380856,-0.384472 0.09254,-0.163932 0.139009,-0.350776 0.139009,-0.559656 0,-0.208881 -0.04647,-0.393717 -0.139009,-0.555005 -0.09254,-0.163931 -0.219568,-0.292447 -0.380856,-0.384989 -0.158643,-0.09519 -0.338036,-0.142627 -0.538985,-0.142627 z m 12.298474,0 c -0.11105,0 -0.219282,0.02521 -0.325044,0.07545 -0.105762,0.04759 -0.197208,0.110848 -0.273885,0.19017 -0.03323,0.03323 -0.0594,0.06869 -0.0832,0.104903 v -0.326595 h -0.408243 v 2.082043 h 0.102836 0.103353 0.202054 V 16.54731 c 0,-0.06875 0.01335,-0.132002 0.03979,-0.190169 0.02909,-0.06082 0.06713,-0.1137 0.114722,-0.158647 0.05024,-0.04495 0.108566,-0.07956 0.174666,-0.103352 0.0661,-0.02644 0.138753,-0.03927 0.218075,-0.03927 0.09783,-0.0053 0.17988,0.01053 0.24598,0.04754 0.0661,0.03437 0.115034,0.09121 0.146761,0.170532 0.03173,0.07668 0.04754,0.17454 0.04754,0.293522 v 1.241268 h 0.408761 v -1.269173 c 0,-0.193017 -0.0267,-0.35316 -0.07958,-0.480074 -0.05288,-0.126915 -0.13195,-0.220823 -0.237712,-0.281637 -0.105762,-0.06346 -0.238231,-0.09508 -0.396875,-0.09508 z m -28.167273,0.0083 c -0.081966,0 -0.162523,0.01432 -0.241845,0.04341 -0.076678,0.02908 -0.149329,0.06862 -0.218075,0.118856 -0.066101,0.04759 -0.122939,0.103455 -0.170532,0.166915 -0.010791,0.01524 -0.014352,0.032 -0.023771,0.04754 V 15.726689 H 4.878327 v 2.082043 h 0.412378 v -1.253153 c 0,-0.06875 0.013351,-0.13252 0.039791,-0.190686 0.02644,-0.06081 0.063511,-0.112206 0.111104,-0.154513 0.047591,-0.04495 0.102938,-0.07955 0.166398,-0.103353 0.063457,-0.02644 0.132155,-0.03927 0.206189,-0.03927 0.132203,0 0.232528,0.04349 0.301274,0.130741 0.071389,0.08725 0.107487,0.21279 0.107487,0.376722 v 1.233516 H 6.635326 V 16.56333 c 0,-0.07139 0.01335,-0.136137 0.03979,-0.194303 0.026441,-0.06082 0.063511,-0.1137 0.111105,-0.158647 0.04759,-0.04495 0.102938,-0.07955 0.166398,-0.103353 0.066101,-0.02644 0.13629,-0.03927 0.210323,-0.03927 0.14278,0 0.247059,0.042 0.313159,0.126607 0.068746,0.08197 0.102836,0.211455 0.102836,0.388607 v 1.225765 h 0.412895 v -1.249536 c 0,-0.193016 -0.026702,-0.354132 -0.079582,-0.483691 -0.050236,-0.129556 -0.126841,-0.225929 -0.22996,-0.289388 -0.100474,-0.06346 -0.228473,-0.09509 -0.384473,-0.09509 -0.071389,0 -0.144557,0.01186 -0.218591,0.03566 -0.074034,0.02379 -0.143706,0.0564 -0.209806,0.0987 -0.066103,0.0423 -0.125921,0.09123 -0.178801,0.146761 -0.047534,0.05004 -0.084056,0.10409 -0.112654,0.16123 C 6.552581,16.056257 6.52246,15.985537 6.480813,15.928743 6.422644,15.849421 6.348502,15.79012 6.258604,15.75046 6.168706,15.7108 6.063911,15.691032 5.944928,15.691032 Z m 18.4304,0 c -0.08197,0 -0.162524,0.01432 -0.241846,0.04341 -0.07668,0.02908 -0.149328,0.06862 -0.218074,0.118856 -0.0661,0.04759 -0.122939,0.103455 -0.170532,0.166915 -0.01079,0.01524 -0.01435,0.032 -0.02377,0.04754 v -0.341064 h -0.412378 v 2.082043 h 0.412378 v -1.253153 c 0,-0.06875 0.01335,-0.13252 0.03979,-0.190686 0.02644,-0.06081 0.06351,-0.112206 0.111105,-0.154513 0.04759,-0.04495 0.102938,-0.07955 0.166398,-0.103353 0.06346,-0.02644 0.132155,-0.03927 0.206189,-0.03927 0.132202,0 0.233044,0.04349 0.30179,0.130741 0.07139,0.08725 0.10697,0.21279 0.10697,0.376722 v 1.233516 h 0.412378 V 16.56333 c 0,-0.07139 0.01335,-0.136137 0.03979,-0.194303 0.02644,-0.06082 0.06351,-0.1137 0.111104,-0.158647 0.04759,-0.04495 0.102938,-0.07955 0.166398,-0.103353 0.0661,-0.02644 0.13629,-0.03927 0.210323,-0.03927 0.142782,0 0.24706,0.042 0.31316,0.126607 0.06874,0.08197 0.103353,0.211455 0.103353,0.388607 v 1.225765 h 0.412377 v -1.249536 c 0,-0.193016 -0.0267,-0.354132 -0.07958,-0.483691 -0.05024,-0.129556 -0.126842,-0.225929 -0.22996,-0.289388 -0.100474,-0.06346 -0.228473,-0.09509 -0.384473,-0.09509 -0.07139,0 -0.144558,0.01186 -0.218591,0.03566 -0.07404,0.02379 -0.143707,0.0564 -0.209807,0.0987 -0.0661,0.0423 -0.12592,0.09123 -0.1788,0.146761 -0.04753,0.05004 -0.08406,0.10409 -0.112655,0.16123 -0.02538,-0.07713 -0.05551,-0.147845 -0.09715,-0.204639 -0.05817,-0.07932 -0.132311,-0.138623 -0.222209,-0.178283 -0.0899,-0.03966 -0.194693,-0.05943 -0.313676,-0.05943 z m 3.653007,0 c -0.08197,0 -0.162524,0.01432 -0.241846,0.04341 -0.07668,0.02908 -0.149329,0.06862 -0.218074,0.118856 -0.0661,0.04759 -0.122939,0.103455 -0.170532,0.166915 -0.01079,0.01524 -0.01435,0.032 -0.02377,0.04754 v -0.341064 h -0.412894 v 2.082043 h 0.412894 v -1.253153 c 0,-0.06875 0.01283,-0.13252 0.03927,-0.190686 0.02644,-0.06081 0.06351,-0.112206 0.111105,-0.154513 0.04759,-0.04495 0.103455,-0.07955 0.166915,-0.103353 0.06346,-0.02644 0.132155,-0.03927 0.206189,-0.03927 0.132203,0 0.232528,0.04349 0.301273,0.130741 0.07139,0.08725 0.10697,0.21279 0.10697,0.376722 v 1.233516 h 0.412378 V 16.56333 c 0,-0.07139 0.01335,-0.136137 0.03979,-0.194303 0.02644,-0.06082 0.06351,-0.1137 0.111105,-0.158647 0.04759,-0.04495 0.102938,-0.07955 0.166398,-0.103353 0.0661,-0.02644 0.136289,-0.03927 0.210323,-0.03927 0.14278,0 0.247576,0.042 0.313676,0.126607 0.06874,0.08197 0.102836,0.211455 0.102836,0.388607 v 1.225765 h 0.412378 v -1.249536 c 0,-0.193016 -0.02619,-0.354132 -0.07906,-0.483691 -0.05024,-0.129556 -0.126842,-0.225929 -0.22996,-0.289388 -0.100474,-0.06346 -0.228991,-0.09509 -0.38499,-0.09509 -0.07139,0 -0.144041,0.01186 -0.218074,0.03566 -0.07404,0.02379 -0.144223,0.0564 -0.210323,0.0987 -0.0661,0.0423 -0.125404,0.09123 -0.178284,0.146761 -0.04753,0.05004 -0.08406,0.10409 -0.112655,0.16123 -0.02538,-0.07713 -0.05602,-0.147845 -0.09767,-0.204639 -0.05817,-0.07932 -0.132311,-0.138623 -0.222209,-0.178283 -0.0899,-0.03966 -0.194176,-0.05943 -0.313159,-0.05943 z m -24.177336,0.03566 v 2.082043 H 4.25976 v -2.082043 z m 7.253821,0 v 2.082043 h 0.408761 v -2.082043 z m 19.517155,0 v 1.284676 c 0,0.171864 0.02917,0.320147 0.08733,0.444417 0.06081,0.124271 0.145325,0.220643 0.253732,0.289388 0.11105,0.06874 0.241056,0.103353 0.389123,0.103353 0.118983,0 0.229678,-0.02275 0.332796,-0.0677 0.103119,-0.04759 0.191584,-0.110848 0.265617,-0.190169 0.03569,-0.03692 0.06552,-0.07638 0.09147,-0.117306 v 0.33538 h 0.408244 v -2.082043 h -0.408244 v 1.253153 c 0,0.07403 -0.01335,0.142729 -0.03979,0.206189 -0.02644,0.06346 -0.06351,0.117834 -0.111105,0.162781 -0.04495,0.04495 -0.0988,0.08053 -0.162264,0.10697 -0.06346,0.0238 -0.133645,0.03566 -0.210323,0.03566 -0.153355,0 -0.273964,-0.05288 -0.361218,-0.158647 C 31.072733,17.22703 31.030736,17.0827 31.030736,16.90026 v -1.173571 z m 4.827096,0 v 2.082043 h 0.408243 v -2.082043 z m 2.292366,0 0.965833,2.182295 -0.3514,0.811837 h 0.440283 l 0.35295,-0.912089 0.856795,-2.082043 h -0.483691 l -0.543636,1.50275 c -0.01834,0.05501 -0.03798,0.11035 -0.05891,0.165365 -0.0016,-0.0048 -0.0025,-0.0097 -0.0041,-0.01447 -0.01851,-0.05553 -0.03484,-0.09655 -0.04806,-0.122989 l -0.65009,-1.530656 z M 9.566413,16.055868 c 0.12427,0 0.233992,0.03014 0.329179,0.09095 0.095187,0.06081 0.168812,0.145325 0.221692,0.253731 0.05553,0.105762 0.08371,0.226371 0.08371,0.361219 0,0.13749 -0.02819,0.260563 -0.08371,0.368969 -0.05553,0.10576 -0.130641,0.190272 -0.225826,0.253732 -0.095187,0.06081 -0.203419,0.09095 -0.325045,0.09095 -0.124271,0 -0.233993,-0.03014 -0.329179,-0.09095 C 9.142049,17.321011 9.066418,17.2365 9.010891,17.130737 8.955365,17.022331 8.927692,16.899258 8.927692,16.761768 c 0,-0.134848 0.027673,-0.255457 0.083199,-0.361219 0.055525,-0.108406 0.131157,-0.192918 0.226343,-0.253731 0.095186,-0.06081 0.204908,-0.09095 0.329179,-0.09095 z m 5.881295,0 c 0.129558,0 0.243234,0.03014 0.341064,0.09095 0.100473,0.06081 0.178568,0.145325 0.234094,0.253731 0.05817,0.105762 0.08733,0.227345 0.08733,0.364836 0,0.137491 -0.02767,0.25959 -0.0832,0.365352 -0.05553,0.105763 -0.133619,0.188784 -0.234094,0.249597 -0.100474,0.06081 -0.21564,0.09147 -0.345198,0.09147 -0.126916,0 -0.240591,-0.03065 -0.341065,-0.09147 -0.09783,-0.06081 -0.175411,-0.143834 -0.233577,-0.249597 -0.05553,-0.108406 -0.08372,-0.230506 -0.08372,-0.365352 0,-0.134847 0.02819,-0.25494 0.08372,-0.360702 0.05817,-0.108406 0.135747,-0.192918 0.233577,-0.253731 0.100474,-0.06346 0.214149,-0.09508 0.341065,-0.09508 z m 6.366019,0 c 0.124271,0 0.234967,0.03014 0.332796,0.09095 0.09783,0.06081 0.174434,0.145325 0.229961,0.253731 0.05555,0.105762 0.08225,0.227345 0.07958,0.364836 0.0026,0.134846 -0.02406,0.256946 -0.07958,0.365352 -0.05553,0.10576 -0.13213,0.190272 -0.229961,0.253732 -0.09783,0.06081 -0.208525,0.09095 -0.332796,0.09095 -0.12427,0 -0.236972,-0.03014 -0.337447,-0.09095 -0.09783,-0.06346 -0.174433,-0.147969 -0.22996,-0.253732 -0.05555,-0.108406 -0.08173,-0.230506 -0.07906,-0.365352 -0.0026,-0.134847 0.02354,-0.25494 0.07906,-0.360702 0.05552,-0.108406 0.13213,-0.192918 0.22996,-0.253731 0.100475,-0.06346 0.213177,-0.09508 0.337447,-0.09508 z" />
</svg>
