<?xml version="1.0" encoding="UTF-8" standalone="no"?>
<!-- Created with Inkscape (http://www.inkscape.org/) -->

<svg
   width="71.688713mm"
   height="19.675959mm"
   viewBox="0 0 71.688713 19.675959"
   version="1.1"
   id="svg1"
   sodipodi:docname="logo-title-slogan.svg"
   inkscape:version="1.3.2 (091e20ef0f, 2023-11-25)"
   xmlns:inkscape="http://www.inkscape.org/namespaces/inkscape"
   xmlns:sodipodi="http://sodipodi.sourceforge.net/DTD/sodipodi-0.dtd"
   xmlns="http://www.w3.org/2000/svg"
   xmlns:svg="http://www.w3.org/2000/svg">
  <sodipodi:namedview
     id="namedview1"
     pagecolor="#505050"
     bordercolor="#eeeeee"
     borderopacity="1"
     inkscape:showpageshadow="0"
     inkscape:pageopacity="0"
     inkscape:pagecheckerboard="0"
     inkscape:deskcolor="#505050"
     inkscape:document-units="mm"
     inkscape:zoom="6.1929161"
     inkscape:cx="172.29363"
     inkscape:cy="44.2441"
     inkscape:window-width="1920"
     inkscape:window-height="1136"
     inkscape:window-x="0"
     inkscape:window-y="0"
     inkscape:window-maximized="1"
     inkscape:current-layer="svg1" />
  <defs
     id="defs1" />
  <g
     id="g5"
     transform="translate(-59.5985,-151.97411)">
    <path
       id="path83-5"
       style="font-weight:bold;font-size:3.175px;font-family:'Readex Pro';-inkscape-font-specification:'Readex Pro Bold';fill:#ffffff;stroke-width:3.42594"
       d="m 102.37209,153.83575 v 9.15594 h 2.18865 v -0.21686 c 0.48001,0.22542 1.01534,0.35407 1.57787,0.35407 2.06113,0 3.75549,-1.69435 3.75549,-3.75547 0,-2.06111 -1.69436,-3.74882 -3.75549,-3.74882 -0.56253,0 -1.09786,0.12735 -1.57787,0.35188 v -3.0473 z m 3.76652,3.66327 c 0.0561,4.7e-4 0.11224,0.004 0.16818,0.009 0.008,7e-4 0.0163,-8e-4 0.0243,0 0.0122,0.001 0.0236,0.003 0.0356,0.004 0.043,0.005 0.0858,0.0121 0.12833,0.0201 0.002,7.3e-4 0.006,0.001 0.008,0.002 0.005,9.7e-4 0.01,0.001 0.0155,0.002 0.01,0.002 0.0192,0.004 0.0287,0.007 0.0454,0.0102 0.0904,0.0218 0.13498,0.0356 0.005,0.002 0.01,0.003 0.0155,0.004 0.024,0.008 0.0474,0.0158 0.0708,0.0244 0.0141,0.005 0.0282,0.0102 0.042,0.0154 0.015,0.006 0.0296,0.0116 0.0442,0.0176 0.0287,0.0116 0.0561,0.0244 0.0841,0.0377 0.0555,0.0261 0.10932,0.0552 0.16153,0.0863 0.0526,0.0313 0.10372,0.0656 0.15271,0.10179 0.14877,0.10989 0.27969,0.24063 0.38949,0.38949 0.0364,0.0492 0.0704,0.0999 0.10177,0.15271 0.0313,0.0527 0.0601,0.10556 0.0863,0.16153 0.0128,0.0278 0.0262,0.0555 0.0377,0.0841 0.005,0.012 0.008,0.0236 0.0133,0.0356 0.0163,0.0407 0.0308,0.0821 0.0442,0.12394 0.001,0.004 0.002,0.009 0.005,0.0133 0.0146,0.0489 0.027,0.0983 0.0377,0.14825 10e-4,0.006 0.004,0.0116 0.005,0.0175 7.6e-4,0.004 0.001,0.009 0.002,0.0133 0.01,0.0491 0.0167,0.0986 0.0223,0.14826 0.001,0.009 0.004,0.0175 0.005,0.0265 3e-5,0.006 3e-5,0.0116 0,0.0175 0.006,0.0574 0.008,0.11498 0.008,0.17262 v 0.002 c 0,0.0899 -0.008,0.17704 -0.0201,0.26337 -0.0124,0.0894 -0.0313,0.17644 -0.0554,0.26115 -0.22367,0.7835 -0.93519,1.34771 -1.79696,1.34771 -0.667,0 -1.24639,-0.33814 -1.57787,-0.85422 v -0.0133 c -0.19208,-0.30075 -0.29421,-0.65008 -0.29433,-1.00691 1.4e-4,-0.35681 0.10225,-0.70619 0.29433,-1.00692 v -0.0111 c 0.23989,-0.37347 0.61017,-0.6526 1.04896,-0.77898 10e-4,-3.8e-4 0.004,3.9e-4 0.005,0 0.0841,-0.024 0.17019,-0.043 0.25892,-0.0553 0.0868,-0.0121 0.17519,-0.0201 0.26554,-0.0201 z" />
    <path
       style="font-weight:bold;font-size:3.175px;font-family:'Readex Pro';-inkscape-font-specification:'Readex Pro Bold';fill:#ffffff;stroke-width:3.42594"
       d="m 111.14058,153.83574 v 9.15595 h 2.18865 v -10.06252 z"
       id="path90-3" />
    <path
       id="path76-9-5"
       style="color:#000000;fill:#ffffff;-inkscape-stroke:none"
       d="m 126.18106,152.92925 -2.1885,0.9064 v 9.15603 h 2.1885 v -2.1146 l 2.1146,2.11408 2.99051,5.2e-4 -3.6096,-3.6096 3.61064,-3.61115 -2.99155,-5.1e-4 -2.1146,2.11563 z" />
    <path
       style="font-weight:bold;font-size:3.175px;font-family:'Readex Pro';-inkscape-font-specification:'Readex Pro Bold';fill:#ffffff;stroke-width:3.42594"
       d="m 114.57572,155.77065 2.99093,7.22075 -1.17706,2.84168 h 2.1885 l 4.16799,-10.06243 h -2.1885 l -1.89661,4.57882 -1.89661,-4.57882 z"
       id="path108-6" />
    <path
       id="path35"
       style="font-weight:bold;font-size:13.5967px;font-family:'Readex Pro';-inkscape-font-specification:'Readex Pro Bold';fill:#ffffff;stroke-width:3.42594"
       d="m 96.216865,153.25525 c -0.716092,0 -1.377574,0.12268 -1.984892,0.36742 -0.598254,0.24474 -1.119571,0.58885 -1.563729,1.03301 -0.435094,0.44416 -0.774836,0.97037 -1.019576,1.57768 -0.24474,0.59826 -0.367419,1.25537 -0.367419,1.97146 0,0.70703 0.122679,1.36414 0.367419,1.97146 0.24474,0.59825 0.584482,1.11957 1.019576,1.56372 0.444158,0.4351 0.965475,0.77484 1.563729,1.01958 0.607318,0.24474 1.2688,0.3669 1.984892,0.3669 0.707024,0 1.359764,-0.12216 1.958024,-0.3669 0.59825,-0.24474 1.11519,-0.58937 1.55029,-1.03353 0.444161,-0.44416 0.788271,-0.96547 1.033011,-1.56373 0.24474,-0.59825 0.36742,-1.25047 0.36742,-1.9575 0,-0.71609 -0.12268,-1.3732 -0.36742,-1.97146 -0.24474,-0.60731 -0.58885,-1.13352 -1.033011,-1.57768 -0.4351,-0.44416 -0.95204,-0.78827 -1.55029,-1.03301 -0.59826,-0.24474 -1.251,-0.36742 -1.958024,-0.36742 z m 0,2.18953 c 0.371642,0 0.711904,0.0676 1.020094,0.20361 0.30819,0.13596 0.5754,0.33117 0.80202,0.58497 0.23567,0.24474 0.41725,0.53433 0.54415,0.86972 0.1269,0.33538 0.19017,0.7029 0.19017,1.10174 0,0.38977 -0.0633,0.7524 -0.19017,1.08779 -0.1269,0.33538 -0.30848,0.62497 -0.54415,0.86971 -0.22662,0.24474 -0.49383,0.43558 -0.80202,0.57154 -0.30819,0.13597 -0.648452,0.20361 -1.020094,0.20361 -0.498545,0 -0.942447,-0.11779 -1.332219,-0.35347 -0.380706,-0.23567 -0.684444,-0.55741 -0.911055,-0.96531 -0.217547,-0.41697 -0.326079,-0.88813 -0.326079,-1.41387 0,-0.39884 0.06327,-0.76636 0.19017,-1.10174 0.126902,-0.33539 0.303588,-0.62498 0.5302,-0.86972 0.235676,-0.2538 0.507779,-0.44901 0.815971,-0.58497 0.317254,-0.13597 0.661369,-0.20361 1.033012,-0.20361 z" />
  </g>
  <path
     id="path91"
     d="m 11.96745,7.76732 5.271934,-5.33076 7.404794,7.4048 -7.404794,7.40479 -9.873055,-9.87307 -4.936528,4.93653 4.936528,4.93654 2.835138,-2.83515"
     style="fill:none;fill-rule:evenodd;stroke:#ffffff;stroke-width:3.43626;stroke-linecap:butt;stroke-linejoin:miter;stroke-miterlimit:4;stroke-dasharray:none;stroke-opacity:1" />
  <path
     id="text3"
     style="-inkscape-font-specification:'Readex Pro, Normal';fill:#ffffff;stroke-width:2.45461"
     d="M 35.732186 14.751038 C 35.647579 14.751038 35.579854 14.774758 35.529614 14.822351 C 35.482021 14.869944 35.458301 14.931708 35.458301 15.008386 C 35.458301 15.090354 35.482021 15.154126 35.529614 15.199072 C 35.577208 15.244019 35.644932 15.266252 35.732186 15.266252 C 35.816795 15.266252 35.88303 15.242531 35.930623 15.194938 C 35.980863 15.147346 36.005554 15.085064 36.005554 15.008386 C 36.005554 14.926418 35.981834 14.863164 35.934241 14.818217 C 35.886648 14.77327 35.81944 14.751038 35.732186 14.751038 z M 42.986007 14.751038 C 42.9014 14.751038 42.834192 14.774758 42.783952 14.822351 C 42.736359 14.869944 42.712638 14.931708 42.712638 15.008386 C 42.712638 15.090354 42.736359 15.154126 42.783952 15.199072 C 42.831544 15.244019 42.898753 15.266252 42.986007 15.266252 C 43.070617 15.266252 43.136851 15.242531 43.184444 15.194938 C 43.234684 15.147346 43.259892 15.085064 43.259892 15.008386 C 43.259892 14.926418 43.236172 14.863164 43.188578 14.818217 C 43.140985 14.77327 43.073261 14.751038 42.986007 14.751038 z M 67.32974 14.751038 C 67.245134 14.751038 67.177925 14.774758 67.127686 14.822351 C 67.080092 14.869944 67.056372 14.931708 67.056372 15.008386 C 67.056372 15.090354 67.080092 15.154126 67.127686 15.199072 C 67.175278 15.244019 67.242486 15.266252 67.32974 15.266252 C 67.41435 15.266252 67.480585 15.242531 67.528178 15.194938 C 67.578411 15.147346 67.603625 15.085064 67.603625 15.008386 C 67.603625 14.926418 67.579905 14.863164 67.532312 14.818217 C 67.484719 14.77327 67.416994 14.751038 67.32974 14.751038 z M 34.479032 14.874028 L 34.479032 17.808732 L 34.887276 17.808732 L 34.887276 14.874028 L 34.479032 14.874028 z M 40.221834 14.874028 L 40.221834 17.796847 L 40.630078 17.796847 L 40.630078 17.533813 C 40.679058 17.589221 40.73635 17.641744 40.804744 17.689876 C 40.878778 17.737467 40.959336 17.775511 41.04659 17.804598 C 41.136488 17.833685 41.226443 17.848523 41.316341 17.848523 C 41.498781 17.848523 41.662878 17.802055 41.808301 17.709513 C 41.953724 17.614327 42.067399 17.484838 42.149365 17.320907 C 42.233975 17.156975 42.275972 16.970648 42.275972 16.761768 C 42.275972 16.552887 42.233975 16.367534 42.149365 16.206246 C 42.064755 16.042315 41.94959 15.914316 41.804167 15.821773 C 41.658743 15.729231 41.492183 15.682764 41.304456 15.682764 C 41.219846 15.682764 41.136308 15.697602 41.054342 15.726689 C 40.972376 15.753129 40.895771 15.7902 40.824382 15.837793 C 40.755634 15.882744 40.698796 15.934139 40.653849 15.992306 C 40.644182 16.004249 40.638278 16.016808 40.630078 16.028996 L 40.630078 14.874028 L 40.221834 14.874028 z M 33.042944 15.008386 C 32.852572 15.008386 32.675642 15.044484 32.511711 15.115873 C 32.347779 15.187263 32.203449 15.287588 32.079179 15.417147 C 31.954908 15.546706 31.857047 15.697452 31.785657 15.869316 C 31.716911 16.038535 31.682821 16.222399 31.682821 16.420703 C 31.682821 16.629584 31.714445 16.821354 31.777905 16.995862 C 31.844007 17.17037 31.936425 17.322089 32.055408 17.451648 C 32.174391 17.578563 32.314767 17.676425 32.476054 17.74517 C 32.637341 17.813915 32.814271 17.848523 33.007288 17.848523 C 33.136846 17.848523 33.265362 17.832707 33.392277 17.800981 C 33.521836 17.766605 33.637974 17.720138 33.741093 17.661971 C 33.846855 17.603802 33.930394 17.539057 33.991207 17.467668 L 33.77675 17.118335 C 33.715936 17.17915 33.648728 17.232035 33.574695 17.276982 C 33.500661 17.321928 33.421076 17.356534 33.336466 17.380334 C 33.251857 17.404134 33.165855 17.415991 33.078601 17.415991 C 32.935822 17.415991 32.80536 17.393758 32.686377 17.348812 C 32.570038 17.301219 32.469197 17.233494 32.384587 17.14624 C 32.299977 17.058986 32.234259 16.954708 32.186666 16.833081 C 32.141719 16.708811 32.11897 16.571414 32.11897 16.420703 C 32.11897 16.277924 32.14269 16.146945 32.190283 16.027962 C 32.237876 15.906336 32.302621 15.802057 32.384587 15.714803 C 32.469197 15.627549 32.567058 15.559825 32.678109 15.512231 C 32.791803 15.461991 32.913385 15.436784 33.042944 15.436784 C 33.167215 15.436784 33.288797 15.46595 33.40778 15.524117 C 33.526762 15.582286 33.643418 15.669778 33.757113 15.786117 L 34.042367 15.48846 C 33.976265 15.395918 33.89078 15.31387 33.785018 15.24248 C 33.681899 15.168446 33.565244 15.111608 33.435685 15.071948 C 33.30877 15.029642 33.177791 15.008386 33.042944 15.008386 z M 51.132279 15.008386 C 50.941908 15.008386 50.764978 15.044484 50.601046 15.115873 C 50.437115 15.187263 50.292785 15.287588 50.168514 15.417147 C 50.044243 15.546706 49.946381 15.697452 49.874992 15.869316 C 49.806247 16.038535 49.772156 16.222399 49.772156 16.420703 C 49.772156 16.629584 49.80378 16.821354 49.86724 16.995862 C 49.933342 17.17037 50.02576 17.322089 50.144743 17.451648 C 50.263725 17.578563 50.404101 17.676425 50.565389 17.74517 C 50.726676 17.813915 50.903606 17.848523 51.096623 17.848523 C 51.226181 17.848523 51.354698 17.832707 51.481612 17.800981 C 51.611171 17.766605 51.72731 17.720138 51.830428 17.661971 C 51.936191 17.603802 52.019729 17.539057 52.080542 17.467668 L 51.866085 17.118335 C 51.805272 17.17915 51.738063 17.232035 51.66403 17.276982 C 51.589996 17.321928 51.510412 17.356534 51.425802 17.380334 C 51.341192 17.404134 51.25519 17.415991 51.167936 17.415991 C 51.025157 17.415991 50.894695 17.393758 50.775712 17.348812 C 50.659374 17.301219 50.558531 17.233494 50.473922 17.14624 C 50.389312 17.058986 50.323594 16.954708 50.276001 16.833081 C 50.231054 16.708811 50.208305 16.571414 50.208305 16.420703 C 50.208305 16.277924 50.232025 16.146945 50.279618 16.027962 C 50.327212 15.906336 50.391956 15.802057 50.473922 15.714803 C 50.558531 15.627549 50.656393 15.559825 50.767444 15.512231 C 50.881138 15.461991 51.002721 15.436784 51.132279 15.436784 C 51.256551 15.436784 51.378133 15.46595 51.497115 15.524117 C 51.616098 15.582286 51.732753 15.669778 51.846448 15.786117 L 52.131702 15.48846 C 52.0656 15.395918 51.980116 15.31387 51.874353 15.24248 C 51.771235 15.168446 51.65458 15.111608 51.52502 15.071948 C 51.398106 15.029642 51.267127 15.008386 51.132279 15.008386 z M 68.424764 15.194938 L 68.424764 15.726689 L 67.992232 15.726689 L 67.992232 16.123047 L 68.424764 16.123047 L 68.424764 17.808732 L 68.833008 17.808732 L 68.833008 16.123047 L 69.317216 16.123047 L 69.317216 15.726689 L 68.833008 15.726689 L 68.833008 15.194938 L 68.424764 15.194938 z M 44.913538 15.682764 C 44.802488 15.682764 44.694255 15.707971 44.588493 15.758211 C 44.482731 15.805805 44.391286 15.869059 44.314608 15.948381 C 44.281376 15.981612 44.255204 16.017073 44.231409 16.053284 L 44.231409 15.726689 L 43.823165 15.726689 L 43.823165 17.808732 L 43.926001 17.808732 L 44.029354 17.808732 L 44.231409 17.808732 L 44.231409 16.54731 C 44.231409 16.478562 44.24476 16.415308 44.2712 16.357141 C 44.300284 16.296325 44.338328 16.243441 44.385921 16.198494 C 44.436159 16.153543 44.494488 16.118935 44.560588 16.095142 C 44.626689 16.068702 44.699341 16.055868 44.778662 16.055868 C 44.876494 16.050581 44.958542 16.066397 45.024642 16.10341 C 45.090745 16.137782 45.139676 16.19462 45.171403 16.273942 C 45.20313 16.350619 45.218945 16.448482 45.218945 16.567464 L 45.218945 17.808732 L 45.627706 17.808732 L 45.627706 16.539559 C 45.627706 16.346542 45.601004 16.186399 45.548124 16.059485 C 45.495243 15.93257 45.416175 15.838662 45.310413 15.777848 C 45.204651 15.714388 45.072181 15.682764 44.913538 15.682764 z M 47.075163 15.682764 C 46.882147 15.682764 46.70768 15.730204 46.551681 15.825391 C 46.398325 15.917933 46.276743 16.046449 46.186845 16.21038 C 46.099591 16.371668 46.056104 16.556504 46.056104 16.765385 C 46.056104 16.974265 46.100564 17.161109 46.190462 17.325041 C 46.28036 17.486328 46.402459 17.614327 46.555815 17.709513 C 46.711814 17.802055 46.888744 17.848523 47.087048 17.848523 C 47.200742 17.848523 47.311955 17.824286 47.420361 17.776693 C 47.528768 17.729099 47.618723 17.668308 47.690112 17.594275 C 47.726658 17.556424 47.755202 17.518176 47.776929 17.479036 L 47.776929 17.72915 C 47.776929 17.866641 47.752238 17.981806 47.701998 18.074349 C 47.651761 18.16689 47.577619 18.237079 47.479789 18.284672 C 47.381959 18.332265 47.260377 18.355986 47.114954 18.355986 C 46.998615 18.355986 46.880986 18.337705 46.762004 18.300692 C 46.645665 18.263674 46.547803 18.214744 46.468481 18.153931 L 46.317586 18.471224 C 46.407484 18.54526 46.525113 18.604561 46.670536 18.649508 C 46.818603 18.697101 46.966886 18.720821 47.114954 18.720821 C 47.281529 18.720821 47.430786 18.697101 47.562988 18.649508 C 47.695191 18.604558 47.807377 18.537351 47.899919 18.447453 C 47.992461 18.360199 48.062648 18.25145 48.110242 18.121891 C 48.160482 17.994976 48.185689 17.848183 48.185689 17.681608 L 48.185689 15.726689 L 47.776929 15.726689 L 47.776929 16.01711 C 47.749144 15.98122 47.720708 15.945451 47.681844 15.912724 C 47.631609 15.87042 47.574772 15.832375 47.511312 15.798002 C 47.447855 15.760982 47.379156 15.73331 47.305123 15.714803 C 47.231089 15.69365 47.154485 15.682764 47.075163 15.682764 z M 53.496476 15.682764 C 53.292884 15.682764 53.109994 15.730204 52.948706 15.825391 C 52.790063 15.917933 52.664527 16.046449 52.571985 16.21038 C 52.479443 16.371668 52.433492 16.556504 52.433492 16.765385 C 52.433492 16.974265 52.479443 17.161109 52.571985 17.325041 C 52.664527 17.486328 52.790063 17.614327 52.948706 17.709513 C 53.109994 17.802055 53.292884 17.848523 53.496476 17.848523 C 53.697425 17.848523 53.876818 17.802055 54.035461 17.709513 C 54.196749 17.614327 54.323775 17.486328 54.416317 17.325041 C 54.508859 17.161109 54.555326 16.974265 54.555326 16.765385 C 54.555326 16.556504 54.508859 16.371668 54.416317 16.21038 C 54.323775 16.046449 54.196749 15.917933 54.035461 15.825391 C 53.876818 15.730204 53.697425 15.682764 53.496476 15.682764 z M 65.79495 15.682764 C 65.6839 15.682764 65.575668 15.707971 65.469906 15.758211 C 65.364144 15.805805 65.272698 15.869059 65.196021 15.948381 C 65.162789 15.981612 65.136617 16.017073 65.112821 16.053284 L 65.112821 15.726689 L 64.704578 15.726689 L 64.704578 17.808732 L 64.807414 17.808732 L 64.910767 17.808732 L 65.112821 17.808732 L 65.112821 16.54731 C 65.112821 16.478562 65.126172 16.415308 65.152612 16.357141 C 65.181697 16.296325 65.219741 16.243441 65.267334 16.198494 C 65.317573 16.153543 65.3759 16.118935 65.442 16.095142 C 65.508102 16.068702 65.580753 16.055868 65.660075 16.055868 C 65.757906 16.050581 65.839955 16.066397 65.906055 16.10341 C 65.972158 16.137782 66.021089 16.19462 66.052816 16.273942 C 66.084542 16.350619 66.100358 16.448482 66.100358 16.567464 L 66.100358 17.808732 L 66.509119 17.808732 L 66.509119 16.539559 C 66.509119 16.346542 66.482417 16.186399 66.429537 16.059485 C 66.376656 15.93257 66.297587 15.838662 66.191825 15.777848 C 66.086063 15.714388 65.953594 15.682764 65.79495 15.682764 z M 37.627677 15.691032 C 37.545711 15.691032 37.465154 15.705353 37.385832 15.73444 C 37.309154 15.763522 37.236503 15.803056 37.167757 15.853296 C 37.101656 15.900887 37.044818 15.956751 36.997225 16.020211 C 36.986434 16.035446 36.982873 16.052213 36.973454 16.067753 L 36.973454 15.726689 L 36.561076 15.726689 L 36.561076 17.808732 L 36.973454 17.808732 L 36.973454 16.555579 C 36.973454 16.486831 36.986805 16.423059 37.013245 16.364893 C 37.039685 16.304081 37.076756 16.252687 37.124349 16.21038 C 37.17194 16.165435 37.227287 16.130827 37.290747 16.107027 C 37.354204 16.080587 37.422902 16.067753 37.496936 16.067753 C 37.629139 16.067753 37.729464 16.111241 37.79821 16.198494 C 37.869599 16.285748 37.905697 16.411284 37.905697 16.575216 L 37.905697 17.808732 L 38.318075 17.808732 L 38.318075 16.56333 C 38.318075 16.491938 38.331425 16.427193 38.357865 16.369027 C 38.384306 16.308211 38.421376 16.255327 38.46897 16.21038 C 38.51656 16.165435 38.571908 16.130827 38.635368 16.107027 C 38.701469 16.080587 38.771658 16.067753 38.845691 16.067753 C 38.988471 16.067753 39.09275 16.10975 39.15885 16.19436 C 39.227596 16.276326 39.261686 16.405815 39.261686 16.582967 L 39.261686 17.808732 L 39.674581 17.808732 L 39.674581 16.559196 C 39.674581 16.36618 39.647879 16.205064 39.594999 16.075505 C 39.544763 15.945949 39.468158 15.849576 39.365039 15.786117 C 39.264565 15.722657 39.136566 15.691032 38.980566 15.691032 C 38.909177 15.691032 38.836009 15.702895 38.761975 15.726689 C 38.687941 15.750482 38.618269 15.783084 38.552169 15.825391 C 38.486066 15.867694 38.426248 15.916625 38.373368 15.972152 C 38.325834 16.02219 38.289312 16.076242 38.260714 16.133382 C 38.23533 16.056257 38.205209 15.985537 38.163562 15.928743 C 38.105393 15.849421 38.031251 15.79012 37.941353 15.75046 C 37.851455 15.7108 37.74666 15.691032 37.627677 15.691032 z M 56.058077 15.691032 C 55.976111 15.691032 55.895553 15.705353 55.816231 15.73444 C 55.739554 15.763522 55.666903 15.803056 55.598157 15.853296 C 55.532056 15.900887 55.475218 15.956751 55.427625 16.020211 C 55.416834 16.035446 55.413273 16.052213 55.403853 16.067753 L 55.403853 15.726689 L 54.991475 15.726689 L 54.991475 17.808732 L 55.403853 17.808732 L 55.403853 16.555579 C 55.403853 16.486831 55.417204 16.423059 55.443644 16.364893 C 55.470084 16.304081 55.507155 16.252687 55.554749 16.21038 C 55.602339 16.165435 55.657687 16.130827 55.721147 16.107027 C 55.784604 16.080587 55.853302 16.067753 55.927336 16.067753 C 56.059538 16.067753 56.16038 16.111241 56.229126 16.198494 C 56.300515 16.285748 56.336096 16.411284 56.336096 16.575216 L 56.336096 17.808732 L 56.748474 17.808732 L 56.748474 16.56333 C 56.748474 16.491938 56.761825 16.427193 56.788265 16.369027 C 56.814706 16.308211 56.851776 16.255327 56.899369 16.21038 C 56.94696 16.165435 57.002307 16.130827 57.065767 16.107027 C 57.131869 16.080587 57.202057 16.067753 57.27609 16.067753 C 57.418872 16.067753 57.52315 16.10975 57.58925 16.19436 C 57.657995 16.276326 57.692603 16.405815 57.692603 16.582967 L 57.692603 17.808732 L 58.10498 17.808732 L 58.10498 16.559196 C 58.10498 16.36618 58.078279 16.205064 58.025399 16.075505 C 57.975162 15.945949 57.898557 15.849576 57.795439 15.786117 C 57.694965 15.722657 57.566966 15.691032 57.410966 15.691032 C 57.339577 15.691032 57.266408 15.702895 57.192375 15.726689 C 57.118339 15.750482 57.048668 15.783084 56.982568 15.825391 C 56.916466 15.867694 56.856648 15.916625 56.803768 15.972152 C 56.756234 16.02219 56.719712 16.076242 56.691113 16.133382 C 56.665729 16.056257 56.635608 15.985537 56.593962 15.928743 C 56.535792 15.849421 56.461651 15.79012 56.371753 15.75046 C 56.281855 15.7108 56.17706 15.691032 56.058077 15.691032 z M 59.711084 15.691032 C 59.629118 15.691032 59.54856 15.705353 59.469238 15.73444 C 59.39256 15.763522 59.319909 15.803056 59.251164 15.853296 C 59.185062 15.900887 59.128225 15.956751 59.080632 16.020211 C 59.069841 16.035446 59.06628 16.052213 59.05686 16.067753 L 59.05686 15.726689 L 58.643966 15.726689 L 58.643966 17.808732 L 59.05686 17.808732 L 59.05686 16.555579 C 59.05686 16.486831 59.069694 16.423059 59.096134 16.364893 C 59.122575 16.304081 59.159645 16.252687 59.207239 16.21038 C 59.254829 16.165435 59.310694 16.130827 59.374154 16.107027 C 59.437612 16.080587 59.506309 16.067753 59.580343 16.067753 C 59.712546 16.067753 59.812871 16.111241 59.881616 16.198494 C 59.953005 16.285748 59.988586 16.411284 59.988586 16.575216 L 59.988586 17.808732 L 60.400964 17.808732 L 60.400964 16.56333 C 60.400964 16.491938 60.414315 16.427193 60.440755 16.369027 C 60.467195 16.308211 60.504266 16.255327 60.55186 16.21038 C 60.59945 16.165435 60.654798 16.130827 60.718258 16.107027 C 60.784359 16.080587 60.854547 16.067753 60.928581 16.067753 C 61.071361 16.067753 61.176157 16.10975 61.242257 16.19436 C 61.311002 16.276326 61.345093 16.405815 61.345093 16.582967 L 61.345093 17.808732 L 61.757471 17.808732 L 61.757471 16.559196 C 61.757471 16.36618 61.731286 16.205064 61.678406 16.075505 C 61.628168 15.945949 61.551564 15.849576 61.448446 15.786117 C 61.347972 15.722657 61.219455 15.691032 61.063456 15.691032 C 60.992066 15.691032 60.919415 15.702895 60.845382 15.726689 C 60.771346 15.750482 60.701159 15.783084 60.635059 15.825391 C 60.568956 15.867694 60.509655 15.916625 60.456775 15.972152 C 60.409241 16.02219 60.372719 16.076242 60.34412 16.133382 C 60.318736 16.056257 60.288099 15.985537 60.246452 15.928743 C 60.188283 15.849421 60.114141 15.79012 60.024243 15.75046 C 59.934345 15.7108 59.830067 15.691032 59.711084 15.691032 z M 35.533748 15.726689 L 35.533748 17.808732 L 35.942509 17.808732 L 35.942509 15.726689 L 35.533748 15.726689 z M 42.787569 15.726689 L 42.787569 17.808732 L 43.19633 17.808732 L 43.19633 15.726689 L 42.787569 15.726689 z M 62.304724 15.726689 L 62.304724 17.011365 C 62.304724 17.183229 62.333891 17.331512 62.392057 17.455782 C 62.452871 17.580053 62.537382 17.676425 62.645789 17.74517 C 62.756839 17.813915 62.886845 17.848523 63.034912 17.848523 C 63.153895 17.848523 63.26459 17.825773 63.367708 17.780827 C 63.470827 17.733234 63.559292 17.669979 63.633325 17.590658 C 63.669012 17.553741 63.698842 17.514277 63.724792 17.473352 L 63.724792 17.808732 L 64.133036 17.808732 L 64.133036 15.726689 L 63.724792 15.726689 L 63.724792 16.979842 C 63.724792 17.053873 63.711442 17.122571 63.685002 17.186031 C 63.658562 17.249491 63.621491 17.303865 63.573897 17.348812 C 63.528951 17.393761 63.475093 17.429342 63.411633 17.455782 C 63.348176 17.479582 63.277988 17.491439 63.20131 17.491439 C 63.047955 17.491439 62.927346 17.438554 62.840092 17.332792 C 62.755482 17.22703 62.713485 17.0827 62.713485 16.90026 L 62.713485 15.726689 L 62.304724 15.726689 z M 67.13182 15.726689 L 67.13182 17.808732 L 67.540063 17.808732 L 67.540063 15.726689 L 67.13182 15.726689 z M 69.424186 15.726689 L 70.390019 17.908984 L 70.038619 18.720821 L 70.478902 18.720821 L 70.831852 17.808732 L 71.688647 15.726689 L 71.204956 15.726689 L 70.66132 17.229439 C 70.642984 17.284451 70.623343 17.339789 70.602409 17.394804 C 70.600771 17.389999 70.599956 17.385139 70.598275 17.380334 C 70.579768 17.324809 70.563436 17.283785 70.550216 17.257345 L 69.900126 15.726689 L 69.424186 15.726689 z M 41.249162 16.055868 C 41.373432 16.055868 41.483154 16.086005 41.578341 16.146818 C 41.673528 16.207631 41.747153 16.292143 41.800033 16.400549 C 41.855559 16.506311 41.883748 16.62692 41.883748 16.761768 C 41.883748 16.899258 41.855559 17.022331 41.800033 17.130737 C 41.744507 17.236497 41.669392 17.321009 41.574207 17.384469 C 41.47902 17.445282 41.370788 17.475419 41.249162 17.475419 C 41.124891 17.475419 41.015169 17.445282 40.919983 17.384469 C 40.824798 17.321011 40.749167 17.2365 40.69364 17.130737 C 40.638114 17.022331 40.610441 16.899258 40.610441 16.761768 C 40.610441 16.62692 40.638114 16.506311 40.69364 16.400549 C 40.749165 16.292143 40.824797 16.207631 40.919983 16.146818 C 41.015169 16.086005 41.124891 16.055868 41.249162 16.055868 z M 47.130457 16.055868 C 47.260015 16.055868 47.373691 16.086005 47.471521 16.146818 C 47.571994 16.207631 47.650089 16.292143 47.705615 16.400549 C 47.763782 16.506311 47.792948 16.627894 47.792948 16.765385 C 47.792948 16.902876 47.765276 17.024975 47.709749 17.130737 C 47.654224 17.2365 47.57613 17.319521 47.475655 17.380334 C 47.375181 17.441148 47.260015 17.471802 47.130457 17.471802 C 47.003541 17.471802 46.889866 17.441148 46.789392 17.380334 C 46.69156 17.319521 46.613981 17.2365 46.555815 17.130737 C 46.500288 17.022331 46.472099 16.900231 46.472099 16.765385 C 46.472099 16.630538 46.500288 16.510445 46.555815 16.404683 C 46.613984 16.296277 46.691562 16.211765 46.789392 16.150952 C 46.889866 16.087492 47.003541 16.055868 47.130457 16.055868 z M 53.496476 16.055868 C 53.620747 16.055868 53.731443 16.086005 53.829272 16.146818 C 53.927102 16.207631 54.003706 16.292143 54.059233 16.400549 C 54.114779 16.506311 54.141481 16.627894 54.138814 16.765385 C 54.141461 16.900231 54.114759 17.022331 54.059233 17.130737 C 54.003707 17.236497 53.927103 17.321009 53.829272 17.384469 C 53.731443 17.445282 53.620747 17.475419 53.496476 17.475419 C 53.372206 17.475419 53.259504 17.445282 53.159029 17.384469 C 53.061201 17.321011 52.984596 17.2365 52.929069 17.130737 C 52.873522 17.022331 52.847337 16.900231 52.850004 16.765385 C 52.847357 16.630538 52.873542 16.510445 52.929069 16.404683 C 52.984594 16.296277 53.061199 16.211765 53.159029 16.150952 C 53.259504 16.087492 53.372206 16.055868 53.496476 16.055868 z " />
</svg>
