<?xml version="1.0" encoding="UTF-8" standalone="no"?>
<!-- Created with Inkscape (http://www.inkscape.org/) -->

<svg
   width="100"
   height="100"
   viewBox="0 0 100 100"
   version="1.1"
   id="svg1"
   inkscape:version="1.4.3 (0d15f75042, 2025-12-25)"
   sodipodi:docname="outdoor-drawing-icon.svg"
   xmlns:inkscape="http://www.inkscape.org/namespaces/inkscape"
   xmlns:sodipodi="http://sodipodi.sourceforge.net/DTD/sodipodi-0.dtd"
   xmlns="http://www.w3.org/2000/svg"
   xmlns:svg="http://www.w3.org/2000/svg">
  <sodipodi:namedview
     id="namedview1"
     pagecolor="#505050"
     bordercolor="#eeeeee"
     borderopacity="1"
     inkscape:showpageshadow="0"
     inkscape:pageopacity="0"
     inkscape:pagecheckerboard="0"
     inkscape:deskcolor="#505050"
     inkscape:document-units="px"
     inkscape:zoom="2.3762668"
     inkscape:cx="77.642798"
     inkscape:cy="51.341037"
     inkscape:window-width="1920"
     inkscape:window-height="1136"
     inkscape:window-x="0"
     inkscape:window-y="0"
     inkscape:window-maximized="1"
     inkscape:current-layer="layer1" />
  <defs
     id="defs1" />
  <g
     inkscape:label="Calque 1"
     inkscape:groupmode="layer"
     id="layer1"
     transform="translate(-76.729162,-121.17917)">
    <g
       id="g1"
       transform="matrix(4.1769893,0,0,4.1769893,-243.76773,-371.83151)">
      <g
         id="g16-2-4"
         transform="matrix(0.04569049,0,0,0.04569049,72.510362,108.94501)">
        <path
           style="opacity:1;fill:#374845;fill-rule:evenodd;stroke:none;stroke-width:1px;stroke-linecap:butt;stroke-linejoin:miter;stroke-opacity:1"
           d="m 342.85714,553.79078 h 240 L 498.41797,407.88672 462.9024,369.7324 422.64062,416.03516 Z"
           id="path5-7-9" />
        <path
           style="fill:#374845;fill-opacity:1;fill-rule:evenodd;stroke:none;stroke-width:1px;stroke-linecap:butt;stroke-linejoin:miter;stroke-opacity:1"
           d="m 403.83203,553.79102 h 56.71875 L 435.24609,461.8457 Z"
           id="path6-0-5" />
        <path
           style="fill:#30423f;fill-opacity:1;fill-rule:evenodd;stroke:none;stroke-width:1px;stroke-linecap:butt;stroke-linejoin:miter;stroke-opacity:1"
           d="m 422.64062,416.03516 -13.1914,22.77734 9.43164,70.92969 16.36523,-47.89649 z"
           id="path7-9-0" />
        <path
           style="fill:#374845;fill-opacity:1;fill-rule:evenodd;stroke:none;stroke-width:1px;stroke-linecap:butt;stroke-linejoin:miter;stroke-opacity:1"
           d="m 409.45117,438.80859 -66.59375,114.98243 h 0.44531 l 71.87891,-71.88086 z"
           id="path8-3-4" />
        <path
           style="fill:#445653;fill-opacity:1;fill-rule:evenodd;stroke:none;stroke-width:1px;stroke-linecap:butt;stroke-linejoin:miter;stroke-opacity:1"
           d="m 343.30078,553.79102 h 60.53125 l 15.04883,-44.04883 -3.69922,-27.83203 z"
           id="path9-6-8" />
        <path
           style="fill:#50625f;fill-opacity:1;fill-rule:evenodd;stroke:none;stroke-width:1px;stroke-linecap:butt;stroke-linejoin:miter;stroke-opacity:1"
           d="m 447.63556,393.32311 -24.99689,22.714 28.36524,103.06641 34.58984,-68.43164 z"
           id="path10-0-7" />
        <path
           style="fill:#30423f;fill-opacity:1;fill-rule:evenodd;stroke:none;stroke-width:1px;stroke-linecap:butt;stroke-linejoin:miter;stroke-opacity:1"
           d="m 460.55078,553.79102 h 56.67969 l 16.48242,-30.41407 -48.11914,-72.70507 -34.58984,68.43164 z"
           id="path11-6-1" />
        <path
           style="fill:#374845;fill-opacity:1;fill-rule:evenodd;stroke:none;stroke-width:1px;stroke-linecap:butt;stroke-linejoin:miter;stroke-opacity:1"
           d="m 517.23047,553.79102 h 36.61328 l -20.13086,-30.41407 z"
           id="path12-2-7" />
        <path
           style="fill:#30423f;fill-opacity:1;fill-rule:evenodd;stroke:none;stroke-width:1px;stroke-linecap:butt;stroke-linejoin:miter;stroke-opacity:1"
           d="m 553.84375,553.79102 h 29.01367 l -19.05078,-32.91797 -19.10547,19.10547 z"
           id="path13-6-2" />
        <path
           style="fill:#445653;fill-opacity:1;fill-rule:evenodd;stroke:none;stroke-width:1px;stroke-linecap:butt;stroke-linejoin:miter;stroke-opacity:1"
           d="m 477.76758,407.36133 -23.622,-4.20234 90.55559,136.81953 19.10547,-19.10547 -65.38867,-112.98633 -9.93555,16.43945 z"
           id="path14-1-7" />
        <path
           style="fill:#e6e6e6;fill-opacity:1;fill-rule:evenodd;stroke:none;stroke-width:1px;stroke-linecap:butt;stroke-linejoin:miter;stroke-opacity:1"
           d="m 498.41797,407.88672 -35.51563,-61.36914 -40.26367,69.52148 5.84375,6.85938 9.10742,-15.625 10.44532,17.14258 10,-17.76758 10.17968,17.76758 9.55274,-17.05469 10.71484,16.96484 z"
           id="path16-8-2" />
      </g>
      <path
         style="fill:#ffffff;fill-opacity:0.592417;fill-rule:evenodd;stroke:none;stroke-width:0.141649px;stroke-linecap:butt;stroke-linejoin:miter;stroke-opacity:1"
         d="m 78.706876,129.14024 c -1.566718,-0.51721 -0.401734,-2.97716 1.44892,-1.13775 0.901123,-0.82601 1.802245,-0.83685 2.703363,-0.0292 0.594616,-0.51389 1.398695,-1.18592 2.751983,0.0194 0.55476,-0.62348 1.616737,-1.17366 2.811881,0.0187 0.949138,-0.99787 1.882223,-0.82384 2.805465,0.0688 1.611824,0.12786 0.351278,3.15752 -1.43024,1.04517 -0.785167,0.73929 -1.624506,1.21788 -2.819213,-0.0138 -0.846455,0.78163 -1.737344,1.09984 -2.76421,0 -0.731573,0.68207 -1.495928,1.24118 -2.736704,0.0138 -0.919302,1.00758 -1.852587,0.92672 -2.771245,0.0149 z"
         id="path28-9-2" />
      <g
         id="g39-7-6"
         transform="matrix(0.07701276,0,0,0.07701276,50.324787,94.492892)">
        <path
           id="path29-3-1"
           d="m 342.85714,553.79078 h 240 L 498.41797,407.88672 462.9024,369.7324 422.64062,416.03516 Z"
           style="opacity:1;fill:#374845;fill-rule:evenodd;stroke:none;stroke-width:1px;stroke-linecap:butt;stroke-linejoin:miter;stroke-opacity:1" />
        <path
           id="path30-6-0"
           d="m 403.83203,553.79102 h 56.71875 L 435.24609,461.8457 Z"
           style="fill:#374845;fill-opacity:1;fill-rule:evenodd;stroke:none;stroke-width:1px;stroke-linecap:butt;stroke-linejoin:miter;stroke-opacity:1" />
        <path
           id="path31-1-6"
           d="m 422.64062,416.03516 -13.1914,22.77734 9.43164,70.92969 16.36523,-47.89649 z"
           style="fill:#30423f;fill-opacity:1;fill-rule:evenodd;stroke:none;stroke-width:1px;stroke-linecap:butt;stroke-linejoin:miter;stroke-opacity:1" />
        <path
           id="path32-2-1"
           d="m 409.45117,438.80859 -66.59375,114.98243 h 0.44531 l 71.87891,-71.88086 z"
           style="fill:#374845;fill-opacity:1;fill-rule:evenodd;stroke:none;stroke-width:1px;stroke-linecap:butt;stroke-linejoin:miter;stroke-opacity:1" />
        <path
           id="path33-9-5"
           d="m 343.30078,553.79102 h 60.53125 l 15.04883,-44.04883 -3.69922,-27.83203 z"
           style="fill:#445653;fill-opacity:1;fill-rule:evenodd;stroke:none;stroke-width:1px;stroke-linecap:butt;stroke-linejoin:miter;stroke-opacity:1" />
        <path
           id="path34-3-9"
           d="m 447.63556,393.32311 -24.99689,22.714 28.36524,103.06641 34.58984,-68.43164 z"
           style="fill:#50625f;fill-opacity:1;fill-rule:evenodd;stroke:none;stroke-width:1px;stroke-linecap:butt;stroke-linejoin:miter;stroke-opacity:1" />
        <path
           id="path35-1-4"
           d="m 460.55078,553.79102 h 56.67969 l 16.48242,-30.41407 -48.11914,-72.70507 -34.58984,68.43164 z"
           style="fill:#30423f;fill-opacity:1;fill-rule:evenodd;stroke:none;stroke-width:1px;stroke-linecap:butt;stroke-linejoin:miter;stroke-opacity:1" />
        <path
           id="path36-9-9"
           d="m 517.23047,553.79102 h 36.61328 l -20.13086,-30.41407 z"
           style="fill:#374845;fill-opacity:1;fill-rule:evenodd;stroke:none;stroke-width:1px;stroke-linecap:butt;stroke-linejoin:miter;stroke-opacity:1" />
        <path
           id="path37-4-0"
           d="m 553.84375,553.79102 h 29.01367 l -19.05078,-32.91797 -19.10547,19.10547 z"
           style="fill:#30423f;fill-opacity:1;fill-rule:evenodd;stroke:none;stroke-width:1px;stroke-linecap:butt;stroke-linejoin:miter;stroke-opacity:1" />
        <path
           id="path38-7-9"
           d="m 477.76758,407.36133 -23.622,-4.20234 90.55559,136.81953 19.10547,-19.10547 -65.38867,-112.98633 -9.93555,16.43945 z"
           style="fill:#445653;fill-opacity:1;fill-rule:evenodd;stroke:none;stroke-width:1px;stroke-linecap:butt;stroke-linejoin:miter;stroke-opacity:1" />
        <path
           id="path39-8-1"
           d="m 498.41797,407.88672 -35.51563,-61.36914 -40.26367,69.52148 5.84375,6.85938 9.10742,-15.625 10.44532,17.14258 10,-17.76758 10.17968,17.76758 9.55274,-17.05469 10.71484,16.96484 z"
           style="fill:#e6e6e6;fill-opacity:1;fill-rule:evenodd;stroke:none;stroke-width:1px;stroke-linecap:butt;stroke-linejoin:miter;stroke-opacity:1" />
      </g>
      <path
         id="path44-4-7"
         d="m 87.406155,124.52441 c -1.566717,-0.51721 -0.401734,-2.97716 1.448921,-1.13775 0.901123,-0.82601 1.802245,-0.83685 2.703363,-0.0292 0.594616,-0.51389 1.398695,-1.18592 2.751983,0.0195 0.554759,-0.62348 1.616736,-1.17366 2.81188,0.0187 0.949139,-0.99787 1.882224,-0.82384 2.805466,0.0688 1.611822,0.12786 0.351282,3.15753 -1.430241,1.04518 -0.785166,0.73928 -1.624505,1.21787 -2.819212,-0.0138 -0.846455,0.78163 -1.737344,1.09983 -2.76421,0 -0.731569,0.68207 -1.495928,1.24118 -2.7367,0.0138 -0.919305,1.00757 -1.852591,0.92671 -2.77125,0.0149 z"
         style="fill:#ffffff;fill-opacity:0.592417;fill-rule:evenodd;stroke:none;stroke-width:0.141649px;stroke-linecap:butt;stroke-linejoin:miter;stroke-opacity:1" />
      <g
         transform="matrix(0.09327621,0,0,0.09327621,69.722091,123.44561)"
         id="g47-5-7">
        <ellipse
           style="fill:#000000;fill-opacity:0.187192;stroke:none"
           id="ellipse44-0-1"
           cx="290.37888"
           cy="127.85368"
           rx="4.5456862"
           ry="1.0688003" />
        <path
           style="fill:#502d16;fill-rule:evenodd;stroke:none;stroke-width:1px;stroke-linecap:butt;stroke-linejoin:miter;stroke-opacity:1"
           d="m 288.95134,127.85368 h 2.85506 v -5.2864 h -2.85506 z"
           id="path45-3-1" />
        <path
           style="fill:#16502d;fill-rule:evenodd;stroke:none;stroke-width:1px;stroke-linecap:butt;stroke-linejoin:miter;stroke-opacity:1"
           d="m 290.37877,88.135437 -8.41855,28.782353 h 1.6947 l -1.85636,5.60903 h 1.74525 l -0.77962,1.93689 h 7.61458 z"
           id="path46-6-5" />
        <path
           style="fill:#217844;fill-rule:evenodd;stroke:none;stroke-width:1px;stroke-linecap:butt;stroke-linejoin:miter;stroke-opacity:1"
           d="m 290.37877,88.135437 v 36.328273 h 7.60209 l -0.80708,-2.09793 h 1.73526 l -1.73526,-5.40742 h 1.69469 z"
           id="path47-1-9" />
      </g>
      <g
         transform="matrix(0.11562251,0,0,0.11562251,53.272363,123.91548)"
         id="g50-0-7">
        <ellipse
           style="fill:#000000;fill-opacity:0.187192;stroke:none"
           id="ellipse47-6-7"
           cx="290.37888"
           cy="127.85368"
           rx="4.5456862"
           ry="1.0688003" />
        <path
           style="fill:#502d16;fill-rule:evenodd;stroke:none;stroke-width:1px;stroke-linecap:butt;stroke-linejoin:miter;stroke-opacity:1"
           d="m 288.95134,127.85368 h 2.85506 v -5.2864 h -2.85506 z"
           id="path48-3-6" />
        <path
           style="fill:#16502d;fill-rule:evenodd;stroke:none;stroke-width:1px;stroke-linecap:butt;stroke-linejoin:miter;stroke-opacity:1"
           d="m 290.37877,88.135437 -8.41855,28.782353 h 1.6947 l -1.85636,5.60903 h 1.74525 l -0.77962,1.93689 h 7.61458 z"
           id="path49-2-7" />
        <path
           style="fill:#217844;fill-rule:evenodd;stroke:none;stroke-width:1px;stroke-linecap:butt;stroke-linejoin:miter;stroke-opacity:1"
           d="m 290.37877,88.135437 v 36.328273 h 7.60209 l -0.80708,-2.09793 h 1.73526 l -1.73526,-5.40742 h 1.69469 z"
           id="path50-0-3" />
      </g>
      <g
         transform="matrix(0.05394503,0,0,0.05394503,83.189893,125.97611)"
         id="g53-6-6">
        <ellipse
           style="fill:#000000;fill-opacity:0.187192;stroke:none"
           id="ellipse50-1-5"
           cx="290.37888"
           cy="127.85368"
           rx="4.5456862"
           ry="1.0688003" />
        <path
           style="fill:#502d16;fill-rule:evenodd;stroke:none;stroke-width:1px;stroke-linecap:butt;stroke-linejoin:miter;stroke-opacity:1"
           d="m 288.95134,127.85368 h 2.85506 v -5.2864 h -2.85506 z"
           id="path51-5-6" />
        <path
           style="fill:#16502d;fill-rule:evenodd;stroke:none;stroke-width:1px;stroke-linecap:butt;stroke-linejoin:miter;stroke-opacity:1"
           d="m 290.37877,88.135437 -8.41855,28.782353 h 1.6947 l -1.85636,5.60903 h 1.74525 l -0.77962,1.93689 h 7.61458 z"
           id="path52-5-3" />
        <path
           style="fill:#217844;fill-rule:evenodd;stroke:none;stroke-width:1px;stroke-linecap:butt;stroke-linejoin:miter;stroke-opacity:1"
           d="m 290.37877,88.135437 v 36.328273 h 7.60209 l -0.80708,-2.09793 h 1.73526 l -1.73526,-5.40742 h 1.69469 z"
           id="path53-4-9" />
      </g>
      <g
         transform="matrix(0.08902639,0,0,0.08902639,52.126156,126.61672)"
         id="g56-7-4">
        <ellipse
           style="fill:#000000;fill-opacity:0.187192;stroke:none"
           id="ellipse53-6-8"
           cx="290.37888"
           cy="127.85368"
           rx="4.5456862"
           ry="1.0688003" />
        <path
           style="fill:#502d16;fill-rule:evenodd;stroke:none;stroke-width:1px;stroke-linecap:butt;stroke-linejoin:miter;stroke-opacity:1"
           d="m 288.95134,127.85368 h 2.85506 v -5.2864 h -2.85506 z"
           id="path54-5-1" />
        <path
           style="fill:#16502d;fill-rule:evenodd;stroke:none;stroke-width:1px;stroke-linecap:butt;stroke-linejoin:miter;stroke-opacity:1"
           d="m 290.37877,88.135437 -8.41855,28.782353 h 1.6947 l -1.85636,5.60903 h 1.74525 l -0.77962,1.93689 h 7.61458 z"
           id="path55-6-2" />
        <path
           style="fill:#217844;fill-rule:evenodd;stroke:none;stroke-width:1px;stroke-linecap:butt;stroke-linejoin:miter;stroke-opacity:1"
           d="m 290.37877,88.135437 v 36.328273 h 7.60209 l -0.80708,-2.09793 h 1.73526 l -1.73526,-5.40742 h 1.69469 z"
           id="path56-9-9" />
      </g>
      <g
         transform="matrix(0.10906283,0,0,0.10906283,67.634375,123.52089)"
         id="g65-3-3">
        <ellipse
           style="fill:#000000;fill-opacity:0.187192;stroke:none"
           id="ellipse62-0-9"
           cx="290.37888"
           cy="127.85368"
           rx="4.5456862"
           ry="1.0688003" />
        <path
           style="fill:#502d16;fill-rule:evenodd;stroke:none;stroke-width:1px;stroke-linecap:butt;stroke-linejoin:miter;stroke-opacity:1"
           d="m 288.95134,127.85368 h 2.85506 v -5.2864 h -2.85506 z"
           id="path63-7-0" />
        <path
           style="fill:#16502d;fill-rule:evenodd;stroke:none;stroke-width:1px;stroke-linecap:butt;stroke-linejoin:miter;stroke-opacity:1"
           d="m 290.37877,88.135437 -8.41855,28.782353 h 1.6947 l -1.85636,5.60903 h 1.74525 l -0.77962,1.93689 h 7.61458 z"
           id="path64-8-8" />
        <path
           style="fill:#217844;fill-rule:evenodd;stroke:none;stroke-width:1px;stroke-linecap:butt;stroke-linejoin:miter;stroke-opacity:1"
           d="m 290.37877,88.135437 v 36.328273 h 7.60209 l -0.80708,-2.09793 h 1.73526 l -1.73526,-5.40742 h 1.69469 z"
           id="path65-6-8" />
      </g>
    </g>
  </g>
</svg>
