<?xml version="1.0" encoding="UTF-8" standalone="no"?>
<svg
   xmlns:dc="http://purl.org/dc/elements/1.1/"
   xmlns:cc="http://creativecommons.org/ns#"
   xmlns:rdf="http://www.w3.org/1999/02/22-rdf-syntax-ns#"
   xmlns:svg="http://www.w3.org/2000/svg"
   xmlns="http://www.w3.org/2000/svg"
   version="1.1"
   width="20"
   height="20"
   viewBox="0 0 20 20"
   id="svg4">
  <metadata
     id="metadata10">
    <rdf:RDF>
      <cc:Work
         rdf:about="">
        <dc:format>image/svg+xml</dc:format>
        <dc:type
           rdf:resource="http://purl.org/dc/dcmitype/StillImage" />
        <dc:title></dc:title>
      </cc:Work>
    </rdf:RDF>
  </metadata>
  <defs
     id="defs8" />
  <circle
     r="8.3474579"
     cy="10"
     cx="10"
     id="path8"
     style="opacity:1;fill:#ffffff;fill-opacity:1;stroke:none;stroke-width:25.16846085;stroke-linejoin:round;stroke-miterlimit:4;stroke-dasharray:none;stroke-dashoffset:0;stroke-opacity:1" />
  <path
     d="m 10,17.2 c -2.5,0 -4.71,-1.28 -6,-3.2 0.03,-2 4,-3.1 6,-3.1 2,0 5.97,1.1 6,3.1 -1.29,1.92 -3.5,3.2 -6,3.2 M 10,3 A 3,3 0 0 1 13,6 3,3 0 0 1 10,9 3,3 0 0 1 7,6 3,3 0 0 1 10,3 M 10,0 A 10,10 0 0 0 0,10 10,10 0 0 0 10,20 10,10 0 0 0 20,10 C 20,4.47 15.5,0 10,0 Z"
     id="path2"
     style="fill:#4400aa" />
</svg>
