<?xml version="1.0" encoding="UTF-8" standalone="no"?>
<svg
   xmlns:dc="http://purl.org/dc/elements/1.1/"
   xmlns:cc="http://creativecommons.org/ns#"
   xmlns:rdf="http://www.w3.org/1999/02/22-rdf-syntax-ns#"
   xmlns:svg="http://www.w3.org/2000/svg"
   xmlns="http://www.w3.org/2000/svg"
   version="1.1"
   id="svg9697"
   viewBox="0 0 284.27238 140.39783"
   height="39.623386mm"
   width="80.227982mm">
  <defs
     id="defs9699" />
  <metadata
     id="metadata9702">
    <rdf:RDF>
      <cc:Work
         rdf:about="">
        <dc:format>image/svg+xml</dc:format>
        <dc:type
           rdf:resource="http://purl.org/dc/dcmitype/StillImage" />
        <dc:title></dc:title>
      </cc:Work>
    </rdf:RDF>
  </metadata>
  <g
     transform="translate(-34.135437,-36.155437)"
     id="layer1">
    <g
       id="g9987"
       transform="translate(-18.952153,11.500041)">
      <g
         id="g7195">
        <path
           id="path7371"
           d="m 337.35966,123.50239 -284.27207,0 c -0.0016,22.18953 63.63575,41.55092 142.13657,41.55083 78.5004,-7e-5 142.137,-19.36142 142.1355,-41.55083 z"
           style="opacity:1;fill:#502d16;fill-opacity:1;stroke:none" />
        <ellipse
           ry="30.291269"
           rx="142.13596"
           cy="123.50235"
           cx="195.224"
           id="path7223"
           style="opacity:1;fill:#2ca05a;fill-opacity:1;stroke:none" />
      </g>
      <g
         id="g7264"
         transform="matrix(0.32256265,0,0,0.32256265,105.00561,-61.71451)">
        <path
           style="opacity:1;fill:#374845;fill-rule:evenodd;stroke:none;stroke-width:1px;stroke-linecap:butt;stroke-linejoin:miter;stroke-opacity:1"
           d="m 342.85714,553.79078 240,0 -84.43917,-145.90406 -35.51557,-38.15432 -40.26178,46.30276 z"
           id="path7266" />
        <path
           style="fill:#374845;fill-opacity:1;fill-rule:evenodd;stroke:none;stroke-width:1px;stroke-linecap:butt;stroke-linejoin:miter;stroke-opacity:1"
           d="m 403.83203,553.79102 56.71875,0 -25.30469,-91.94532 -31.41406,91.94532 z"
           id="path7268" />
        <path
           style="fill:#30423f;fill-opacity:1;fill-rule:evenodd;stroke:none;stroke-width:1px;stroke-linecap:butt;stroke-linejoin:miter;stroke-opacity:1"
           d="m 422.64062,416.03516 -13.1914,22.77734 9.43164,70.92969 16.36523,-47.89649 -12.60547,-45.81054 z"
           id="path7270" />
        <path
           style="fill:#374845;fill-opacity:1;fill-rule:evenodd;stroke:none;stroke-width:1px;stroke-linecap:butt;stroke-linejoin:miter;stroke-opacity:1"
           d="m 409.45117,438.80859 -66.59375,114.98243 0.44531,0 71.87891,-71.88086 -5.73047,-43.10157 z"
           id="path7272" />
        <path
           style="fill:#445653;fill-opacity:1;fill-rule:evenodd;stroke:none;stroke-width:1px;stroke-linecap:butt;stroke-linejoin:miter;stroke-opacity:1"
           d="m 343.30078,553.79102 60.53125,0 15.04883,-44.04883 -3.69922,-27.83203 -71.88086,71.88086 z"
           id="path7274" />
        <path
           style="fill:#50625f;fill-opacity:1;fill-rule:evenodd;stroke:none;stroke-width:1px;stroke-linecap:butt;stroke-linejoin:miter;stroke-opacity:1"
           d="m 447.63556,393.32311 -24.99689,22.714 28.36524,103.06641 34.58984,-68.43164 z"
           id="path7276" />
        <path
           style="fill:#30423f;fill-opacity:1;fill-rule:evenodd;stroke:none;stroke-width:1px;stroke-linecap:butt;stroke-linejoin:miter;stroke-opacity:1"
           d="m 460.55078,553.79102 56.67969,0 16.48242,-30.41407 -48.11914,-72.70507 -34.58984,68.43164 9.54687,34.6875 z"
           id="path7278" />
        <path
           style="fill:#374845;fill-opacity:1;fill-rule:evenodd;stroke:none;stroke-width:1px;stroke-linecap:butt;stroke-linejoin:miter;stroke-opacity:1"
           d="m 517.23047,553.79102 36.61328,0 -20.13086,-30.41407 -16.48242,30.41407 z"
           id="path7280" />
        <path
           style="fill:#30423f;fill-opacity:1;fill-rule:evenodd;stroke:none;stroke-width:1px;stroke-linecap:butt;stroke-linejoin:miter;stroke-opacity:1"
           d="m 553.84375,553.79102 29.01367,0 -19.05078,-32.91797 -19.10547,19.10547 9.14258,13.8125 z"
           id="path7282" />
        <path
           style="fill:#445653;fill-opacity:1;fill-rule:evenodd;stroke:none;stroke-width:1px;stroke-linecap:butt;stroke-linejoin:miter;stroke-opacity:1"
           d="m 477.76758,407.36133 -23.622,-4.20234 90.55559,136.81953 19.10547,-19.10547 -65.38867,-112.98633 -9.93555,16.43945 z"
           id="path7284" />
        <path
           style="fill:#e6e6e6;fill-opacity:1;fill-rule:evenodd;stroke:none;stroke-width:1px;stroke-linecap:butt;stroke-linejoin:miter;stroke-opacity:1"
           d="m 498.41797,407.88672 -35.51563,-61.36914 -40.26367,69.52148 5.84375,6.85938 9.10742,-15.625 10.44532,17.14258 10,-17.76758 10.17968,17.76758 9.55274,-17.05469 10.71484,16.96484 9.93555,-16.43945 z"
           id="path7286" />
      </g>
      <g
         transform="matrix(0.43312199,0,0,0.43312199,-56.627225,-112.64669)"
         id="g7288">
        <path
           id="path7290"
           d="m 342.85714,553.79078 240,0 -84.43917,-145.90406 -35.51557,-38.15432 -40.26178,46.30276 z"
           style="opacity:1;fill:#374845;fill-rule:evenodd;stroke:none;stroke-width:1px;stroke-linecap:butt;stroke-linejoin:miter;stroke-opacity:1" />
        <path
           id="path7292"
           d="m 403.83203,553.79102 56.71875,0 -25.30469,-91.94532 -31.41406,91.94532 z"
           style="fill:#374845;fill-opacity:1;fill-rule:evenodd;stroke:none;stroke-width:1px;stroke-linecap:butt;stroke-linejoin:miter;stroke-opacity:1" />
        <path
           id="path7294"
           d="m 422.64062,416.03516 -13.1914,22.77734 9.43164,70.92969 16.36523,-47.89649 -12.60547,-45.81054 z"
           style="fill:#30423f;fill-opacity:1;fill-rule:evenodd;stroke:none;stroke-width:1px;stroke-linecap:butt;stroke-linejoin:miter;stroke-opacity:1" />
        <path
           id="path7296"
           d="m 409.45117,438.80859 -66.59375,114.98243 0.44531,0 71.87891,-71.88086 -5.73047,-43.10157 z"
           style="fill:#374845;fill-opacity:1;fill-rule:evenodd;stroke:none;stroke-width:1px;stroke-linecap:butt;stroke-linejoin:miter;stroke-opacity:1" />
        <path
           id="path7298"
           d="m 343.30078,553.79102 60.53125,0 15.04883,-44.04883 -3.69922,-27.83203 -71.88086,71.88086 z"
           style="fill:#445653;fill-opacity:1;fill-rule:evenodd;stroke:none;stroke-width:1px;stroke-linecap:butt;stroke-linejoin:miter;stroke-opacity:1" />
        <path
           id="path7300"
           d="m 447.63556,393.32311 -24.99689,22.714 28.36524,103.06641 34.58984,-68.43164 z"
           style="fill:#50625f;fill-opacity:1;fill-rule:evenodd;stroke:none;stroke-width:1px;stroke-linecap:butt;stroke-linejoin:miter;stroke-opacity:1" />
        <path
           id="path7302"
           d="m 460.55078,553.79102 56.67969,0 16.48242,-30.41407 -48.11914,-72.70507 -34.58984,68.43164 9.54687,34.6875 z"
           style="fill:#30423f;fill-opacity:1;fill-rule:evenodd;stroke:none;stroke-width:1px;stroke-linecap:butt;stroke-linejoin:miter;stroke-opacity:1" />
        <path
           id="path7304"
           d="m 517.23047,553.79102 36.61328,0 -20.13086,-30.41407 -16.48242,30.41407 z"
           style="fill:#374845;fill-opacity:1;fill-rule:evenodd;stroke:none;stroke-width:1px;stroke-linecap:butt;stroke-linejoin:miter;stroke-opacity:1" />
        <path
           id="path7306"
           d="m 553.84375,553.79102 29.01367,0 -19.05078,-32.91797 -19.10547,19.10547 9.14258,13.8125 z"
           style="fill:#30423f;fill-opacity:1;fill-rule:evenodd;stroke:none;stroke-width:1px;stroke-linecap:butt;stroke-linejoin:miter;stroke-opacity:1" />
        <path
           id="path7308"
           d="m 477.76758,407.36133 -23.622,-4.20234 90.55559,136.81953 19.10547,-19.10547 -65.38867,-112.98633 -9.93555,16.43945 z"
           style="fill:#445653;fill-opacity:1;fill-rule:evenodd;stroke:none;stroke-width:1px;stroke-linecap:butt;stroke-linejoin:miter;stroke-opacity:1" />
        <path
           id="path7310"
           d="m 498.41797,407.88672 -35.51563,-61.36914 -40.26367,69.52148 5.84375,6.85938 9.10742,-15.625 10.44532,17.14258 10,-17.76758 10.17968,17.76758 9.55274,-17.05469 10.71484,16.96484 9.93555,-16.43945 z"
           style="fill:#e6e6e6;fill-opacity:1;fill-rule:evenodd;stroke:none;stroke-width:1px;stroke-linecap:butt;stroke-linejoin:miter;stroke-opacity:1" />
      </g>
      <path
         style="fill:#ffffff;fill-opacity:0.59241704;fill-rule:evenodd;stroke:none;stroke-width:1px;stroke-linecap:butt;stroke-linejoin:miter;stroke-opacity:1"
         d="m 97.587844,77.660684 c -11.060606,-3.651316 -2.836123,-21.017915 10.229026,-8.032186 6.36167,-5.831434 12.72335,-5.907914 19.08502,-0.205949 4.19781,-3.627931 9.87443,-8.372302 19.42828,0.137298 3.91643,-4.401569 11.41372,-8.285692 19.85111,0.13192 6.70067,-7.044693 13.288,-5.816118 19.80584,0.485439 11.37906,0.90266 2.47996,22.291262 -10.09709,7.378643 -5.54309,5.219153 -11.46859,8.597878 -19.90292,-0.09709 -5.97573,5.5181 -12.26517,7.764544 -19.51457,0 -5.16471,4.815208 -10.56087,8.762431 -19.3204,0.09709 -6.49003,7.113198 -13.07879,6.542346 -19.564296,0.104835 z"
         id="path7179" />
      <g
         id="g7251"
         transform="matrix(0.54368946,0,0,0.54368946,-51.618634,-163.74256)">
        <path
           id="path6248"
           d="m 342.85714,553.79078 240,0 -84.43917,-145.90406 -35.51557,-38.15432 -40.26178,46.30276 z"
           style="opacity:1;fill:#374845;fill-rule:evenodd;stroke:none;stroke-width:1px;stroke-linecap:butt;stroke-linejoin:miter;stroke-opacity:1" />
        <path
           id="path6279"
           d="m 403.83203,553.79102 56.71875,0 -25.30469,-91.94532 -31.41406,91.94532 z"
           style="fill:#374845;fill-opacity:1;fill-rule:evenodd;stroke:none;stroke-width:1px;stroke-linecap:butt;stroke-linejoin:miter;stroke-opacity:1" />
        <path
           id="path7095"
           d="m 422.64062,416.03516 -13.1914,22.77734 9.43164,70.92969 16.36523,-47.89649 -12.60547,-45.81054 z"
           style="fill:#30423f;fill-opacity:1;fill-rule:evenodd;stroke:none;stroke-width:1px;stroke-linecap:butt;stroke-linejoin:miter;stroke-opacity:1" />
        <path
           id="path7097"
           d="m 409.45117,438.80859 -66.59375,114.98243 0.44531,0 71.87891,-71.88086 -5.73047,-43.10157 z"
           style="fill:#374845;fill-opacity:1;fill-rule:evenodd;stroke:none;stroke-width:1px;stroke-linecap:butt;stroke-linejoin:miter;stroke-opacity:1" />
        <path
           id="path7099"
           d="m 343.30078,553.79102 60.53125,0 15.04883,-44.04883 -3.69922,-27.83203 -71.88086,71.88086 z"
           style="fill:#445653;fill-opacity:1;fill-rule:evenodd;stroke:none;stroke-width:1px;stroke-linecap:butt;stroke-linejoin:miter;stroke-opacity:1" />
        <path
           id="path7101"
           d="m 447.63556,393.32311 -24.99689,22.714 28.36524,103.06641 34.58984,-68.43164 z"
           style="fill:#50625f;fill-opacity:1;fill-rule:evenodd;stroke:none;stroke-width:1px;stroke-linecap:butt;stroke-linejoin:miter;stroke-opacity:1" />
        <path
           id="path7103"
           d="m 460.55078,553.79102 56.67969,0 16.48242,-30.41407 -48.11914,-72.70507 -34.58984,68.43164 9.54687,34.6875 z"
           style="fill:#30423f;fill-opacity:1;fill-rule:evenodd;stroke:none;stroke-width:1px;stroke-linecap:butt;stroke-linejoin:miter;stroke-opacity:1" />
        <path
           id="path7107"
           d="m 517.23047,553.79102 36.61328,0 -20.13086,-30.41407 -16.48242,30.41407 z"
           style="fill:#374845;fill-opacity:1;fill-rule:evenodd;stroke:none;stroke-width:1px;stroke-linecap:butt;stroke-linejoin:miter;stroke-opacity:1" />
        <path
           id="path7109"
           d="m 553.84375,553.79102 29.01367,0 -19.05078,-32.91797 -19.10547,19.10547 9.14258,13.8125 z"
           style="fill:#30423f;fill-opacity:1;fill-rule:evenodd;stroke:none;stroke-width:1px;stroke-linecap:butt;stroke-linejoin:miter;stroke-opacity:1" />
        <path
           id="path7111"
           d="m 477.76758,407.36133 -23.622,-4.20234 90.55559,136.81953 19.10547,-19.10547 -65.38867,-112.98633 -9.93555,16.43945 z"
           style="fill:#445653;fill-opacity:1;fill-rule:evenodd;stroke:none;stroke-width:1px;stroke-linecap:butt;stroke-linejoin:miter;stroke-opacity:1" />
        <path
           id="path6255"
           d="m 498.41797,407.88672 -35.51563,-61.36914 -40.26367,69.52148 5.84375,6.85938 9.10742,-15.625 10.44532,17.14258 10,-17.76758 10.17968,17.76758 9.55274,-17.05469 10.71484,16.96484 9.93555,-16.43945 z"
           style="fill:#e6e6e6;fill-opacity:1;fill-rule:evenodd;stroke:none;stroke-width:1px;stroke-linecap:butt;stroke-linejoin:miter;stroke-opacity:1" />
      </g>
      <path
         style="fill:none;fill-rule:evenodd;stroke:#ec4728;stroke-width:0.54368949px;stroke-linecap:butt;stroke-linejoin:miter;stroke-opacity:1"
         d="m 220.78615,72.016841 14.97153,-25.931449 66.1813,0"
         id="path7351" />
      <text
         xml:space="preserve"
         style="font-style:normal;font-variant:normal;font-weight:normal;font-stretch:normal;font-size:20.35814476px;line-height:125%;font-family:'Loved by the King';-inkscape-font-specification:'Loved by the King, Normal';text-align:start;letter-spacing:0px;word-spacing:0px;writing-mode:lr-tb;text-anchor:start;fill:#ec4728;fill-opacity:1;stroke:none;stroke-width:1px;stroke-linecap:butt;stroke-linejoin:miter;stroke-opacity:1"
         x="241.02359"
         y="41.067192"
         id="text7353"><tspan
           id="tspan7355"
           x="241.02359"
           y="41.067192">33 mètres</tspan></text>
      <circle
         style="opacity:1;fill:#ec4728;fill-opacity:1;stroke:none;stroke-width:0.54368949"
         id="path7377"
         cx="220.78616"
         cy="72.016838"
         r="2.0532346" />
      <path
         id="path6373"
         d="m 165.05703,120.71209 -14.44561,-25.020534 -52.289439,0"
         style="fill:none;fill-rule:evenodd;stroke:#ec4728;stroke-width:0.54368949px;stroke-linecap:butt;stroke-linejoin:miter;stroke-opacity:1" />
      <circle
         r="2.0838726"
         cy="120.71209"
         cx="165.05704"
         id="circle6375"
         style="opacity:1;fill:#ec4728;fill-opacity:1;stroke:none;stroke-width:0.54368949" />
      <text
         xml:space="preserve"
         style="font-style:normal;font-variant:normal;font-weight:normal;font-stretch:normal;font-size:20.35000038px;line-height:125%;font-family:'Loved by the King';-inkscape-font-specification:'Loved by the King';letter-spacing:0px;word-spacing:0px;fill:#ec4728;fill-opacity:1;stroke:none;stroke-width:1px;stroke-linecap:butt;stroke-linejoin:miter;stroke-opacity:1"
         x="97.735573"
         y="91.102005"
         id="text6377"><tspan
           id="tspan6379"
           x="97.735573"
           y="91.102005">Nord-Est</tspan></text>
      <path
         id="path7183"
         d="m 210.16595,48.271875 c -11.06061,-3.651315 -2.83613,-21.017914 10.22902,-8.032185 6.36167,-5.831434 12.72335,-5.907915 19.08502,-0.20595 4.19781,-3.627931 9.87443,-8.372301 19.42828,0.137298 3.91643,-4.401569 11.41372,-8.285691 19.85111,0.131921 6.70067,-7.044693 13.288,-5.816118 19.80584,0.485438 11.37906,0.902661 2.47996,22.291263 -10.09709,7.378644 -5.54308,5.219152 -11.46859,8.597878 -19.90292,-0.09709 -5.97573,5.5181 -12.26517,7.764543 -19.51457,0 -5.1647,4.815207 -10.56087,8.762431 -19.32039,0.09709 -6.49004,7.113198 -13.0788,6.542346 -19.5643,0.104834 z"
         style="fill:#ffffff;fill-opacity:0.59241704;fill-rule:evenodd;stroke:none;stroke-width:1px;stroke-linecap:butt;stroke-linejoin:miter;stroke-opacity:1" />
      <g
         transform="matrix(0.65850503,0,0,0.65850503,85.321151,40.655849)"
         id="use7144">
        <ellipse
           style="fill:#000000;fill-opacity:0.18719213;stroke:none"
           id="ellipse9979"
           cx="290.37888"
           cy="127.85368"
           rx="4.5456862"
           ry="1.0688003" />
        <path
           style="fill:#502d16;fill-rule:evenodd;stroke:none;stroke-width:1px;stroke-linecap:butt;stroke-linejoin:miter;stroke-opacity:1"
           d="m 288.95134,127.85368 2.85506,0 0,-5.2864 -2.85506,0 0,5.2864 z"
           id="path9981" />
        <path
           style="fill:#16502d;fill-rule:evenodd;stroke:none;stroke-width:1px;stroke-linecap:butt;stroke-linejoin:miter;stroke-opacity:1"
           d="m 290.37877,88.135437 -8.41855,28.782353 1.6947,0 -1.85636,5.60903 1.74525,0 -0.77962,1.93689 7.61458,0 0,-36.328273 z"
           id="path9983" />
        <path
           style="fill:#217844;fill-rule:evenodd;stroke:none;stroke-width:1px;stroke-linecap:butt;stroke-linejoin:miter;stroke-opacity:1"
           d="m 290.37877,88.135437 0,36.328273 7.60209,0 -0.80708,-2.09793 1.73526,0 -1.73526,-5.40742 1.69469,0 -8.4897,-28.822923 z"
           id="path9985" />
      </g>
      <g
         transform="matrix(0.81626394,0,0,0.81626394,-30.809536,43.973)"
         id="use7148">
        <ellipse
           style="fill:#000000;fill-opacity:0.18719213;stroke:none"
           id="ellipse9949"
           cx="290.37888"
           cy="127.85368"
           rx="4.5456862"
           ry="1.0688003" />
        <path
           style="fill:#502d16;fill-rule:evenodd;stroke:none;stroke-width:1px;stroke-linecap:butt;stroke-linejoin:miter;stroke-opacity:1"
           d="m 288.95134,127.85368 2.85506,0 0,-5.2864 -2.85506,0 0,5.2864 z"
           id="path9951" />
        <path
           style="fill:#16502d;fill-rule:evenodd;stroke:none;stroke-width:1px;stroke-linecap:butt;stroke-linejoin:miter;stroke-opacity:1"
           d="m 290.37877,88.135437 -8.41855,28.782353 1.6947,0 -1.85636,5.60903 1.74525,0 -0.77962,1.93689 7.61458,0 0,-36.328273 z"
           id="path9953" />
        <path
           style="fill:#217844;fill-rule:evenodd;stroke:none;stroke-width:1px;stroke-linecap:butt;stroke-linejoin:miter;stroke-opacity:1"
           d="m 290.37877,88.135437 0,36.328273 7.60209,0 -0.80708,-2.09793 1.73526,0 -1.73526,-5.40742 1.69469,0 -8.4897,-28.822923 z"
           id="path9955" />
      </g>
      <g
         transform="matrix(0.38083742,0,0,0.38083742,180.40026,58.520513)"
         id="use7150">
        <ellipse
           style="fill:#000000;fill-opacity:0.18719213;stroke:none"
           id="ellipse9969"
           cx="290.37888"
           cy="127.85368"
           rx="4.5456862"
           ry="1.0688003" />
        <path
           style="fill:#502d16;fill-rule:evenodd;stroke:none;stroke-width:1px;stroke-linecap:butt;stroke-linejoin:miter;stroke-opacity:1"
           d="m 288.95134,127.85368 2.85506,0 0,-5.2864 -2.85506,0 0,5.2864 z"
           id="path9971" />
        <path
           style="fill:#16502d;fill-rule:evenodd;stroke:none;stroke-width:1px;stroke-linecap:butt;stroke-linejoin:miter;stroke-opacity:1"
           d="m 290.37877,88.135437 -8.41855,28.782353 1.6947,0 -1.85636,5.60903 1.74525,0 -0.77962,1.93689 7.61458,0 0,-36.328273 z"
           id="path9973" />
        <path
           style="fill:#217844;fill-rule:evenodd;stroke:none;stroke-width:1px;stroke-linecap:butt;stroke-linejoin:miter;stroke-opacity:1"
           d="m 290.37877,88.135437 0,36.328273 7.60209,0 -0.80708,-2.09793 1.73526,0 -1.73526,-5.40742 1.69469,0 -8.4897,-28.822923 z"
           id="path9975" />
      </g>
      <g
         transform="matrix(0.62850245,0,0,0.62850245,-38.901449,63.043068)"
         id="use7154">
        <ellipse
           style="fill:#000000;fill-opacity:0.18719213;stroke:none"
           id="ellipse9939"
           cx="290.37888"
           cy="127.85368"
           rx="4.5456862"
           ry="1.0688003" />
        <path
           style="fill:#502d16;fill-rule:evenodd;stroke:none;stroke-width:1px;stroke-linecap:butt;stroke-linejoin:miter;stroke-opacity:1"
           d="m 288.95134,127.85368 2.85506,0 0,-5.2864 -2.85506,0 0,5.2864 z"
           id="path9941" />
        <path
           style="fill:#16502d;fill-rule:evenodd;stroke:none;stroke-width:1px;stroke-linecap:butt;stroke-linejoin:miter;stroke-opacity:1"
           d="m 290.37877,88.135437 -8.41855,28.782353 1.6947,0 -1.85636,5.60903 1.74525,0 -0.77962,1.93689 7.61458,0 0,-36.328273 z"
           id="path9943" />
        <path
           style="fill:#217844;fill-rule:evenodd;stroke:none;stroke-width:1px;stroke-linecap:butt;stroke-linejoin:miter;stroke-opacity:1"
           d="m 290.37877,88.135437 0,36.328273 7.60209,0 -0.80708,-2.09793 1.73526,0 -1.73526,-5.40742 1.69469,0 -8.4897,-28.822923 z"
           id="path9945" />
      </g>
      <g
         transform="matrix(0.62850245,0,0,0.62850245,-62.640034,52.689004)"
         id="use7156">
        <ellipse
           style="fill:#000000;fill-opacity:0.18719213;stroke:none"
           id="ellipse9929"
           cx="290.37888"
           cy="127.85368"
           rx="4.5456862"
           ry="1.0688003" />
        <path
           style="fill:#502d16;fill-rule:evenodd;stroke:none;stroke-width:1px;stroke-linecap:butt;stroke-linejoin:miter;stroke-opacity:1"
           d="m 288.95134,127.85368 2.85506,0 0,-5.2864 -2.85506,0 0,5.2864 z"
           id="path9931" />
        <path
           style="fill:#16502d;fill-rule:evenodd;stroke:none;stroke-width:1px;stroke-linecap:butt;stroke-linejoin:miter;stroke-opacity:1"
           d="m 290.37877,88.135437 -8.41855,28.782353 1.6947,0 -1.85636,5.60903 1.74525,0 -0.77962,1.93689 7.61458,0 0,-36.328273 z"
           id="path9933" />
        <path
           style="fill:#217844;fill-rule:evenodd;stroke:none;stroke-width:1px;stroke-linecap:butt;stroke-linejoin:miter;stroke-opacity:1"
           d="m 290.37877,88.135437 0,36.328273 7.60209,0 -0.80708,-2.09793 1.73526,0 -1.73526,-5.40742 1.69469,0 -8.4897,-28.822923 z"
           id="path9935" />
      </g>
      <g
         transform="matrix(0.39760939,0,0,0.39760939,-20.726993,60.516131)"
         id="use7158">
        <ellipse
           style="fill:#000000;fill-opacity:0.18719213;stroke:none"
           id="ellipse9909"
           cx="290.37888"
           cy="127.85368"
           rx="4.5456862"
           ry="1.0688003" />
        <path
           style="fill:#502d16;fill-rule:evenodd;stroke:none;stroke-width:1px;stroke-linecap:butt;stroke-linejoin:miter;stroke-opacity:1"
           d="m 288.95134,127.85368 2.85506,0 0,-5.2864 -2.85506,0 0,5.2864 z"
           id="path9911" />
        <path
           style="fill:#16502d;fill-rule:evenodd;stroke:none;stroke-width:1px;stroke-linecap:butt;stroke-linejoin:miter;stroke-opacity:1"
           d="m 290.37877,88.135437 -8.41855,28.782353 1.6947,0 -1.85636,5.60903 1.74525,0 -0.77962,1.93689 7.61458,0 0,-36.328273 z"
           id="path9913" />
        <path
           style="fill:#217844;fill-rule:evenodd;stroke:none;stroke-width:1px;stroke-linecap:butt;stroke-linejoin:miter;stroke-opacity:1"
           d="m 290.37877,88.135437 0,36.328273 7.60209,0 -0.80708,-2.09793 1.73526,0 -1.73526,-5.40742 1.69469,0 -8.4897,-28.822923 z"
           id="path9915" />
      </g>
      <g
         transform="matrix(0.76995431,0,0,0.76995431,70.582426,41.187285)"
         id="use7160">
        <ellipse
           style="fill:#000000;fill-opacity:0.18719213;stroke:none"
           id="ellipse9899"
           cx="290.37888"
           cy="127.85368"
           rx="4.5456862"
           ry="1.0688003" />
        <path
           style="fill:#502d16;fill-rule:evenodd;stroke:none;stroke-width:1px;stroke-linecap:butt;stroke-linejoin:miter;stroke-opacity:1"
           d="m 288.95134,127.85368 2.85506,0 0,-5.2864 -2.85506,0 0,5.2864 z"
           id="path9901" />
        <path
           style="fill:#16502d;fill-rule:evenodd;stroke:none;stroke-width:1px;stroke-linecap:butt;stroke-linejoin:miter;stroke-opacity:1"
           d="m 290.37877,88.135437 -8.41855,28.782353 1.6947,0 -1.85636,5.60903 1.74525,0 -0.77962,1.93689 7.61458,0 0,-36.328273 z"
           id="path9903" />
        <path
           style="fill:#217844;fill-rule:evenodd;stroke:none;stroke-width:1px;stroke-linecap:butt;stroke-linejoin:miter;stroke-opacity:1"
           d="m 290.37877,88.135437 0,36.328273 7.60209,0 -0.80708,-2.09793 1.73526,0 -1.73526,-5.40742 1.69469,0 -8.4897,-28.822923 z"
           id="path9905" />
      </g>
      <g
         transform="matrix(0.45641369,0,0,0.45641369,186.88216,60.141245)"
         id="use7162">
        <ellipse
           style="fill:#000000;fill-opacity:0.18719213;stroke:none"
           id="ellipse9959"
           cx="290.37888"
           cy="127.85368"
           rx="4.5456862"
           ry="1.0688003" />
        <path
           style="fill:#502d16;fill-rule:evenodd;stroke:none;stroke-width:1px;stroke-linecap:butt;stroke-linejoin:miter;stroke-opacity:1"
           d="m 288.95134,127.85368 2.85506,0 0,-5.2864 -2.85506,0 0,5.2864 z"
           id="path9961" />
        <path
           style="fill:#16502d;fill-rule:evenodd;stroke:none;stroke-width:1px;stroke-linecap:butt;stroke-linejoin:miter;stroke-opacity:1"
           d="m 290.37877,88.135437 -8.41855,28.782353 1.6947,0 -1.85636,5.60903 1.74525,0 -0.77962,1.93689 7.61458,0 0,-36.328273 z"
           id="path9963" />
        <path
           style="fill:#217844;fill-rule:evenodd;stroke:none;stroke-width:1px;stroke-linecap:butt;stroke-linejoin:miter;stroke-opacity:1"
           d="m 290.37877,88.135437 0,36.328273 7.60209,0 -0.80708,-2.09793 1.73526,0 -1.73526,-5.40742 1.69469,0 -8.4897,-28.822923 z"
           id="path9965" />
      </g>
      <g
         transform="matrix(0.6897964,0,0,0.6897964,-114.17564,50.143975)"
         id="use7200">
        <ellipse
           style="fill:#000000;fill-opacity:0.18719213;stroke:none"
           id="ellipse9919"
           cx="290.37888"
           cy="127.85368"
           rx="4.5456862"
           ry="1.0688003" />
        <path
           style="fill:#502d16;fill-rule:evenodd;stroke:none;stroke-width:1px;stroke-linecap:butt;stroke-linejoin:miter;stroke-opacity:1"
           d="m 288.95134,127.85368 2.85506,0 0,-5.2864 -2.85506,0 0,5.2864 z"
           id="path9921" />
        <path
           style="fill:#16502d;fill-rule:evenodd;stroke:none;stroke-width:1px;stroke-linecap:butt;stroke-linejoin:miter;stroke-opacity:1"
           d="m 290.37877,88.135437 -8.41855,28.782353 1.6947,0 -1.85636,5.60903 1.74525,0 -0.77962,1.93689 7.61458,0 0,-36.328273 z"
           id="path9923" />
        <path
           style="fill:#217844;fill-rule:evenodd;stroke:none;stroke-width:1px;stroke-linecap:butt;stroke-linejoin:miter;stroke-opacity:1"
           d="m 290.37877,88.135437 0,36.328273 7.60209,0 -0.80708,-2.09793 1.73526,0 -1.73526,-5.40742 1.69469,0 -8.4897,-28.822923 z"
           id="path9925" />
      </g>
    </g>
  </g>
</svg>
