<?xml version="1.0" encoding="UTF-8" standalone="no"?>
<!-- Created with Inkscape (http://www.inkscape.org/) -->

<svg
   width="212mm"
   height="299mm"
   viewBox="0 0 212 299"
   version="1.1"
   id="svg1"
   xmlns="http://www.w3.org/2000/svg"
   xmlns:svg="http://www.w3.org/2000/svg">
  <defs
     id="defs1" />
  <g
     id="layer1"
     transform="translate(-23.283335,30.691664)">
    <rect
       style="font-variation-settings:'wght' 700;fill:#ffffff;stroke:#666666;stroke-width:2;stroke-dasharray:none"
       id="rect2"
       width="210"
       height="297"
       x="24.283335"
       y="-29.691664" />
    <path
       d="m 168.85354,243.09267 h 2.36594 v 2.36599 h -2.36594 v -2.36599 m 9.46388,-7.09794 h 2.366 v 4.73199 h -2.366 v -4.73199 m -2.36595,7.09794 h 4.73195 v 4.73199 h -2.366 v -2.366 h -2.36595 v -2.36599 m 7.09793,0 h 2.36596 v 2.36599 h 2.366 v -2.36599 h 2.36599 v 2.36599 h -2.36599 v 2.366 h 2.36599 v 4.73194 h -2.36599 v 2.36599 h -2.366 v -2.36599 h -4.73194 v 2.36599 h -2.366 v -4.73199 h 4.73198 v -2.36594 h 2.36596 v -2.366 h -2.36596 v -2.36599 m 4.73196,9.46393 v -4.73194 h -2.366 v 4.73194 h 2.366 m -4.73196,-18.92782 h 7.09795 v 7.09794 h -7.09795 v -7.09794 m 2.36596,2.36595 v 2.36599 h 2.366 v -2.36599 h -2.366 m -16.56182,-2.36595 h 7.09793 v 7.09794 h -7.09793 v -7.09794 m 2.36594,2.36595 v 2.36599 h 2.366 v -2.36599 h -2.366 m -2.36594,11.82993 h 7.09793 v 7.09793 h -7.09793 v -7.09793 m 2.36594,2.36594 v 2.366 h 2.366 v -2.366 z"
       id="path3"
       style="fill:#808080;fill-opacity:1;stroke-width:1.18298" />
    <circle
       style="font-variation-settings:'wght' 700;fill:#808080;stroke:none;stroke-width:2.77206;stroke-dasharray:none"
       id="circle3"
       cx="79.066246"
       cy="244.27538"
       r="10.646907" />
    <g
       id="g4"
       transform="translate(24.2833,-28.5309)">
      <rect
         style="font-variation-settings:'wght' 700;fill:#808080;fill-opacity:1;stroke:none;stroke-width:2.2293;stroke-dasharray:none"
         id="rect3"
         width="56.095505"
         height="7.2256813"
         x="76.952248"
         y="264.96033"
         ry="0.92359698" />
      <rect
         style="font-variation-settings:'wght' 700;fill:#808080;fill-opacity:1;stroke:none;stroke-width:1.44897;stroke-dasharray:none"
         id="rect4"
         width="38.01498"
         height="4.5043983"
         x="85.992508"
         y="276.14832"
         ry="0.5757587" />
    </g>
    <g
       id="g53"
       transform="translate(24.2833,-17.52063)">
      <g
         id="g21">
        <circle
           style="font-variation-settings:'wght' 700;fill:#808080;stroke:none;stroke-width:2.77206;stroke-dasharray:none"
           id="circle4"
           cx="29.696907"
           cy="103.33461"
           r="10.646907" />
        <rect
           style="font-variation-settings:'wght' 700;fill:#808080;fill-opacity:1;stroke:none;stroke-width:2.63742;stroke-dasharray:none"
           id="rect5"
           width="10.371567"
           height="13.095944"
           x="47.858143"
           y="96.786636"
           ry="0.92359698" />
        <rect
           style="font-variation-settings:'wght' 700;fill:none;fill-opacity:1;stroke:#808080;stroke-width:1.97836;stroke-dasharray:none;stroke-opacity:1"
           id="rect6"
           width="183.22441"
           height="35.44643"
           x="13.400416"
           y="85.611397"
           ry="0.91360646" />
        <g
           id="g19"
           transform="translate(0,4.0323243)">
          <rect
             style="font-variation-settings:'wght' 700;fill:#808080;fill-opacity:1;stroke:none;stroke-width:1.72348;stroke-dasharray:none"
             id="rect7"
             width="53.783062"
             height="4.5043983"
             x="67.630203"
             y="90.435501"
             ry="0.5757587" />
          <rect
             style="font-variation-settings:'wght' 700;fill:#808080;fill-opacity:1;stroke:none;stroke-width:1.52327;stroke-dasharray:none"
             id="rect18"
             width="30.205257"
             height="3.5186749"
             x="67.630203"
             y="98.829559"
             ry="0.44976172" />
          <rect
             style="font-variation-settings:'wght' 700;fill:#808080;fill-opacity:1;stroke:none;stroke-width:1.52327;stroke-dasharray:none"
             id="rect19"
             width="36.436108"
             height="3.5186768"
             x="67.630203"
             y="104.65039"
             ry="0.44976172" />
        </g>
      </g>
      <g
         id="g52"
         transform="translate(0,42.333332)">
        <circle
           style="font-variation-settings:'wght' 700;fill:#808080;stroke:none;stroke-width:2.77206;stroke-dasharray:none"
           id="circle21"
           cx="29.696907"
           cy="103.33461"
           r="10.646907" />
        <rect
           style="font-variation-settings:'wght' 700;fill:#808080;fill-opacity:1;stroke:none;stroke-width:2.63742;stroke-dasharray:none"
           id="rect21"
           width="10.371567"
           height="13.095944"
           x="47.858143"
           y="96.786636"
           ry="0.92359698" />
        <rect
           style="font-variation-settings:'wght' 700;fill:none;fill-opacity:1;stroke:#808080;stroke-width:1.97836;stroke-dasharray:none;stroke-opacity:1"
           id="rect34"
           width="183.22441"
           height="35.44643"
           x="13.400416"
           y="85.611397"
           ry="0.91360646" />
        <g
           id="g51"
           transform="translate(0,4.0323243)">
          <rect
             style="font-variation-settings:'wght' 700;fill:#808080;fill-opacity:1;stroke:none;stroke-width:1.72348;stroke-dasharray:none"
             id="rect36"
             width="53.783062"
             height="4.5043983"
             x="67.630203"
             y="90.435501"
             ry="0.5757587" />
          <rect
             style="font-variation-settings:'wght' 700;fill:#808080;fill-opacity:1;stroke:none;stroke-width:1.52327;stroke-dasharray:none"
             id="rect49"
             width="30.205257"
             height="3.5186749"
             x="67.630203"
             y="98.829559"
             ry="0.44976172" />
          <rect
             style="font-variation-settings:'wght' 700;fill:#808080;fill-opacity:1;stroke:none;stroke-width:1.52327;stroke-dasharray:none"
             id="rect50"
             width="36.436108"
             height="3.5186768"
             x="67.630203"
             y="104.65039"
             ry="0.44976172" />
        </g>
      </g>
    </g>
    <path
       d="m 228.4625,248.54657 v -8.54238 h -19.22026 l 7.47453,-7.47454 -5.16808,-5.1681 -16.91382,16.91383 16.91382,16.91383 5.16808,-5.1681 -7.47453,-7.47454 z"
       id="path53"
       style="fill:#6200ea;stroke-width:2.13557" />
    <path
       d="m 30.5931,248.54657 v -8.54238 h 19.22026 l -7.47453,-7.47454 5.16808,-5.1681 16.91384,16.91383 -16.91384,16.91383 -5.16808,-5.1681 7.47453,-7.47454 z"
       id="path54"
       style="fill:#6200ea;stroke-width:2.13557" />
  </g>
</svg>
