<?xml version="1.0" encoding="UTF-8" standalone="no"?>
<!-- Created with Inkscape (http://www.inkscape.org/) -->

<svg
   width="7.7075114"
   height="7.9772148"
   viewBox="0 0 7.7075115 7.9772149"
   version="1.1"
   id="svg1"
   xmlns="http://www.w3.org/2000/svg"
   xmlns:svg="http://www.w3.org/2000/svg">
  <defs
     id="defs1" />
  <g
     id="g1"
     transform="matrix(1.0675458,0,0,1.0675458,0.49416569,0)">
    <path
       data-v-7d349c86=""
       d="M 4.61024,4.6e-4 C 3.83167,-0.00354 3.00062,0.47483 2.32603,0.55258 1.4508,0.65346 0.70556,0.92409 0.47757,1.47133 -0.11417,2.89167 -0.08056,4.78363 0.17333,5.21227 0.60383,5.93906 0.87887,6.28738 1.48036,6.69045 1.94417,7.00127 2.72398,7.44602 3.78572,7.49018 4.73309,7.52958 5.47544,6.44245 5.8283,5.64619 6.14824,4.9242 6.50342,2.98502 6.14185,1.69967 5.98238,1.13275 5.96869,0.47305 5.2473,0.13606 5.04211,0.04026 4.82824,0.00146 4.61024,4.6e-4 Z M 3.26683,2.79254 c 0.3777,0 0.68389,0.30619 0.68389,0.68388 0,0.3777 -0.30619,0.68389 -0.68389,0.68389 -0.37768,-2e-5 -0.68385,-0.3062 -0.68385,-0.68389 0,-0.37768 0.30617,-0.68386 0.68385,-0.68388 z"
       style="fill:#6200ea;fill-opacity:1;stroke:none;stroke-width:0.132292px;stroke-linecap:butt;stroke-linejoin:miter;stroke-opacity:1"
       id="path11" />
    <path
       data-v-7d349c86=""
       d="M 4.66863,0.00202 C 4.64923,0.00131 4.62973,0.00102 4.61023,2e-5 3.83166,-0.00398 3.00061,0.47439 2.32602,0.55214 1.45079,0.65302 0.70555,0.92365 0.47756,1.47089 -0.11234,2.88683 -0.08075,4.77131 0.171,5.20764 0.2687,5.0431 0.367,4.88205 0.46597,4.72577 0.57092,4.56005 0.67654,4.39884 0.78279,4.24182 0.88905,4.0848 0.99594,3.93197 1.10342,3.78305 1.21089,3.63412 1.31895,3.48908 1.42755,3.34765 1.53615,3.20621 1.6453,3.06838 1.75494,2.93384 1.86458,2.79929 1.9747,2.66803 2.08529,2.53978 2.19588,2.41153 2.30691,2.28629 2.41836,2.16373 2.5298,2.04117 2.64167,1.92129 2.75389,1.80382 2.8661,1.68634 2.97867,1.57129 3.09155,1.45831 3.20444,1.34533 3.31764,1.23442 3.43111,1.12533 3.54458,1.01624 3.65832,0.90895 3.77228,0.80314 3.88625,0.69734 4.00046,0.59303 4.11483,0.48992 4.2292,0.3868 4.34375,0.2849 4.45844,0.18387 4.52834,0.12227 4.59859,0.06259 4.66862,0.00158 Z"
       style="fill:#ffffff;fill-opacity:0.1;stroke:none;stroke-width:0.264583"
       id="path12" />
    <path
       data-v-7d349c86=""
       d="M 6.1992,1.93739 C 6.1888,1.99469 6.1793,2.05272 6.1685,2.10962 6.1377,2.27254 6.1053,2.43399 6.0713,2.59387 6.0373,2.75375 6.0017,2.91207 5.96436,3.06875 5.92706,3.22544 5.88796,3.38049 5.84709,3.53383 5.80619,3.68716 5.76359,3.83875 5.71905,3.98857 5.67455,4.13839 5.62815,4.28643 5.57973,4.43257 5.53133,4.57872 5.48103,4.72298 5.4286,4.86529 5.3762,5.0076 5.32174,5.14795 5.26516,5.28627 5.20856,5.42459 5.14986,5.56087 5.08893,5.69504 5.02803,5.82921 4.96486,5.96127 4.89941,6.09112 4.83401,6.22098 4.76621,6.34864 4.69608,6.47403 4.66098,6.53673 4.62538,6.59885 4.58909,6.6604 4.55279,6.7219 4.51589,6.78288 4.47845,6.84326 4.44095,6.90366 4.40285,6.96342 4.36411,7.02261 4.32541,7.08181 4.28601,7.14039 4.24602,7.19838 4.20602,7.25638 4.16542,7.31374 4.1241,7.3705 4.0991,7.4049 4.0734,7.4386 4.0479,7.47248 4.86951,7.32726 5.50866,6.36742 5.82827,5.64619 6.12904,4.96745 6.46088,3.21306 6.19917,1.93739 Z"
       style="fill:#ffffff;fill-opacity:0.4;stroke:none;stroke-width:0.264583"
       id="path13" />
  </g>
</svg>
