<?xml version="1.0" encoding="UTF-8" standalone="no"?>
<!-- Created with Inkscape (http://www.inkscape.org/) -->

<svg
   width="7.7075114"
   height="7.9772148"
   viewBox="0 0 7.7075115 7.9772149"
   version="1.1"
   id="svg1"
   xmlns="http://www.w3.org/2000/svg"
   xmlns:svg="http://www.w3.org/2000/svg">
  <defs
     id="defs1" />
  <g
     id="layer1"
     transform="translate(-82.020832,-104.775)">
    <g
       id="g3"
       transform="translate(-32.279167,4.4e-4)">
      <path
         data-v-7d349c86=""
         d="m 118.91024,104.77502 c -0.77857,-0.004 -1.60962,0.47437 -2.28421,0.55212 -0.87523,0.10088 -1.62047,0.37151 -1.84846,0.91875 -0.59174,1.42034 -0.55813,3.3123 -0.30424,3.74094 0.4305,0.72679 0.70554,1.07511 1.30703,1.47818 0.46381,0.31082 1.24362,0.75557 2.30536,0.79973 0.94737,0.0394 1.68972,-1.04773 2.04258,-1.84399 0.31994,-0.72199 0.67512,-2.66117 0.31355,-3.94652 -0.15947,-0.56692 -0.17316,-1.22662 -0.89455,-1.56361 -0.20519,-0.0958 -0.41906,-0.1346 -0.63706,-0.1356 z m -1.34341,2.79208 c 0.3777,0 0.68389,0.30619 0.68389,0.68388 0,0.3777 -0.30619,0.68389 -0.68389,0.68389 -0.37768,-2e-5 -0.68385,-0.3062 -0.68385,-0.68389 0,-0.37768 0.30617,-0.68386 0.68385,-0.68388 z"
         style="fill:#6200ea;fill-opacity:1;stroke:none;stroke-width:0.132292px;stroke-linecap:butt;stroke-linejoin:miter;stroke-opacity:1"
         id="path11" />
      <path
         data-v-7d349c86=""
         d="m 118.96863,104.77658 c -0.0194,-7.1e-4 -0.0389,-10e-4 -0.0584,-0.002 -0.77857,-0.004 -1.60962,0.47437 -2.28421,0.55212 -0.87523,0.10088 -1.62047,0.37151 -1.84846,0.91875 -0.5899,1.41594 -0.55831,3.30042 -0.30656,3.73675 0.0977,-0.16454 0.196,-0.32559 0.29497,-0.48187 0.10495,-0.16572 0.21057,-0.32693 0.31682,-0.48395 0.10626,-0.15702 0.21315,-0.30985 0.32063,-0.45877 0.10747,-0.14893 0.21553,-0.29397 0.32413,-0.4354 0.1086,-0.14144 0.21775,-0.27927 0.32739,-0.41381 0.10964,-0.13455 0.21976,-0.26581 0.33035,-0.39406 0.11059,-0.12825 0.22162,-0.25349 0.33307,-0.37605 0.11144,-0.12256 0.22331,-0.24244 0.33553,-0.35991 0.11221,-0.11748 0.22478,-0.23253 0.33766,-0.34551 0.11289,-0.11298 0.22609,-0.22389 0.33956,-0.33298 0.11347,-0.10909 0.22721,-0.21638 0.34117,-0.32219 0.11397,-0.1058 0.22818,-0.21011 0.34255,-0.31322 0.11437,-0.10312 0.22892,-0.20502 0.34361,-0.30605 0.0699,-0.0616 0.14015,-0.12128 0.21018,-0.18229 z"
         style="fill:#ffffff;fill-opacity:0.1;stroke:none;stroke-width:0.264583"
         id="path12" />
      <path
         data-v-7d349c86=""
         d="m 120.4992,106.71195 c -0.0104,0.0573 -0.0199,0.11533 -0.0307,0.17223 -0.0308,0.16292 -0.0632,0.32437 -0.0972,0.48425 -0.034,0.15988 -0.0696,0.3182 -0.10694,0.47488 -0.0373,0.15669 -0.0764,0.31174 -0.11727,0.46508 -0.0409,0.15333 -0.0835,0.30492 -0.12804,0.45474 -0.0445,0.14982 -0.0909,0.29786 -0.13932,0.444 -0.0484,0.14615 -0.0987,0.29041 -0.15113,0.43272 -0.0524,0.14231 -0.10686,0.28266 -0.16344,0.42098 -0.0566,0.13832 -0.1153,0.2746 -0.17623,0.40877 -0.0609,0.13417 -0.12407,0.26623 -0.18952,0.39608 -0.0654,0.12986 -0.1332,0.25752 -0.20333,0.38291 -0.0351,0.0627 -0.0707,0.12482 -0.10699,0.18637 -0.0363,0.0615 -0.0732,0.12248 -0.11064,0.18286 -0.0375,0.0604 -0.0756,0.12016 -0.11434,0.17935 -0.0387,0.0592 -0.0781,0.11778 -0.11809,0.17577 -0.04,0.058 -0.0806,0.11536 -0.12192,0.17212 -0.025,0.0344 -0.0507,0.0681 -0.0762,0.10198 0.82161,-0.14522 1.46076,-1.10506 1.78037,-1.82629 0.30077,-0.67874 0.63261,-2.43313 0.3709,-3.7088 z"
         style="fill:#ffffff;fill-opacity:0.4;stroke:none;stroke-width:0.264583"
         id="path13" />
      <path
         data-v-7d349c86=""
         d="m 121.51744,108.36931 -2.43336,0.002 a 0.48667349,0.48667349 0 0 0 -0.48629,0.48707 l 0.003,3.89339 1.70277,-0.73138 1.70395,0.72865 -0.003,-3.89338 c -1.9e-4,-0.27012 -0.21939,-0.48651 -0.48706,-0.4863 z"
         class="gym-route-tag-color"
         style="fill:#ff0000;stroke:none;stroke-width:0.132292px;stroke-miterlimit:4;stroke-dasharray:none"
         id="path14" />
    </g>
  </g>
</svg>
