<?xml version="1.0" encoding="UTF-8" standalone="no"?>
<!-- Created with Inkscape (http://www.inkscape.org/) -->

<svg
   width="48"
   height="48"
   viewBox="0 0 48 48"
   version="1.1"
   id="svg1"
   sodipodi:docname="hold.svg"
   inkscape:version="1.4.2 (ebf0e940d0, 2025-05-08)"
   xmlns:inkscape="http://www.inkscape.org/namespaces/inkscape"
   xmlns:sodipodi="http://sodipodi.sourceforge.net/DTD/sodipodi-0.dtd"
   xmlns="http://www.w3.org/2000/svg"
   xmlns:svg="http://www.w3.org/2000/svg">
  <sodipodi:namedview
     id="namedview1"
     pagecolor="#505050"
     bordercolor="#eeeeee"
     borderopacity="1"
     inkscape:showpageshadow="0"
     inkscape:pageopacity="0"
     inkscape:pagecheckerboard="0"
     inkscape:deskcolor="#505050"
     inkscape:zoom="11.636382"
     inkscape:cx="25.73824"
     inkscape:cy="27.156206"
     inkscape:window-width="1920"
     inkscape:window-height="1136"
     inkscape:window-x="0"
     inkscape:window-y="0"
     inkscape:window-maximized="1"
     inkscape:current-layer="svg1" />
  <defs
     id="defs1" />
  <path
     d="m 9.8938828,21.648982 c 5.2016282,0 9.4040732,4.202448 9.4040732,9.404087 0,5.201626 -4.202445,9.404085 -9.4040732,9.404085 -5.2016392,0 -9.40408664,-4.202459 -9.40408664,-9.404085 0,-5.201639 4.20244744,-9.404087 9.40408664,-9.404087 M 32.228574,35.755105 a 5.8775515,5.8775515 0 0 1 5.877556,5.877556 5.8775515,5.8775515 0 0 1 -5.877556,5.877555 5.8775515,5.8775515 0 0 1 -5.877553,-5.877555 5.8775515,5.8775515 0 0 1 5.877553,-5.877556 M 33.404081,0.48979628 A 14.106124,14.106124 0 0 1 47.510204,14.595921 c 0,7.787756 -6.318366,14.106122 -14.106123,14.106122 A 14.106124,14.106124 0 0 1 19.297956,14.595921 c 0,-7.7877587 6.318367,-14.10612472 14.106125,-14.10612472 z"
     id="path1"
     style="fill:#6200ea;stroke:none;stroke-width:0.979592;stroke-dasharray:none;paint-order:markers fill stroke;fill-opacity:1.0" />
</svg>
