<?xml version="1.0" encoding="UTF-8" standalone="no"?>
<!-- Created with Inkscape (http://www.inkscape.org/) -->

<svg
   width="172.93356mm"
   height="159.5874mm"
   viewBox="0 0 172.93356 159.5874"
   version="1.1"
   id="svg30119"
   inkscape:version="1.1.2 (1:1.1+202202050852+0a00cf5339)"
   sodipodi:docname="print-route-sheet.svg"
   xmlns:inkscape="http://www.inkscape.org/namespaces/inkscape"
   xmlns:sodipodi="http://sodipodi.sourceforge.net/DTD/sodipodi-0.dtd"
   xmlns="http://www.w3.org/2000/svg"
   xmlns:svg="http://www.w3.org/2000/svg">
  <sodipodi:namedview
     id="namedview30121"
     pagecolor="#505050"
     bordercolor="#eeeeee"
     borderopacity="1"
     inkscape:pageshadow="0"
     inkscape:pageopacity="0"
     inkscape:pagecheckerboard="0"
     inkscape:document-units="mm"
     showgrid="false"
     fit-margin-top="0"
     fit-margin-left="0"
     fit-margin-right="0"
     fit-margin-bottom="0"
     inkscape:zoom="0.66368547"
     inkscape:cx="22.601067"
     inkscape:cy="305.11441"
     inkscape:window-width="1920"
     inkscape:window-height="1016"
     inkscape:window-x="0"
     inkscape:window-y="27"
     inkscape:window-maximized="1"
     inkscape:current-layer="layer1" />
  <defs
     id="defs30116">
    <filter
       inkscape:collect="always"
       style="color-interpolation-filters:sRGB"
       id="filter79574-7"
       x="-0.056718326"
       y="-0.045248412"
       width="1.1134367"
       height="1.0904968">
      <feGaussianBlur
         inkscape:collect="always"
         stdDeviation="2.2609952"
         id="feGaussianBlur79576-5" />
    </filter>
  </defs>
  <g
     inkscape:label="Calque 1"
     inkscape:groupmode="layer"
     id="layer1"
     transform="translate(-23.961406,-67.709651)">
    <g
       id="g29900"
       transform="translate(2.9891754,-613.89948)">
      <rect
         style="fill:#ffcc00;fill-opacity:1;stroke-width:1"
         id="rect80318-36"
         width="172.93356"
         height="104.97687"
         x="20.972231"
         y="681.60913"
         ry="12.153904" />
      <rect
         style="opacity:0.15;fill:#000000;fill-opacity:1;stroke-width:1;filter:url(#filter79574-7)"
         id="rect80422-3"
         width="95.672577"
         height="119.92439"
         x="27.323532"
         y="687.27075"
         ry="7.4945035" />
      <rect
         style="fill:#ffffff;fill-opacity:1;stroke-width:1"
         id="rect80424-5"
         width="95.772095"
         height="118.64447"
         x="27.273775"
         y="687.91071"
         ry="7.4945035" />
      <g
         id="g7689"
         transform="translate(0,2.0865599e-5)">
        <g
           id="g3137"
           transform="translate(0,1.525649)">
          <rect
             style="fill:#0055d4;fill-opacity:1;stroke-width:1"
             id="rect63186-2-2"
             width="12.760355"
             height="4.9835205"
             x="36.919514"
             y="708.69116"
             ry="1.2613806" />
          <text
             xml:space="preserve"
             style="font-style:normal;font-variant:normal;font-weight:bold;font-stretch:normal;font-size:6.15623px;line-height:1.25;font-family:sans-serif;-inkscape-font-specification:'sans-serif Bold';letter-spacing:0px;word-spacing:0px;stroke-width:0.329797"
             x="36.559811"
             y="706.02197"
             id="text59786-9"><tspan
               sodipodi:role="line"
               id="tspan59784-1"
               style="font-style:normal;font-variant:normal;font-weight:bold;font-stretch:normal;font-family:sans-serif;-inkscape-font-specification:'sans-serif Bold';stroke-width:0.329797"
               x="36.559811"
               y="706.02197">6b+</tspan></text>
        </g>
        <rect
           style="fill:#cccccc;fill-opacity:1;stroke-width:1"
           id="rect63186-2"
           width="32.862503"
           height="4.9835205"
           x="54.472687"
           y="698.02704"
           ry="1.6649821" />
        <rect
           style="fill:none;fill-opacity:1;stroke:#333333;stroke-width:0.6;stroke-miterlimit:4;stroke-dasharray:none"
           id="rect75220-6"
           width="86.052422"
           height="32.724426"
           x="32.036274"
           y="692.67316"
           ry="4" />
        <path
           d="m 90.510195,707.8122 h 2.4463 v 2.44632 h -2.4463 v -2.44632 m 9.785195,-7.33889 h 2.4463 v 4.89258 h -2.4463 v -4.89258 m -2.446299,7.33889 h 4.892599 v 4.89258 h -2.4463 v -2.44626 h -2.446299 v -2.44632 m 7.338899,0 h 2.4463 v 2.44632 h 2.4463 v -2.44632 h 2.44629 v 2.44632 h -2.44629 v 2.44626 h 2.44629 v 4.89263 h -2.44629 v 2.44627 h -2.4463 v -2.44627 h -4.8926 v 2.44627 h -2.4463 v -4.89258 h 4.8926 v -2.44632 h 2.4463 v -2.44626 h -2.4463 v -2.44632 m 4.8926,9.78521 v -4.89263 h -2.4463 v 4.89263 h 2.4463 m -4.8926,-19.57042 h 7.33889 v 7.3389 h -7.33889 v -7.3389 m 2.4463,2.44632 v 2.44631 h 2.4463 v -2.44631 h -2.4463 m -17.124095,-2.44632 h 7.338896 v 7.3389 h -7.338896 v -7.3389 m 2.4463,2.44632 v 2.44631 h 2.4463 v -2.44631 h -2.4463 m -2.4463,12.23147 h 7.338896 v 7.3389 h -7.338896 v -7.3389 m 2.4463,2.44632 v 2.44631 h 2.4463 v -2.44631 z"
           id="path1371"
           style="stroke-width:1.22315" />
        <rect
           style="fill:#cccccc;fill-opacity:1;stroke-width:1"
           id="rect2777"
           width="23.299984"
           height="2.8901978"
           x="54.472687"
           y="705.9646"
           ry="1.4450842" />
        <rect
           style="fill:#cccccc;fill-opacity:1;stroke-width:1"
           id="rect2881"
           width="18.685577"
           height="2.8901978"
           x="54.472687"
           y="711.25629"
           ry="1.4450842" />
      </g>
      <g
         id="g3251"
         transform="translate(0,39.625651)">
        <rect
           style="fill:#5aa02c;fill-opacity:1;stroke-width:1"
           id="rect3245"
           width="12.760355"
           height="4.9835205"
           x="36.919514"
           y="708.69116"
           ry="1.2613806" />
        <text
           xml:space="preserve"
           style="font-style:normal;font-variant:normal;font-weight:bold;font-stretch:normal;font-size:6.15623px;line-height:1.25;font-family:sans-serif;-inkscape-font-specification:'sans-serif Bold';text-align:center;letter-spacing:0px;word-spacing:0px;text-anchor:middle;stroke-width:0.329797"
           x="42.967037"
           y="706.02197"
           id="text3249"><tspan
             sodipodi:role="line"
             id="tspan3247"
             style="font-style:normal;font-variant:normal;font-weight:bold;font-stretch:normal;font-family:sans-serif;-inkscape-font-specification:'sans-serif Bold';text-align:center;text-anchor:middle;stroke-width:0.329797"
             x="42.967037"
             y="706.02197">5c</tspan></text>
        <rect
           style="fill:#ff0000;fill-opacity:1;stroke-width:1"
           id="rect5847"
           width="12.760355"
           height="4.9835205"
           x="36.919514"
           y="746.79132"
           ry="1.2613806" />
        <text
           xml:space="preserve"
           style="font-style:normal;font-variant:normal;font-weight:bold;font-stretch:normal;font-size:6.15623px;line-height:1.25;font-family:sans-serif;-inkscape-font-specification:'sans-serif Bold';text-align:center;letter-spacing:0px;word-spacing:0px;text-anchor:middle;stroke-width:0.329797"
           x="42.967037"
           y="744.12213"
           id="text5851"><tspan
             sodipodi:role="line"
             id="tspan5849"
             style="font-style:normal;font-variant:normal;font-weight:bold;font-stretch:normal;font-family:sans-serif;-inkscape-font-specification:'sans-serif Bold';text-align:center;text-anchor:middle;stroke-width:0.329797"
             x="42.967037"
             y="744.12213">7a</tspan></text>
      </g>
      <g
         id="g7696"
         transform="translate(0,5.5960814e-5)">
        <rect
           style="fill:#cccccc;fill-opacity:1;stroke-width:1"
           id="rect3253"
           width="32.862503"
           height="4.9835205"
           x="54.472687"
           y="736.1272"
           ry="1.6649821" />
        <rect
           style="fill:none;fill-opacity:1;stroke:#333333;stroke-width:0.6;stroke-miterlimit:4;stroke-dasharray:none"
           id="rect3255"
           width="86.052422"
           height="32.724426"
           x="32.036274"
           y="730.77332"
           ry="4" />
        <path
           d="m 90.510195,745.91223 h 2.4463 v 2.44632 h -2.4463 v -2.44632 m 9.785195,-7.33889 h 2.4463 v 4.89258 h -2.4463 v -4.89258 m -2.446299,7.33889 h 4.892599 v 4.89258 h -2.4463 v -2.44626 h -2.446299 v -2.44632 m 7.338899,0 h 2.4463 v 2.44632 h 2.4463 v -2.44632 h 2.44629 v 2.44632 h -2.44629 v 2.44626 h 2.44629 v 4.89263 h -2.44629 v 2.44627 h -2.4463 v -2.44627 h -4.8926 v 2.44627 h -2.4463 v -4.89258 h 4.8926 v -2.44632 h 2.4463 v -2.44626 h -2.4463 v -2.44632 m 4.8926,9.78521 v -4.89263 h -2.4463 v 4.89263 h 2.4463 m -4.8926,-19.57042 h 7.33889 v 7.3389 h -7.33889 v -7.3389 m 2.4463,2.44632 v 2.44631 h 2.4463 v -2.44631 h -2.4463 m -17.124095,-2.44632 h 7.338896 v 7.3389 h -7.338896 v -7.3389 m 2.4463,2.44632 v 2.44631 h 2.4463 v -2.44631 h -2.4463 m -2.4463,12.23147 h 7.338896 v 7.3389 h -7.338896 v -7.3389 m 2.4463,2.44632 v 2.44631 h 2.4463 v -2.44631 z"
           id="path3257"
           style="stroke-width:1.22315" />
        <rect
           style="fill:#cccccc;fill-opacity:1;stroke-width:1"
           id="rect3259"
           width="23.299984"
           height="2.8901978"
           x="54.472687"
           y="744.06476"
           ry="1.4450842" />
        <rect
           style="fill:#cccccc;fill-opacity:1;stroke-width:1"
           id="rect3261"
           width="18.685577"
           height="2.8901978"
           x="54.472687"
           y="749.35645"
           ry="1.4450842" />
      </g>
      <g
         id="g7703"
         transform="translate(0,9.1056029e-5)">
        <rect
           style="fill:#cccccc;fill-opacity:1;stroke-width:1"
           id="rect5853"
           width="32.862503"
           height="4.9835205"
           x="54.472687"
           y="774.22736"
           ry="1.6649821" />
        <rect
           style="fill:none;fill-opacity:1;stroke:#333333;stroke-width:0.6;stroke-miterlimit:4;stroke-dasharray:none"
           id="rect5855"
           width="86.052422"
           height="32.724426"
           x="32.036274"
           y="768.87347"
           ry="4" />
        <path
           d="m 90.510195,784.01226 h 2.4463 v 2.44632 h -2.4463 v -2.44632 m 9.785195,-7.33889 h 2.4463 v 4.89258 h -2.4463 v -4.89258 m -2.446299,7.33889 h 4.892599 v 4.89258 h -2.4463 v -2.44626 h -2.446299 v -2.44632 m 7.338899,0 h 2.4463 v 2.44632 h 2.4463 v -2.44632 h 2.44629 v 2.44632 h -2.44629 v 2.44626 h 2.44629 v 4.89263 h -2.44629 v 2.44627 h -2.4463 v -2.44627 h -4.8926 v 2.44627 h -2.4463 v -4.89258 h 4.8926 v -2.44632 h 2.4463 v -2.44626 h -2.4463 v -2.44632 m 4.8926,9.78521 v -4.89263 h -2.4463 v 4.89263 h 2.4463 m -4.8926,-19.57042 h 7.33889 v 7.3389 h -7.33889 v -7.3389 m 2.4463,2.44632 v 2.44631 h 2.4463 v -2.44631 h -2.4463 m -17.124095,-2.44632 h 7.338896 v 7.3389 h -7.338896 v -7.3389 m 2.4463,2.44632 v 2.44631 h 2.4463 v -2.44631 h -2.4463 m -2.4463,12.23147 h 7.338896 v 7.3389 h -7.338896 v -7.3389 m 2.4463,2.44632 v 2.44631 h 2.4463 v -2.44631 z"
           id="path5857"
           style="stroke-width:1.22315" />
        <rect
           style="fill:#cccccc;fill-opacity:1;stroke-width:1"
           id="rect5859"
           width="23.299984"
           height="2.8901978"
           x="54.472687"
           y="782.16492"
           ry="1.4450842" />
        <rect
           style="fill:#cccccc;fill-opacity:1;stroke-width:1"
           id="rect5861"
           width="18.685577"
           height="2.8901978"
           x="54.472687"
           y="787.4566"
           ry="1.4450842" />
      </g>
      <rect
         style="opacity:0.15;fill:#000000;fill-opacity:1;stroke-width:1;filter:url(#filter79574-7)"
         id="rect7811"
         width="95.672577"
         height="119.92439"
         x="59.602699"
         y="701.55829"
         ry="7.4945035" />
      <rect
         style="fill:#ffffff;fill-opacity:1;stroke-width:1"
         id="rect7813"
         width="95.772095"
         height="118.64447"
         x="59.552944"
         y="702.19824"
         ry="7.4945035" />
      <g
         id="g7833"
         transform="translate(32.279168,14.28752)">
        <g
           id="g7821"
           transform="translate(0,1.525649)">
          <rect
             style="fill:#d400aa;fill-opacity:1;stroke-width:1"
             id="rect7815"
             width="12.760355"
             height="4.9835205"
             x="36.919514"
             y="708.69116"
             ry="1.2613806" />
          <text
             xml:space="preserve"
             style="font-style:normal;font-variant:normal;font-weight:bold;font-stretch:normal;font-size:6.15623px;line-height:1.25;font-family:sans-serif;-inkscape-font-specification:'sans-serif Bold';text-align:center;letter-spacing:0px;word-spacing:0px;text-anchor:middle;stroke-width:0.329797"
             x="43.434959"
             y="706.02197"
             id="text7819"><tspan
               sodipodi:role="line"
               id="tspan7817"
               style="font-style:normal;font-variant:normal;font-weight:bold;font-stretch:normal;font-family:sans-serif;-inkscape-font-specification:'sans-serif Bold';text-align:center;text-anchor:middle;stroke-width:0.329797"
               x="43.434959"
               y="706.02197">3a</tspan></text>
        </g>
        <rect
           style="fill:#cccccc;fill-opacity:1;stroke-width:1"
           id="rect7823"
           width="32.862503"
           height="4.9835205"
           x="54.472687"
           y="698.02704"
           ry="1.6649821" />
        <rect
           style="fill:none;fill-opacity:1;stroke:#333333;stroke-width:0.6;stroke-miterlimit:4;stroke-dasharray:none"
           id="rect7825"
           width="86.052422"
           height="32.724426"
           x="32.036274"
           y="692.67316"
           ry="4" />
        <path
           d="m 90.510195,707.8122 h 2.4463 v 2.44632 h -2.4463 v -2.44632 m 9.785195,-7.33889 h 2.4463 v 4.89258 h -2.4463 v -4.89258 m -2.446299,7.33889 h 4.892599 v 4.89258 h -2.4463 v -2.44626 h -2.446299 v -2.44632 m 7.338899,0 h 2.4463 v 2.44632 h 2.4463 v -2.44632 h 2.44629 v 2.44632 h -2.44629 v 2.44626 h 2.44629 v 4.89263 h -2.44629 v 2.44627 h -2.4463 v -2.44627 h -4.8926 v 2.44627 h -2.4463 v -4.89258 h 4.8926 v -2.44632 h 2.4463 v -2.44626 h -2.4463 v -2.44632 m 4.8926,9.78521 v -4.89263 h -2.4463 v 4.89263 h 2.4463 m -4.8926,-19.57042 h 7.33889 v 7.3389 h -7.33889 v -7.3389 m 2.4463,2.44632 v 2.44631 h 2.4463 v -2.44631 h -2.4463 m -17.124095,-2.44632 h 7.338896 v 7.3389 h -7.338896 v -7.3389 m 2.4463,2.44632 v 2.44631 h 2.4463 v -2.44631 h -2.4463 m -2.4463,12.23147 h 7.338896 v 7.3389 h -7.338896 v -7.3389 m 2.4463,2.44632 v 2.44631 h 2.4463 v -2.44631 z"
           id="path7827"
           style="stroke-width:1.22315" />
        <rect
           style="fill:#cccccc;fill-opacity:1;stroke-width:1"
           id="rect7829"
           width="23.299984"
           height="2.8901978"
           x="54.472687"
           y="705.9646"
           ry="1.4450842" />
        <rect
           style="fill:#cccccc;fill-opacity:1;stroke-width:1"
           id="rect7831"
           width="18.685577"
           height="2.8901978"
           x="54.472687"
           y="711.25629"
           ry="1.4450842" />
      </g>
      <rect
         style="fill:#ff0000;fill-opacity:1;stroke-width:1"
         id="rect7835"
         width="12.760355"
         height="4.9835205"
         x="69.198685"
         y="762.60431"
         ry="1.2613806" />
      <text
         xml:space="preserve"
         style="font-style:normal;font-variant:normal;font-weight:bold;font-stretch:normal;font-size:6.15623px;line-height:1.25;font-family:sans-serif;-inkscape-font-specification:'sans-serif Bold';text-align:center;letter-spacing:0px;word-spacing:0px;text-anchor:middle;stroke-width:0.329797"
         x="75.246208"
         y="759.93512"
         id="text7839"><tspan
           sodipodi:role="line"
           id="tspan7837"
           style="font-style:normal;font-variant:normal;font-weight:bold;font-stretch:normal;font-family:sans-serif;-inkscape-font-specification:'sans-serif Bold';text-align:center;text-anchor:middle;stroke-width:0.329797"
           x="75.246208"
           y="759.93512">6c+</tspan></text>
      <rect
         style="fill:#000000;fill-opacity:1;stroke-width:1"
         id="rect7841"
         width="12.760355"
         height="4.9835205"
         x="69.198685"
         y="800.70447"
         ry="1.2613806" />
      <text
         xml:space="preserve"
         style="font-style:normal;font-variant:normal;font-weight:bold;font-stretch:normal;font-size:6.15623px;line-height:1.25;font-family:sans-serif;-inkscape-font-specification:'sans-serif Bold';text-align:center;letter-spacing:0px;word-spacing:0px;text-anchor:middle;stroke-width:0.329797"
         x="75.246208"
         y="798.03528"
         id="text7845"><tspan
           sodipodi:role="line"
           id="tspan7843"
           style="font-style:normal;font-variant:normal;font-weight:bold;font-stretch:normal;font-family:sans-serif;-inkscape-font-specification:'sans-serif Bold';text-align:center;text-anchor:middle;stroke-width:0.329797"
           x="75.246208"
           y="798.03528">7b</tspan></text>
      <g
         id="g7859"
         transform="translate(32.279168,14.287555)">
        <rect
           style="fill:#cccccc;fill-opacity:1;stroke-width:1"
           id="rect7849"
           width="32.862503"
           height="4.9835205"
           x="54.472687"
           y="736.1272"
           ry="1.6649821" />
        <rect
           style="fill:none;fill-opacity:1;stroke:#333333;stroke-width:0.6;stroke-miterlimit:4;stroke-dasharray:none"
           id="rect7851"
           width="86.052422"
           height="32.724426"
           x="32.036274"
           y="730.77332"
           ry="4" />
        <path
           d="m 90.510195,745.91223 h 2.4463 v 2.44632 h -2.4463 v -2.44632 m 9.785195,-7.33889 h 2.4463 v 4.89258 h -2.4463 v -4.89258 m -2.446299,7.33889 h 4.892599 v 4.89258 h -2.4463 v -2.44626 h -2.446299 v -2.44632 m 7.338899,0 h 2.4463 v 2.44632 h 2.4463 v -2.44632 h 2.44629 v 2.44632 h -2.44629 v 2.44626 h 2.44629 v 4.89263 h -2.44629 v 2.44627 h -2.4463 v -2.44627 h -4.8926 v 2.44627 h -2.4463 v -4.89258 h 4.8926 v -2.44632 h 2.4463 v -2.44626 h -2.4463 v -2.44632 m 4.8926,9.78521 v -4.89263 h -2.4463 v 4.89263 h 2.4463 m -4.8926,-19.57042 h 7.33889 v 7.3389 h -7.33889 v -7.3389 m 2.4463,2.44632 v 2.44631 h 2.4463 v -2.44631 h -2.4463 m -17.124095,-2.44632 h 7.338896 v 7.3389 h -7.338896 v -7.3389 m 2.4463,2.44632 v 2.44631 h 2.4463 v -2.44631 h -2.4463 m -2.4463,12.23147 h 7.338896 v 7.3389 h -7.338896 v -7.3389 m 2.4463,2.44632 v 2.44631 h 2.4463 v -2.44631 z"
           id="path7853"
           style="stroke-width:1.22315" />
        <rect
           style="fill:#cccccc;fill-opacity:1;stroke-width:1"
           id="rect7855"
           width="23.299984"
           height="2.8901978"
           x="54.472687"
           y="744.06476"
           ry="1.4450842" />
        <rect
           style="fill:#cccccc;fill-opacity:1;stroke-width:1"
           id="rect7857"
           width="18.685577"
           height="2.8901978"
           x="54.472687"
           y="749.35645"
           ry="1.4450842" />
      </g>
      <g
         id="g7871"
         transform="translate(32.279168,14.28759)">
        <rect
           style="fill:#cccccc;fill-opacity:1;stroke-width:1"
           id="rect7861"
           width="32.862503"
           height="4.9835205"
           x="54.472687"
           y="774.22736"
           ry="1.6649821" />
        <rect
           style="fill:none;fill-opacity:1;stroke:#333333;stroke-width:0.6;stroke-miterlimit:4;stroke-dasharray:none"
           id="rect7863"
           width="86.052422"
           height="32.724426"
           x="32.036274"
           y="768.87347"
           ry="4" />
        <path
           d="m 90.510195,784.01226 h 2.4463 v 2.44632 h -2.4463 v -2.44632 m 9.785195,-7.33889 h 2.4463 v 4.89258 h -2.4463 v -4.89258 m -2.446299,7.33889 h 4.892599 v 4.89258 h -2.4463 v -2.44626 h -2.446299 v -2.44632 m 7.338899,0 h 2.4463 v 2.44632 h 2.4463 v -2.44632 h 2.44629 v 2.44632 h -2.44629 v 2.44626 h 2.44629 v 4.89263 h -2.44629 v 2.44627 h -2.4463 v -2.44627 h -4.8926 v 2.44627 h -2.4463 v -4.89258 h 4.8926 v -2.44632 h 2.4463 v -2.44626 h -2.4463 v -2.44632 m 4.8926,9.78521 v -4.89263 h -2.4463 v 4.89263 h 2.4463 m -4.8926,-19.57042 h 7.33889 v 7.3389 h -7.33889 v -7.3389 m 2.4463,2.44632 v 2.44631 h 2.4463 v -2.44631 h -2.4463 m -17.124095,-2.44632 h 7.338896 v 7.3389 h -7.338896 v -7.3389 m 2.4463,2.44632 v 2.44631 h 2.4463 v -2.44631 h -2.4463 m -2.4463,12.23147 h 7.338896 v 7.3389 h -7.338896 v -7.3389 m 2.4463,2.44632 v 2.44631 h 2.4463 v -2.44631 z"
           id="path7865"
           style="stroke-width:1.22315" />
        <rect
           style="fill:#cccccc;fill-opacity:1;stroke-width:1"
           id="rect7867"
           width="23.299984"
           height="2.8901978"
           x="54.472687"
           y="782.16492"
           ry="1.4450842" />
        <rect
           style="fill:#cccccc;fill-opacity:1;stroke-width:1"
           id="rect7869"
           width="18.685577"
           height="2.8901978"
           x="54.472687"
           y="787.4566"
           ry="1.4450842" />
      </g>
      <rect
         style="opacity:0.15;fill:#000000;fill-opacity:1;stroke-width:1;filter:url(#filter79574-7)"
         id="rect18028"
         width="95.672577"
         height="119.92439"
         x="91.881874"
         y="715.84576"
         ry="7.4945035" />
      <rect
         style="fill:#ffffff;fill-opacity:1;stroke-width:1"
         id="rect18030"
         width="95.772095"
         height="118.64447"
         x="91.832115"
         y="716.48572"
         ry="7.4945035" />
      <g
         id="g18050"
         transform="translate(64.558336,28.57502)">
        <g
           id="g18038"
           transform="translate(0,1.525649)">
          <rect
             style="fill:#5aa02c;fill-opacity:1;stroke-width:1"
             id="rect18032"
             width="12.760355"
             height="4.9835205"
             x="36.919514"
             y="708.69116"
             ry="1.2613806" />
          <text
             xml:space="preserve"
             style="font-style:normal;font-variant:normal;font-weight:bold;font-stretch:normal;font-size:6.15623px;line-height:1.25;font-family:sans-serif;-inkscape-font-specification:'sans-serif Bold';text-align:center;letter-spacing:0px;word-spacing:0px;text-anchor:middle;stroke-width:0.329797"
             x="43.434959"
             y="706.02197"
             id="text18036"><tspan
               sodipodi:role="line"
               id="tspan18034"
               style="font-style:normal;font-variant:normal;font-weight:bold;font-stretch:normal;font-family:sans-serif;-inkscape-font-specification:'sans-serif Bold';text-align:center;text-anchor:middle;stroke-width:0.329797"
               x="43.434959"
               y="706.02197">5b</tspan></text>
        </g>
        <rect
           style="fill:#cccccc;fill-opacity:1;stroke-width:1"
           id="rect18040"
           width="32.862503"
           height="4.9835205"
           x="54.472687"
           y="698.02704"
           ry="1.6649821" />
        <rect
           style="fill:none;fill-opacity:1;stroke:#333333;stroke-width:0.6;stroke-miterlimit:4;stroke-dasharray:none"
           id="rect18042"
           width="86.052422"
           height="32.724426"
           x="32.036274"
           y="692.67316"
           ry="4" />
        <path
           d="m 90.510195,707.8122 h 2.4463 v 2.44632 h -2.4463 v -2.44632 m 9.785195,-7.33889 h 2.4463 v 4.89258 h -2.4463 v -4.89258 m -2.446299,7.33889 h 4.892599 v 4.89258 h -2.4463 v -2.44626 h -2.446299 v -2.44632 m 7.338899,0 h 2.4463 v 2.44632 h 2.4463 v -2.44632 h 2.44629 v 2.44632 h -2.44629 v 2.44626 h 2.44629 v 4.89263 h -2.44629 v 2.44627 h -2.4463 v -2.44627 h -4.8926 v 2.44627 h -2.4463 v -4.89258 h 4.8926 v -2.44632 h 2.4463 v -2.44626 h -2.4463 v -2.44632 m 4.8926,9.78521 v -4.89263 h -2.4463 v 4.89263 h 2.4463 m -4.8926,-19.57042 h 7.33889 v 7.3389 h -7.33889 v -7.3389 m 2.4463,2.44632 v 2.44631 h 2.4463 v -2.44631 h -2.4463 m -17.124095,-2.44632 h 7.338896 v 7.3389 h -7.338896 v -7.3389 m 2.4463,2.44632 v 2.44631 h 2.4463 v -2.44631 h -2.4463 m -2.4463,12.23147 h 7.338896 v 7.3389 h -7.338896 v -7.3389 m 2.4463,2.44632 v 2.44631 h 2.4463 v -2.44631 z"
           id="path18044"
           style="stroke-width:1.22315" />
        <rect
           style="fill:#cccccc;fill-opacity:1;stroke-width:1"
           id="rect18046"
           width="23.299984"
           height="2.8901978"
           x="54.472687"
           y="705.9646"
           ry="1.4450842" />
        <rect
           style="fill:#cccccc;fill-opacity:1;stroke-width:1"
           id="rect18048"
           width="18.685577"
           height="2.8901978"
           x="54.472687"
           y="711.25629"
           ry="1.4450842" />
      </g>
      <rect
         style="fill:#0055d4;fill-opacity:1;stroke-width:1"
         id="rect18052"
         width="12.760355"
         height="4.9835205"
         x="101.47785"
         y="776.89178"
         ry="1.2613806" />
      <text
         xml:space="preserve"
         style="font-style:normal;font-variant:normal;font-weight:bold;font-stretch:normal;font-size:6.15623px;line-height:1.25;font-family:sans-serif;-inkscape-font-specification:'sans-serif Bold';text-align:center;letter-spacing:0px;word-spacing:0px;text-anchor:middle;stroke-width:0.329797"
         x="107.52538"
         y="774.2226"
         id="text18056"><tspan
           sodipodi:role="line"
           id="tspan18054"
           style="font-style:normal;font-variant:normal;font-weight:bold;font-stretch:normal;font-family:sans-serif;-inkscape-font-specification:'sans-serif Bold';text-align:center;text-anchor:middle;stroke-width:0.329797"
           x="107.52538"
           y="774.2226">6a</tspan></text>
      <rect
         style="fill:#ffcc00;fill-opacity:1;stroke-width:1"
         id="rect18058"
         width="12.760355"
         height="4.9835205"
         x="101.47785"
         y="814.99194"
         ry="1.2613806" />
      <text
         xml:space="preserve"
         style="font-style:normal;font-variant:normal;font-weight:bold;font-stretch:normal;font-size:6.15623px;line-height:1.25;font-family:sans-serif;-inkscape-font-specification:'sans-serif Bold';text-align:center;letter-spacing:0px;word-spacing:0px;text-anchor:middle;stroke-width:0.329797"
         x="107.52538"
         y="812.32275"
         id="text18062"><tspan
           sodipodi:role="line"
           id="tspan18060"
           style="font-style:normal;font-variant:normal;font-weight:bold;font-stretch:normal;font-family:sans-serif;-inkscape-font-specification:'sans-serif Bold';text-align:center;text-anchor:middle;stroke-width:0.329797"
           x="107.52538"
           y="812.32275">4c</tspan></text>
      <g
         id="g18074"
         transform="translate(64.558336,28.575055)">
        <rect
           style="fill:#cccccc;fill-opacity:1;stroke-width:1"
           id="rect18064"
           width="32.862503"
           height="4.9835205"
           x="54.472687"
           y="736.1272"
           ry="1.6649821" />
        <rect
           style="fill:none;fill-opacity:1;stroke:#333333;stroke-width:0.6;stroke-miterlimit:4;stroke-dasharray:none"
           id="rect18066"
           width="86.052422"
           height="32.724426"
           x="32.036274"
           y="730.77332"
           ry="4" />
        <path
           d="m 90.510195,745.91223 h 2.4463 v 2.44632 h -2.4463 v -2.44632 m 9.785195,-7.33889 h 2.4463 v 4.89258 h -2.4463 v -4.89258 m -2.446299,7.33889 h 4.892599 v 4.89258 h -2.4463 v -2.44626 h -2.446299 v -2.44632 m 7.338899,0 h 2.4463 v 2.44632 h 2.4463 v -2.44632 h 2.44629 v 2.44632 h -2.44629 v 2.44626 h 2.44629 v 4.89263 h -2.44629 v 2.44627 h -2.4463 v -2.44627 h -4.8926 v 2.44627 h -2.4463 v -4.89258 h 4.8926 v -2.44632 h 2.4463 v -2.44626 h -2.4463 v -2.44632 m 4.8926,9.78521 v -4.89263 h -2.4463 v 4.89263 h 2.4463 m -4.8926,-19.57042 h 7.33889 v 7.3389 h -7.33889 v -7.3389 m 2.4463,2.44632 v 2.44631 h 2.4463 v -2.44631 h -2.4463 m -17.124095,-2.44632 h 7.338896 v 7.3389 h -7.338896 v -7.3389 m 2.4463,2.44632 v 2.44631 h 2.4463 v -2.44631 h -2.4463 m -2.4463,12.23147 h 7.338896 v 7.3389 h -7.338896 v -7.3389 m 2.4463,2.44632 v 2.44631 h 2.4463 v -2.44631 z"
           id="path18068"
           style="stroke-width:1.22315" />
        <rect
           style="fill:#cccccc;fill-opacity:1;stroke-width:1"
           id="rect18070"
           width="23.299984"
           height="2.8901978"
           x="54.472687"
           y="744.06476"
           ry="1.4450842" />
        <rect
           style="fill:#cccccc;fill-opacity:1;stroke-width:1"
           id="rect18072"
           width="18.685577"
           height="2.8901978"
           x="54.472687"
           y="749.35645"
           ry="1.4450842" />
      </g>
      <g
         id="g18086"
         transform="translate(64.558336,28.57509)">
        <rect
           style="fill:#cccccc;fill-opacity:1;stroke-width:1"
           id="rect18076"
           width="32.862503"
           height="4.9835205"
           x="54.472687"
           y="774.22736"
           ry="1.6649821" />
        <rect
           style="fill:none;fill-opacity:1;stroke:#333333;stroke-width:0.6;stroke-miterlimit:4;stroke-dasharray:none"
           id="rect18078"
           width="86.052422"
           height="32.724426"
           x="32.036274"
           y="768.87347"
           ry="4" />
        <path
           d="m 90.510195,784.01226 h 2.4463 v 2.44632 h -2.4463 v -2.44632 m 9.785195,-7.33889 h 2.4463 v 4.89258 h -2.4463 v -4.89258 m -2.446299,7.33889 h 4.892599 v 4.89258 h -2.4463 v -2.44626 h -2.446299 v -2.44632 m 7.338899,0 h 2.4463 v 2.44632 h 2.4463 v -2.44632 h 2.44629 v 2.44632 h -2.44629 v 2.44626 h 2.44629 v 4.89263 h -2.44629 v 2.44627 h -2.4463 v -2.44627 h -4.8926 v 2.44627 h -2.4463 v -4.89258 h 4.8926 v -2.44632 h 2.4463 v -2.44626 h -2.4463 v -2.44632 m 4.8926,9.78521 v -4.89263 h -2.4463 v 4.89263 h 2.4463 m -4.8926,-19.57042 h 7.33889 v 7.3389 h -7.33889 v -7.3389 m 2.4463,2.44632 v 2.44631 h 2.4463 v -2.44631 h -2.4463 m -17.124095,-2.44632 h 7.338896 v 7.3389 h -7.338896 v -7.3389 m 2.4463,2.44632 v 2.44631 h 2.4463 v -2.44631 h -2.4463 m -2.4463,12.23147 h 7.338896 v 7.3389 h -7.338896 v -7.3389 m 2.4463,2.44632 v 2.44631 h 2.4463 v -2.44631 z"
           id="path18080"
           style="stroke-width:1.22315" />
        <rect
           style="fill:#cccccc;fill-opacity:1;stroke-width:1"
           id="rect18082"
           width="23.299984"
           height="2.8901978"
           x="54.472687"
           y="782.16492"
           ry="1.4450842" />
        <rect
           style="fill:#cccccc;fill-opacity:1;stroke-width:1"
           id="rect18084"
           width="18.685577"
           height="2.8901978"
           x="54.472687"
           y="787.4566"
           ry="1.4450842" />
      </g>
    </g>
  </g>
</svg>
