<?xml version="1.0" encoding="UTF-8" standalone="no"?>
<svg
   version="1.1"
   id="svg9697"
   viewBox="0 0 284.27238 140.39783"
   height="39.623386mm"
   width="80.227982mm"
   sodipodi:docname="crags-info.svg"
   inkscape:version="1.3.2 (091e20ef0f, 2023-11-25)"
   xmlns:inkscape="http://www.inkscape.org/namespaces/inkscape"
   xmlns:sodipodi="http://sodipodi.sourceforge.net/DTD/sodipodi-0.dtd"
   xmlns="http://www.w3.org/2000/svg"
   xmlns:svg="http://www.w3.org/2000/svg"
   xmlns:rdf="http://www.w3.org/1999/02/22-rdf-syntax-ns#"
   xmlns:cc="http://creativecommons.org/ns#"
   xmlns:dc="http://purl.org/dc/elements/1.1/">
  <sodipodi:namedview
     id="namedview1"
     pagecolor="#505050"
     bordercolor="#eeeeee"
     borderopacity="1"
     inkscape:showpageshadow="0"
     inkscape:pageopacity="0"
     inkscape:pagecheckerboard="0"
     inkscape:deskcolor="#505050"
     inkscape:document-units="mm"
     inkscape:zoom="2.7772436"
     inkscape:cx="133.94576"
     inkscape:cy="93.618004"
     inkscape:window-width="1920"
     inkscape:window-height="1136"
     inkscape:window-x="0"
     inkscape:window-y="0"
     inkscape:window-maximized="1"
     inkscape:current-layer="svg9697" />
  <defs
     id="defs9699" />
  <metadata
     id="metadata9702">
    <rdf:RDF>
      <cc:Work
         rdf:about="">
        <dc:format>image/svg+xml</dc:format>
        <dc:type
           rdf:resource="http://purl.org/dc/dcmitype/StillImage" />
        <dc:title />
      </cc:Work>
    </rdf:RDF>
  </metadata>
  <g
     id="g7195"
     transform="translate(-53.08759,-24.655396)">
    <path
       id="path7371"
       d="M 337.35966,123.50239 H 53.08759 c -0.0016,22.18953 63.63575,41.55092 142.13657,41.55083 78.5004,-7e-5 142.137,-19.36142 142.1355,-41.55083 z"
       style="opacity:1;fill:#502d16;fill-opacity:1;stroke:none" />
    <ellipse
       ry="30.291269"
       rx="142.13596"
       cy="123.50235"
       cx="195.224"
       id="path7223"
       style="opacity:1;fill:#2ca05a;fill-opacity:1;stroke:none" />
  </g>
  <g
     id="g7264"
     transform="matrix(0.32256265,0,0,0.32256265,51.91802,-86.369906)">
    <path
       style="opacity:1;fill:#374845;fill-rule:evenodd;stroke:none;stroke-width:1px;stroke-linecap:butt;stroke-linejoin:miter;stroke-opacity:1"
       d="m 342.85714,553.79078 h 240 L 498.41797,407.88672 462.9024,369.7324 422.64062,416.03516 Z"
       id="path7266" />
    <path
       style="fill:#374845;fill-opacity:1;fill-rule:evenodd;stroke:none;stroke-width:1px;stroke-linecap:butt;stroke-linejoin:miter;stroke-opacity:1"
       d="m 403.83203,553.79102 h 56.71875 L 435.24609,461.8457 Z"
       id="path7268" />
    <path
       style="fill:#30423f;fill-opacity:1;fill-rule:evenodd;stroke:none;stroke-width:1px;stroke-linecap:butt;stroke-linejoin:miter;stroke-opacity:1"
       d="m 422.64062,416.03516 -13.1914,22.77734 9.43164,70.92969 16.36523,-47.89649 z"
       id="path7270" />
    <path
       style="fill:#374845;fill-opacity:1;fill-rule:evenodd;stroke:none;stroke-width:1px;stroke-linecap:butt;stroke-linejoin:miter;stroke-opacity:1"
       d="m 409.45117,438.80859 -66.59375,114.98243 h 0.44531 l 71.87891,-71.88086 z"
       id="path7272" />
    <path
       style="fill:#445653;fill-opacity:1;fill-rule:evenodd;stroke:none;stroke-width:1px;stroke-linecap:butt;stroke-linejoin:miter;stroke-opacity:1"
       d="m 343.30078,553.79102 h 60.53125 l 15.04883,-44.04883 -3.69922,-27.83203 z"
       id="path7274" />
    <path
       style="fill:#50625f;fill-opacity:1;fill-rule:evenodd;stroke:none;stroke-width:1px;stroke-linecap:butt;stroke-linejoin:miter;stroke-opacity:1"
       d="m 447.63556,393.32311 -24.99689,22.714 28.36524,103.06641 34.58984,-68.43164 z"
       id="path7276" />
    <path
       style="fill:#30423f;fill-opacity:1;fill-rule:evenodd;stroke:none;stroke-width:1px;stroke-linecap:butt;stroke-linejoin:miter;stroke-opacity:1"
       d="m 460.55078,553.79102 h 56.67969 l 16.48242,-30.41407 -48.11914,-72.70507 -34.58984,68.43164 z"
       id="path7278" />
    <path
       style="fill:#374845;fill-opacity:1;fill-rule:evenodd;stroke:none;stroke-width:1px;stroke-linecap:butt;stroke-linejoin:miter;stroke-opacity:1"
       d="m 517.23047,553.79102 h 36.61328 l -20.13086,-30.41407 z"
       id="path7280" />
    <path
       style="fill:#30423f;fill-opacity:1;fill-rule:evenodd;stroke:none;stroke-width:1px;stroke-linecap:butt;stroke-linejoin:miter;stroke-opacity:1"
       d="m 553.84375,553.79102 h 29.01367 l -19.05078,-32.91797 -19.10547,19.10547 z"
       id="path7282" />
    <path
       style="fill:#445653;fill-opacity:1;fill-rule:evenodd;stroke:none;stroke-width:1px;stroke-linecap:butt;stroke-linejoin:miter;stroke-opacity:1"
       d="m 477.76758,407.36133 -23.622,-4.20234 90.55559,136.81953 19.10547,-19.10547 -65.38867,-112.98633 -9.93555,16.43945 z"
       id="path7284" />
    <path
       style="fill:#e6e6e6;fill-opacity:1;fill-rule:evenodd;stroke:none;stroke-width:1px;stroke-linecap:butt;stroke-linejoin:miter;stroke-opacity:1"
       d="m 498.41797,407.88672 -35.51563,-61.36914 -40.26367,69.52148 5.84375,6.85938 9.10742,-15.625 10.44532,17.14258 10,-17.76758 10.17968,17.76758 9.55274,-17.05469 10.71484,16.96484 z"
       id="path7286" />
  </g>
  <g
     transform="matrix(0.43312199,0,0,0.43312199,-109.71482,-137.30209)"
     id="g7288">
    <path
       id="path7290"
       d="m 342.85714,553.79078 h 240 L 498.41797,407.88672 462.9024,369.7324 422.64062,416.03516 Z"
       style="opacity:1;fill:#374845;fill-rule:evenodd;stroke:none;stroke-width:1px;stroke-linecap:butt;stroke-linejoin:miter;stroke-opacity:1" />
    <path
       id="path7292"
       d="m 403.83203,553.79102 h 56.71875 L 435.24609,461.8457 Z"
       style="fill:#374845;fill-opacity:1;fill-rule:evenodd;stroke:none;stroke-width:1px;stroke-linecap:butt;stroke-linejoin:miter;stroke-opacity:1" />
    <path
       id="path7294"
       d="m 422.64062,416.03516 -13.1914,22.77734 9.43164,70.92969 16.36523,-47.89649 z"
       style="fill:#30423f;fill-opacity:1;fill-rule:evenodd;stroke:none;stroke-width:1px;stroke-linecap:butt;stroke-linejoin:miter;stroke-opacity:1" />
    <path
       id="path7296"
       d="m 409.45117,438.80859 -66.59375,114.98243 h 0.44531 l 71.87891,-71.88086 z"
       style="fill:#374845;fill-opacity:1;fill-rule:evenodd;stroke:none;stroke-width:1px;stroke-linecap:butt;stroke-linejoin:miter;stroke-opacity:1" />
    <path
       id="path7298"
       d="m 343.30078,553.79102 h 60.53125 l 15.04883,-44.04883 -3.69922,-27.83203 z"
       style="fill:#445653;fill-opacity:1;fill-rule:evenodd;stroke:none;stroke-width:1px;stroke-linecap:butt;stroke-linejoin:miter;stroke-opacity:1" />
    <path
       id="path7300"
       d="m 447.63556,393.32311 -24.99689,22.714 28.36524,103.06641 34.58984,-68.43164 z"
       style="fill:#50625f;fill-opacity:1;fill-rule:evenodd;stroke:none;stroke-width:1px;stroke-linecap:butt;stroke-linejoin:miter;stroke-opacity:1" />
    <path
       id="path7302"
       d="m 460.55078,553.79102 h 56.67969 l 16.48242,-30.41407 -48.11914,-72.70507 -34.58984,68.43164 z"
       style="fill:#30423f;fill-opacity:1;fill-rule:evenodd;stroke:none;stroke-width:1px;stroke-linecap:butt;stroke-linejoin:miter;stroke-opacity:1" />
    <path
       id="path7304"
       d="m 517.23047,553.79102 h 36.61328 l -20.13086,-30.41407 z"
       style="fill:#374845;fill-opacity:1;fill-rule:evenodd;stroke:none;stroke-width:1px;stroke-linecap:butt;stroke-linejoin:miter;stroke-opacity:1" />
    <path
       id="path7306"
       d="m 553.84375,553.79102 h 29.01367 l -19.05078,-32.91797 -19.10547,19.10547 z"
       style="fill:#30423f;fill-opacity:1;fill-rule:evenodd;stroke:none;stroke-width:1px;stroke-linecap:butt;stroke-linejoin:miter;stroke-opacity:1" />
    <path
       id="path7308"
       d="m 477.76758,407.36133 -23.622,-4.20234 90.55559,136.81953 19.10547,-19.10547 -65.38867,-112.98633 -9.93555,16.43945 z"
       style="fill:#445653;fill-opacity:1;fill-rule:evenodd;stroke:none;stroke-width:1px;stroke-linecap:butt;stroke-linejoin:miter;stroke-opacity:1" />
    <path
       id="path7310"
       d="m 498.41797,407.88672 -35.51563,-61.36914 -40.26367,69.52148 5.84375,6.85938 9.10742,-15.625 10.44532,17.14258 10,-17.76758 10.17968,17.76758 9.55274,-17.05469 10.71484,16.96484 z"
       style="fill:#e6e6e6;fill-opacity:1;fill-rule:evenodd;stroke:none;stroke-width:1px;stroke-linecap:butt;stroke-linejoin:miter;stroke-opacity:1" />
  </g>
  <path
     style="fill:#ffffff;fill-opacity:0.592417;fill-rule:evenodd;stroke:none;stroke-width:1px;stroke-linecap:butt;stroke-linejoin:miter;stroke-opacity:1"
     d="M 44.500254,53.005288 C 33.439648,49.353972 41.664131,31.987373 54.72928,44.973102 c 6.36167,-5.831434 12.72335,-5.907914 19.08502,-0.205949 4.19781,-3.627931 9.87443,-8.372302 19.42828,0.137298 3.91643,-4.401569 11.41372,-8.285692 19.85111,0.13192 6.70067,-7.044693 13.288,-5.816118 19.80584,0.485439 11.37906,0.90266 2.47996,22.291262 -10.09709,7.378643 -5.54309,5.219153 -11.46859,8.597878 -19.90292,-0.09709 -5.97573,5.5181 -12.26517,7.764544 -19.51457,0 -5.16471,4.815208 -10.56087,8.762431 -19.3204,0.09709 -6.49003,7.113198 -13.07879,6.542346 -19.564296,0.104835 z"
     id="path7179" />
  <g
     id="g7251"
     transform="matrix(0.54368946,0,0,0.54368946,-104.70622,-188.39796)">
    <path
       id="path6248"
       d="m 342.85714,553.79078 h 240 L 498.41797,407.88672 462.9024,369.7324 422.64062,416.03516 Z"
       style="opacity:1;fill:#374845;fill-rule:evenodd;stroke:none;stroke-width:1px;stroke-linecap:butt;stroke-linejoin:miter;stroke-opacity:1" />
    <path
       id="path6279"
       d="m 403.83203,553.79102 h 56.71875 L 435.24609,461.8457 Z"
       style="fill:#374845;fill-opacity:1;fill-rule:evenodd;stroke:none;stroke-width:1px;stroke-linecap:butt;stroke-linejoin:miter;stroke-opacity:1" />
    <path
       id="path7095"
       d="m 422.64062,416.03516 -13.1914,22.77734 9.43164,70.92969 16.36523,-47.89649 z"
       style="fill:#30423f;fill-opacity:1;fill-rule:evenodd;stroke:none;stroke-width:1px;stroke-linecap:butt;stroke-linejoin:miter;stroke-opacity:1" />
    <path
       id="path7097"
       d="m 409.45117,438.80859 -66.59375,114.98243 h 0.44531 l 71.87891,-71.88086 z"
       style="fill:#374845;fill-opacity:1;fill-rule:evenodd;stroke:none;stroke-width:1px;stroke-linecap:butt;stroke-linejoin:miter;stroke-opacity:1" />
    <path
       id="path7099"
       d="m 343.30078,553.79102 h 60.53125 l 15.04883,-44.04883 -3.69922,-27.83203 z"
       style="fill:#445653;fill-opacity:1;fill-rule:evenodd;stroke:none;stroke-width:1px;stroke-linecap:butt;stroke-linejoin:miter;stroke-opacity:1" />
    <path
       id="path7101"
       d="m 447.63556,393.32311 -24.99689,22.714 28.36524,103.06641 34.58984,-68.43164 z"
       style="fill:#50625f;fill-opacity:1;fill-rule:evenodd;stroke:none;stroke-width:1px;stroke-linecap:butt;stroke-linejoin:miter;stroke-opacity:1" />
    <path
       id="path7103"
       d="m 460.55078,553.79102 h 56.67969 l 16.48242,-30.41407 -48.11914,-72.70507 -34.58984,68.43164 z"
       style="fill:#30423f;fill-opacity:1;fill-rule:evenodd;stroke:none;stroke-width:1px;stroke-linecap:butt;stroke-linejoin:miter;stroke-opacity:1" />
    <path
       id="path7107"
       d="m 517.23047,553.79102 h 36.61328 l -20.13086,-30.41407 z"
       style="fill:#374845;fill-opacity:1;fill-rule:evenodd;stroke:none;stroke-width:1px;stroke-linecap:butt;stroke-linejoin:miter;stroke-opacity:1" />
    <path
       id="path7109"
       d="m 553.84375,553.79102 h 29.01367 l -19.05078,-32.91797 -19.10547,19.10547 z"
       style="fill:#30423f;fill-opacity:1;fill-rule:evenodd;stroke:none;stroke-width:1px;stroke-linecap:butt;stroke-linejoin:miter;stroke-opacity:1" />
    <path
       id="path7111"
       d="m 477.76758,407.36133 -23.622,-4.20234 90.55559,136.81953 19.10547,-19.10547 -65.38867,-112.98633 -9.93555,16.43945 z"
       style="fill:#445653;fill-opacity:1;fill-rule:evenodd;stroke:none;stroke-width:1px;stroke-linecap:butt;stroke-linejoin:miter;stroke-opacity:1" />
    <path
       id="path6255"
       d="m 498.41797,407.88672 -35.51563,-61.36914 -40.26367,69.52148 5.84375,6.85938 9.10742,-15.625 10.44532,17.14258 10,-17.76758 10.17968,17.76758 9.55274,-17.05469 10.71484,16.96484 z"
       style="fill:#e6e6e6;fill-opacity:1;fill-rule:evenodd;stroke:none;stroke-width:1px;stroke-linecap:butt;stroke-linejoin:miter;stroke-opacity:1" />
  </g>
  <path
     style="fill:none;fill-rule:evenodd;stroke:#ec4728;stroke-width:0.543689px;stroke-linecap:butt;stroke-linejoin:miter;stroke-opacity:1"
     d="m 167.69856,47.361445 14.97153,-25.931449 h 66.1813"
     id="path7351" />
  <path
     style="-inkscape-font-specification:Lato;fill:#ec4728;stroke-width:0.679148px"
     d="m 192.35088,6.4470425 q 0.62908,0 1.16139,0.1797393 0.5323,0.1797393 0.91252,0.5115657 0.38713,0.3318264 0.60144,0.8019138 0.2143,0.4700874 0.2143,1.0438706 0,0.4700874 -0.12443,0.8433921 -0.11752,0.366392 -0.34566,0.649827 -0.22121,0.276522 -0.53921,0.470087 -0.318,0.193566 -0.71205,0.311087 0.96783,0.255783 1.45174,0.857219 0.49083,0.601435 0.49083,1.507045 0,0.684392 -0.2627,1.230523 -0.25578,0.54613 -0.70513,0.933261 -0.44935,0.380218 -1.05078,0.58761 -0.59452,0.200478 -1.27892,0.200478 -0.78808,0 -1.34804,-0.193565 -0.55996,-0.200479 -0.94709,-0.546131 -0.38713,-0.345653 -0.636,-0.81574 -0.24887,-0.477001 -0.42169,-1.030045 l 0.5323,-0.221217 q 0.20739,-0.08987 0.40096,-0.04839 0.20048,0.04148 0.29035,0.228131 0.0899,0.193565 0.22121,0.463174 0.13826,0.269609 0.37331,0.518479 0.23504,0.24887 0.59452,0.421696 0.36639,0.172826 0.92635,0.172826 0.51848,0 0.90561,-0.165913 0.39404,-0.172826 0.64983,-0.442435 0.26269,-0.269609 0.39404,-0.601435 0.13135,-0.331827 0.13135,-0.65674 0,-0.400957 -0.1037,-0.732783 -0.10369,-0.331827 -0.38713,-0.573784 -0.28343,-0.241956 -0.78117,-0.380217 -0.49083,-0.138261 -1.26509,-0.138261 v -0.891784 q 0.636,-0.0069 1.07843,-0.138261 0.44935,-0.131348 0.72587,-0.359479 0.28344,-0.22813 0.40787,-0.5461305 0.13135,-0.3180003 0.13135,-0.7051311 0,-0.4286091 -0.13826,-0.7466094 -0.13135,-0.3180003 -0.36639,-0.5253918 -0.23504,-0.2073915 -0.55996,-0.3110873 -0.318,-0.1036957 -0.6913,-0.1036957 -0.37331,0 -0.69822,0.1106088 -0.318,0.1106088 -0.56687,0.3110872 -0.24196,0.1935654 -0.40787,0.4631744 -0.16591,0.269609 -0.23505,0.5945223 -0.0899,0.2419568 -0.22813,0.3249134 -0.13134,0.076044 -0.38713,0.041478 l -0.64291,-0.1106088 q 0.0968,-0.6774789 0.3733,-1.1959577 0.27653,-0.5253918 0.69822,-0.8779574 0.42861,-0.3525655 0.97474,-0.5323048 0.55305,-0.1866524 1.18905,-0.1866524 z m 8.01913,0 q 0.62909,0 1.1614,0.1797393 0.5323,0.1797393 0.91252,0.5115657 0.38713,0.3318264 0.60143,0.8019138 0.21431,0.4700874 0.21431,1.0438706 0,0.4700874 -0.12444,0.8433921 -0.11752,0.366392 -0.34565,0.649827 -0.22122,0.276522 -0.53922,0.470087 -0.318,0.193566 -0.71204,0.311087 0.96783,0.255783 1.45174,0.857219 0.49083,0.601435 0.49083,1.507045 0,0.684392 -0.2627,1.230523 -0.25578,0.54613 -0.70513,0.933261 -0.44935,0.380218 -1.05078,0.58761 -0.59453,0.200478 -1.27892,0.200478 -0.78809,0 -1.34804,-0.193565 -0.55996,-0.200479 -0.94709,-0.546131 -0.38713,-0.345653 -0.636,-0.81574 -0.24887,-0.477001 -0.4217,-1.030045 l 0.53231,-0.221217 q 0.20739,-0.08987 0.40095,-0.04839 0.20048,0.04148 0.29035,0.228131 0.0899,0.193565 0.22122,0.463174 0.13826,0.269609 0.37331,0.518479 0.23504,0.24887 0.59452,0.421696 0.36639,0.172826 0.92635,0.172826 0.51847,0 0.90561,-0.165913 0.39404,-0.172826 0.64982,-0.442435 0.2627,-0.269609 0.39405,-0.601435 0.13134,-0.331827 0.13134,-0.65674 0,-0.400957 -0.10369,-0.732783 -0.1037,-0.331827 -0.38713,-0.573784 -0.28344,-0.241956 -0.78118,-0.380217 -0.49082,-0.138261 -1.26509,-0.138261 v -0.891784 q 0.63601,-0.0069 1.07844,-0.138261 0.44935,-0.131348 0.72587,-0.359479 0.28344,-0.22813 0.40787,-0.5461305 0.13135,-0.3180003 0.13135,-0.7051311 0,-0.4286091 -0.13826,-0.7466094 -0.13135,-0.3180003 -0.36639,-0.5253918 -0.23505,-0.2073915 -0.55996,-0.3110873 -0.318,-0.1036957 -0.69131,-0.1036957 -0.3733,0 -0.69821,0.1106088 -0.318,0.1106088 -0.56687,0.3110872 -0.24196,0.1935654 -0.40787,0.4631744 -0.16592,0.269609 -0.23505,0.5945223 -0.0899,0.2419568 -0.22813,0.3249134 -0.13135,0.076044 -0.38713,0.041478 l -0.64291,-0.1106088 q 0.0968,-0.6774789 0.3733,-1.1959577 0.27652,-0.5253918 0.69822,-0.8779574 0.42861,-0.3525655 0.97474,-0.5323048 0.55304,-0.1866524 1.18904,-0.1866524 z m 8.39937,10.0170095 V 9.4611324 h 0.73969 q 0.2627,0 0.32492,0.2557828 l 0.0899,0.7189568 q 0.38713,-0.477 0.87104,-0.7811742 0.48391,-0.3041742 1.11991,-0.3041742 0.70513,0 1.14066,0.3940438 0.44243,0.3940436 0.636,1.0646096 0.15208,-0.380218 0.38713,-0.65674 0.24196,-0.2765216 0.53922,-0.4562609 0.29726,-0.1797393 0.62908,-0.2626959 0.33874,-0.082957 0.6844,-0.082957 0.55304,0 0.98165,0.1797393 0.43552,0.1728262 0.73278,0.5115661 0.30418,0.338739 0.46318,0.836479 0.159,0.490826 0.159,1.126827 v 4.458917 h -1.23744 v -4.458917 q 0,-0.822653 -0.35948,-1.244349 -0.35948,-0.428609 -1.03696,-0.428609 -0.30417,0 -0.58069,0.110608 -0.26961,0.103696 -0.477,0.311088 -0.20739,0.207391 -0.33183,0.525392 -0.11752,0.311087 -0.11752,0.72587 v 4.458917 h -1.23744 v -4.458917 q 0,-0.843392 -0.33874,-1.258175 -0.33874,-0.414783 -0.98856,-0.414783 -0.45626,0 -0.84339,0.24887 -0.38713,0.241956 -0.71205,0.663652 v 5.219353 z m 10.97101,0 z m 3.26987,-7.1135284 q 0.62909,0 1.1614,0.2143045 0.53921,0.2073915 0.92634,0.6083489 0.39405,0.394043 0.61527,0.981653 0.22121,0.580696 0.22121,1.327305 0,0.290348 -0.0622,0.387131 -0.0622,0.09678 -0.23505,0.09678 h -4.68013 q 0.0138,0.663653 0.17974,1.154479 0.16591,0.490827 0.45626,0.822653 0.29035,0.324914 0.6913,0.490827 0.40096,0.159 0.8987,0.159 0.46317,0 0.795,-0.103696 0.33874,-0.110609 0.5807,-0.235044 0.24195,-0.124434 0.40095,-0.22813 0.16592,-0.110609 0.28344,-0.110609 0.15209,0 0.23504,0.117522 l 0.34565,0.449348 q -0.22813,0.276522 -0.54613,0.483914 -0.318,0.200478 -0.68439,0.331826 -0.35948,0.131348 -0.74661,0.193565 -0.38713,0.06913 -0.76735,0.06913 -0.72587,0 -1.34113,-0.241957 -0.60835,-0.24887 -1.0577,-0.718957 -0.44243,-0.477001 -0.6913,-1.175219 -0.24887,-0.698218 -0.24887,-1.603827 0,-0.732784 0.22122,-1.368784 0.22813,-0.636001 0.64982,-1.099175 0.4217,-0.4700876 1.03005,-0.7327835 0.60835,-0.2696089 1.36878,-0.2696089 z m 0.0277,0.9056094 q -0.89179,0 -1.40335,0.518479 -0.51157,0.511566 -0.636,1.424088 h 3.82982 q 0,-0.428609 -0.12443,-0.781174 -0.11752,-0.359479 -0.35257,-0.615262 -0.22813,-0.262696 -0.55995,-0.400957 -0.33183,-0.145174 -0.75352,-0.145174 z m -0.69131,-3.8090905 q 0.22813,0 0.33874,0.076043 0.11061,0.069131 0.20739,0.2281307 l 1.03005,1.6729581 h -0.70514 q -0.14517,0 -0.23504,-0.041478 -0.0899,-0.048391 -0.18665,-0.1520871 L 221.1783,6.4470425 Z m 7.17576,10.1276185 q -0.82957,0 -1.27892,-0.463174 -0.44243,-0.463175 -0.44243,-1.334219 v -4.286091 h -0.8434 q -0.1106,0 -0.18665,-0.06222 -0.076,-0.06913 -0.076,-0.207391 V 9.7307413 l 1.14756,-0.145174 0.28344,-2.1637847 q 0.0207,-0.1036958 0.0899,-0.1659132 0.076,-0.06913 0.19356,-0.06913 h 0.62218 v 2.4126545 h 2.02552 v 0.8917836 h -2.02552 v 4.203134 q 0,0.442436 0.2143,0.65674 0.21431,0.214305 0.55305,0.214305 0.19356,0 0.33182,-0.04839 0.14518,-0.0553 0.24887,-0.117522 0.1037,-0.06222 0.17283,-0.110608 0.076,-0.0553 0.13135,-0.0553 0.0968,0 0.17282,0.117522 l 0.35948,0.587609 q -0.318,0.297262 -0.76735,0.470088 -0.44934,0.165913 -0.92634,0.165913 z m 2.80669,-0.110609 V 9.4611324 h 0.70513 q 0.20048,0 0.27652,0.076043 0.076,0.076044 0.1037,0.2626959 l 0.076,1.0646102 q 0.33183,-0.718958 0.81574,-1.1199146 0.49083,-0.4078699 1.18904,-0.4078699 0.22122,0 0.4217,0.048391 0.20739,0.048391 0.36639,0.1520871 l -0.0899,0.9194361 q -0.0415,0.172826 -0.20739,0.172826 -0.0968,0 -0.28343,-0.04148 -0.18666,-0.04148 -0.4217,-0.04148 -0.33183,0 -0.59452,0.103696 -0.2627,0.09678 -0.47009,0.290348 -0.20048,0.186652 -0.35948,0.463174 -0.159,0.276522 -0.29035,0.636001 v 4.424352 z m 7.61818,-7.1135284 q 0.62909,0 1.16139,0.2143045 0.53922,0.2073915 0.92635,0.6083489 0.39405,0.394043 0.61526,0.981653 0.22122,0.580696 0.22122,1.327305 0,0.290348 -0.0622,0.387131 -0.0622,0.09678 -0.23504,0.09678 h -4.68014 q 0.0138,0.663653 0.17974,1.154479 0.16592,0.490827 0.45626,0.822653 0.29035,0.324914 0.69131,0.490827 0.40096,0.159 0.8987,0.159 0.46317,0 0.795,-0.103696 0.33874,-0.110609 0.58069,-0.235044 0.24196,-0.124434 0.40096,-0.22813 0.16591,-0.110609 0.28344,-0.110609 0.15208,0 0.23504,0.117522 l 0.34565,0.449348 q -0.22813,0.276522 -0.54613,0.483914 -0.318,0.200478 -0.68439,0.331826 -0.35948,0.131348 -0.74661,0.193565 -0.38713,0.06913 -0.76735,0.06913 -0.72587,0 -1.34113,-0.241957 -0.60835,-0.24887 -1.0577,-0.718957 -0.44243,-0.477001 -0.6913,-1.175219 -0.24887,-0.698218 -0.24887,-1.603827 0,-0.732784 0.22122,-1.368784 0.22813,-0.636001 0.64982,-1.099175 0.4217,-0.4700876 1.03005,-0.7327835 0.60834,-0.2696089 1.36878,-0.2696089 z m 0.0276,0.9056094 q -0.89178,0 -1.40335,0.518479 -0.51156,0.511566 -0.636,1.424088 h 3.82983 q 0,-0.428609 -0.12443,-0.781174 -0.11752,-0.359479 -0.35257,-0.615262 -0.22813,-0.262696 -0.55996,-0.400957 -0.33182,-0.145174 -0.75352,-0.145174 z m 8.48232,0.359479 q -0.083,0.152087 -0.25579,0.152087 -0.10369,0 -0.23504,-0.07604 -0.13135,-0.07604 -0.32491,-0.165913 -0.18666,-0.09678 -0.44935,-0.172826 -0.2627,-0.08296 -0.62218,-0.08296 -0.31108,0 -0.55995,0.08296 -0.24887,0.07604 -0.42861,0.214304 -0.17283,0.138261 -0.26961,0.324914 -0.0899,0.179739 -0.0899,0.394044 0,0.269609 0.15209,0.449348 0.159,0.179739 0.41478,0.311087 0.25578,0.131348 0.5807,0.235044 0.32491,0.09678 0.66365,0.214304 0.34565,0.110609 0.67056,0.24887 0.32492,0.138261 0.5807,0.345653 0.25578,0.207391 0.40787,0.511565 0.159,0.297262 0.159,0.718958 0,0.483913 -0.17283,0.898696 -0.17282,0.40787 -0.51156,0.712044 -0.33874,0.297261 -0.82957,0.470088 -0.49082,0.172826 -1.13374,0.172826 -0.73278,0 -1.3273,-0.235044 -0.59453,-0.241956 -1.00931,-0.615261 l 0.29035,-0.470088 q 0.0553,-0.08987 0.13135,-0.138261 0.076,-0.04839 0.19356,-0.04839 0.12444,0 0.2627,0.09678 0.13826,0.09678 0.33182,0.214304 0.20048,0.117522 0.48392,0.214305 0.28343,0.09678 0.70513,0.09678 0.35948,0 0.62909,-0.08987 0.26961,-0.09678 0.44935,-0.255783 0.17973,-0.159 0.26269,-0.366392 0.0899,-0.207391 0.0899,-0.442435 0,-0.290348 -0.159,-0.477 -0.15209,-0.193566 -0.40787,-0.324914 -0.25578,-0.138261 -0.58761,-0.235043 -0.32491,-0.103696 -0.67056,-0.214305 -0.33874,-0.110609 -0.67057,-0.24887 -0.32491,-0.145174 -0.5807,-0.359478 -0.25578,-0.214305 -0.41478,-0.525392 -0.15209,-0.318 -0.15209,-0.767349 0,-0.400957 0.16592,-0.767348 0.16591,-0.373305 0.48391,-0.649827 0.318,-0.283435 0.78117,-0.4493482 0.46318,-0.1659132 1.0577,-0.1659132 0.69131,0 1.23744,0.2212176 0.55304,0.2143045 0.954,0.5945218 z"
     id="text7353"
     aria-label="33 mètres" />
  <circle
     style="fill:#ec4728;fill-opacity:1;stroke:none;stroke-width:0.543689"
     id="path7377"
     cx="167.69858"
     cy="47.361443"
     r="2.0532346" />
  <path
     id="path6373"
     d="M 111.96944,96.056694 97.52383,71.03616 H 45.234391"
     style="fill:none;fill-rule:evenodd;stroke:#ec4728;stroke-width:0.543689px;stroke-linecap:butt;stroke-linejoin:miter;stroke-opacity:1" />
  <circle
     r="2.0838726"
     cy="96.056694"
     cx="111.96944"
     id="circle6375"
     style="fill:#ec4728;fill-opacity:1;stroke:none;stroke-width:0.543689" />
  <path
     d="m 47.164516,57.125635 q 0.08509,0 0.143992,0.01309 0.0589,0.0065 0.10472,0.03273 0.04582,0.01964 0.09163,0.06545 0.04581,0.03927 0.09818,0.104721 l 5.425846,7.062109 q -0.01309,-0.170171 -0.02618,-0.327253 -0.0065,-0.163626 -0.0065,-0.307617 v -6.643226 h 1.112659 v 9.379057 h -0.63487 q -0.150536,0 -0.255257,-0.05236 -0.09818,-0.05236 -0.196352,-0.176717 L 47.59649,59.213506 q 0.01309,0.163626 0.01963,0.320708 0.0065,0.157081 0.0065,0.287982 v 6.682496 h -1.112659 v -9.379057 h 0.654505 z m 11.656749,2.6442 q 0.726501,0 1.30901,0.242167 0.58251,0.242167 0.994848,0.687231 0.412338,0.445063 0.628325,1.079933 0.222531,0.628325 0.222531,1.407186 0,0.785406 -0.222531,1.41373 -0.215987,0.628325 -0.628325,1.073389 -0.412338,0.445063 -0.994848,0.68723 -0.582509,0.235622 -1.30901,0.235622 -0.733045,0 -1.3221,-0.235622 -0.582509,-0.242167 -0.994847,-0.68723 -0.412339,-0.445064 -0.63487,-1.073389 -0.215987,-0.628324 -0.215987,-1.41373 0,-0.778861 0.215987,-1.407186 0.222531,-0.63487 0.63487,-1.079933 0.412338,-0.445064 0.994847,-0.687231 0.589055,-0.242167 1.3221,-0.242167 z m 0,5.916726 q 0.981758,0 1.466092,-0.654505 0.484333,-0.66105 0.484333,-1.839159 0,-1.184654 -0.484333,-1.845704 -0.484334,-0.661051 -1.466092,-0.661051 -0.497424,0 -0.870491,0.170172 -0.366523,0.170171 -0.615235,0.490879 -0.242167,0.320707 -0.366523,0.791951 -0.117811,0.464698 -0.117811,1.053753 0,1.178109 0.484334,1.839159 0.490879,0.654505 1.485726,0.654505 z m 4.627344,0.818131 v -6.630136 h 0.667595 q 0.189806,0 0.261802,0.072 0.072,0.072 0.09818,0.248712 l 0.072,1.007937 q 0.314163,-0.680685 0.772316,-1.060298 0.464699,-0.386158 1.125749,-0.386158 0.209441,0 0.399248,0.04582 0.196351,0.04582 0.346888,0.143991 l -0.08509,0.870492 q -0.03927,0.163626 -0.196352,0.163626 -0.09163,0 -0.268347,-0.03927 -0.176716,-0.03927 -0.399248,-0.03927 -0.314162,0 -0.562874,0.09818 -0.248712,0.09163 -0.445063,0.274892 -0.189807,0.176716 -0.340343,0.438518 -0.150536,0.261802 -0.274892,0.602145 v 4.188832 z m 9.30051,0 q -0.248712,0 -0.314163,-0.242167 l -0.104721,-0.805041 q -0.425428,0.517059 -0.975212,0.831221 -0.543239,0.307618 -1.250105,0.307618 -0.569419,0 -1.034118,-0.215987 -0.464698,-0.222532 -0.791951,-0.64796 -0.327252,-0.425428 -0.503969,-1.060298 -0.176716,-0.63487 -0.176716,-1.459546 0,-0.733046 0.196352,-1.361371 0.196351,-0.634869 0.562874,-1.099568 0.366523,-0.464699 0.896672,-0.726501 0.536694,-0.268347 1.204289,-0.268347 0.60869,0 1.040663,0.209442 0.438518,0.202897 0.778861,0.575964 v -3.678318 h 1.165019 v 9.640859 z m -2.264588,-0.850856 q 0.575965,0 1.001393,-0.261802 0.431973,-0.261802 0.791951,-0.739591 v -3.20053 q -0.327253,-0.431973 -0.706865,-0.608689 -0.379613,-0.176717 -0.850857,-0.176717 -0.922852,0 -1.420276,0.66105 -0.497424,0.66105 -0.497424,1.884975 0,0.64796 0.111266,1.112658 0.111266,0.458154 0.327253,0.759226 0.215986,0.294527 0.530149,0.431974 0.314162,0.137446 0.71341,0.137446 z m 4.69934,-3.567053 h 3.233255 v 0.988303 h -3.233255 z m 11.021863,-4.961148 v 1.034118 h -4.50954 v 3.115444 h 3.652138 v 0.994848 h -3.652138 v 3.200529 h 4.516085 l -0.0065,1.034118 h -5.77928 v -9.379057 z m 5.262223,3.841945 q -0.07854,0.143991 -0.242167,0.143991 -0.09818,0 -0.222532,-0.072 -0.124356,-0.072 -0.307617,-0.157081 -0.176717,-0.09163 -0.425428,-0.163626 -0.248712,-0.07854 -0.589055,-0.07854 -0.294527,0 -0.530149,0.07854 -0.235622,0.072 -0.405793,0.202896 -0.163626,0.130901 -0.255257,0.307618 -0.08509,0.170171 -0.08509,0.373068 0,0.255256 0.143991,0.425428 0.150537,0.170171 0.392703,0.294527 0.242167,0.124356 0.549785,0.222532 0.307617,0.09163 0.628324,0.202896 0.327253,0.104721 0.63487,0.235622 0.307618,0.130901 0.549784,0.327253 0.242167,0.196351 0.386158,0.484333 0.150537,0.281437 0.150537,0.680686 0,0.458153 -0.163627,0.850856 -0.163626,0.386158 -0.484333,0.67414 -0.320708,0.281437 -0.785406,0.445064 -0.464699,0.163626 -1.073389,0.163626 -0.693775,0 -1.256649,-0.222532 -0.562875,-0.229077 -0.955578,-0.582509 l 0.274893,-0.445064 q 0.05236,-0.08508 0.124356,-0.130901 0.072,-0.04582 0.183261,-0.04582 0.117811,0 0.248712,0.09163 0.130901,0.09163 0.314162,0.202896 0.189807,0.111266 0.458154,0.202897 0.268347,0.09163 0.667595,0.09163 0.340342,0 0.595599,-0.08509 0.255257,-0.09163 0.425429,-0.242167 0.170171,-0.150536 0.248712,-0.346888 0.08509,-0.196351 0.08509,-0.418883 0,-0.274892 -0.150536,-0.451608 -0.143991,-0.183262 -0.386158,-0.307618 -0.242167,-0.130901 -0.556329,-0.222531 -0.307618,-0.09818 -0.63487,-0.202897 -0.320707,-0.104721 -0.63487,-0.235622 -0.307617,-0.137446 -0.549784,-0.340342 -0.242167,-0.202897 -0.392703,-0.497424 -0.143991,-0.301073 -0.143991,-0.726501 0,-0.379613 0.157081,-0.7265 0.157081,-0.353433 0.458154,-0.615235 0.301072,-0.268347 0.73959,-0.425428 0.438519,-0.157082 1.001393,-0.157082 0.654505,0 1.171564,0.209442 0.523604,0.202897 0.903217,0.562874 z m 3.841949,5.641833 q -0.785406,0 -1.210834,-0.438518 -0.418883,-0.438519 -0.418883,-1.263195 v -4.057931 h -0.798497 q -0.10472,0 -0.176716,-0.05891 -0.072,-0.06545 -0.072,-0.196351 v -0.464699 l 1.086478,-0.137446 0.268347,-2.048601 q 0.01963,-0.09817 0.08509,-0.157081 0.072,-0.06545 0.183261,-0.06545 h 0.589055 v 2.284222 h 1.917699 v 0.844312 h -1.917699 v 3.97939 q 0,0.418883 0.202896,0.62178 0.202897,0.202897 0.523604,0.202897 0.183262,0 0.314163,-0.04582 0.137446,-0.05236 0.235621,-0.111266 0.09818,-0.0589 0.163627,-0.10472 0.072,-0.05236 0.124356,-0.05236 0.09163,0 0.163626,0.111266 l 0.340342,0.556329 q -0.301072,0.281437 -0.7265,0.445064 -0.425428,0.157081 -0.877037,0.157081 z"
     id="text6377"
     style="-inkscape-font-specification:Lato;fill:#ec4728;stroke-width:0.643247px"
     aria-label="Nord-Est" />
  <path
     id="path7183"
     d="m 157.07836,23.616479 c -11.06061,-3.651315 -2.83613,-21.017914 10.22902,-8.032185 6.36167,-5.831434 12.72335,-5.907915 19.08502,-0.20595 4.19781,-3.627931 9.87443,-8.372301 19.42828,0.137298 3.91643,-4.401569 11.41372,-8.285691 19.85111,0.131921 6.70067,-7.044693 13.288,-5.816118 19.80584,0.485438 11.37906,0.902661 2.47996,22.291263 -10.09709,7.378644 -5.54308,5.219152 -11.46859,8.597878 -19.90292,-0.09709 -5.97573,5.5181 -12.26517,7.764543 -19.51457,0 -5.1647,4.815207 -10.56087,8.762431 -19.32039,0.09709 -6.49004,7.113198 -13.0788,6.542346 -19.5643,0.104834 z"
     style="fill:#ffffff;fill-opacity:0.592417;fill-rule:evenodd;stroke:none;stroke-width:1px;stroke-linecap:butt;stroke-linejoin:miter;stroke-opacity:1" />
  <g
     transform="matrix(0.65850503,0,0,0.65850503,32.233561,16.000453)"
     id="use7144">
    <ellipse
       style="fill:#000000;fill-opacity:0.187192;stroke:none"
       id="ellipse9979"
       cx="290.37888"
       cy="127.85368"
       rx="4.5456862"
       ry="1.0688003" />
    <path
       style="fill:#502d16;fill-rule:evenodd;stroke:none;stroke-width:1px;stroke-linecap:butt;stroke-linejoin:miter;stroke-opacity:1"
       d="m 288.95134,127.85368 h 2.85506 v -5.2864 h -2.85506 z"
       id="path9981" />
    <path
       style="fill:#16502d;fill-rule:evenodd;stroke:none;stroke-width:1px;stroke-linecap:butt;stroke-linejoin:miter;stroke-opacity:1"
       d="m 290.37877,88.135437 -8.41855,28.782353 h 1.6947 l -1.85636,5.60903 h 1.74525 l -0.77962,1.93689 h 7.61458 z"
       id="path9983" />
    <path
       style="fill:#217844;fill-rule:evenodd;stroke:none;stroke-width:1px;stroke-linecap:butt;stroke-linejoin:miter;stroke-opacity:1"
       d="m 290.37877,88.135437 v 36.328273 h 7.60209 l -0.80708,-2.09793 h 1.73526 l -1.73526,-5.40742 h 1.69469 z"
       id="path9985" />
  </g>
  <g
     transform="matrix(0.81626394,0,0,0.81626394,-83.897126,19.317604)"
     id="use7148">
    <ellipse
       style="fill:#000000;fill-opacity:0.187192;stroke:none"
       id="ellipse9949"
       cx="290.37888"
       cy="127.85368"
       rx="4.5456862"
       ry="1.0688003" />
    <path
       style="fill:#502d16;fill-rule:evenodd;stroke:none;stroke-width:1px;stroke-linecap:butt;stroke-linejoin:miter;stroke-opacity:1"
       d="m 288.95134,127.85368 h 2.85506 v -5.2864 h -2.85506 z"
       id="path9951" />
    <path
       style="fill:#16502d;fill-rule:evenodd;stroke:none;stroke-width:1px;stroke-linecap:butt;stroke-linejoin:miter;stroke-opacity:1"
       d="m 290.37877,88.135437 -8.41855,28.782353 h 1.6947 l -1.85636,5.60903 h 1.74525 l -0.77962,1.93689 h 7.61458 z"
       id="path9953" />
    <path
       style="fill:#217844;fill-rule:evenodd;stroke:none;stroke-width:1px;stroke-linecap:butt;stroke-linejoin:miter;stroke-opacity:1"
       d="m 290.37877,88.135437 v 36.328273 h 7.60209 l -0.80708,-2.09793 h 1.73526 l -1.73526,-5.40742 h 1.69469 z"
       id="path9955" />
  </g>
  <g
     transform="matrix(0.38083742,0,0,0.38083742,127.31267,33.865117)"
     id="use7150">
    <ellipse
       style="fill:#000000;fill-opacity:0.187192;stroke:none"
       id="ellipse9969"
       cx="290.37888"
       cy="127.85368"
       rx="4.5456862"
       ry="1.0688003" />
    <path
       style="fill:#502d16;fill-rule:evenodd;stroke:none;stroke-width:1px;stroke-linecap:butt;stroke-linejoin:miter;stroke-opacity:1"
       d="m 288.95134,127.85368 h 2.85506 v -5.2864 h -2.85506 z"
       id="path9971" />
    <path
       style="fill:#16502d;fill-rule:evenodd;stroke:none;stroke-width:1px;stroke-linecap:butt;stroke-linejoin:miter;stroke-opacity:1"
       d="m 290.37877,88.135437 -8.41855,28.782353 h 1.6947 l -1.85636,5.60903 h 1.74525 l -0.77962,1.93689 h 7.61458 z"
       id="path9973" />
    <path
       style="fill:#217844;fill-rule:evenodd;stroke:none;stroke-width:1px;stroke-linecap:butt;stroke-linejoin:miter;stroke-opacity:1"
       d="m 290.37877,88.135437 v 36.328273 h 7.60209 l -0.80708,-2.09793 h 1.73526 l -1.73526,-5.40742 h 1.69469 z"
       id="path9975" />
  </g>
  <g
     transform="matrix(0.62850245,0,0,0.62850245,-91.989039,38.387672)"
     id="use7154">
    <ellipse
       style="fill:#000000;fill-opacity:0.187192;stroke:none"
       id="ellipse9939"
       cx="290.37888"
       cy="127.85368"
       rx="4.5456862"
       ry="1.0688003" />
    <path
       style="fill:#502d16;fill-rule:evenodd;stroke:none;stroke-width:1px;stroke-linecap:butt;stroke-linejoin:miter;stroke-opacity:1"
       d="m 288.95134,127.85368 h 2.85506 v -5.2864 h -2.85506 z"
       id="path9941" />
    <path
       style="fill:#16502d;fill-rule:evenodd;stroke:none;stroke-width:1px;stroke-linecap:butt;stroke-linejoin:miter;stroke-opacity:1"
       d="m 290.37877,88.135437 -8.41855,28.782353 h 1.6947 l -1.85636,5.60903 h 1.74525 l -0.77962,1.93689 h 7.61458 z"
       id="path9943" />
    <path
       style="fill:#217844;fill-rule:evenodd;stroke:none;stroke-width:1px;stroke-linecap:butt;stroke-linejoin:miter;stroke-opacity:1"
       d="m 290.37877,88.135437 v 36.328273 h 7.60209 l -0.80708,-2.09793 h 1.73526 l -1.73526,-5.40742 h 1.69469 z"
       id="path9945" />
  </g>
  <g
     transform="matrix(0.62850245,0,0,0.62850245,-115.72762,28.033608)"
     id="use7156">
    <ellipse
       style="fill:#000000;fill-opacity:0.187192;stroke:none"
       id="ellipse9929"
       cx="290.37888"
       cy="127.85368"
       rx="4.5456862"
       ry="1.0688003" />
    <path
       style="fill:#502d16;fill-rule:evenodd;stroke:none;stroke-width:1px;stroke-linecap:butt;stroke-linejoin:miter;stroke-opacity:1"
       d="m 288.95134,127.85368 h 2.85506 v -5.2864 h -2.85506 z"
       id="path9931" />
    <path
       style="fill:#16502d;fill-rule:evenodd;stroke:none;stroke-width:1px;stroke-linecap:butt;stroke-linejoin:miter;stroke-opacity:1"
       d="m 290.37877,88.135437 -8.41855,28.782353 h 1.6947 l -1.85636,5.60903 h 1.74525 l -0.77962,1.93689 h 7.61458 z"
       id="path9933" />
    <path
       style="fill:#217844;fill-rule:evenodd;stroke:none;stroke-width:1px;stroke-linecap:butt;stroke-linejoin:miter;stroke-opacity:1"
       d="m 290.37877,88.135437 v 36.328273 h 7.60209 l -0.80708,-2.09793 h 1.73526 l -1.73526,-5.40742 h 1.69469 z"
       id="path9935" />
  </g>
  <g
     transform="matrix(0.39760939,0,0,0.39760939,-73.814583,35.860735)"
     id="use7158">
    <ellipse
       style="fill:#000000;fill-opacity:0.187192;stroke:none"
       id="ellipse9909"
       cx="290.37888"
       cy="127.85368"
       rx="4.5456862"
       ry="1.0688003" />
    <path
       style="fill:#502d16;fill-rule:evenodd;stroke:none;stroke-width:1px;stroke-linecap:butt;stroke-linejoin:miter;stroke-opacity:1"
       d="m 288.95134,127.85368 h 2.85506 v -5.2864 h -2.85506 z"
       id="path9911" />
    <path
       style="fill:#16502d;fill-rule:evenodd;stroke:none;stroke-width:1px;stroke-linecap:butt;stroke-linejoin:miter;stroke-opacity:1"
       d="m 290.37877,88.135437 -8.41855,28.782353 h 1.6947 l -1.85636,5.60903 h 1.74525 l -0.77962,1.93689 h 7.61458 z"
       id="path9913" />
    <path
       style="fill:#217844;fill-rule:evenodd;stroke:none;stroke-width:1px;stroke-linecap:butt;stroke-linejoin:miter;stroke-opacity:1"
       d="m 290.37877,88.135437 v 36.328273 h 7.60209 l -0.80708,-2.09793 h 1.73526 l -1.73526,-5.40742 h 1.69469 z"
       id="path9915" />
  </g>
  <g
     transform="matrix(0.76995431,0,0,0.76995431,17.494836,16.531889)"
     id="use7160">
    <ellipse
       style="fill:#000000;fill-opacity:0.187192;stroke:none"
       id="ellipse9899"
       cx="290.37888"
       cy="127.85368"
       rx="4.5456862"
       ry="1.0688003" />
    <path
       style="fill:#502d16;fill-rule:evenodd;stroke:none;stroke-width:1px;stroke-linecap:butt;stroke-linejoin:miter;stroke-opacity:1"
       d="m 288.95134,127.85368 h 2.85506 v -5.2864 h -2.85506 z"
       id="path9901" />
    <path
       style="fill:#16502d;fill-rule:evenodd;stroke:none;stroke-width:1px;stroke-linecap:butt;stroke-linejoin:miter;stroke-opacity:1"
       d="m 290.37877,88.135437 -8.41855,28.782353 h 1.6947 l -1.85636,5.60903 h 1.74525 l -0.77962,1.93689 h 7.61458 z"
       id="path9903" />
    <path
       style="fill:#217844;fill-rule:evenodd;stroke:none;stroke-width:1px;stroke-linecap:butt;stroke-linejoin:miter;stroke-opacity:1"
       d="m 290.37877,88.135437 v 36.328273 h 7.60209 l -0.80708,-2.09793 h 1.73526 l -1.73526,-5.40742 h 1.69469 z"
       id="path9905" />
  </g>
  <g
     transform="matrix(0.45641369,0,0,0.45641369,133.79457,35.485849)"
     id="use7162">
    <ellipse
       style="fill:#000000;fill-opacity:0.187192;stroke:none"
       id="ellipse9959"
       cx="290.37888"
       cy="127.85368"
       rx="4.5456862"
       ry="1.0688003" />
    <path
       style="fill:#502d16;fill-rule:evenodd;stroke:none;stroke-width:1px;stroke-linecap:butt;stroke-linejoin:miter;stroke-opacity:1"
       d="m 288.95134,127.85368 h 2.85506 v -5.2864 h -2.85506 z"
       id="path9961" />
    <path
       style="fill:#16502d;fill-rule:evenodd;stroke:none;stroke-width:1px;stroke-linecap:butt;stroke-linejoin:miter;stroke-opacity:1"
       d="m 290.37877,88.135437 -8.41855,28.782353 h 1.6947 l -1.85636,5.60903 h 1.74525 l -0.77962,1.93689 h 7.61458 z"
       id="path9963" />
    <path
       style="fill:#217844;fill-rule:evenodd;stroke:none;stroke-width:1px;stroke-linecap:butt;stroke-linejoin:miter;stroke-opacity:1"
       d="m 290.37877,88.135437 v 36.328273 h 7.60209 l -0.80708,-2.09793 h 1.73526 l -1.73526,-5.40742 h 1.69469 z"
       id="path9965" />
  </g>
  <g
     transform="matrix(0.6897964,0,0,0.6897964,-167.26323,25.488579)"
     id="use7200">
    <ellipse
       style="fill:#000000;fill-opacity:0.187192;stroke:none"
       id="ellipse9919"
       cx="290.37888"
       cy="127.85368"
       rx="4.5456862"
       ry="1.0688003" />
    <path
       style="fill:#502d16;fill-rule:evenodd;stroke:none;stroke-width:1px;stroke-linecap:butt;stroke-linejoin:miter;stroke-opacity:1"
       d="m 288.95134,127.85368 h 2.85506 v -5.2864 h -2.85506 z"
       id="path9921" />
    <path
       style="fill:#16502d;fill-rule:evenodd;stroke:none;stroke-width:1px;stroke-linecap:butt;stroke-linejoin:miter;stroke-opacity:1"
       d="m 290.37877,88.135437 -8.41855,28.782353 h 1.6947 l -1.85636,5.60903 h 1.74525 l -0.77962,1.93689 h 7.61458 z"
       id="path9923" />
    <path
       style="fill:#217844;fill-rule:evenodd;stroke:none;stroke-width:1px;stroke-linecap:butt;stroke-linejoin:miter;stroke-opacity:1"
       d="m 290.37877,88.135437 v 36.328273 h 7.60209 l -0.80708,-2.09793 h 1.73526 l -1.73526,-5.40742 h 1.69469 z"
       id="path9925" />
  </g>
</svg>
